<svg width="48" height="48" viewBox="0 0 48 48" fill="none" xmlns="http://www.w3.org/2000/svg">
<g clip-path="url(#clip0_10_14)">
<rect width="48" height="48" rx="10" fill="url(#paint0_linear_10_14)"/>
<path fill-rule="evenodd" clip-rule="evenodd" d="M7 9.5C5.61929 9.5 4.5 10.6193 4.5 12V30C4.5 31.3807 5.61929 32.5 7 32.5H18V37.5H5C4.72386 37.5 4.5 37.7239 4.5 38C4.5 38.2761 4.72386 38.5 5 38.5H43V37.5H30V32.5H41C42.3807 32.5 43.5 31.3807 43.5 30V12C43.5 10.6193 42.3807 9.5 41 9.5H7ZM5.5 12C5.5 11.1716 6.17157 10.5 7 10.5H41C41.8284 10.5 42.5 11.1716 42.5 12V30C42.5 30.8284 41.8284 31.5 41 31.5H7C6.17157 31.5 5.5 30.8284 5.5 30V12ZM12.383 16.8182V27H14.5357V22.794H18.677V21.0192H14.5357V18.593H19.1245V16.8182H12.383ZM21.4238 26.6719C21.9906 26.9901 22.6667 27.1491 23.4522 27.1491C24.082 27.1491 24.6371 27.053 25.1177 26.8608C25.6016 26.6652 25.996 26.3935 26.301 26.0455C26.6092 25.6941 26.813 25.2831 26.9125 24.8125L24.9537 24.6832C24.8807 24.8755 24.7747 25.0379 24.6355 25.1705C24.4963 25.303 24.3289 25.4025 24.1333 25.4688C23.9378 25.535 23.7224 25.5682 23.487 25.5682C23.1324 25.5682 22.8258 25.4936 22.5673 25.3445C22.3088 25.1953 22.1082 24.9832 21.9657 24.7081C21.8265 24.433 21.7569 24.1065 21.7569 23.7287V23.7237H26.9572V23.142C26.9572 22.4924 26.8661 21.9257 26.6838 21.4418C26.5015 20.9545 26.2463 20.5502 25.9181 20.2287C25.5933 19.9072 25.2122 19.6669 24.7747 19.5078C24.3405 19.3454 23.8715 19.2642 23.3677 19.2642C22.6187 19.2642 21.9657 19.4299 21.4089 19.7614C20.8554 20.0928 20.4262 20.5552 20.1213 21.1484C19.8163 21.7417 19.6639 22.4311 19.6639 23.2166C19.6639 24.022 19.8163 24.7197 20.1213 25.3097C20.4262 25.8963 20.8604 26.3504 21.4238 26.6719ZM21.7589 22.4112C21.7717 22.137 21.8423 21.8868 21.9707 21.6605C22.1099 21.4119 22.3021 21.2147 22.5474 21.0689C22.796 20.9197 23.081 20.8452 23.4025 20.8452C23.7108 20.8452 23.9809 20.9131 24.2129 21.049C24.4482 21.1816 24.6322 21.3655 24.7647 21.6009C24.8973 21.8362 24.9636 22.1063 24.9636 22.4112H21.7589ZM32.4508 20.2884L30.3976 16.8182H27.9565L31.0836 21.9091L27.8968 27H30.3627L32.4508 23.5249H32.5304L34.6184 27H37.0943L33.9174 21.9091L37.0247 16.8182H34.5936L32.5304 20.2884H32.4508Z" fill="url(#paint1_linear_10_14)"/>
<mask id="path-3-outside-1_10_14" maskUnits="userSpaceOnUse" x="26.15" y="25.4" width="21" height="22" fill="black">
<rect fill="white" x="26.15" y="25.4" width="21" height="22"/>
<path fill-rule="evenodd" clip-rule="evenodd" d="M43.6231 36.936C43.6591 36.636 43.6831 36.324 43.6831 36C43.6831 35.676 43.6591 35.364 43.6111 35.064L45.6391 33.48C45.8191 33.336 45.8671 33.072 45.7591 32.868L43.8391 29.544C43.7191 29.328 43.4671 29.256 43.2511 29.328L40.8631 30.288C40.3591 29.904 39.8311 29.592 39.2431 29.352L38.8831 26.808C38.8471 26.568 38.6431 26.4 38.4031 26.4H34.5631C34.3231 26.4 34.1311 26.568 34.0951 26.808L33.7351 29.352C33.1471 29.592 32.6071 29.916 32.1151 30.288L29.7271 29.328C29.5111 29.244 29.2591 29.328 29.1391 29.544L27.2191 32.868C27.0991 33.084 27.1471 33.336 27.3391 33.48L29.3671 35.064C29.3191 35.364 29.2831 35.688 29.2831 36C29.2831 36.312 29.3071 36.636 29.3551 36.936L27.3271 38.52C27.1471 38.664 27.0991 38.928 27.2071 39.132L29.1271 42.456C29.2471 42.672 29.4991 42.744 29.7151 42.672L32.1031 41.712C32.6071 42.096 33.1351 42.408 33.7231 42.648L34.0831 45.192C34.1311 45.432 34.3231 45.6 34.5631 45.6H38.4031C38.6431 45.6 38.8471 45.432 38.8711 45.192L39.2311 42.648C39.8191 42.408 40.3591 42.084 40.8511 41.712L43.2391 42.672C43.4551 42.756 43.7071 42.672 43.8271 42.456L45.7471 39.132C45.8671 38.916 45.8191 38.664 45.6271 38.52L43.6231 36.936ZM36.4831 39.6C34.5031 39.6 32.8831 37.98 32.8831 36C32.8831 34.02 34.5031 32.4 36.4831 32.4C38.4631 32.4 40.0831 34.02 40.0831 36C40.0831 37.98 38.4631 39.6 36.4831 39.6Z"/>
</mask>
<path fill-rule="evenodd" clip-rule="evenodd" d="M43.6231 36.936C43.6591 36.636 43.6831 36.324 43.6831 36C43.6831 35.676 43.6591 35.364 43.6111 35.064L45.6391 33.48C45.8191 33.336 45.8671 33.072 45.7591 32.868L43.8391 29.544C43.7191 29.328 43.4671 29.256 43.2511 29.328L40.8631 30.288C40.3591 29.904 39.8311 29.592 39.2431 29.352L38.8831 26.808C38.8471 26.568 38.6431 26.4 38.4031 26.4H34.5631C34.3231 26.4 34.1311 26.568 34.0951 26.808L33.7351 29.352C33.1471 29.592 32.6071 29.916 32.1151 30.288L29.7271 29.328C29.5111 29.244 29.2591 29.328 29.1391 29.544L27.2191 32.868C27.0991 33.084 27.1471 33.336 27.3391 33.48L29.3671 35.064C29.3191 35.364 29.2831 35.688 29.2831 36C29.2831 36.312 29.3071 36.636 29.3551 36.936L27.3271 38.52C27.1471 38.664 27.0991 38.928 27.2071 39.132L29.1271 42.456C29.2471 42.672 29.4991 42.744 29.7151 42.672L32.1031 41.712C32.6071 42.096 33.1351 42.408 33.7231 42.648L34.0831 45.192C34.1311 45.432 34.3231 45.6 34.5631 45.6H38.4031C38.6431 45.6 38.8471 45.432 38.8711 45.192L39.2311 42.648C39.8191 42.408 40.3591 42.084 40.8511 41.712L43.2391 42.672C43.4551 42.756 43.7071 42.672 43.8271 42.456L45.7471 39.132C45.8671 38.916 45.8191 38.664 45.6271 38.52L43.6231 36.936ZM36.4831 39.6C34.5031 39.6 32.8831 37.98 32.8831 36C32.8831 34.02 34.5031 32.4 36.4831 32.4C38.4631 32.4 40.0831 34.02 40.0831 36C40.0831 37.98 38.4631 39.6 36.4831 39.6Z" fill="url(#paint2_linear_10_14)"/>
<path d="M43.6111 35.064L42.9956 34.2759L42.5304 34.6392L42.6237 35.222L43.6111 35.064ZM45.6391 33.48L46.2547 34.2681L46.2638 34.2609L45.6391 33.48ZM45.7591 32.868L46.6429 32.4001L46.6343 32.3838L46.625 32.3678L45.7591 32.868ZM43.8391 29.544L42.965 30.0296L42.969 30.0369L42.9732 30.0442L43.8391 29.544ZM43.2511 29.328L42.9349 28.3793L42.9062 28.3889L42.8781 28.4002L43.2511 29.328ZM40.8631 30.288L40.2571 31.0834L40.709 31.4277L41.2361 31.2158L40.8631 30.288ZM39.2431 29.352L38.253 29.4921L38.3335 30.0608L38.8652 30.2778L39.2431 29.352ZM38.8831 26.808L39.8733 26.6679L39.8721 26.6597L38.8831 26.808ZM34.0951 26.808L33.1061 26.6597L33.105 26.6679L34.0951 26.808ZM33.7351 29.352L34.113 30.2778L34.6448 30.0608L34.7253 29.4921L33.7351 29.352ZM32.1151 30.288L31.7421 31.2158L32.267 31.4268L32.7182 31.0857L32.1151 30.288ZM29.7271 29.328L30.1001 28.4001L30.0896 28.396L29.7271 29.328ZM29.1391 29.544L30.005 30.0442L30.0092 30.0369L30.0133 30.0296L29.1391 29.544ZM27.2191 32.868L26.3532 32.3678L26.349 32.3751L26.345 32.3824L27.2191 32.868ZM27.3391 33.48L27.9547 32.6919L27.947 32.6859L27.9391 32.68L27.3391 33.48ZM29.3671 35.064L30.3546 35.222L30.4478 34.6392L29.9827 34.2759L29.3671 35.064ZM29.3551 36.936L29.9707 37.7241L30.4358 37.3608L30.3426 36.778L29.3551 36.936ZM27.3271 38.52L26.7115 37.7319L26.7024 37.7391L27.3271 38.52ZM27.2071 39.132L26.3233 39.5999L26.332 39.6162L26.3412 39.6322L27.2071 39.132ZM29.1271 42.456L30.0013 41.9704L29.9972 41.9631L29.993 41.9558L29.1271 42.456ZM29.7151 42.672L30.0313 43.6207L30.06 43.6111L30.0881 43.5998L29.7151 42.672ZM32.1031 41.712L32.7092 40.9166L32.2572 40.5723L31.7301 40.7842L32.1031 41.712ZM33.7231 42.648L34.7133 42.5079L34.6328 41.9392L34.101 41.7222L33.7231 42.648ZM34.0831 45.192L33.093 45.3321L33.097 45.3603L33.1025 45.3881L34.0831 45.192ZM38.8711 45.192L37.881 45.0519L37.8781 45.0721L37.8761 45.0925L38.8711 45.192ZM39.2311 42.648L38.8532 41.7222L38.3215 41.9392L38.241 42.5079L39.2311 42.648ZM40.8511 41.712L41.2241 40.7842L40.6992 40.5732L40.248 40.9143L40.8511 41.712ZM43.2391 42.672L42.8661 43.5999L42.8767 43.604L43.2391 42.672ZM43.8271 42.456L42.9612 41.9558L42.957 41.9631L42.953 41.9704L43.8271 42.456ZM45.7471 39.132L46.613 39.6322L46.6172 39.6249L46.6213 39.6176L45.7471 39.132ZM45.6271 38.52L45.007 39.3045L45.017 39.3124L45.0271 39.32L45.6271 38.52ZM44.616 37.0551C44.6555 36.7262 44.6831 36.3732 44.6831 36H42.6831C42.6831 36.2748 42.6628 36.5458 42.6302 36.8169L44.616 37.0551ZM44.6831 36C44.6831 35.6266 44.6554 35.2616 44.5986 34.906L42.6237 35.222C42.6628 35.4664 42.6831 35.7254 42.6831 36H44.6831ZM44.2267 35.8521L46.2547 34.2681L45.0236 32.6919L42.9956 34.2759L44.2267 35.8521ZM46.2638 34.2609C46.8391 33.8007 46.9633 33.0053 46.6429 32.4001L44.8753 33.3359C44.771 33.1387 44.7992 32.8713 45.0144 32.6991L46.2638 34.2609ZM46.625 32.3678L44.705 29.0438L42.9732 30.0442L44.8932 33.3682L46.625 32.3678ZM44.7133 29.0584C44.3262 28.3616 43.5389 28.178 42.9349 28.3793L43.5673 30.2767C43.3953 30.334 43.112 30.2944 42.965 30.0296L44.7133 29.0584ZM42.8781 28.4002L40.4901 29.3602L41.2361 31.2158L43.6241 30.2558L42.8781 28.4002ZM41.4692 29.4926C40.9029 29.0611 40.299 28.7029 39.621 28.4262L38.8652 30.2778C39.3632 30.4811 39.8153 30.7469 40.2571 31.0834L41.4692 29.4926ZM40.2333 29.2119L39.8733 26.6679L37.893 26.9481L38.253 29.4921L40.2333 29.2119ZM39.8721 26.6597C39.7598 25.911 39.1185 25.4 38.4031 25.4V27.4C38.1677 27.4 37.9345 27.225 37.8942 26.9563L39.8721 26.6597ZM38.4031 25.4H34.5631V27.4H38.4031V25.4ZM34.5631 25.4C33.8166 25.4 33.2139 25.9416 33.1062 26.6597L35.0841 26.9563C35.0678 27.0644 35.0113 27.1791 34.9102 27.2674C34.8084 27.3562 34.6821 27.4 34.5631 27.4V25.4ZM33.105 26.6679L32.745 29.2119L34.7253 29.4921L35.0853 26.9481L33.105 26.6679ZM33.3572 28.4262C32.6762 28.7041 32.0614 29.075 31.512 29.4903L32.7182 31.0857C33.1529 30.757 33.618 30.4799 34.113 30.2778L33.3572 28.4262ZM32.4881 29.3602L30.1001 28.4002L29.3541 30.2558L31.7421 31.2158L32.4881 29.3602ZM30.0896 28.396C29.4133 28.133 28.6306 28.4002 28.265 29.0584L30.0133 30.0296C29.8876 30.2558 29.6089 30.355 29.3647 30.26L30.0896 28.396ZM28.2732 29.0438L26.3532 32.3678L28.085 33.3682L30.005 30.0442L28.2732 29.0438ZM26.345 32.3824C25.9979 33.007 26.122 33.8172 26.7391 34.28L27.9391 32.68C28.041 32.7564 28.1173 32.8743 28.1437 33.0101C28.1697 33.1438 28.1423 33.2654 28.0933 33.3536L26.345 32.3824ZM26.7236 34.2681L28.7516 35.8521L29.9827 34.2759L27.9547 32.6919L26.7236 34.2681ZM28.3797 34.906C28.3269 35.2356 28.2831 35.6162 28.2831 36H30.2831C30.2831 35.7598 30.3113 35.4924 30.3546 35.222L28.3797 34.906ZM28.2831 36C28.2831 36.3604 28.3106 36.7375 28.3677 37.094L30.3426 36.778C30.3036 36.5345 30.2831 36.2636 30.2831 36H28.2831ZM28.7396 36.1479L26.7116 37.7319L27.9427 39.3081L29.9707 37.7241L28.7396 36.1479ZM26.7024 37.7391C26.1272 38.1993 26.003 38.9947 26.3233 39.5999L28.0909 38.6641C28.1953 38.8613 28.1671 39.1287 27.9518 39.3009L26.7024 37.7391ZM26.3412 39.6322L28.2612 42.9562L29.993 41.9558L28.073 38.6318L26.3412 39.6322ZM28.253 42.9416C28.64 43.6384 29.4273 43.822 30.0313 43.6207L29.3989 41.7233C29.5709 41.666 29.8542 41.7056 30.0013 41.9704L28.253 42.9416ZM30.0881 43.5998L32.4761 42.6398L31.7301 40.7842L29.3421 41.7442L30.0881 43.5998ZM31.4971 42.5074C32.0633 42.9389 32.6672 43.2971 33.3452 43.5738L34.101 41.7222C33.603 41.5189 33.1509 41.2531 32.7092 40.9166L31.4971 42.5074ZM32.733 42.7881L33.093 45.3321L35.0733 45.0519L34.7133 42.5079L32.733 42.7881ZM33.1025 45.3881C33.2365 46.058 33.8091 46.6 34.5631 46.6V44.6C34.6837 44.6 34.8061 44.6446 34.9019 44.7267C34.9955 44.807 35.0459 44.9069 35.0637 44.9959L33.1025 45.3881ZM34.5631 46.6H38.4031V44.6H34.5631V46.6ZM38.4031 46.6C39.1077 46.6 39.7863 46.0902 39.8662 45.2915L37.8761 45.0925C37.9079 44.7738 38.1785 44.6 38.4031 44.6V46.6ZM39.8613 45.3321L40.2213 42.7881L38.241 42.5079L37.881 45.0519L39.8613 45.3321ZM39.609 43.5738C40.29 43.2959 40.9049 42.925 41.4542 42.5097L40.248 40.9143C39.8134 41.243 39.3482 41.5201 38.8532 41.7222L39.609 43.5738ZM40.4781 42.6398L42.8661 43.5998L43.6121 41.7442L41.2241 40.7842L40.4781 42.6398ZM42.8767 43.604C43.5529 43.867 44.3356 43.5998 44.7013 42.9416L42.953 41.9704C43.0786 41.7442 43.3573 41.645 43.6016 41.74L42.8767 43.604ZM44.693 42.9562L46.613 39.6322L44.8812 38.6318L42.9612 41.9558L44.693 42.9562ZM46.6213 39.6176C46.9683 38.993 46.8442 38.1828 46.2271 37.72L45.0271 39.32C44.9252 39.2436 44.8489 39.1257 44.8225 38.9899C44.7965 38.8562 44.8239 38.7346 44.873 38.6464L46.6213 39.6176ZM46.2472 37.7355L44.2432 36.1515L43.003 37.7205L45.007 39.3045L46.2472 37.7355ZM36.4831 38.6C35.0554 38.6 33.8831 37.4277 33.8831 36H31.8831C31.8831 38.5323 33.9508 40.6 36.4831 40.6V38.6ZM33.8831 36C33.8831 34.5723 35.0554 33.4 36.4831 33.4V31.4C33.9508 31.4 31.8831 33.4677 31.8831 36H33.8831ZM36.4831 33.4C37.9108 33.4 39.0831 34.5723 39.0831 36H41.0831C41.0831 33.4677 39.0154 31.4 36.4831 31.4V33.4ZM39.0831 36C39.0831 37.4277 37.9108 38.6 36.4831 38.6V40.6C39.0154 40.6 41.0831 38.5323 41.0831 36H39.0831Z" fill="url(#paint3_linear_10_14)" mask="url(#path-3-outside-1_10_14)"/>
</g>
<defs>
<linearGradient id="paint0_linear_10_14" x1="-1.78814e-07" y1="48" x2="48" y2="-1.78814e-07" gradientUnits="userSpaceOnUse">
<stop/>
<stop offset="1" stop-color="#383838"/>
</linearGradient>
<linearGradient id="paint1_linear_10_14" x1="46.5" y1="2" x2="0.999998" y2="47" gradientUnits="userSpaceOnUse">
<stop stop-color="#00F227"/>
<stop offset="1" stop-color="#001AFF"/>
</linearGradient>
<linearGradient id="paint2_linear_10_14" x1="45.5" y1="2" x2="2.00001" y2="46" gradientUnits="userSpaceOnUse">
<stop stop-color="#00F227"/>
<stop offset="1" stop-color="#001AFF"/>
</linearGradient>
<linearGradient id="paint3_linear_10_14" x1="2.00001" y1="46" x2="45.5" y2="0.500003" gradientUnits="userSpaceOnUse">
<stop/>
<stop offset="1" stop-color="#383838"/>
</linearGradient>
<clipPath id="clip0_10_14">
<rect width="48" height="48" rx="10" fill="white"/>
</clipPath>
</defs>
</svg>
