<svg width="200" height="49" viewBox="0 0 200 49" fill="none" xmlns="http://www.w3.org/2000/svg">
<rect width="200" height="48.4848" rx="10" fill="url(#paint0_linear_16_42)"/>
<path fill-rule="evenodd" clip-rule="evenodd" d="M12.5 9C11.1193 9 10 10.1193 10 11.5V29.7222C10 31.1029 11.1193 32.2222 12.5 32.2222H23.5V37.2828H10.5C10.2239 37.2828 10 37.5067 10 37.7828C10 38.059 10.2239 38.2828 10.5 38.2828H48.5V37.2828H35.5V32.2222H46.5C47.8807 32.2222 49 31.1029 49 29.7222V11.5C49 10.1193 47.8807 9 46.5 9H12.5ZM11 11.5C11 10.6716 11.6716 10 12.5 10H46.5C47.3284 10 48 10.6716 48 11.5V29.7222C48 30.5506 47.3284 31.2222 46.5 31.2222H12.5C11.6716 31.2222 11 30.5506 11 29.7222V11.5ZM17.883 16.3384V26.5202H20.0357V22.3142H24.177V20.5394H20.0357V18.1132H24.6245V16.3384H17.883ZM26.9238 26.1921C27.4906 26.5103 28.1667 26.6693 28.9522 26.6693C29.582 26.6693 30.1371 26.5732 30.6177 26.381C31.1016 26.1854 31.496 25.9137 31.801 25.5657C32.1092 25.2143 32.313 24.8033 32.4125 24.3327L30.4537 24.2034C30.3807 24.3957 30.2747 24.5581 30.1355 24.6907C29.9963 24.8232 29.8289 24.9227 29.6333 24.989C29.4378 25.0552 29.2224 25.0884 28.987 25.0884C28.6324 25.0884 28.3258 25.0138 28.0673 24.8647C27.8088 24.7155 27.6082 24.5034 27.4657 24.2283C27.3265 23.9532 27.2569 23.6267 27.2569 23.2489V23.2439H32.4572V22.6622C32.4572 22.0126 32.3661 21.4459 32.1838 20.962C32.0015 20.4747 31.7463 20.0704 31.4181 19.7489C31.0933 19.4274 30.7122 19.1871 30.2747 19.028C29.8405 18.8656 29.3715 18.7844 28.8677 18.7844C28.1187 18.7844 27.4657 18.9501 26.9089 19.2816C26.3554 19.613 25.9262 20.0754 25.6213 20.6686C25.3163 21.2619 25.1639 21.9513 25.1639 22.7368C25.1639 23.5422 25.3163 24.2399 25.6213 24.8299C25.9262 25.4165 26.3604 25.8706 26.9238 26.1921ZM27.2589 21.9314C27.2717 21.6572 27.3423 21.407 27.4707 21.1807C27.6099 20.9321 27.8021 20.7349 28.0474 20.5891C28.296 20.4399 28.581 20.3654 28.9025 20.3654C29.2108 20.3654 29.4809 20.4333 29.7129 20.5692C29.9482 20.7018 30.1322 20.8857 30.2647 21.1211C30.3973 21.3564 30.4636 21.6265 30.4636 21.9314H27.2589ZM37.9508 19.8086L35.8976 16.3384H33.4565L36.5836 21.4293L33.3968 26.5202H35.8627L37.9508 23.0451H38.0304L40.1184 26.5202H42.5943L39.4174 21.4293L42.5247 16.3384H40.0936L38.0304 19.8086H37.9508Z" fill="url(#paint1_linear_16_42)"/>
<mask id="path-3-outside-1_16_42" maskUnits="userSpaceOnUse" x="31.65" y="25.0657" width="21" height="22" fill="black">
<rect fill="white" x="31.65" y="25.0657" width="21" height="22"/>
<path fill-rule="evenodd" clip-rule="evenodd" d="M49.1231 36.7081C49.1591 36.4051 49.1831 36.0899 49.1831 35.7626C49.1831 35.4354 49.1591 35.1202 49.1111 34.8172L51.1391 33.2172C51.3191 33.0717 51.3671 32.8051 51.2591 32.599L49.3391 29.2414C49.2191 29.0232 48.9671 28.9505 48.7511 29.0232L46.3631 29.9929C45.8591 29.6051 45.3311 29.2899 44.7431 29.0475L44.3831 26.4778C44.3471 26.2354 44.1431 26.0657 43.9031 26.0657H40.0631C39.8231 26.0657 39.6311 26.2354 39.5951 26.4778L39.2351 29.0475C38.6471 29.2899 38.1071 29.6172 37.6151 29.9929L35.2271 29.0232C35.0111 28.9384 34.7591 29.0232 34.6391 29.2414L32.7191 32.599C32.5991 32.8172 32.6471 33.0717 32.8391 33.2172L34.8671 34.8172C34.8191 35.1202 34.7831 35.4475 34.7831 35.7626C34.7831 36.0778 34.8071 36.4051 34.8551 36.7081L32.8271 38.3081C32.6471 38.4535 32.5991 38.7202 32.7071 38.9263L34.6271 42.2838C34.7471 42.502 34.9991 42.5747 35.2151 42.502L37.6031 41.5323C38.1071 41.9202 38.6351 42.2354 39.2231 42.4778L39.5831 45.0475C39.6311 45.2899 39.8231 45.4596 40.0631 45.4596H43.9031C44.1431 45.4596 44.3471 45.2899 44.3711 45.0475L44.7311 42.4778C45.3191 42.2354 45.8591 41.9081 46.3511 41.5323L48.7391 42.502C48.9551 42.5869 49.2071 42.502 49.3271 42.2838L51.2471 38.9263C51.3671 38.7081 51.3191 38.4535 51.1271 38.3081L49.1231 36.7081V36.7081ZM41.9831 39.399C40.0031 39.399 38.3831 37.7626 38.3831 35.7626C38.3831 33.7626 40.0031 32.1263 41.9831 32.1263C43.9631 32.1263 45.5831 33.7626 45.5831 35.7626C45.5831 37.7626 43.9631 39.399 41.9831 39.399Z"/>
</mask>
<path fill-rule="evenodd" clip-rule="evenodd" d="M49.1231 36.7081C49.1591 36.4051 49.1831 36.0899 49.1831 35.7626C49.1831 35.4354 49.1591 35.1202 49.1111 34.8172L51.1391 33.2172C51.3191 33.0717 51.3671 32.8051 51.2591 32.599L49.3391 29.2414C49.2191 29.0232 48.9671 28.9505 48.7511 29.0232L46.3631 29.9929C45.8591 29.6051 45.3311 29.2899 44.7431 29.0475L44.3831 26.4778C44.3471 26.2354 44.1431 26.0657 43.9031 26.0657H40.0631C39.8231 26.0657 39.6311 26.2354 39.5951 26.4778L39.2351 29.0475C38.6471 29.2899 38.1071 29.6172 37.6151 29.9929L35.2271 29.0232C35.0111 28.9384 34.7591 29.0232 34.6391 29.2414L32.7191 32.599C32.5991 32.8172 32.6471 33.0717 32.8391 33.2172L34.8671 34.8172C34.8191 35.1202 34.7831 35.4475 34.7831 35.7626C34.7831 36.0778 34.8071 36.4051 34.8551 36.7081L32.8271 38.3081C32.6471 38.4535 32.5991 38.7202 32.7071 38.9263L34.6271 42.2838C34.7471 42.502 34.9991 42.5747 35.2151 42.502L37.6031 41.5323C38.1071 41.9202 38.6351 42.2354 39.2231 42.4778L39.5831 45.0475C39.6311 45.2899 39.8231 45.4596 40.0631 45.4596H43.9031C44.1431 45.4596 44.3471 45.2899 44.3711 45.0475L44.7311 42.4778C45.3191 42.2354 45.8591 41.9081 46.3511 41.5323L48.7391 42.502C48.9551 42.5869 49.2071 42.502 49.3271 42.2838L51.2471 38.9263C51.3671 38.7081 51.3191 38.4535 51.1271 38.3081L49.1231 36.7081V36.7081ZM41.9831 39.399C40.0031 39.399 38.3831 37.7626 38.3831 35.7626C38.3831 33.7626 40.0031 32.1263 41.9831 32.1263C43.9631 32.1263 45.5831 33.7626 45.5831 35.7626C45.5831 37.7626 43.9631 39.399 41.9831 39.399Z" fill="url(#paint2_linear_16_42)"/>
<path d="M49.1111 34.8172L48.4917 34.0321L48.0318 34.395L48.1234 34.9736L49.1111 34.8172ZM51.1391 33.2172L51.7585 34.0023L51.7676 33.995L51.1391 33.2172ZM51.2591 32.599L52.1448 32.1348L52.1363 32.1185L52.1272 32.1026L51.2591 32.599ZM49.3391 29.2414L48.4629 29.7233L48.4669 29.7306L48.471 29.7378L49.3391 29.2414ZM48.7511 29.0232L48.432 28.0755L48.4031 28.0852L48.3749 28.0967L48.7511 29.0232ZM46.3631 29.9929L45.7532 30.7854L46.2078 31.1353L46.7393 30.9195L46.3631 29.9929ZM44.7431 29.0475L43.7528 29.1862L43.8323 29.7536L44.3619 29.972L44.7431 29.0475ZM44.3831 26.4778L45.3735 26.339L45.3723 26.3309L44.3831 26.4778ZM39.5951 26.4778L38.6059 26.3309L38.6048 26.339L39.5951 26.4778ZM39.2351 29.0475L39.6163 29.972L40.1459 29.7536L40.2254 29.1862L39.2351 29.0475ZM37.6151 29.9929L37.2389 30.9195L37.7681 31.1344L38.2221 30.7877L37.6151 29.9929ZM35.2271 29.0232L35.6034 28.0966L35.5927 28.0925L35.2271 29.0232ZM34.6391 29.2414L35.5072 29.7378L35.5113 29.7306L35.5153 29.7233L34.6391 29.2414ZM32.7191 32.599L31.851 32.1026L31.8469 32.1098L31.8429 32.1171L32.7191 32.599ZM32.8391 33.2172L33.4585 32.4321L33.4508 32.426L33.443 32.4201L32.8391 33.2172ZM34.8671 34.8172L35.8548 34.9736L35.9465 34.395L35.4865 34.0321L34.8671 34.8172ZM34.8551 36.7081L35.4745 37.4932L35.9345 37.1303L35.8428 36.5516L34.8551 36.7081ZM32.8271 38.3081L32.2077 37.5229L32.1986 37.5303L32.8271 38.3081ZM32.7071 38.9263L31.8214 39.3905L31.8299 39.4067L31.839 39.4227L32.7071 38.9263ZM34.6271 42.2838L35.5033 41.8019L35.4993 41.7946L35.4952 41.7874L34.6271 42.2838ZM35.2151 42.502L35.5342 43.4497L35.5631 43.44L35.5913 43.4285L35.2151 42.502ZM37.6031 41.5323L38.213 40.7398L37.7584 40.39L37.2269 40.6058L37.6031 41.5323ZM39.2231 42.4778L40.2134 42.339L40.1339 41.7716L39.6043 41.5533L39.2231 42.4778ZM39.5831 45.0475L38.5928 45.1862L38.5967 45.2141L38.6022 45.2417L39.5831 45.0475ZM44.3711 45.0475L43.3808 44.9087L43.378 44.9288L43.376 44.949L44.3711 45.0475ZM44.7311 42.4778L44.3499 41.5533L43.8203 41.7716L43.7408 42.339L44.7311 42.4778ZM46.3511 41.5323L46.7273 40.6058L46.1981 40.3909L45.7441 40.7376L46.3511 41.5323ZM48.7391 42.502L48.3629 43.4286L48.3735 43.4328L48.7391 42.502ZM49.3271 42.2838L48.459 41.7874L48.4549 41.7946L48.4509 41.8019L49.3271 42.2838ZM51.2471 38.9263L52.1152 39.4227L52.1193 39.4155L52.1233 39.4082L51.2471 38.9263ZM51.1271 38.3081L50.5032 39.0896L50.5131 39.0975L50.5232 39.1052L51.1271 38.3081ZM50.1161 36.8261C50.1555 36.4943 50.1831 36.1386 50.1831 35.7626H48.1831C48.1831 36.0412 48.1627 36.3158 48.1301 36.5901L50.1161 36.8261ZM50.1831 35.7626C50.1831 35.3864 50.1555 35.0188 50.0988 34.6607L48.1234 34.9736C48.1627 35.2216 48.1831 35.4843 48.1831 35.7626H50.1831ZM49.7305 35.6023L51.7585 34.0023L50.5197 32.4321L48.4917 34.0321L49.7305 35.6023ZM51.7676 33.995C52.3405 33.532 52.4608 32.7376 52.1448 32.1348L50.3734 33.0632C50.3172 32.956 50.3058 32.8434 50.3247 32.7443C50.3437 32.6441 50.3996 32.5291 50.5106 32.4394L51.7676 33.995ZM52.1272 32.1026L50.2072 28.745L48.471 29.7378L50.391 33.0954L52.1272 32.1026ZM50.2153 28.7595C49.8308 28.0604 49.0423 27.87 48.432 28.0755L49.0702 29.971C48.8919 30.031 48.6074 29.986 48.4629 29.7233L50.2153 28.7595ZM48.3749 28.0967L45.9869 29.0664L46.7393 30.9195L49.1273 29.9498L48.3749 28.0967ZM46.973 29.2004C46.4068 28.7647 45.8028 28.4027 45.1243 28.123L44.3619 29.972C44.8595 30.1771 45.3114 30.4454 45.7532 30.7854L46.973 29.2004ZM45.7334 28.9087L45.3734 26.339L43.3928 26.6165L43.7528 29.1862L45.7334 28.9087ZM45.3723 26.3309C45.2617 25.5864 44.6266 25.0657 43.9031 25.0657V27.0657C43.6596 27.0657 43.4325 26.8843 43.394 26.6247L45.3723 26.3309ZM43.9031 25.0657H40.0631V27.0657H43.9031V25.0657ZM40.0631 25.0657C39.3086 25.0657 38.7119 25.6173 38.606 26.3309L40.5843 26.6247C40.5688 26.729 40.5144 26.8424 40.4139 26.9309C40.3125 27.0203 40.185 27.0657 40.0631 27.0657V25.0657ZM38.6048 26.339L38.2448 28.9087L40.2254 29.1862L40.5854 26.6165L38.6048 26.339ZM38.8539 28.123C38.1725 28.4039 37.5574 28.7787 37.0081 29.1982L38.2221 30.7877C38.6568 30.4556 39.1218 30.1759 39.6163 29.972L38.8539 28.123ZM37.9913 29.0664L35.6033 28.0967L34.8509 29.9498L37.2389 30.9195L37.9913 29.0664ZM35.5927 28.0925C34.9098 27.8242 34.1257 28.0999 33.7629 28.7595L35.5153 29.7233C35.3925 29.9466 35.1124 30.0526 34.8615 29.954L35.5927 28.0925ZM33.771 28.745L31.851 32.1026L33.5872 33.0954L35.5072 29.7378L33.771 28.745ZM31.8429 32.1171C31.5006 32.7394 31.6204 33.5485 32.2353 34.0143L33.443 32.4201C33.5447 32.4971 33.6186 32.6141 33.6441 32.7463C33.6691 32.8763 33.6428 32.9946 33.5953 33.0809L31.8429 32.1171ZM32.2197 34.0023L34.2477 35.6023L35.4865 34.0321L33.4585 32.4321L32.2197 34.0023ZM33.8794 34.6607C33.8268 34.9931 33.7831 35.3764 33.7831 35.7626H35.7831C35.7831 35.5185 35.8114 35.2473 35.8548 34.9736L33.8794 34.6607ZM33.7831 35.7626C33.7831 36.1257 33.8106 36.5055 33.8674 36.8645L35.8428 36.5516C35.8037 36.3046 35.7831 36.0298 35.7831 35.7626H33.7831ZM34.2357 35.923L32.2077 37.523L33.4465 39.0932L35.4745 37.4932L34.2357 35.923ZM32.1986 37.5303C31.6257 37.9932 31.5054 38.7876 31.8214 39.3905L33.5928 38.462C33.649 38.5693 33.6604 38.6819 33.6416 38.781C33.6225 38.8812 33.5666 38.9962 33.4556 39.0859L32.1986 37.5303ZM31.839 39.4227L33.759 42.7802L35.4952 41.7874L33.5752 38.4299L31.839 39.4227ZM33.7509 42.7658C34.1354 43.4648 34.9239 43.6552 35.5342 43.4497L34.896 41.5543C35.0743 41.4943 35.3588 41.5392 35.5033 41.8019L33.7509 42.7658ZM35.5913 43.4285L37.9793 42.4588L37.2269 40.6058L34.8389 41.5755L35.5913 43.4285ZM36.9932 42.3248C37.5594 42.7605 38.1635 43.1226 38.8419 43.4023L39.6043 41.5533C39.1068 41.3482 38.6548 41.0799 38.213 40.7398L36.9932 42.3248ZM38.2328 42.6165L38.5928 45.1862L40.5734 44.9087L40.2134 42.339L38.2328 42.6165ZM38.6022 45.2417C38.7341 45.9079 39.3017 46.4596 40.0631 46.4596V44.4596C40.1866 44.4596 40.3102 44.5058 40.4057 44.5884C40.4987 44.669 40.5471 44.7677 40.5641 44.8532L38.6022 45.2417ZM40.0631 46.4596H43.9031V44.4596H40.0631V46.4596ZM43.9031 46.4596C44.6163 46.4596 45.2877 45.9398 45.3662 45.146L43.376 44.949C43.4066 44.64 43.6699 44.4596 43.9031 44.4596V46.4596ZM45.3614 45.1862L45.7214 42.6165L43.7408 42.339L43.3808 44.9087L45.3614 45.1862ZM45.1123 43.4023C45.7938 43.1213 46.4088 42.7465 46.9581 42.3271L45.7441 40.7376C45.3094 41.0696 44.8445 41.3494 44.3499 41.5533L45.1123 43.4023ZM45.9749 42.4588L48.3629 43.4285L49.1153 41.5755L46.7273 40.6058L45.9749 42.4588ZM48.3735 43.4328C49.0564 43.701 49.8405 43.4254 50.2033 42.7658L48.4509 41.8019C48.5737 41.5787 48.8538 41.4727 49.1047 41.5713L48.3735 43.4328ZM50.1952 42.7802L52.1152 39.4227L50.379 38.4299L48.459 41.7874L50.1952 42.7802ZM52.1233 39.4082C52.4656 38.7858 52.3458 37.9768 51.731 37.511L50.5232 39.1052C50.4216 39.0281 50.3476 38.9111 50.3221 38.7789C50.2971 38.649 50.3234 38.5307 50.3709 38.4443L52.1233 39.4082ZM51.751 37.5266L49.747 35.9266L48.4992 37.4896L50.5032 39.0896L51.751 37.5266ZM41.9831 38.399C40.5648 38.399 39.3831 37.2198 39.3831 35.7626H37.3831C37.3831 38.3054 39.4414 40.399 41.9831 40.399V38.399ZM39.3831 35.7626C39.3831 34.3054 40.5648 33.1263 41.9831 33.1263V31.1263C39.4414 31.1263 37.3831 33.2198 37.3831 35.7626H39.3831ZM41.9831 33.1263C43.4014 33.1263 44.5831 34.3054 44.5831 35.7626H46.5831C46.5831 33.2198 44.5248 31.1263 41.9831 31.1263V33.1263ZM44.5831 35.7626C44.5831 37.2198 43.4014 38.399 41.9831 38.399V40.399C44.5248 40.399 46.5831 38.3054 46.5831 35.7626H44.5831Z" fill="url(#paint3_linear_16_42)" mask="url(#path-3-outside-1_16_42)"/>
<path d="M58.7752 34.399V12.5808H73.2212V16.3841H63.3881V21.5829H72.2624V25.3862H63.3881V34.399H58.7752ZM82.495 34.7186C80.8118 34.7186 79.3629 34.3777 78.1484 33.6959C76.9411 33.0069 76.0107 32.0339 75.3572 30.7768C74.7038 29.5126 74.3771 28.0176 74.3771 26.2917C74.3771 24.6085 74.7038 23.1312 75.3572 21.8599C76.0107 20.5886 76.9304 19.5978 78.1165 18.8876C79.3097 18.1774 80.7088 17.8223 82.3139 17.8223C83.3935 17.8223 84.3984 17.9963 85.3288 18.3443C86.2663 18.6852 87.0831 19.2001 87.7791 19.889C88.4822 20.578 89.0291 21.4444 89.4197 22.4885C89.8104 23.5254 90.0057 24.7399 90.0057 26.1319V27.3784H76.1882V24.5659H85.7337C85.7337 23.9125 85.5916 23.3336 85.3075 22.8294C85.0234 22.3251 84.6293 21.9309 84.125 21.6469C83.6278 21.3557 83.049 21.2101 82.3885 21.2101C81.6996 21.2101 81.0888 21.3699 80.5561 21.6895C80.0305 22.002 79.6186 22.4246 79.3203 22.9572C79.022 23.4828 78.8693 24.0687 78.8622 24.715V27.389C78.8622 28.1987 79.0114 28.8983 79.3097 29.4878C79.6151 30.0773 80.0447 30.5318 80.5987 30.8514C81.1527 31.171 81.8097 31.3308 82.5696 31.3308C83.0739 31.3308 83.5355 31.2598 83.9545 31.1177C84.3736 30.9757 84.7322 30.7626 85.0305 30.4785C85.3288 30.1944 85.5561 29.8464 85.7124 29.4345L89.9098 29.7115C89.6967 30.72 89.2599 31.6007 88.5994 32.3535C87.946 33.0993 87.1009 33.6817 86.0639 34.1007C85.0341 34.5126 83.8445 34.7186 82.495 34.7186ZM92.9673 34.399V18.0353H97.3672V20.8905H97.5376C97.8359 19.8748 98.3366 19.1078 99.0398 18.5893C99.7429 18.0638 100.553 17.801 101.469 17.801C101.696 17.801 101.941 17.8152 102.204 17.8436C102.467 17.872 102.697 17.9111 102.896 17.9608V21.9878C102.683 21.9238 102.388 21.867 102.012 21.8173C101.636 21.7676 101.291 21.7427 100.979 21.7427C100.311 21.7427 99.7145 21.8883 99.1889 22.1795C98.6705 22.4636 98.2585 22.8613 97.9531 23.3727C97.6548 23.8841 97.5057 24.4736 97.5057 25.1412V34.399H92.9673ZM105.243 34.399V18.0353H109.643V20.8905H109.813C110.111 19.8748 110.612 19.1078 111.315 18.5893C112.018 18.0638 112.828 17.801 113.744 17.801C113.971 17.801 114.216 17.8152 114.479 17.8436C114.742 17.872 114.973 17.9111 115.172 17.9608V21.9878C114.959 21.9238 114.664 21.867 114.287 21.8173C113.911 21.7676 113.567 21.7427 113.254 21.7427C112.586 21.7427 111.99 21.8883 111.464 22.1795C110.946 22.4636 110.534 22.8613 110.229 23.3727C109.93 23.8841 109.781 24.4736 109.781 25.1412V34.399H105.243ZM128.012 27.4317V18.0353H132.55V34.399H128.193V31.4267H128.022C127.653 32.3855 127.039 33.1561 126.179 33.7385C125.327 34.3209 124.287 34.6121 123.058 34.6121C121.964 34.6121 121.002 34.3635 120.171 33.8663C119.34 33.3692 118.69 32.6625 118.221 31.7463C117.76 30.8301 117.525 29.7328 117.518 28.4544V18.0353H122.056V27.6447C122.064 28.6106 122.323 29.3741 122.834 29.9352C123.346 30.4963 124.031 30.7768 124.89 30.7768C125.437 30.7768 125.949 30.6525 126.424 30.404C126.9 30.1483 127.284 29.7719 127.575 29.2747C127.873 28.7775 128.019 28.1632 128.012 27.4317ZM136.18 34.399V18.0353H140.506V20.9224H140.697C141.038 19.9636 141.606 19.2072 142.402 18.6532C143.197 18.0993 144.149 17.8223 145.257 17.8223C146.379 17.8223 147.334 18.1028 148.123 18.6639C148.911 19.2179 149.437 19.9707 149.699 20.9224H149.87C150.204 19.9849 150.807 19.2356 151.681 18.6746C152.562 18.1064 153.602 17.8223 154.802 17.8223C156.329 17.8223 157.569 18.3088 158.52 19.2818C159.479 20.2477 159.959 21.6184 159.959 23.394V34.399H155.431V24.2889C155.431 23.3798 155.189 22.698 154.706 22.2434C154.224 21.7889 153.62 21.5616 152.895 21.5616C152.072 21.5616 151.429 21.8244 150.967 22.35C150.506 22.8684 150.275 23.5538 150.275 24.4061V34.399H145.875V24.193C145.875 23.3905 145.644 22.7513 145.182 22.2754C144.728 21.7996 144.128 21.5616 143.382 21.5616C142.878 21.5616 142.423 21.6895 142.018 21.9452C141.621 22.1937 141.305 22.5453 141.07 22.9998C140.836 23.4473 140.719 23.9729 140.719 24.5765V34.399H136.18ZM174.897 12.5808L179.297 20.0169H179.468L183.889 12.5808H189.098L182.44 23.4899L189.248 34.399H183.942L179.468 26.9523H179.297L174.823 34.399H169.539L176.368 23.4899L169.667 12.5808H174.897Z" fill="url(#paint4_linear_16_42)"/>
<defs>
<linearGradient id="paint0_linear_16_42" x1="-7.45058e-07" y1="48.4848" x2="22.2029" y2="-43.1023" gradientUnits="userSpaceOnUse">
<stop/>
<stop offset="1" stop-color="#383838"/>
</linearGradient>
<linearGradient id="paint1_linear_16_42" x1="52" y1="1.42685" x2="6.06334" y2="46.4199" gradientUnits="userSpaceOnUse">
<stop stop-color="#00F227"/>
<stop offset="1" stop-color="#001AFF"/>
</linearGradient>
<linearGradient id="paint2_linear_16_42" x1="51" y1="1.4192" x2="7.05778" y2="45.422" gradientUnits="userSpaceOnUse">
<stop stop-color="#00F227"/>
<stop offset="1" stop-color="#001AFF"/>
</linearGradient>
<linearGradient id="paint3_linear_16_42" x1="7.5" y1="45.8636" x2="51.457" y2="0.34539" gradientUnits="userSpaceOnUse">
<stop/>
<stop offset="1" stop-color="#383838"/>
</linearGradient>
<linearGradient id="paint4_linear_16_42" x1="3" y1="-0.601011" x2="231.5" y2="46" gradientUnits="userSpaceOnUse">
<stop stop-color="#00F227"/>
<stop offset="1" stop-color="#001AFF"/>
</linearGradient>
</defs>
</svg>
