<svg xmlns="http://www.w3.org/2000/svg" xmlns:xlink="http://www.w3.org/1999/xlink" width="200px" height="px" viewBox="0 0 198 24" version="1.1">
<g id="surface1">
<path style=" stroke:none;fill-rule:nonzero;fill:#03a9f4;fill-opacity:1;" d="M 47.304688 5.273438 L 43.523438 18.707031 L 41.683594 18.707031 L 38.929688 8.890625 C 38.8125 8.472656 38.742188 8.015625 38.714844 7.523438 L 38.679688 7.523438 C 38.640625 7.984375 38.5625 8.4375 38.4375 8.871094 L 35.664062 18.707031 L 33.84375 18.707031 L 29.921875 5.273438 L 31.648438 5.273438 L 34.496094 15.578125 C 34.617188 16.011719 34.691406 16.460938 34.722656 16.929688 L 34.769531 16.929688 C 34.800781 16.597656 34.894531 16.148438 35.058594 15.578125 L 38.015625 5.273438 L 39.519531 5.273438 L 42.355469 15.65625 C 42.457031 16.011719 42.53125 16.429688 42.582031 16.910156 L 42.617188 16.910156 C 42.644531 16.585938 42.726562 16.15625 42.871094 15.617188 L 45.605469 5.277344 L 47.304688 5.277344 Z M 47.304688 5.273438 "/>
<path style=" stroke:none;fill-rule:nonzero;fill:#03a9f4;fill-opacity:1;" d="M 49.414062 6.679688 C 49.140625 6.679688 48.90625 6.585938 48.714844 6.398438 C 48.519531 6.210938 48.425781 5.972656 48.425781 5.6875 C 48.425781 5.398438 48.519531 5.160156 48.714844 4.96875 C 48.90625 4.78125 49.140625 4.683594 49.414062 4.683594 C 49.695312 4.683594 49.929688 4.78125 50.128906 4.96875 C 50.324219 5.160156 50.421875 5.398438 50.421875 5.6875 C 50.421875 5.960938 50.324219 6.195312 50.128906 6.390625 C 49.929688 6.582031 49.695312 6.679688 49.414062 6.679688 Z M 50.160156 18.707031 L 48.628906 18.707031 L 48.628906 9.117188 L 50.160156 9.117188 Z M 50.160156 18.707031 "/>
<path style=" stroke:none;fill-rule:nonzero;fill:#03a9f4;fill-opacity:1;" d="M 60.449219 18.707031 L 58.917969 18.707031 L 58.917969 13.238281 C 58.917969 11.203125 58.175781 10.183594 56.695312 10.183594 C 55.929688 10.183594 55.296875 10.472656 54.796875 11.050781 C 54.296875 11.628906 54.046875 12.359375 54.046875 13.238281 L 54.046875 18.707031 L 52.515625 18.707031 L 52.515625 9.117188 L 54.046875 9.117188 L 54.046875 10.707031 L 54.082031 10.707031 C 54.804688 9.496094 55.847656 8.890625 57.21875 8.890625 C 58.265625 8.890625 59.0625 9.230469 59.617188 9.90625 C 60.171875 10.585938 60.449219 11.5625 60.449219 12.84375 Z M 60.449219 18.707031 "/>
<path style=" stroke:none;fill-rule:nonzero;fill:#03a9f4;fill-opacity:1;" d="M 71.339844 18.707031 L 69.808594 18.707031 L 69.808594 17.078125 L 69.769531 17.078125 C 69.0625 18.316406 67.964844 18.933594 66.484375 18.933594 C 65.285156 18.933594 64.324219 18.503906 63.605469 17.644531 C 62.886719 16.785156 62.527344 15.617188 62.527344 14.136719 C 62.527344 12.550781 62.925781 11.28125 63.722656 10.324219 C 64.519531 9.367188 65.578125 8.890625 66.90625 8.890625 C 68.21875 8.890625 69.175781 9.410156 69.769531 10.445312 L 69.808594 10.445312 L 69.808594 4.507812 L 71.339844 4.507812 Z M 69.808594 14.371094 L 69.808594 12.957031 C 69.808594 12.183594 69.554688 11.527344 69.042969 10.988281 C 68.53125 10.453125 67.886719 10.183594 67.101562 10.183594 C 66.167969 10.183594 65.433594 10.527344 64.898438 11.214844 C 64.363281 11.902344 64.097656 12.851562 64.097656 14.0625 C 64.097656 15.167969 64.351562 16.039062 64.867188 16.679688 C 65.378906 17.320312 66.070312 17.640625 66.933594 17.640625 C 67.785156 17.640625 68.476562 17.332031 69.011719 16.714844 C 69.542969 16.09375 69.808594 15.3125 69.808594 14.371094 Z M 69.808594 14.371094 "/>
<path style=" stroke:none;fill-rule:nonzero;fill:#03a9f4;fill-opacity:1;" d="M 78.03125 18.933594 C 76.617188 18.933594 75.492188 18.484375 74.648438 17.589844 C 73.804688 16.691406 73.382812 15.503906 73.382812 14.023438 C 73.382812 12.414062 73.820312 11.15625 74.699219 10.25 C 75.578125 9.34375 76.761719 8.890625 78.257812 8.890625 C 79.679688 8.890625 80.792969 9.332031 81.59375 10.210938 C 82.394531 11.089844 82.792969 12.3125 82.792969 13.875 C 82.792969 15.40625 82.363281 16.628906 81.5 17.550781 C 80.636719 18.472656 79.480469 18.933594 78.03125 18.933594 Z M 78.144531 10.183594 C 77.160156 10.183594 76.382812 10.519531 75.808594 11.191406 C 75.238281 11.863281 74.953125 12.789062 74.953125 13.96875 C 74.953125 15.105469 75.242188 16 75.820312 16.65625 C 76.398438 17.3125 77.175781 17.640625 78.144531 17.640625 C 79.132812 17.640625 79.894531 17.320312 80.425781 16.675781 C 80.960938 16.03125 81.226562 15.117188 81.226562 13.929688 C 81.226562 12.730469 80.960938 11.808594 80.425781 11.15625 C 79.894531 10.507812 79.132812 10.183594 78.144531 10.183594 Z M 78.144531 10.183594 "/>
<path style=" stroke:none;fill-rule:nonzero;fill:#03a9f4;fill-opacity:1;" d="M 96.589844 9.117188 L 93.722656 18.707031 L 92.136719 18.707031 L 90.167969 11.84375 C 90.09375 11.578125 90.042969 11.285156 90.019531 10.953125 L 89.980469 10.953125 C 89.960938 11.175781 89.898438 11.46875 89.785156 11.824219 L 87.648438 18.710938 L 86.117188 18.710938 L 83.222656 9.117188 L 84.828125 9.117188 L 86.804688 16.328125 C 86.867188 16.546875 86.910156 16.835938 86.9375 17.191406 L 87.011719 17.191406 C 87.03125 16.917969 87.085938 16.625 87.179688 16.3125 L 89.382812 9.117188 L 90.78125 9.117188 L 92.761719 16.347656 C 92.824219 16.578125 92.871094 16.867188 92.902344 17.210938 L 92.976562 17.210938 C 92.988281 16.964844 93.042969 16.679688 93.136719 16.347656 L 95.078125 9.117188 Z M 96.589844 9.117188 "/>
<path style=" stroke:none;fill-rule:nonzero;fill:#03a9f4;fill-opacity:1;" d="M 97.296875 18.363281 L 97.296875 16.714844 C 98.132812 17.332031 99.050781 17.640625 100.050781 17.640625 C 101.394531 17.640625 102.066406 17.191406 102.066406 16.292969 C 102.066406 16.035156 102.011719 15.820312 101.894531 15.640625 C 101.78125 15.460938 101.625 15.304688 101.429688 15.167969 C 101.234375 15.03125 101.003906 14.90625 100.738281 14.796875 C 100.476562 14.6875 100.1875 14.574219 99.886719 14.457031 C 99.460938 14.285156 99.089844 14.117188 98.769531 13.945312 C 98.449219 13.773438 98.183594 13.578125 97.964844 13.363281 C 97.753906 13.148438 97.589844 12.902344 97.480469 12.628906 C 97.371094 12.351562 97.316406 12.03125 97.316406 11.664062 C 97.316406 11.214844 97.421875 10.816406 97.625 10.46875 C 97.832031 10.121094 98.105469 9.832031 98.445312 9.597656 C 98.789062 9.363281 99.179688 9.1875 99.617188 9.066406 C 100.058594 8.949219 100.511719 8.890625 100.976562 8.890625 C 101.804688 8.890625 102.542969 9.035156 103.199219 9.320312 L 103.199219 10.875 C 102.496094 10.414062 101.683594 10.183594 100.769531 10.183594 C 100.484375 10.183594 100.226562 10.214844 99.996094 10.28125 C 99.765625 10.347656 99.570312 10.4375 99.402344 10.558594 C 99.238281 10.675781 99.113281 10.816406 99.019531 10.984375 C 98.929688 11.148438 98.886719 11.332031 98.886719 11.53125 C 98.886719 11.78125 98.929688 11.988281 99.019531 12.160156 C 99.113281 12.328125 99.242188 12.476562 99.417969 12.609375 C 99.59375 12.738281 99.804688 12.859375 100.050781 12.964844 C 100.300781 13.070312 100.585938 13.1875 100.902344 13.3125 C 101.324219 13.472656 101.707031 13.640625 102.042969 13.8125 C 102.378906 13.984375 102.664062 14.179688 102.898438 14.394531 C 103.136719 14.609375 103.320312 14.859375 103.445312 15.136719 C 103.574219 15.417969 103.636719 15.753906 103.636719 16.140625 C 103.636719 16.613281 103.535156 17.027344 103.324219 17.375 C 103.117188 17.726562 102.839844 18.015625 102.488281 18.246094 C 102.140625 18.480469 101.738281 18.652344 101.285156 18.761719 C 100.832031 18.875 100.355469 18.933594 99.859375 18.933594 C 98.871094 18.933594 98.019531 18.742188 97.296875 18.363281 Z M 97.296875 18.363281 "/>
<path style=" stroke:none;fill-rule:nonzero;fill:#03a9f4;fill-opacity:1;" d="M 108.316406 18.164062 L 108.316406 16.3125 C 108.527344 16.5 108.78125 16.667969 109.078125 16.816406 C 109.371094 16.96875 109.683594 17.09375 110.011719 17.195312 C 110.335938 17.300781 110.664062 17.378906 110.996094 17.433594 C 111.324219 17.492188 111.628906 17.519531 111.910156 17.519531 C 112.875 17.519531 113.597656 17.339844 114.070312 16.980469 C 114.546875 16.621094 114.785156 16.105469 114.785156 15.429688 C 114.785156 15.070312 114.707031 14.753906 114.546875 14.484375 C 114.390625 14.214844 114.171875 13.96875 113.890625 13.75 C 113.609375 13.527344 113.277344 13.3125 112.894531 13.113281 C 112.511719 12.910156 112.101562 12.695312 111.660156 12.46875 C 111.191406 12.230469 110.757812 11.992188 110.351562 11.75 C 109.945312 11.503906 109.59375 11.234375 109.296875 10.941406 C 109 10.648438 108.761719 10.316406 108.59375 9.945312 C 108.421875 9.574219 108.335938 9.136719 108.335938 8.636719 C 108.335938 8.027344 108.46875 7.492188 108.738281 7.042969 C 109.003906 6.589844 109.355469 6.214844 109.789062 5.921875 C 110.226562 5.628906 110.722656 5.410156 111.28125 5.265625 C 111.835938 5.121094 112.40625 5.050781 112.984375 5.050781 C 114.304688 5.050781 115.265625 5.210938 115.867188 5.527344 L 115.867188 7.296875 C 115.078125 6.75 114.0625 6.472656 112.824219 6.472656 C 112.484375 6.472656 112.140625 6.507812 111.796875 6.582031 C 111.457031 6.652344 111.152344 6.769531 110.882812 6.933594 C 110.617188 7.09375 110.398438 7.304688 110.230469 7.5625 C 110.0625 7.816406 109.976562 8.128906 109.976562 8.496094 C 109.976562 8.839844 110.042969 9.136719 110.171875 9.386719 C 110.296875 9.636719 110.484375 9.867188 110.734375 10.070312 C 110.984375 10.277344 111.285156 10.476562 111.644531 10.671875 C 112.003906 10.863281 112.414062 11.078125 112.882812 11.308594 C 113.359375 11.546875 113.816406 11.796875 114.246094 12.058594 C 114.675781 12.320312 115.050781 12.609375 115.375 12.929688 C 115.695312 13.246094 115.953125 13.601562 116.144531 13.988281 C 116.335938 14.375 116.429688 14.820312 116.429688 15.316406 C 116.429688 15.980469 116.300781 16.539062 116.042969 17 C 115.78125 17.457031 115.433594 17.832031 114.996094 18.117188 C 114.554688 18.40625 114.050781 18.613281 113.480469 18.742188 C 112.90625 18.871094 112.304688 18.933594 111.667969 18.933594 C 111.457031 18.933594 111.195312 18.917969 110.882812 18.882812 C 110.574219 18.847656 110.253906 18.796875 109.933594 18.734375 C 109.605469 18.667969 109.300781 18.585938 109.011719 18.488281 C 108.722656 18.394531 108.492188 18.285156 108.316406 18.164062 Z M 108.316406 18.164062 "/>
<path style=" stroke:none;fill-rule:nonzero;fill:#03a9f4;fill-opacity:1;" d="M 125.710938 14.296875 L 118.960938 14.296875 C 118.984375 15.363281 119.273438 16.1875 119.820312 16.769531 C 120.367188 17.351562 121.121094 17.640625 122.078125 17.640625 C 123.15625 17.640625 124.144531 17.285156 125.046875 16.574219 L 125.046875 18.015625 C 124.207031 18.628906 123.097656 18.933594 121.714844 18.933594 C 120.363281 18.933594 119.304688 18.5 118.53125 17.628906 C 117.761719 16.753906 117.375 15.53125 117.375 13.949219 C 117.375 12.457031 117.796875 11.242188 118.640625 10.300781 C 119.484375 9.363281 120.53125 8.890625 121.78125 8.890625 C 123.03125 8.890625 124 9.296875 124.683594 10.109375 C 125.367188 10.921875 125.710938 12.050781 125.710938 13.492188 Z M 124.140625 12.996094 C 124.136719 12.109375 123.921875 11.417969 123.503906 10.925781 C 123.082031 10.429688 122.5 10.183594 121.753906 10.183594 C 121.03125 10.183594 120.417969 10.441406 119.914062 10.960938 C 119.410156 11.480469 119.097656 12.15625 118.980469 12.996094 Z M 124.140625 12.996094 "/>
<path style=" stroke:none;fill-rule:nonzero;fill:#03a9f4;fill-opacity:1;" d="M 132.730469 10.671875 C 132.460938 10.464844 132.074219 10.363281 131.570312 10.363281 C 130.917969 10.363281 130.371094 10.671875 129.933594 11.289062 C 129.492188 11.90625 129.277344 12.75 129.277344 13.820312 L 129.277344 18.707031 L 127.742188 18.707031 L 127.742188 9.117188 L 129.277344 9.117188 L 129.277344 11.09375 L 129.3125 11.09375 C 129.53125 10.417969 129.863281 9.890625 130.3125 9.515625 C 130.757812 9.136719 131.257812 8.945312 131.8125 8.945312 C 132.210938 8.945312 132.515625 8.992188 132.730469 9.078125 Z M 132.730469 10.671875 "/>
<path style=" stroke:none;fill-rule:nonzero;fill:#03a9f4;fill-opacity:1;" d="M 142.417969 9.117188 L 138.609375 18.707031 L 137.109375 18.707031 L 133.484375 9.117188 L 135.164062 9.117188 L 137.59375 16.085938 C 137.773438 16.597656 137.886719 17.042969 137.929688 17.425781 L 137.964844 17.425781 C 138.027344 16.945312 138.128906 16.511719 138.265625 16.125 L 140.804688 9.117188 Z M 142.417969 9.117188 "/>
<path style=" stroke:none;fill-rule:nonzero;fill:#03a9f4;fill-opacity:1;" d="M 151.015625 14.296875 L 144.265625 14.296875 C 144.292969 15.363281 144.578125 16.1875 145.125 16.769531 C 145.671875 17.351562 146.425781 17.640625 147.386719 17.640625 C 148.460938 17.640625 149.453125 17.285156 150.355469 16.574219 L 150.355469 18.015625 C 149.515625 18.628906 148.402344 18.933594 147.019531 18.933594 C 145.671875 18.933594 144.609375 18.5 143.835938 17.628906 C 143.066406 16.753906 142.679688 15.53125 142.679688 13.949219 C 142.679688 12.457031 143.101562 11.242188 143.945312 10.300781 C 144.789062 9.363281 145.835938 8.890625 147.085938 8.890625 C 148.335938 8.890625 149.304688 9.296875 149.988281 10.109375 C 150.675781 10.921875 151.015625 12.050781 151.015625 13.492188 Z M 149.449219 12.996094 C 149.441406 12.109375 149.230469 11.417969 148.808594 10.925781 C 148.386719 10.429688 147.804688 10.183594 147.058594 10.183594 C 146.335938 10.183594 145.722656 10.441406 145.21875 10.960938 C 144.714844 11.480469 144.402344 12.15625 144.285156 12.996094 Z M 149.449219 12.996094 "/>
<path style=" stroke:none;fill-rule:nonzero;fill:#03a9f4;fill-opacity:1;" d="M 157.800781 10.671875 C 157.535156 10.464844 157.148438 10.363281 156.644531 10.363281 C 155.992188 10.363281 155.445312 10.671875 155.007812 11.289062 C 154.566406 11.90625 154.347656 12.75 154.347656 13.820312 L 154.347656 18.707031 L 152.816406 18.707031 L 152.816406 9.117188 L 154.347656 9.117188 L 154.347656 11.09375 L 154.386719 11.09375 C 154.601562 10.417969 154.9375 9.890625 155.386719 9.515625 C 155.832031 9.136719 156.332031 8.945312 156.886719 8.945312 C 157.285156 8.945312 157.589844 8.992188 157.800781 9.078125 Z M 157.800781 10.671875 "/>
<path style=" stroke:none;fill-rule:nonzero;fill:#03a9f4;fill-opacity:1;" d="M 168.332031 8.796875 C 168.332031 8.386719 168.265625 8.027344 168.140625 7.71875 C 168.011719 7.414062 167.835938 7.160156 167.617188 6.957031 C 167.394531 6.753906 167.136719 6.601562 166.835938 6.503906 C 166.539062 6.402344 166.214844 6.351562 165.867188 6.351562 C 165.566406 6.351562 165.273438 6.394531 164.988281 6.472656 C 164.703125 6.554688 164.425781 6.667969 164.152344 6.8125 C 163.882812 6.957031 163.621094 7.125 163.371094 7.328125 C 163.117188 7.527344 162.882812 7.75 162.664062 7.992188 L 162.664062 6.34375 C 163.09375 5.925781 163.574219 5.605469 164.105469 5.382812 C 164.640625 5.160156 165.289062 5.050781 166.054688 5.050781 C 166.601562 5.050781 167.109375 5.128906 167.574219 5.289062 C 168.042969 5.449219 168.445312 5.683594 168.789062 5.988281 C 169.128906 6.292969 169.398438 6.671875 169.597656 7.121094 C 169.792969 7.570312 169.890625 8.085938 169.890625 8.664062 C 169.890625 9.195312 169.828125 9.679688 169.707031 10.109375 C 169.585938 10.539062 169.402344 10.945312 169.15625 11.328125 C 168.910156 11.707031 168.601562 12.074219 168.230469 12.421875 C 167.855469 12.773438 167.417969 13.128906 166.914062 13.492188 C 166.285156 13.941406 165.765625 14.324219 165.359375 14.644531 C 164.949219 14.960938 164.625 15.261719 164.386719 15.539062 C 164.148438 15.816406 163.980469 16.09375 163.882812 16.371094 C 163.785156 16.648438 163.738281 16.96875 163.738281 17.332031 L 170.402344 17.332031 L 170.402344 18.707031 L 162.140625 18.707031 L 162.140625 18.042969 C 162.140625 17.46875 162.203125 16.964844 162.328125 16.527344 C 162.453125 16.089844 162.660156 15.671875 162.945312 15.28125 C 163.230469 14.886719 163.605469 14.492188 164.070312 14.101562 C 164.535156 13.707031 165.101562 13.261719 165.773438 12.769531 C 166.257812 12.417969 166.664062 12.085938 166.992188 11.765625 C 167.316406 11.449219 167.582031 11.128906 167.78125 10.8125 C 167.980469 10.492188 168.121094 10.171875 168.203125 9.839844 C 168.289062 9.515625 168.332031 9.167969 168.332031 8.796875 Z M 168.332031 8.796875 "/>
<path style=" stroke:none;fill-rule:nonzero;fill:#03a9f4;fill-opacity:1;" d="M 180.652344 11.9375 C 180.652344 13.058594 180.550781 14.054688 180.347656 14.921875 C 180.148438 15.792969 179.855469 16.523438 179.472656 17.121094 C 179.089844 17.71875 178.617188 18.171875 178.0625 18.480469 C 177.503906 18.789062 176.871094 18.945312 176.160156 18.945312 C 175.488281 18.945312 174.890625 18.796875 174.367188 18.496094 C 173.839844 18.199219 173.394531 17.769531 173.035156 17.199219 C 172.675781 16.632812 172.398438 15.933594 172.214844 15.105469 C 172.027344 14.28125 171.933594 13.332031 171.933594 12.261719 C 171.933594 11.089844 172.03125 10.054688 172.226562 9.152344 C 172.421875 8.253906 172.710938 7.5 173.089844 6.890625 C 173.46875 6.28125 173.941406 5.824219 174.503906 5.511719 C 175.066406 5.203125 175.714844 5.050781 176.441406 5.050781 C 179.25 5.050781 180.652344 7.34375 180.652344 11.9375 Z M 179.085938 12.085938 C 179.085938 8.261719 178.179688 6.351562 176.367188 6.351562 C 174.457031 6.351562 173.503906 8.296875 173.503906 12.1875 C 173.503906 15.816406 174.4375 17.632812 176.3125 17.632812 C 178.160156 17.632812 179.085938 15.78125 179.085938 12.085938 Z M 179.085938 12.085938 "/>
<path style=" stroke:none;fill-rule:nonzero;fill:#03a9f4;fill-opacity:1;" d="M 186.324219 18.707031 L 184.792969 18.707031 L 184.792969 7.101562 C 184.675781 7.21875 184.5 7.355469 184.277344 7.507812 C 184.046875 7.664062 183.792969 7.8125 183.511719 7.964844 C 183.226562 8.113281 182.929688 8.253906 182.613281 8.386719 C 182.296875 8.515625 181.992188 8.621094 181.695312 8.695312 L 181.695312 7.140625 C 182.03125 7.046875 182.386719 6.917969 182.761719 6.761719 C 183.140625 6.601562 183.507812 6.421875 183.875 6.226562 C 184.238281 6.027344 184.582031 5.824219 184.90625 5.605469 C 185.226562 5.390625 185.507812 5.179688 185.746094 4.976562 L 186.324219 4.976562 Z M 186.324219 18.707031 "/>
<path style=" stroke:none;fill-rule:nonzero;fill:#03a9f4;fill-opacity:1;" d="M 10.539062 2.289062 L 10.539062 11.515625 L 23.222656 11.515625 L 23.222656 0.433594 Z M 10.539062 2.289062 "/>
<path style=" stroke:none;fill-rule:nonzero;fill:#03a9f4;fill-opacity:1;" d="M 0.429688 11.515625 L 9.644531 11.515625 L 9.644531 2.421875 L 0.429688 3.769531 Z M 0.429688 11.515625 "/>
<path style=" stroke:none;fill-rule:nonzero;fill:#03a9f4;fill-opacity:1;" d="M 9.644531 21.621094 L 9.644531 12.414062 L 0.429688 12.414062 L 0.429688 20.257812 Z M 9.644531 21.621094 "/>
<path style=" stroke:none;fill-rule:nonzero;fill:#03a9f4;fill-opacity:1;" d="M 23.222656 12.414062 L 10.539062 12.414062 L 10.539062 21.753906 L 23.222656 23.632812 Z M 23.222656 12.414062 "/>
<path style=" stroke:none;fill-rule:nonzero;fill:#03a9f4;fill-opacity:1;" d="M 197.46875 11.117188 C 197.46875 12.320312 197.351562 13.394531 197.113281 14.332031 C 196.875 15.269531 196.527344 16.0625 196.074219 16.714844 C 195.617188 17.363281 195.0625 17.859375 194.40625 18.199219 C 193.746094 18.535156 193 18.703125 192.160156 18.703125 C 191.296875 18.703125 190.539062 18.550781 189.882812 18.246094 L 189.882812 16.808594 C 190.605469 17.21875 191.375 17.421875 192.199219 17.421875 C 192.789062 17.421875 193.3125 17.300781 193.773438 17.054688 C 194.242188 16.8125 194.636719 16.457031 194.960938 15.992188 C 195.28125 15.523438 195.527344 14.945312 195.699219 14.261719 C 195.871094 13.574219 195.953125 12.789062 195.953125 11.90625 L 195.917969 11.90625 C 195.359375 13.035156 194.386719 13.601562 193 13.601562 C 192.441406 13.601562 191.925781 13.503906 191.457031 13.308594 C 190.992188 13.105469 190.585938 12.824219 190.246094 12.464844 C 189.90625 12.097656 189.640625 11.664062 189.453125 11.164062 C 189.265625 10.660156 189.171875 10.109375 189.171875 9.503906 C 189.171875 8.855469 189.273438 8.261719 189.480469 7.726562 C 189.691406 7.1875 189.984375 6.726562 190.355469 6.34375 C 190.734375 5.949219 191.175781 5.648438 191.6875 5.433594 C 192.203125 5.222656 192.765625 5.113281 193.375 5.113281 C 194.03125 5.113281 194.609375 5.25 195.117188 5.515625 C 195.625 5.78125 196.054688 6.167969 196.402344 6.679688 C 196.746094 7.1875 197.011719 7.816406 197.195312 8.558594 C 197.378906 9.304688 197.46875 10.15625 197.46875 11.117188 Z M 195.855469 9.769531 C 195.855469 9.261719 195.789062 8.800781 195.652344 8.386719 C 195.527344 7.96875 195.347656 7.617188 195.117188 7.324219 C 194.882812 7.023438 194.609375 6.792969 194.285156 6.636719 C 193.96875 6.46875 193.625 6.386719 193.246094 6.386719 C 192.886719 6.386719 192.554688 6.460938 192.242188 6.609375 C 191.933594 6.75 191.664062 6.949219 191.429688 7.210938 C 191.207031 7.46875 191.027344 7.777344 190.894531 8.136719 C 190.765625 8.492188 190.703125 8.878906 190.703125 9.300781 C 190.703125 9.765625 190.761719 10.183594 190.882812 10.546875 C 191.011719 10.914062 191.191406 11.226562 191.421875 11.484375 C 191.652344 11.734375 191.929688 11.925781 192.253906 12.0625 C 192.582031 12.195312 192.941406 12.261719 193.335938 12.261719 C 193.683594 12.261719 194.007812 12.199219 194.3125 12.070312 C 194.625 11.933594 194.890625 11.757812 195.117188 11.539062 C 195.347656 11.3125 195.527344 11.050781 195.652344 10.75 C 195.789062 10.445312 195.855469 10.117188 195.855469 9.769531 Z M 195.855469 9.769531 "/>
</g>
</svg>