<?xml version="1.0" encoding="UTF-8"?>
<svg xmlns="http://www.w3.org/2000/svg" xmlns:xlink="http://www.w3.org/1999/xlink" width="200px" height="px" viewBox="0 0 200 37" version="1.1">
<g id="surface1">
<path style=" stroke:none;fill-rule:nonzero;fill:rgb(0%,47.058824%,83.921569%);fill-opacity:1;" d="M 0 5.253906 L 15 3.195312 L 15 17.699219 L 0 17.699219 M 16.808594 2.902344 L 36.679688 0 L 36.679688 17.574219 L 16.808594 17.574219 M 0 19.230469 L 15 19.230469 L 15 33.78125 L 0 31.675781 M 16.808594 19.425781 L 36.679688 19.425781 L 36.679688 36.832031 L 16.808594 34.015625 M 47.898438 7.148438 L 50.738281 7.164062 L 55.152344 23.183594 C 55.464844 24.300781 55.699219 25.445312 55.839844 26.605469 C 57.378906 20.046875 59.480469 13.65625 61.261719 7.179688 L 63.71875 7.191406 L 67.515625 21.066406 C 67.992188 22.90625 68.609375 24.722656 68.796875 26.613281 C 70.183594 20.054688 72.171875 13.664062 73.757812 7.191406 L 76.554688 7.175781 L 70.335938 29.460938 L 67.3125 29.460938 L 62.816406 13.441406 C 62.5625 12.578125 62.457031 11.6875 62.378906 10.792969 C 62.261719 11.5625 62.152344 12.339844 61.957031 13.09375 L 57.421875 29.40625 C 56.410156 29.460938 55.402344 29.464844 54.394531 29.457031 L 47.925781 7.171875 M 78.152344 7.316406 C 78.261719 6.433594 79.039062 5.792969 79.925781 5.847656 C 80.808594 5.902344 81.5 6.636719 81.5 7.527344 C 81.5 8.414062 80.808594 9.148438 79.925781 9.203125 C 79.039062 9.261719 78.261719 8.617188 78.152344 7.738281 M 78.53125 13.453125 L 81.050781 13.453125 L 81.050781 29.433594 L 78.53125 29.433594 M 87.839844 16.027344 C 89.28125 13.464844 92.644531 12.277344 95.351562 13.464844 C 97.507812 14.304688 98.3125 16.800781 98.378906 18.929688 C 98.496094 22.425781 98.398438 25.929688 98.429688 29.425781 C 97.589844 29.425781 96.746094 29.425781 95.90625 29.421875 C 95.867188 26.058594 95.992188 22.695312 95.847656 19.332031 C 95.78125 17.667969 95.074219 15.667969 93.265625 15.242188 C 90.617188 14.441406 87.984375 16.828125 87.898438 19.445312 C 87.824219 22.769531 87.894531 26.101562 87.871094 29.425781 L 85.347656 29.425781 L 85.347656 13.453125 L 87.871094 13.453125 L 87.835938 16.027344 M 113.445312 5.886719 L 115.964844 5.886719 L 115.964844 29.433594 L 113.453125 29.433594 L 113.382812 26.867188 C 111.5625 30.136719 106.703125 30.863281 103.929688 28.433594 C 101.941406 26.722656 101.335938 23.9375 101.441406 21.414062 C 101.460938 18.855469 102.300781 16.15625 104.339844 14.476562 C 106.988281 12.296875 111.652344 12.425781 113.5 15.625 L 113.484375 5.871094 M 108.0625 15.160156 C 106.046875 15.480469 104.679688 17.324219 104.300781 19.226562 C 103.808594 21.523438 103.894531 24.1875 105.339844 26.121094 C 106.902344 28.199219 110.339844 28.246094 112.019531 26.28125 C 113.15625 25.097656 113.484375 23.398438 113.492188 21.824219 C 113.503906 20.144531 113.648438 18.25 112.535156 16.863281 C 111.550781 15.464844 109.71875 14.832031 108.078125 15.183594 M 125.628906 13.082031 C 127.878906 12.882812 130.378906 13.234375 132.058594 14.863281 C 133.964844 16.628906 134.539062 19.363281 134.429688 21.84375 C 134.398438 24.09375 133.566406 26.382812 131.921875 27.9375 C 128.484375 31.066406 122.089844 30.378906 119.902344 26.082031 C 118.1875 22.476562 118.535156 17.503906 121.667969 14.769531 C 122.789062 13.820312 124.210938 13.382812 125.617188 13.070312 M 125.164062 15.359375 C 121.464844 16.496094 120.835938 21.328125 121.992188 24.523438 C 122.914062 27.351562 126.488281 28.605469 129.09375 27.285156 C 130.835938 26.484375 131.628906 24.507812 131.796875 22.699219 C 131.988281 20.597656 131.820312 18.203125 130.328125 16.5625 C 129.066406 15.140625 126.933594 14.835938 125.160156 15.355469 M 135.714844 13.453125 L 138.34375 13.453125 L 141.453125 24.890625 C 141.664062 25.605469 141.746094 26.34375 141.824219 27.085938 C 143.011719 22.503906 144.511719 18.003906 145.867188 13.464844 L 148.164062 13.476562 C 149.320312 18.015625 150.757812 22.472656 151.714844 27.097656 C 152.703125 22.558594 154.109375 18.058594 155.203125 13.558594 C 156.042969 13.519531 156.890625 13.503906 157.738281 13.496094 L 152.992188 29.472656 L 150.378906 29.472656 C 149.242188 25.144531 147.773438 20.898438 146.847656 16.523438 C 145.757812 20.898438 144.230469 25.144531 142.984375 29.472656 L 140.460938 29.472656 L 135.714844 13.496094 M 163.867188 13.035156 C 165.441406 12.925781 167.046875 13.074219 168.53125 13.65625 C 168.941406 14.4375 168.621094 15.464844 168.71875 16.347656 C 166.953125 15.242188 164.515625 14.539062 162.585938 15.660156 C 161.269531 16.375 161.207031 18.492188 162.488281 19.277344 C 164.324219 20.46875 166.65625 20.777344 168.285156 22.304688 C 170.085938 24.039062 169.648438 27.351562 167.542969 28.652344 C 164.980469 30.285156 161.617188 30.125 158.929688 28.882812 L 158.90625 26.054688 C 160.816406 27.511719 163.488281 28.316406 165.796875 27.285156 C 167.128906 26.609375 167.199219 24.566406 166.023438 23.710938 C 164.1875 22.355469 161.65625 22.140625 160.058594 20.449219 C 158.449219 18.828125 158.738281 15.824219 160.535156 14.480469 C 161.457031 13.625 162.71875 13.371094 163.894531 13.039062 M 181.511719 6.8125 L 182.394531 6.683594 L 182.394531 29.433594 L 179.90625 29.433594 L 179.9375 10.46875 C 178.351562 11.5625 176.644531 12.503906 174.769531 13.027344 L 174.796875 10.503906 C 177.234375 9.675781 179.460938 8.335938 181.480469 6.777344 M 191.597656 6.769531 C 193.78125 6.402344 196.21875 7.203125 197.519531 9.0625 C 199.371094 11.667969 199.539062 15.03125 199.628906 18.101562 C 199.566406 21.355469 199.210938 24.871094 197.132812 27.519531 C 195.222656 30.027344 191.292969 30.617188 188.730469 28.773438 C 186.652344 27.269531 185.832031 24.652344 185.464844 22.210938 C 185.046875 18.609375 185.089844 14.8125 186.335938 11.40625 C 187.125 9.074219 189.074219 7.078125 191.589844 6.78125 M 191.203125 9.039062 C 188.960938 9.949219 188.320312 12.597656 188.007812 14.757812 C 187.679688 17.761719 187.605469 20.855469 188.320312 23.796875 C 188.675781 25.253906 189.429688 26.796875 190.871094 27.433594 C 192.507812 28.257812 194.691406 27.546875 195.535156 25.933594 C 196.90625 23.558594 196.941406 20.71875 196.960938 18.027344 C 196.90625 15.421875 196.800781 12.648438 195.367188 10.375 C 194.511719 8.996094 192.675781 8.441406 191.1875 9.039062 "/>
</g>
</svg>
