<?xml version="1.0" encoding="UTF-8"?>
<svg xmlns="http://www.w3.org/2000/svg" xmlns:xlink="http://www.w3.org/1999/xlink" width="200px" height="px" viewBox="0 0 199 38" version="1.1">
<g id="surface1">
<path style=" stroke:none;fill-rule:evenodd;fill:rgb(0%,67.843137%,93.72549%);fill-opacity:1;" d="M 0 5.375 L 15.449219 3.269531 L 15.457031 18.183594 L 0.015625 18.273438 Z M 15.445312 19.902344 L 15.457031 34.832031 L 0.0117188 32.707031 L 0.0117188 19.804688 Z M 17.316406 2.992188 L 37.804688 0 L 37.804688 17.996094 L 17.316406 18.15625 Z M 37.808594 20.042969 L 37.804688 37.957031 L 17.316406 35.0625 L 17.289062 20.007812 Z M 37.808594 20.042969 "/>
<path style=" stroke:none;fill-rule:nonzero;fill:rgb(0%,67.843137%,93.72549%);fill-opacity:1;" d="M 82.503906 6.441406 C 81.949219 6.441406 81.480469 6.632812 81.089844 7.015625 C 80.703125 7.398438 80.507812 7.867188 80.507812 8.425781 C 80.507812 8.988281 80.703125 9.457031 81.085938 9.832031 C 81.472656 10.203125 81.945312 10.390625 82.503906 10.390625 C 83.070312 10.390625 83.550781 10.199219 83.945312 9.8125 C 84.335938 9.425781 84.53125 8.960938 84.53125 8.425781 C 84.53125 7.871094 84.335938 7.402344 83.941406 7.015625 C 83.546875 6.632812 83.066406 6.441406 82.503906 6.441406 Z M 116.40625 6.453125 L 116.40625 15.601562 C 115.390625 14.359375 113.898438 13.734375 111.921875 13.734375 C 109.597656 13.734375 107.742188 14.5625 106.355469 16.21875 C 104.972656 17.875 104.28125 20.054688 104.28125 22.765625 C 104.28125 25.300781 104.910156 27.316406 106.160156 28.808594 C 107.414062 30.300781 109.101562 31.046875 111.222656 31.046875 C 113.488281 31.046875 115.21875 30.269531 116.40625 28.714844 L 116.40625 30.675781 L 119.65625 30.675781 L 119.65625 6.453125 Z M 191.328125 7.355469 C 190.394531 7.355469 189.523438 7.507812 188.707031 7.8125 C 187.890625 8.113281 187.1875 8.535156 186.597656 9.070312 C 186.007812 9.605469 185.546875 10.238281 185.214844 10.972656 C 184.878906 11.703125 184.714844 12.503906 184.714844 13.367188 C 184.714844 14.460938 185.011719 15.449219 185.613281 16.339844 C 186.210938 17.226562 186.964844 17.851562 187.867188 18.203125 C 187.316406 18.308594 186.773438 18.585938 186.230469 19.035156 C 185.691406 19.480469 185.238281 19.976562 184.875 20.519531 C 184.511719 21.066406 184.230469 21.644531 184.039062 22.261719 C 183.84375 22.878906 183.75 23.503906 183.75 24.132812 C 183.75 25.152344 183.9375 26.085938 184.308594 26.933594 C 184.683594 27.78125 185.210938 28.507812 185.890625 29.117188 C 186.566406 29.722656 187.367188 30.195312 188.285156 30.53125 C 189.203125 30.867188 190.214844 31.035156 191.328125 31.035156 C 192.441406 31.035156 193.460938 30.867188 194.386719 30.53125 C 195.308594 30.195312 196.109375 29.722656 196.78125 29.117188 C 197.457031 28.507812 197.976562 27.777344 198.347656 26.925781 C 198.71875 26.078125 198.902344 25.144531 198.902344 24.132812 C 198.902344 23.511719 198.804688 22.890625 198.613281 22.269531 C 198.417969 21.648438 198.136719 21.0625 197.769531 20.515625 C 197.402344 19.96875 196.953125 19.472656 196.421875 19.027344 C 195.894531 18.585938 195.355469 18.308594 194.816406 18.199219 C 195.695312 17.847656 196.4375 17.226562 197.039062 16.335938 C 197.640625 15.445312 197.941406 14.453125 197.941406 13.367188 C 197.941406 12.523438 197.777344 11.730469 197.445312 10.992188 C 197.117188 10.257812 196.65625 9.621094 196.066406 9.085938 C 195.480469 8.550781 194.777344 8.128906 193.957031 7.820312 C 193.140625 7.511719 192.265625 7.355469 191.328125 7.355469 Z M 62.875 7.699219 L 57.648438 26.382812 L 52.691406 7.699219 L 49.167969 7.710938 L 55.699219 30.367188 L 59.460938 30.332031 L 64.355469 12.535156 L 69.269531 30.351562 L 73.027344 30.386719 L 79.355469 7.699219 L 75.914062 7.71875 L 71.183594 26.621094 L 66.253906 7.707031 Z M 191.339844 10.136719 C 191.800781 10.136719 192.234375 10.222656 192.640625 10.394531 C 193.046875 10.570312 193.402344 10.808594 193.707031 11.113281 C 194.011719 11.421875 194.253906 11.78125 194.429688 12.195312 C 194.601562 12.609375 194.691406 13.066406 194.691406 13.570312 C 194.691406 14.046875 194.597656 14.496094 194.417969 14.910156 C 194.234375 15.328125 193.996094 15.6875 193.691406 15.996094 C 193.390625 16.300781 193.039062 16.542969 192.632812 16.722656 C 192.230469 16.898438 191.796875 16.988281 191.339844 16.988281 C 190.875 16.988281 190.445312 16.902344 190.050781 16.730469 C 189.652344 16.558594 189.300781 16.320312 188.988281 16.007812 C 188.679688 15.699219 188.4375 15.339844 188.265625 14.929688 C 188.089844 14.519531 188.003906 14.066406 188.003906 13.570312 C 188.003906 13.082031 188.085938 12.632812 188.246094 12.210938 C 188.40625 11.792969 188.636719 11.433594 188.929688 11.128906 C 189.226562 10.824219 189.574219 10.582031 189.984375 10.40625 C 190.390625 10.226562 190.84375 10.136719 191.339844 10.136719 Z M 130.605469 13.695312 C 128.015625 13.695312 125.957031 14.476562 124.433594 16.039062 C 122.90625 17.597656 122.144531 19.746094 122.144531 22.480469 C 122.144531 25.003906 122.875 27.035156 124.34375 28.578125 C 125.808594 30.125 127.773438 30.894531 130.234375 30.894531 C 132.753906 30.894531 134.761719 30.101562 136.261719 28.515625 C 137.761719 26.929688 138.511719 24.835938 138.511719 22.234375 C 138.511719 19.582031 137.8125 17.5 136.417969 15.976562 C 135.023438 14.457031 133.085938 13.695312 130.605469 13.695312 Z M 169.511719 13.734375 C 168.800781 13.734375 168.101562 13.839844 167.410156 14.046875 C 166.722656 14.257812 166.109375 14.570312 165.570312 14.984375 C 165.027344 15.398438 164.59375 15.914062 164.269531 16.527344 C 163.945312 17.144531 163.78125 17.855469 163.78125 18.65625 C 163.78125 19.3125 163.871094 19.886719 164.042969 20.378906 C 164.21875 20.871094 164.476562 21.308594 164.816406 21.695312 C 165.15625 22.078125 165.574219 22.417969 166.066406 22.714844 C 166.558594 23.007812 167.128906 23.300781 167.777344 23.59375 C 168.183594 23.769531 168.585938 23.949219 168.988281 24.136719 C 169.390625 24.324219 169.722656 24.519531 169.988281 24.726562 C 170.25 24.933594 170.453125 25.164062 170.601562 25.414062 C 170.746094 25.667969 170.820312 25.976562 170.820312 26.34375 C 170.820312 27.625 169.929688 28.269531 168.144531 28.269531 C 166.730469 28.269531 165.269531 27.753906 163.753906 26.726562 L 163.753906 29.96875 C 164.972656 30.6875 166.339844 31.046875 167.851562 31.046875 C 168.625 31.046875 169.363281 30.953125 170.0625 30.757812 C 170.761719 30.566406 171.386719 30.261719 171.933594 29.855469 C 172.480469 29.449219 172.925781 28.929688 173.261719 28.296875 C 173.59375 27.664062 173.761719 26.933594 173.761719 26.09375 C 173.761719 25.414062 173.660156 24.820312 173.453125 24.3125 C 173.25 23.804688 172.957031 23.355469 172.582031 22.972656 C 172.207031 22.589844 171.769531 22.253906 171.269531 21.96875 C 170.769531 21.679688 170.183594 21.394531 169.511719 21.101562 C 169.042969 20.894531 168.632812 20.710938 168.285156 20.542969 C 167.9375 20.375 167.644531 20.195312 167.414062 19.996094 C 167.179688 19.800781 167.007812 19.585938 166.894531 19.347656 C 166.78125 19.113281 166.726562 18.808594 166.726562 18.441406 C 166.726562 18.15625 166.78125 17.902344 166.890625 17.671875 C 167.003906 17.445312 167.167969 17.242188 167.378906 17.070312 C 167.59375 16.898438 167.855469 16.761719 168.164062 16.664062 C 168.46875 16.566406 168.820312 16.515625 169.207031 16.515625 C 170.492188 16.515625 171.792969 16.902344 173.113281 17.667969 L 173.113281 14.574219 C 171.980469 14.015625 170.78125 13.734375 169.511719 13.734375 Z M 90.722656 16.734375 L 90.707031 14.195312 L 87.605469 14.210938 L 87.59375 30.382812 L 90.746094 30.410156 L 90.785156 21.386719 C 90.792969 19.472656 90.96875 18.875 91.921875 17.777344 C 92.695312 16.886719 93.773438 16.414062 94.933594 16.414062 C 97.347656 16.390625 98.367188 18.203125 98.367188 21.386719 L 98.367188 30.410156 L 101.476562 30.410156 L 101.449219 20.734375 C 101.449219 18.539062 101.09375 16.683594 100.113281 15.484375 C 99.132812 14.285156 97.765625 13.78125 95.914062 13.78125 C 93.410156 13.78125 91.867188 15.015625 90.722656 16.734375 Z M 139.105469 14.148438 L 144.117188 30.40625 L 147.273438 30.40625 L 151.074219 17.878906 L 154.480469 30.417969 L 157.84375 30.398438 L 162.597656 14.144531 L 159.386719 14.144531 L 156.226562 27.4375 L 156.335938 27.84375 L 152.621094 14.144531 L 149.6875 14.144531 L 145.898438 27.261719 L 142.472656 14.144531 Z M 83.925781 14.175781 L 80.78125 14.195312 L 80.847656 30.371094 L 83.90625 30.394531 Z M 130.421875 16.460938 C 131.949219 16.460938 133.128906 16.960938 133.957031 17.964844 C 134.789062 18.964844 135.203125 20.421875 135.203125 22.328125 C 135.203125 24.214844 134.789062 25.652344 133.960938 26.644531 C 133.132812 27.636719 131.953125 28.132812 130.421875 28.132812 C 128.910156 28.132812 127.703125 27.625 126.804688 26.617188 C 125.902344 25.605469 125.453125 24.195312 125.453125 22.390625 C 125.453125 20.511719 125.898438 19.054688 126.792969 18.015625 C 127.6875 16.980469 128.894531 16.460938 130.421875 16.460938 Z M 112.246094 16.515625 C 113.441406 16.515625 114.433594 16.929688 115.222656 17.757812 C 116.011719 18.585938 116.40625 19.601562 116.40625 20.804688 L 116.40625 23.15625 C 116.40625 24.648438 115.992188 25.875 115.164062 26.832031 C 114.339844 27.789062 113.273438 28.265625 111.964844 28.265625 C 110.640625 28.265625 109.578125 27.773438 108.78125 26.78125 C 107.988281 25.792969 107.589844 24.410156 107.589844 22.640625 C 107.589844 20.695312 108.007812 19.1875 108.839844 18.121094 C 109.675781 17.050781 110.8125 16.515625 112.246094 16.515625 Z M 191.339844 19.707031 C 191.96875 19.707031 192.53125 19.816406 193.035156 20.035156 C 193.539062 20.253906 193.972656 20.554688 194.339844 20.941406 C 194.703125 21.324219 194.984375 21.773438 195.183594 22.28125 C 195.382812 22.792969 195.484375 23.335938 195.484375 23.917969 C 195.484375 24.5625 195.378906 25.148438 195.167969 25.675781 C 194.957031 26.203125 194.671875 26.644531 194.308594 27.003906 C 193.945312 27.363281 193.507812 27.644531 193.007812 27.84375 C 192.503906 28.042969 191.945312 28.140625 191.339844 28.140625 C 190.703125 28.140625 190.132812 28.046875 189.625 27.851562 C 189.121094 27.660156 188.691406 27.382812 188.335938 27.019531 C 187.980469 26.660156 187.703125 26.21875 187.507812 25.699219 C 187.308594 25.179688 187.210938 24.585938 187.210938 23.917969 C 187.210938 23.292969 187.316406 22.71875 187.53125 22.203125 C 187.742188 21.6875 188.03125 21.242188 188.398438 20.875 C 188.769531 20.507812 189.203125 20.21875 189.703125 20.015625 C 190.207031 19.808594 190.75 19.707031 191.339844 19.707031 Z M 191.339844 19.707031 "/>
<path style=" stroke:none;fill-rule:nonzero;fill:rgb(0%,67.843137%,93.72549%);fill-opacity:1;" d="M 43.40625 37.957031 L 43.09375 37.957031 L 43.09375 36.558594 L 43.082031 36.558594 L 42.441406 37.957031 L 42.265625 37.957031 L 41.640625 36.558594 L 41.628906 36.558594 L 41.628906 37.957031 L 41.332031 37.957031 L 41.332031 36.019531 L 41.703125 36.019531 L 42.359375 37.46875 L 42.371094 37.46875 L 43.039062 36.019531 L 43.40625 36.019531 Z M 41.085938 36.304688 L 40.476562 36.304688 L 40.476562 37.957031 L 40.148438 37.957031 L 40.148438 36.304688 L 39.546875 36.304688 L 39.546875 36.019531 L 41.085938 36.019531 Z M 41.085938 36.304688 "/>
<path style=" stroke:none;fill-rule:nonzero;fill:rgb(0%,67.843137%,93.72549%);fill-opacity:1;" d="M 176.179688 17.238281 C 175.722656 17.238281 175.332031 17.078125 175.011719 16.753906 C 174.6875 16.433594 174.527344 16.046875 174.527344 15.589844 C 174.527344 15.132812 174.6875 14.742188 175.011719 14.421875 C 175.332031 14.097656 175.722656 13.9375 176.179688 13.9375 C 176.632812 13.9375 177.019531 14.097656 177.339844 14.421875 C 177.664062 14.742188 177.824219 15.132812 177.824219 15.589844 C 177.824219 16.046875 177.664062 16.433594 177.339844 16.753906 C 177.019531 17.078125 176.632812 17.238281 176.179688 17.238281 Z M 176.179688 14.195312 C 175.796875 14.195312 175.46875 14.332031 175.195312 14.601562 C 174.921875 14.875 174.785156 15.203125 174.785156 15.589844 C 174.785156 15.972656 174.921875 16.300781 175.195312 16.570312 C 175.46875 16.84375 175.796875 16.976562 176.179688 16.976562 C 176.5625 16.976562 176.890625 16.84375 177.160156 16.570312 C 177.429688 16.300781 177.566406 15.972656 177.566406 15.589844 C 177.566406 15.203125 177.429688 14.875 177.160156 14.601562 C 176.890625 14.332031 176.5625 14.195312 176.179688 14.195312 Z M 176.976562 16.621094 L 176.597656 16.621094 L 176.371094 16.117188 C 176.253906 15.863281 176.128906 15.738281 175.996094 15.738281 L 175.855469 15.738281 L 175.855469 16.621094 L 175.53125 16.621094 L 175.53125 14.519531 L 176.125 14.519531 C 176.367188 14.519531 176.554688 14.570312 176.6875 14.675781 C 176.820312 14.777344 176.886719 14.917969 176.886719 15.09375 C 176.886719 15.234375 176.839844 15.359375 176.746094 15.460938 C 176.652344 15.5625 176.523438 15.628906 176.355469 15.664062 L 176.355469 15.671875 C 176.472656 15.699219 176.585938 15.828125 176.703125 16.0625 Z M 175.855469 14.792969 L 175.855469 15.46875 L 176.113281 15.46875 C 176.402344 15.46875 176.546875 15.355469 176.546875 15.128906 C 176.546875 15 176.507812 14.910156 176.429688 14.863281 C 176.351562 14.816406 176.230469 14.792969 176.058594 14.792969 Z M 175.855469 14.792969 "/>
</g>
</svg>
