<?xml version="1.0" encoding="UTF-8"?>
<svg xmlns="http://www.w3.org/2000/svg" xmlns:xlink="http://www.w3.org/1999/xlink" width="200px" height="px" viewBox="0 0 201 37" version="1.1">
<g id="surface1">
<path style=" stroke:none;fill-rule:nonzero;fill:rgb(0%,47.058824%,83.137255%);fill-opacity:1;" d="M 72.589844 29.554688 L 68.019531 29.554688 L 63.5625 12.582031 L 59.058594 29.554688 L 54.386719 29.554688 L 48.257812 7.496094 L 52.402344 7.496094 L 56.824219 25.042969 L 61.644531 7.496094 L 65.832031 7.496094 L 70.367188 25.144531 L 74.5625 7.496094 L 78.566406 7.496094 Z M 72.589844 29.554688 "/>
<path style=" stroke:none;fill-rule:nonzero;fill:rgb(0%,47.058824%,83.137255%);fill-opacity:1;" d="M 84.425781 9.109375 C 84.425781 9.707031 84.207031 10.203125 83.765625 10.601562 C 83.335938 10.996094 82.816406 11.195312 82.199219 11.195312 C 81.582031 11.195312 81.058594 10.996094 80.628906 10.601562 C 80.199219 10.203125 79.984375 9.707031 79.984375 9.109375 C 79.984375 8.503906 80.199219 7.996094 80.628906 7.585938 C 81.066406 7.179688 81.589844 6.976562 82.199219 6.976562 C 82.835938 6.976562 83.363281 7.183594 83.78125 7.601562 C 84.210938 8.023438 84.425781 8.523438 84.425781 9.109375 Z M 80.289062 29.554688 L 80.289062 13.65625 L 83.996094 13.65625 L 83.996094 29.554688 Z M 80.289062 29.554688 "/>
<path style=" stroke:none;fill-rule:nonzero;fill:rgb(0%,47.058824%,83.137255%);fill-opacity:1;" d="M 98.25 29.554688 L 98.25 20.703125 C 98.25 18.382812 97.53125 16.382812 95.195312 16.382812 C 92.875 16.382812 91.402344 18.476562 91.402344 20.59375 L 91.402344 29.554688 L 87.777344 29.554688 L 87.777344 13.65625 L 91.402344 13.65625 L 91.402344 15.90625 L 91.464844 15.90625 C 92.667969 14.042969 94.402344 13.390625 96.671875 13.390625 C 98.375 13.390625 99.695312 13.808594 100.625 14.898438 C 101.566406 15.984375 101.980469 17.636719 101.980469 19.855469 L 101.980469 29.554688 Z M 98.25 29.554688 "/>
<path style=" stroke:none;fill-rule:nonzero;fill:rgb(0%,47.058824%,83.137255%);fill-opacity:1;" d="M 116.445312 29.554688 L 116.445312 27.507812 L 116.382812 27.507812 C 115.234375 29.441406 112.886719 29.890625 111.246094 29.890625 C 106.382812 29.890625 104.597656 26.109375 104.597656 22.085938 C 104.597656 19.417969 105.261719 17.28125 106.589844 15.683594 C 107.929688 14.070312 109.714844 13.375 111.953125 13.375 C 115.4375 13.375 116.382812 15.3125 116.382812 15.3125 L 116.445312 15.3125 L 116.445312 6.113281 L 120.203125 6.113281 L 120.203125 29.554688 Z M 116.476562 20.496094 C 116.476562 18.574219 115.242188 16.394531 112.640625 16.394531 C 109.664062 16.394531 108.503906 18.988281 108.503906 21.976562 C 108.503906 24.582031 109.597656 26.953125 112.433594 26.992188 C 115.214844 26.992188 116.453125 24.339844 116.476562 22.148438 Z M 116.476562 20.496094 "/>
<path style=" stroke:none;fill-rule:nonzero;fill:rgb(0%,47.058824%,83.137255%);fill-opacity:1;" d="M 139.164062 21.535156 C 139.164062 27.042969 135.875 30.023438 130.9375 30.023438 C 125.566406 30.023438 122.8125 26.808594 122.8125 21.878906 C 122.8125 16.246094 126.109375 13.3125 131.328125 13.3125 C 136.109375 13.3125 139.164062 16.371094 139.164062 21.535156 Z M 135.304688 21.660156 C 135.304688 19.210938 134.4375 16.488281 131.125 16.488281 C 127.945312 16.488281 126.710938 18.855469 126.710938 21.753906 C 126.710938 24.90625 128.195312 26.910156 131.101562 26.910156 C 134.21875 26.910156 135.285156 24.519531 135.308594 21.660156 Z M 135.304688 21.660156 "/>
<path style=" stroke:none;fill-rule:nonzero;fill:rgb(0%,47.058824%,83.137255%);fill-opacity:1;" d="M 159.046875 29.554688 L 154.957031 29.554688 L 151.832031 18.050781 L 148.480469 29.554688 L 144.511719 29.554688 L 139.890625 13.707031 L 143.769531 13.707031 L 146.789062 26.019531 L 150.316406 13.707031 L 153.957031 13.707031 L 157.101562 25.984375 L 160.042969 13.707031 L 163.597656 13.707031 Z M 159.046875 29.554688 "/>
<path style=" stroke:none;fill-rule:nonzero;fill:rgb(0%,47.058824%,83.137255%);fill-opacity:1;" d="M 175.234375 25.128906 C 175.234375 28.667969 172.027344 30.046875 168.8125 30.046875 C 166.71875 30.046875 164.632812 29.238281 164.632812 29.238281 L 164.632812 25.476562 C 164.632812 25.476562 166.445312 27.054688 168.976562 27.074219 C 170.710938 27.074219 171.496094 26.527344 171.496094 25.484375 C 171.539062 24.648438 171.027344 24.1875 170.417969 23.84375 C 170 23.589844 169.347656 23.28125 168.457031 22.917969 C 167.414062 22.464844 166.632812 22.03125 166.121094 21.613281 C 165.621094 21.195312 165.242188 20.703125 164.992188 20.136719 C 164.75 19.574219 164.574219 18.953125 164.574219 18.199219 C 164.574219 15.34375 166.957031 13.324219 170.765625 13.324219 C 173.28125 13.324219 174.371094 13.941406 174.371094 13.941406 L 174.371094 17.515625 C 174.371094 17.515625 172.582031 16.28125 170.726562 16.269531 C 169.394531 16.269531 168.386719 16.753906 168.367188 17.851562 C 168.359375 19.265625 170.089844 19.957031 171.125 20.375 C 172.632812 20.980469 173.734375 21.628906 174.351562 22.371094 C 174.96875 23.113281 175.234375 23.863281 175.234375 25.128906 Z M 175.234375 25.128906 "/>
<path style=" stroke:none;fill-rule:nonzero;fill:rgb(0%,47.058824%,83.137255%);fill-opacity:1;" d="M 189.808594 6.851562 L 189.808594 29.554688 L 186.019531 29.554688 L 186.019531 11.445312 C 186.019531 11.445312 184.71875 12.648438 181.382812 13.515625 L 181.382812 10.285156 C 186.339844 8.453125 188.121094 6.851562 188.121094 6.851562 Z M 189.808594 6.851562 "/>
<path style=" stroke:none;fill-rule:nonzero;fill:rgb(0%,47.058824%,83.137255%);fill-opacity:1;" d="M 0 0 L 17.554688 0 L 17.554688 17.558594 L 0 17.558594 Z M 0 0 "/>
<path style=" stroke:none;fill-rule:nonzero;fill:rgb(0%,47.058824%,83.137255%);fill-opacity:1;" d="M 19.480469 0 L 37.03125 0 L 37.03125 17.558594 L 19.480469 17.558594 Z M 19.480469 0 "/>
<path style=" stroke:none;fill-rule:nonzero;fill:rgb(0%,47.058824%,83.137255%);fill-opacity:1;" d="M 0 19.488281 L 17.554688 19.488281 L 17.554688 37.050781 L 0 37.050781 Z M 0 19.488281 "/>
<path style=" stroke:none;fill-rule:nonzero;fill:rgb(0%,47.058824%,83.137255%);fill-opacity:1;" d="M 19.480469 19.488281 L 37.03125 19.488281 L 37.03125 37.050781 L 19.480469 37.050781 Z M 19.480469 19.488281 "/>
<path style=" stroke:none;fill-rule:nonzero;fill:rgb(0%,47.058824%,83.137255%);fill-opacity:1;" d="M 201.003906 6.851562 L 201.003906 29.554688 L 197.210938 29.554688 L 197.210938 11.445312 C 197.210938 11.445312 195.914062 12.648438 192.578125 13.515625 L 192.578125 10.285156 C 197.535156 8.453125 199.3125 6.851562 199.3125 6.851562 Z M 201.003906 6.851562 "/>
</g>
</svg>
