<svg xmlns="http://www.w3.org/2000/svg" xmlns:xlink="http://www.w3.org/1999/xlink" width="200px" height="px" viewBox="0 0 201 24" version="1.1">
<g id="surface1">
<path style=" stroke:none;fill-rule:nonzero;fill:#03a9f4;fill-opacity:1;" d="M 47.453125 5.273438 L 43.660156 18.707031 L 41.816406 18.707031 L 39.054688 8.890625 C 38.933594 8.472656 38.863281 8.015625 38.839844 7.523438 L 38.800781 7.523438 C 38.765625 7.984375 38.683594 8.4375 38.558594 8.871094 L 35.777344 18.707031 L 33.949219 18.707031 L 30.015625 5.273438 L 31.75 5.273438 L 34.605469 15.578125 C 34.722656 16.011719 34.800781 16.460938 34.832031 16.929688 L 34.878906 16.929688 C 34.910156 16.597656 35.003906 16.148438 35.167969 15.578125 L 38.136719 5.273438 L 39.644531 5.273438 L 42.492188 15.65625 C 42.589844 16.011719 42.664062 16.429688 42.714844 16.910156 L 42.753906 16.910156 C 42.777344 16.585938 42.863281 16.15625 43.003906 15.617188 L 45.75 5.277344 L 47.453125 5.277344 Z M 47.453125 5.273438 "/>
<path style=" stroke:none;fill-rule:nonzero;fill:#03a9f4;fill-opacity:1;" d="M 49.570312 6.679688 C 49.292969 6.679688 49.058594 6.585938 48.867188 6.398438 C 48.671875 6.210938 48.578125 5.972656 48.578125 5.6875 C 48.578125 5.398438 48.671875 5.160156 48.867188 4.96875 C 49.058594 4.78125 49.292969 4.683594 49.570312 4.683594 C 49.851562 4.683594 50.089844 4.78125 50.285156 4.96875 C 50.480469 5.160156 50.582031 5.398438 50.582031 5.6875 C 50.582031 5.960938 50.480469 6.195312 50.285156 6.390625 C 50.089844 6.582031 49.851562 6.679688 49.570312 6.679688 Z M 50.316406 18.707031 L 48.78125 18.707031 L 48.78125 9.117188 L 50.316406 9.117188 Z M 50.316406 18.707031 "/>
<path style=" stroke:none;fill-rule:nonzero;fill:#03a9f4;fill-opacity:1;" d="M 60.640625 18.707031 L 59.101562 18.707031 L 59.101562 13.238281 C 59.101562 11.203125 58.359375 10.183594 56.875 10.183594 C 56.105469 10.183594 55.472656 10.472656 54.96875 11.050781 C 54.464844 11.628906 54.214844 12.359375 54.214844 13.238281 L 54.214844 18.707031 L 52.679688 18.707031 L 52.679688 9.117188 L 54.214844 9.117188 L 54.214844 10.707031 L 54.253906 10.707031 C 54.976562 9.496094 56.023438 8.890625 57.398438 8.890625 C 58.445312 8.890625 59.25 9.230469 59.804688 9.90625 C 60.359375 10.585938 60.636719 11.5625 60.636719 12.84375 L 60.636719 18.707031 Z M 60.640625 18.707031 "/>
<path style=" stroke:none;fill-rule:nonzero;fill:#03a9f4;fill-opacity:1;" d="M 71.5625 18.707031 L 70.027344 18.707031 L 70.027344 17.078125 L 69.992188 17.078125 C 69.277344 18.316406 68.179688 18.933594 66.695312 18.933594 C 65.488281 18.933594 64.527344 18.503906 63.804688 17.644531 C 63.085938 16.785156 62.722656 15.617188 62.722656 14.136719 C 62.722656 12.550781 63.125 11.28125 63.921875 10.324219 C 64.722656 9.367188 65.785156 8.890625 67.117188 8.890625 C 68.433594 8.890625 69.390625 9.410156 69.992188 10.445312 L 70.027344 10.445312 L 70.027344 4.507812 L 71.5625 4.507812 Z M 70.027344 14.371094 L 70.027344 12.957031 C 70.027344 12.183594 69.773438 11.527344 69.261719 10.988281 C 68.75 10.453125 68.101562 10.183594 67.3125 10.183594 C 66.375 10.183594 65.640625 10.527344 65.101562 11.214844 C 64.566406 11.902344 64.296875 12.851562 64.296875 14.0625 C 64.296875 15.167969 64.554688 16.039062 65.070312 16.679688 C 65.585938 17.320312 66.277344 17.640625 67.144531 17.640625 C 68 17.640625 68.695312 17.332031 69.226562 16.714844 C 69.761719 16.09375 70.027344 15.3125 70.027344 14.371094 Z M 70.027344 14.371094 "/>
<path style=" stroke:none;fill-rule:nonzero;fill:#03a9f4;fill-opacity:1;" d="M 78.277344 18.933594 C 76.859375 18.933594 75.730469 18.484375 74.882812 17.589844 C 74.035156 16.691406 73.613281 15.503906 73.613281 14.023438 C 73.613281 12.414062 74.054688 11.15625 74.933594 10.25 C 75.8125 9.34375 77.003906 8.890625 78.503906 8.890625 C 79.929688 8.890625 81.046875 9.332031 81.851562 10.210938 C 82.652344 11.089844 83.054688 12.3125 83.054688 13.875 C 83.054688 15.40625 82.621094 16.628906 81.757812 17.550781 C 80.890625 18.472656 79.730469 18.933594 78.277344 18.933594 Z M 78.390625 10.183594 C 77.402344 10.183594 76.621094 10.519531 76.050781 11.191406 C 75.472656 11.863281 75.1875 12.789062 75.1875 13.96875 C 75.1875 15.105469 75.476562 16 76.058594 16.65625 C 76.640625 17.3125 77.417969 17.640625 78.390625 17.640625 C 79.382812 17.640625 80.144531 17.320312 80.679688 16.675781 C 81.214844 16.03125 81.480469 15.117188 81.480469 13.929688 C 81.480469 12.730469 81.214844 11.808594 80.679688 11.15625 C 80.144531 10.507812 79.382812 10.183594 78.390625 10.183594 Z M 78.390625 10.183594 "/>
<path style=" stroke:none;fill-rule:nonzero;fill:#03a9f4;fill-opacity:1;" d="M 96.894531 9.117188 L 94.019531 18.707031 L 92.425781 18.707031 L 90.449219 11.84375 C 90.375 11.578125 90.324219 11.285156 90.300781 10.953125 L 90.265625 10.953125 C 90.246094 11.175781 90.179688 11.46875 90.066406 11.824219 L 87.921875 18.710938 L 86.386719 18.710938 L 83.484375 9.117188 L 85.09375 9.117188 L 87.078125 16.328125 C 87.140625 16.546875 87.183594 16.835938 87.210938 17.191406 L 87.285156 17.191406 C 87.304688 16.917969 87.359375 16.625 87.453125 16.3125 L 89.664062 9.117188 L 91.066406 9.117188 L 93.054688 16.347656 C 93.113281 16.578125 93.164062 16.867188 93.195312 17.210938 L 93.269531 17.210938 C 93.28125 16.964844 93.335938 16.679688 93.429688 16.347656 L 95.375 9.117188 Z M 96.894531 9.117188 "/>
<path style=" stroke:none;fill-rule:nonzero;fill:#03a9f4;fill-opacity:1;" d="M 97.605469 18.363281 L 97.605469 16.714844 C 98.441406 17.332031 99.363281 17.640625 100.367188 17.640625 C 101.714844 17.640625 102.390625 17.191406 102.390625 16.292969 C 102.390625 16.035156 102.332031 15.820312 102.214844 15.640625 C 102.101562 15.460938 101.945312 15.304688 101.75 15.167969 C 101.550781 15.03125 101.320312 14.90625 101.054688 14.796875 C 100.789062 14.6875 100.503906 14.574219 100.199219 14.457031 C 99.773438 14.285156 99.402344 14.117188 99.082031 13.945312 C 98.757812 13.773438 98.492188 13.578125 98.273438 13.363281 C 98.058594 13.148438 97.898438 12.902344 97.789062 12.628906 C 97.679688 12.351562 97.625 12.03125 97.625 11.664062 C 97.625 11.214844 97.726562 10.816406 97.933594 10.46875 C 98.140625 10.121094 98.414062 9.832031 98.757812 9.597656 C 99.101562 9.363281 99.492188 9.1875 99.933594 9.066406 C 100.371094 8.949219 100.824219 8.890625 101.292969 8.890625 C 102.125 8.890625 102.867188 9.035156 103.523438 9.320312 L 103.523438 10.875 C 102.816406 10.414062 102.003906 10.183594 101.085938 10.183594 C 100.800781 10.183594 100.542969 10.214844 100.3125 10.28125 C 100.078125 10.347656 99.882812 10.4375 99.714844 10.558594 C 99.550781 10.675781 99.421875 10.816406 99.332031 10.984375 C 99.242188 11.148438 99.195312 11.332031 99.195312 11.53125 C 99.195312 11.78125 99.242188 11.988281 99.332031 12.160156 C 99.421875 12.328125 99.554688 12.476562 99.730469 12.609375 C 99.90625 12.738281 100.117188 12.859375 100.367188 12.964844 C 100.617188 13.070312 100.902344 13.1875 101.21875 13.3125 C 101.644531 13.472656 102.023438 13.640625 102.363281 13.8125 C 102.699219 13.984375 102.988281 14.179688 103.222656 14.394531 C 103.460938 14.609375 103.644531 14.859375 103.773438 15.136719 C 103.898438 15.417969 103.964844 15.753906 103.964844 16.140625 C 103.964844 16.613281 103.859375 17.027344 103.648438 17.375 C 103.441406 17.726562 103.160156 18.015625 102.8125 18.246094 C 102.460938 18.480469 102.058594 18.652344 101.605469 18.761719 C 101.148438 18.875 100.671875 18.933594 100.171875 18.933594 C 99.183594 18.933594 98.328125 18.742188 97.605469 18.363281 Z M 97.605469 18.363281 "/>
<path style=" stroke:none;fill-rule:nonzero;fill:#03a9f4;fill-opacity:1;" d="M 108.65625 18.164062 L 108.65625 16.3125 C 108.871094 16.5 109.125 16.667969 109.421875 16.816406 C 109.71875 16.96875 110.027344 17.09375 110.355469 17.195312 C 110.683594 17.300781 111.015625 17.378906 111.34375 17.433594 C 111.675781 17.492188 111.980469 17.519531 112.261719 17.519531 C 113.230469 17.519531 113.953125 17.339844 114.429688 16.980469 C 114.90625 16.621094 115.148438 16.105469 115.148438 15.429688 C 115.148438 15.070312 115.066406 14.753906 114.90625 14.484375 C 114.75 14.214844 114.527344 13.96875 114.246094 13.75 C 113.964844 13.527344 113.636719 13.3125 113.25 13.113281 C 112.867188 12.910156 112.453125 12.695312 112.007812 12.46875 C 111.542969 12.230469 111.105469 11.992188 110.699219 11.75 C 110.292969 11.503906 109.941406 11.234375 109.640625 10.941406 C 109.339844 10.648438 109.105469 10.316406 108.933594 9.945312 C 108.761719 9.574219 108.675781 9.136719 108.675781 8.636719 C 108.675781 8.027344 108.808594 7.492188 109.078125 7.042969 C 109.347656 6.589844 109.699219 6.214844 110.136719 5.921875 C 110.574219 5.628906 111.070312 5.410156 111.628906 5.265625 C 112.1875 5.121094 112.757812 5.050781 113.339844 5.050781 C 114.664062 5.050781 115.628906 5.210938 116.234375 5.527344 L 116.234375 7.296875 C 115.441406 6.75 114.421875 6.472656 113.179688 6.472656 C 112.835938 6.472656 112.492188 6.507812 112.148438 6.582031 C 111.808594 6.652344 111.5 6.769531 111.230469 6.933594 C 110.964844 7.09375 110.746094 7.304688 110.578125 7.5625 C 110.40625 7.816406 110.324219 8.128906 110.324219 8.496094 C 110.324219 8.839844 110.386719 9.136719 110.515625 9.386719 C 110.644531 9.636719 110.832031 9.867188 111.082031 10.070312 C 111.332031 10.277344 111.636719 10.476562 111.996094 10.671875 C 112.355469 10.863281 112.769531 11.078125 113.238281 11.308594 C 113.71875 11.546875 114.171875 11.796875 114.601562 12.058594 C 115.035156 12.320312 115.414062 12.609375 115.738281 12.929688 C 116.0625 13.246094 116.320312 13.601562 116.507812 13.988281 C 116.699219 14.375 116.792969 14.820312 116.792969 15.316406 C 116.792969 15.980469 116.664062 16.539062 116.40625 17 C 116.144531 17.457031 115.796875 17.832031 115.355469 18.117188 C 114.917969 18.40625 114.410156 18.613281 113.835938 18.742188 C 113.261719 18.871094 112.65625 18.933594 112.019531 18.933594 C 111.808594 18.933594 111.542969 18.917969 111.230469 18.882812 C 110.921875 18.847656 110.601562 18.796875 110.277344 18.734375 C 109.953125 18.667969 109.644531 18.585938 109.355469 18.488281 C 109.0625 18.394531 108.832031 18.285156 108.65625 18.164062 Z M 108.65625 18.164062 "/>
<path style=" stroke:none;fill-rule:nonzero;fill:#03a9f4;fill-opacity:1;" d="M 126.105469 14.296875 L 119.335938 14.296875 C 119.359375 15.363281 119.648438 16.1875 120.199219 16.769531 C 120.746094 17.351562 121.5 17.640625 122.464844 17.640625 C 123.542969 17.640625 124.535156 17.285156 125.441406 16.574219 L 125.441406 18.015625 C 124.597656 18.628906 123.484375 18.933594 122.097656 18.933594 C 120.742188 18.933594 119.679688 18.5 118.90625 17.628906 C 118.132812 16.753906 117.742188 15.53125 117.742188 13.949219 C 117.742188 12.457031 118.167969 11.242188 119.011719 10.300781 C 119.859375 9.363281 120.910156 8.890625 122.164062 8.890625 C 123.417969 8.890625 124.390625 9.296875 125.074219 10.109375 C 125.761719 10.921875 126.105469 12.050781 126.105469 13.492188 Z M 124.53125 12.996094 C 124.527344 12.109375 124.3125 11.417969 123.890625 10.925781 C 123.46875 10.429688 122.882812 10.183594 122.136719 10.183594 C 121.410156 10.183594 120.796875 10.441406 120.289062 10.960938 C 119.785156 11.480469 119.472656 12.15625 119.355469 12.996094 Z M 124.53125 12.996094 "/>
<path style=" stroke:none;fill-rule:nonzero;fill:#03a9f4;fill-opacity:1;" d="M 133.144531 10.671875 C 132.878906 10.464844 132.492188 10.363281 131.984375 10.363281 C 131.332031 10.363281 130.78125 10.671875 130.339844 11.289062 C 129.902344 11.90625 129.683594 12.75 129.683594 13.820312 L 129.683594 18.707031 L 128.144531 18.707031 L 128.144531 9.117188 L 129.683594 9.117188 L 129.683594 11.09375 L 129.71875 11.09375 C 129.9375 10.417969 130.269531 9.890625 130.722656 9.515625 C 131.171875 9.136719 131.671875 8.945312 132.230469 8.945312 C 132.628906 8.945312 132.933594 8.992188 133.144531 9.078125 Z M 133.144531 10.671875 "/>
<path style=" stroke:none;fill-rule:nonzero;fill:#03a9f4;fill-opacity:1;" d="M 142.867188 9.117188 L 139.046875 18.707031 L 137.539062 18.707031 L 133.90625 9.117188 L 135.589844 9.117188 L 138.027344 16.085938 C 138.207031 16.597656 138.320312 17.042969 138.363281 17.425781 L 138.398438 17.425781 C 138.460938 16.945312 138.5625 16.511719 138.699219 16.125 L 141.246094 9.117188 Z M 142.867188 9.117188 "/>
<path style=" stroke:none;fill-rule:nonzero;fill:#03a9f4;fill-opacity:1;" d="M 151.492188 14.296875 L 144.722656 14.296875 C 144.746094 15.363281 145.03125 16.1875 145.582031 16.769531 C 146.132812 17.351562 146.886719 17.640625 147.847656 17.640625 C 148.929688 17.640625 149.921875 17.285156 150.828125 16.574219 L 150.828125 18.015625 C 149.984375 18.628906 148.871094 18.933594 147.484375 18.933594 C 146.128906 18.933594 145.0625 18.5 144.289062 17.628906 C 143.515625 16.753906 143.128906 15.53125 143.128906 13.949219 C 143.128906 12.457031 143.550781 11.242188 144.398438 10.300781 C 145.242188 9.363281 146.292969 8.890625 147.546875 8.890625 C 148.804688 8.890625 149.773438 9.296875 150.460938 10.109375 C 151.148438 10.921875 151.492188 12.050781 151.492188 13.492188 Z M 149.917969 12.996094 C 149.910156 12.109375 149.699219 11.417969 149.277344 10.925781 C 148.855469 10.429688 148.269531 10.183594 147.519531 10.183594 C 146.796875 10.183594 146.183594 10.441406 145.675781 10.960938 C 145.171875 11.480469 144.859375 12.15625 144.738281 12.996094 Z M 149.917969 12.996094 "/>
<path style=" stroke:none;fill-rule:nonzero;fill:#03a9f4;fill-opacity:1;" d="M 158.296875 10.671875 C 158.03125 10.464844 157.644531 10.363281 157.136719 10.363281 C 156.480469 10.363281 155.933594 10.671875 155.492188 11.289062 C 155.054688 11.90625 154.832031 12.75 154.832031 13.820312 L 154.832031 18.707031 L 153.296875 18.707031 L 153.296875 9.117188 L 154.832031 9.117188 L 154.832031 11.09375 L 154.871094 11.09375 C 155.089844 10.417969 155.425781 9.890625 155.875 9.515625 C 156.324219 9.136719 156.824219 8.945312 157.378906 8.945312 C 157.78125 8.945312 158.085938 8.992188 158.296875 9.078125 Z M 158.296875 10.671875 "/>
<path style=" stroke:none;fill-rule:nonzero;fill:#03a9f4;fill-opacity:1;" d="M 168.859375 8.796875 C 168.859375 8.386719 168.796875 8.027344 168.667969 7.71875 C 168.539062 7.414062 168.363281 7.160156 168.144531 6.957031 C 167.921875 6.753906 167.660156 6.601562 167.363281 6.503906 C 167.0625 6.402344 166.738281 6.351562 166.386719 6.351562 C 166.089844 6.351562 165.792969 6.394531 165.507812 6.472656 C 165.21875 6.554688 164.941406 6.667969 164.671875 6.8125 C 164.398438 6.957031 164.136719 7.125 163.882812 7.328125 C 163.628906 7.527344 163.394531 7.75 163.175781 7.992188 L 163.175781 6.34375 C 163.605469 5.925781 164.089844 5.605469 164.621094 5.382812 C 165.15625 5.160156 165.808594 5.050781 166.574219 5.050781 C 167.125 5.050781 167.632812 5.128906 168.101562 5.289062 C 168.570312 5.449219 168.976562 5.683594 169.320312 5.988281 C 169.664062 6.292969 169.933594 6.671875 170.128906 7.121094 C 170.324219 7.570312 170.425781 8.085938 170.425781 8.664062 C 170.425781 9.195312 170.363281 9.679688 170.242188 10.109375 C 170.121094 10.539062 169.933594 10.945312 169.6875 11.328125 C 169.441406 11.707031 169.132812 12.074219 168.757812 12.421875 C 168.382812 12.773438 167.941406 13.128906 167.4375 13.492188 C 166.804688 13.941406 166.285156 14.324219 165.878906 14.644531 C 165.46875 14.960938 165.144531 15.261719 164.902344 15.539062 C 164.664062 15.816406 164.496094 16.09375 164.398438 16.371094 C 164.300781 16.648438 164.253906 16.96875 164.253906 17.332031 L 170.9375 17.332031 L 170.9375 18.707031 L 162.652344 18.707031 L 162.652344 18.042969 C 162.652344 17.46875 162.714844 16.964844 162.839844 16.527344 C 162.964844 16.089844 163.171875 15.671875 163.457031 15.28125 C 163.742188 14.886719 164.121094 14.492188 164.585938 14.101562 C 165.050781 13.707031 165.621094 13.261719 166.292969 12.769531 C 166.78125 12.417969 167.1875 12.085938 167.515625 11.765625 C 167.84375 11.449219 168.109375 11.128906 168.308594 10.8125 C 168.507812 10.492188 168.648438 10.171875 168.734375 9.839844 C 168.816406 9.515625 168.859375 9.167969 168.859375 8.796875 Z M 168.859375 8.796875 "/>
<path style=" stroke:none;fill-rule:nonzero;fill:#03a9f4;fill-opacity:1;" d="M 181.21875 11.9375 C 181.21875 13.058594 181.117188 14.054688 180.917969 14.921875 C 180.714844 15.792969 180.421875 16.523438 180.035156 17.121094 C 179.652344 17.71875 179.179688 18.171875 178.621094 18.480469 C 178.0625 18.789062 177.429688 18.945312 176.714844 18.945312 C 176.042969 18.945312 175.441406 18.796875 174.914062 18.496094 C 174.386719 18.199219 173.941406 17.769531 173.578125 17.199219 C 173.21875 16.632812 172.941406 15.933594 172.753906 15.105469 C 172.566406 14.28125 172.472656 13.332031 172.472656 12.261719 C 172.472656 11.089844 172.574219 10.054688 172.769531 9.152344 C 172.964844 8.253906 173.253906 7.5 173.636719 6.890625 C 174.015625 6.28125 174.488281 5.824219 175.054688 5.511719 C 175.617188 5.203125 176.265625 5.050781 176.996094 5.050781 C 179.8125 5.050781 181.21875 7.34375 181.21875 11.9375 Z M 179.648438 12.085938 C 179.648438 8.261719 178.738281 6.351562 176.921875 6.351562 C 175.003906 6.351562 174.046875 8.296875 174.046875 12.1875 C 174.046875 15.816406 174.988281 17.632812 176.867188 17.632812 C 178.71875 17.632812 179.648438 15.78125 179.648438 12.085938 Z M 179.648438 12.085938 "/>
<path style=" stroke:none;fill-rule:nonzero;fill:#03a9f4;fill-opacity:1;" d="M 23.296875 11.515625 L 23.296875 0.433594 L 10.570312 2.289062 L 10.570312 11.515625 Z M 23.296875 11.515625 "/>
<path style=" stroke:none;fill-rule:nonzero;fill:#03a9f4;fill-opacity:1;" d="M 9.671875 2.421875 L 0.433594 3.769531 L 0.433594 11.515625 L 9.671875 11.515625 Z M 9.671875 2.421875 "/>
<path style=" stroke:none;fill-rule:nonzero;fill:#03a9f4;fill-opacity:1;" d="M 0.433594 12.414062 L 0.433594 20.257812 L 9.671875 21.621094 L 9.671875 12.414062 Z M 0.433594 12.414062 "/>
<path style=" stroke:none;fill-rule:nonzero;fill:#03a9f4;fill-opacity:1;" d="M 10.570312 21.753906 L 23.296875 23.632812 L 23.296875 12.414062 L 10.570312 12.414062 Z M 10.570312 21.753906 "/>
<path style=" stroke:none;fill-rule:nonzero;fill:#03a9f4;fill-opacity:1;" d="M 188.472656 8.796875 C 188.472656 8.386719 188.410156 8.027344 188.28125 7.71875 C 188.152344 7.414062 187.976562 7.160156 187.753906 6.957031 C 187.535156 6.753906 187.273438 6.601562 186.972656 6.503906 C 186.675781 6.402344 186.347656 6.351562 186 6.351562 C 185.699219 6.351562 185.40625 6.394531 185.121094 6.472656 C 184.832031 6.554688 184.554688 6.667969 184.28125 6.8125 C 184.011719 6.957031 183.746094 7.125 183.496094 7.328125 C 183.242188 7.527344 183.007812 7.75 182.789062 7.992188 L 182.789062 6.34375 C 183.21875 5.925781 183.703125 5.605469 184.234375 5.382812 C 184.769531 5.160156 185.417969 5.050781 186.1875 5.050781 C 186.738281 5.050781 187.246094 5.128906 187.714844 5.289062 C 188.183594 5.449219 188.589844 5.683594 188.933594 5.988281 C 189.273438 6.292969 189.542969 6.671875 189.742188 7.121094 C 189.9375 7.570312 190.035156 8.085938 190.035156 8.664062 C 190.035156 9.195312 189.976562 9.679688 189.855469 10.109375 C 189.734375 10.539062 189.546875 10.945312 189.300781 11.328125 C 189.054688 11.707031 188.746094 12.074219 188.371094 12.421875 C 187.996094 12.773438 187.554688 13.128906 187.050781 13.492188 C 186.417969 13.941406 185.898438 14.324219 185.492188 14.644531 C 185.082031 14.960938 184.757812 15.261719 184.515625 15.539062 C 184.277344 15.816406 184.105469 16.09375 184.011719 16.371094 C 183.914062 16.648438 183.867188 16.96875 183.867188 17.332031 L 190.550781 17.332031 L 190.550781 18.707031 L 182.265625 18.707031 L 182.265625 18.042969 C 182.265625 17.46875 182.324219 16.964844 182.453125 16.527344 C 182.578125 16.089844 182.78125 15.671875 183.070312 15.28125 C 183.355469 14.886719 183.734375 14.492188 184.199219 14.101562 C 184.664062 13.707031 185.234375 13.261719 185.90625 12.769531 C 186.394531 12.417969 186.800781 12.085938 187.128906 11.765625 C 187.457031 11.449219 187.71875 11.128906 187.921875 10.8125 C 188.121094 10.492188 188.261719 10.171875 188.347656 9.839844 C 188.429688 9.515625 188.472656 9.167969 188.472656 8.796875 Z M 188.472656 8.796875 "/>
<path style=" stroke:none;fill-rule:nonzero;fill:#03a9f4;fill-opacity:1;" d="M 198.527344 8.796875 C 198.527344 8.386719 198.460938 8.027344 198.335938 7.71875 C 198.207031 7.414062 198.03125 7.160156 197.808594 6.957031 C 197.589844 6.753906 197.328125 6.601562 197.027344 6.503906 C 196.730469 6.402344 196.402344 6.351562 196.054688 6.351562 C 195.753906 6.351562 195.460938 6.394531 195.175781 6.472656 C 194.886719 6.554688 194.609375 6.667969 194.335938 6.8125 C 194.0625 6.957031 193.800781 7.125 193.550781 7.328125 C 193.296875 7.527344 193.0625 7.75 192.84375 7.992188 L 192.84375 6.34375 C 193.273438 5.925781 193.757812 5.605469 194.289062 5.382812 C 194.824219 5.160156 195.472656 5.050781 196.242188 5.050781 C 196.789062 5.050781 197.300781 5.128906 197.765625 5.289062 C 198.234375 5.449219 198.640625 5.683594 198.984375 5.988281 C 199.328125 6.292969 199.597656 6.671875 199.796875 7.121094 C 199.992188 7.570312 200.089844 8.085938 200.089844 8.664062 C 200.089844 9.195312 200.03125 9.679688 199.90625 10.109375 C 199.785156 10.539062 199.601562 10.945312 199.355469 11.328125 C 199.109375 11.707031 198.796875 12.074219 198.425781 12.421875 C 198.050781 12.773438 197.609375 13.128906 197.105469 13.492188 C 196.472656 13.941406 195.953125 14.324219 195.542969 14.644531 C 195.136719 14.960938 194.8125 15.261719 194.570312 15.539062 C 194.332031 15.816406 194.160156 16.09375 194.0625 16.371094 C 193.96875 16.648438 193.917969 16.96875 193.917969 17.332031 L 200.605469 17.332031 L 200.605469 18.707031 L 192.316406 18.707031 L 192.316406 18.042969 C 192.316406 17.46875 192.378906 16.964844 192.503906 16.527344 C 192.628906 16.089844 192.835938 15.671875 193.125 15.28125 C 193.410156 14.886719 193.785156 14.492188 194.25 14.101562 C 194.71875 13.707031 195.285156 13.261719 195.960938 12.769531 C 196.449219 12.417969 196.855469 12.085938 197.183594 11.765625 C 197.511719 11.449219 197.773438 11.128906 197.972656 10.8125 C 198.171875 10.492188 198.316406 10.171875 198.398438 9.839844 C 198.484375 9.515625 198.527344 9.167969 198.527344 8.796875 Z M 198.527344 8.796875 "/>
</g>
</svg>