<svg xmlns="http://www.w3.org/2000/svg" xmlns:xlink="http://www.w3.org/1999/xlink" width="200px" height="px" viewBox="0 0 198 24" version="1.1">
<g id="surface1">
<path style=" stroke:none;fill-rule:nonzero;fill:#03a9f4;fill-opacity:1;" d="M 47.355469 5.273438 L 43.570312 18.707031 L 41.730469 18.707031 L 38.972656 8.890625 C 38.855469 8.472656 38.785156 8.015625 38.757812 7.523438 L 38.722656 7.523438 C 38.683594 7.984375 38.601562 8.4375 38.480469 8.871094 L 35.703125 18.707031 L 33.882812 18.707031 L 29.957031 5.273438 L 31.683594 5.273438 L 34.535156 15.578125 C 34.652344 16.011719 34.726562 16.460938 34.757812 16.929688 L 34.804688 16.929688 C 34.835938 16.597656 34.933594 16.148438 35.09375 15.578125 L 38.058594 5.273438 L 39.5625 5.273438 L 42.402344 15.65625 C 42.503906 16.011719 42.578125 16.429688 42.628906 16.910156 L 42.664062 16.910156 C 42.6875 16.585938 42.773438 16.15625 42.917969 15.617188 L 45.65625 5.277344 L 47.355469 5.277344 Z M 47.355469 5.273438 "/>
<path style=" stroke:none;fill-rule:nonzero;fill:#03a9f4;fill-opacity:1;" d="M 49.46875 6.679688 C 49.191406 6.679688 48.960938 6.585938 48.765625 6.398438 C 48.574219 6.210938 48.476562 5.972656 48.476562 5.6875 C 48.476562 5.398438 48.574219 5.160156 48.765625 4.96875 C 48.960938 4.78125 49.191406 4.683594 49.46875 4.683594 C 49.746094 4.683594 49.984375 4.78125 50.183594 4.96875 C 50.378906 5.160156 50.476562 5.398438 50.476562 5.6875 C 50.476562 5.960938 50.378906 6.195312 50.183594 6.390625 C 49.984375 6.582031 49.746094 6.679688 49.46875 6.679688 Z M 50.214844 18.707031 L 48.683594 18.707031 L 48.683594 9.117188 L 50.214844 9.117188 Z M 50.214844 18.707031 "/>
<path style=" stroke:none;fill-rule:nonzero;fill:#03a9f4;fill-opacity:1;" d="M 60.515625 18.707031 L 58.980469 18.707031 L 58.980469 13.238281 C 58.980469 11.203125 58.242188 10.183594 56.757812 10.183594 C 55.992188 10.183594 55.359375 10.472656 54.855469 11.050781 C 54.355469 11.628906 54.105469 12.359375 54.105469 13.238281 L 54.105469 18.707031 L 52.570312 18.707031 L 52.570312 9.117188 L 54.105469 9.117188 L 54.105469 10.707031 L 54.140625 10.707031 C 54.863281 9.496094 55.910156 8.890625 57.28125 8.890625 C 58.328125 8.890625 59.128906 9.230469 59.683594 9.90625 C 60.238281 10.585938 60.515625 11.5625 60.515625 12.84375 Z M 60.515625 18.707031 "/>
<path style=" stroke:none;fill-rule:nonzero;fill:#03a9f4;fill-opacity:1;" d="M 71.417969 18.707031 L 69.882812 18.707031 L 69.882812 17.078125 L 69.847656 17.078125 C 69.136719 18.316406 68.039062 18.933594 66.558594 18.933594 C 65.355469 18.933594 64.394531 18.503906 63.675781 17.644531 C 62.957031 16.785156 62.59375 15.617188 62.59375 14.136719 C 62.59375 12.550781 62.992188 11.28125 63.792969 10.324219 C 64.589844 9.367188 65.652344 8.890625 66.980469 8.890625 C 68.292969 8.890625 69.25 9.410156 69.847656 10.445312 L 69.882812 10.445312 L 69.882812 4.507812 L 71.417969 4.507812 Z M 69.886719 14.371094 L 69.886719 12.957031 C 69.886719 12.183594 69.628906 11.527344 69.117188 10.988281 C 68.609375 10.453125 67.960938 10.183594 67.175781 10.183594 C 66.242188 10.183594 65.503906 10.527344 64.96875 11.214844 C 64.433594 11.902344 64.164062 12.851562 64.164062 14.0625 C 64.164062 15.167969 64.421875 16.039062 64.9375 16.679688 C 65.449219 17.320312 66.140625 17.640625 67.007812 17.640625 C 67.859375 17.640625 68.554688 17.332031 69.085938 16.714844 C 69.617188 16.09375 69.886719 15.3125 69.886719 14.371094 Z M 69.886719 14.371094 "/>
<path style=" stroke:none;fill-rule:nonzero;fill:#03a9f4;fill-opacity:1;" d="M 78.117188 18.933594 C 76.703125 18.933594 75.574219 18.484375 74.730469 17.589844 C 73.886719 16.691406 73.464844 15.503906 73.464844 14.023438 C 73.464844 12.414062 73.902344 11.15625 74.78125 10.25 C 75.660156 9.34375 76.847656 8.890625 78.339844 8.890625 C 79.769531 8.890625 80.882812 9.332031 81.683594 10.210938 C 82.484375 11.089844 82.882812 12.3125 82.882812 13.875 C 82.882812 15.40625 82.453125 16.628906 81.589844 17.550781 C 80.726562 18.472656 79.570312 18.933594 78.117188 18.933594 Z M 78.230469 10.183594 C 77.246094 10.183594 76.464844 10.519531 75.894531 11.191406 C 75.320312 11.863281 75.035156 12.789062 75.035156 13.96875 C 75.035156 15.105469 75.324219 16 75.902344 16.65625 C 76.480469 17.3125 77.257812 17.640625 78.230469 17.640625 C 79.21875 17.640625 79.980469 17.320312 80.515625 16.675781 C 81.046875 16.03125 81.3125 15.117188 81.3125 13.929688 C 81.3125 12.730469 81.046875 11.808594 80.515625 11.15625 C 79.980469 10.507812 79.21875 10.183594 78.230469 10.183594 Z M 78.230469 10.183594 "/>
<path style=" stroke:none;fill-rule:nonzero;fill:#03a9f4;fill-opacity:1;" d="M 96.695312 9.117188 L 93.824219 18.707031 L 92.238281 18.707031 L 90.265625 11.84375 C 90.191406 11.578125 90.140625 11.285156 90.117188 10.953125 L 90.078125 10.953125 C 90.058594 11.175781 89.996094 11.46875 89.882812 11.824219 L 87.742188 18.710938 L 86.210938 18.710938 L 83.3125 9.117188 L 84.921875 9.117188 L 86.902344 16.328125 C 86.960938 16.546875 87.007812 16.835938 87.03125 17.191406 L 87.105469 17.191406 C 87.125 16.917969 87.179688 16.625 87.273438 16.3125 L 89.480469 9.117188 L 90.882812 9.117188 L 92.863281 16.347656 C 92.925781 16.578125 92.972656 16.867188 93.003906 17.210938 L 93.078125 17.210938 C 93.089844 16.964844 93.144531 16.679688 93.238281 16.347656 L 95.179688 9.117188 Z M 96.695312 9.117188 "/>
<path style=" stroke:none;fill-rule:nonzero;fill:#03a9f4;fill-opacity:1;" d="M 97.40625 18.363281 L 97.40625 16.714844 C 98.238281 17.332031 99.160156 17.640625 100.160156 17.640625 C 101.507812 17.640625 102.179688 17.191406 102.179688 16.292969 C 102.179688 16.035156 102.121094 15.820312 102.007812 15.640625 C 101.890625 15.460938 101.734375 15.304688 101.539062 15.167969 C 101.34375 15.03125 101.113281 14.90625 100.847656 14.796875 C 100.585938 14.6875 100.296875 14.574219 99.992188 14.457031 C 99.570312 14.285156 99.199219 14.117188 98.878906 13.945312 C 98.554688 13.773438 98.289062 13.578125 98.074219 13.363281 C 97.859375 13.148438 97.695312 12.902344 97.585938 12.628906 C 97.476562 12.351562 97.421875 12.03125 97.421875 11.664062 C 97.421875 11.214844 97.527344 10.816406 97.730469 10.46875 C 97.9375 10.121094 98.210938 9.832031 98.554688 9.597656 C 98.898438 9.363281 99.289062 9.1875 99.726562 9.066406 C 100.167969 8.949219 100.621094 8.890625 101.085938 8.890625 C 101.914062 8.890625 102.65625 9.035156 103.3125 9.320312 L 103.3125 10.875 C 102.605469 10.414062 101.796875 10.183594 100.878906 10.183594 C 100.59375 10.183594 100.335938 10.214844 100.105469 10.28125 C 99.875 10.347656 99.675781 10.4375 99.511719 10.558594 C 99.347656 10.675781 99.21875 10.816406 99.128906 10.984375 C 99.039062 11.148438 98.992188 11.332031 98.992188 11.53125 C 98.992188 11.78125 99.039062 11.988281 99.128906 12.160156 C 99.21875 12.328125 99.351562 12.476562 99.527344 12.609375 C 99.703125 12.738281 99.914062 12.859375 100.160156 12.964844 C 100.410156 13.070312 100.695312 13.1875 101.011719 13.3125 C 101.4375 13.472656 101.816406 13.640625 102.152344 13.8125 C 102.488281 13.984375 102.777344 14.179688 103.011719 14.394531 C 103.25 14.609375 103.429688 14.859375 103.558594 15.136719 C 103.6875 15.417969 103.75 15.753906 103.75 16.140625 C 103.75 16.613281 103.648438 17.027344 103.4375 17.375 C 103.230469 17.726562 102.949219 18.015625 102.601562 18.246094 C 102.253906 18.480469 101.851562 18.652344 101.394531 18.761719 C 100.941406 18.875 100.464844 18.933594 99.964844 18.933594 C 98.980469 18.933594 98.128906 18.742188 97.40625 18.363281 Z M 97.40625 18.363281 "/>
<path style=" stroke:none;fill-rule:nonzero;fill:#03a9f4;fill-opacity:1;" d="M 108.433594 18.164062 L 108.433594 16.3125 C 108.644531 16.5 108.902344 16.667969 109.195312 16.816406 C 109.492188 16.96875 109.804688 17.09375 110.128906 17.195312 C 110.457031 17.300781 110.785156 17.378906 111.117188 17.433594 C 111.445312 17.492188 111.753906 17.519531 112.035156 17.519531 C 113 17.519531 113.71875 17.339844 114.195312 16.980469 C 114.671875 16.621094 114.910156 16.105469 114.910156 15.429688 C 114.910156 15.070312 114.832031 14.753906 114.671875 14.484375 C 114.515625 14.214844 114.292969 13.96875 114.015625 13.75 C 113.734375 13.527344 113.402344 13.3125 113.019531 13.113281 C 112.636719 12.910156 112.222656 12.695312 111.78125 12.46875 C 111.3125 12.230469 110.878906 11.992188 110.472656 11.75 C 110.066406 11.503906 109.714844 11.234375 109.417969 10.941406 C 109.117188 10.648438 108.878906 10.316406 108.710938 9.945312 C 108.539062 9.574219 108.453125 9.136719 108.453125 8.636719 C 108.453125 8.027344 108.585938 7.492188 108.855469 7.042969 C 109.121094 6.589844 109.476562 6.214844 109.910156 5.921875 C 110.347656 5.628906 110.84375 5.410156 111.402344 5.265625 C 111.960938 5.121094 112.527344 5.050781 113.105469 5.050781 C 114.429688 5.050781 115.390625 5.210938 115.996094 5.527344 L 115.996094 7.296875 C 115.203125 6.75 114.1875 6.472656 112.949219 6.472656 C 112.605469 6.472656 112.261719 6.507812 111.921875 6.582031 C 111.578125 6.652344 111.273438 6.769531 111.003906 6.933594 C 110.734375 7.09375 110.519531 7.304688 110.351562 7.5625 C 110.183594 7.816406 110.097656 8.128906 110.097656 8.496094 C 110.097656 8.839844 110.160156 9.136719 110.289062 9.386719 C 110.417969 9.636719 110.605469 9.867188 110.855469 10.070312 C 111.105469 10.277344 111.40625 10.476562 111.765625 10.671875 C 112.125 10.863281 112.535156 11.078125 113.003906 11.308594 C 113.484375 11.546875 113.9375 11.796875 114.367188 12.058594 C 114.800781 12.320312 115.175781 12.609375 115.5 12.929688 C 115.824219 13.246094 116.082031 13.601562 116.269531 13.988281 C 116.460938 14.375 116.554688 14.820312 116.554688 15.316406 C 116.554688 15.980469 116.425781 16.539062 116.167969 17 C 115.90625 17.457031 115.558594 17.832031 115.121094 18.117188 C 114.679688 18.40625 114.175781 18.613281 113.601562 18.742188 C 113.027344 18.871094 112.425781 18.933594 111.789062 18.933594 C 111.578125 18.933594 111.316406 18.917969 111.003906 18.882812 C 110.691406 18.847656 110.375 18.796875 110.050781 18.734375 C 109.726562 18.667969 109.421875 18.585938 109.128906 18.488281 C 108.839844 18.394531 108.609375 18.285156 108.433594 18.164062 Z M 108.433594 18.164062 "/>
<path style=" stroke:none;fill-rule:nonzero;fill:#03a9f4;fill-opacity:1;" d="M 125.847656 14.296875 L 119.089844 14.296875 C 119.117188 15.363281 119.402344 16.1875 119.953125 16.769531 C 120.5 17.351562 121.253906 17.640625 122.210938 17.640625 C 123.289062 17.640625 124.28125 17.285156 125.183594 16.574219 L 125.183594 18.015625 C 124.34375 18.628906 123.230469 18.933594 121.847656 18.933594 C 120.496094 18.933594 119.433594 18.5 118.660156 17.628906 C 117.890625 16.753906 117.503906 15.53125 117.503906 13.949219 C 117.503906 12.457031 117.925781 11.242188 118.769531 10.300781 C 119.613281 9.363281 120.660156 8.890625 121.914062 8.890625 C 123.167969 8.890625 124.136719 9.296875 124.820312 10.109375 C 125.503906 10.921875 125.847656 12.050781 125.847656 13.492188 Z M 124.277344 12.996094 C 124.269531 12.109375 124.058594 11.417969 123.636719 10.925781 C 123.214844 10.429688 122.632812 10.183594 121.886719 10.183594 C 121.164062 10.183594 120.550781 10.441406 120.042969 10.960938 C 119.539062 11.480469 119.226562 12.15625 119.109375 12.996094 Z M 124.277344 12.996094 "/>
<path style=" stroke:none;fill-rule:nonzero;fill:#03a9f4;fill-opacity:1;" d="M 132.875 10.671875 C 132.605469 10.464844 132.21875 10.363281 131.714844 10.363281 C 131.0625 10.363281 130.515625 10.671875 130.074219 11.289062 C 129.636719 11.90625 129.417969 12.75 129.417969 13.820312 L 129.417969 18.707031 L 127.882812 18.707031 L 127.882812 9.117188 L 129.417969 9.117188 L 129.417969 11.09375 L 129.453125 11.09375 C 129.671875 10.417969 130.003906 9.890625 130.453125 9.515625 C 130.902344 9.136719 131.402344 8.945312 131.957031 8.945312 C 132.355469 8.945312 132.660156 8.992188 132.875 9.078125 Z M 132.875 10.671875 "/>
<path style=" stroke:none;fill-rule:nonzero;fill:#03a9f4;fill-opacity:1;" d="M 142.574219 9.117188 L 138.761719 18.707031 L 137.257812 18.707031 L 133.632812 9.117188 L 135.3125 9.117188 L 137.742188 16.085938 C 137.921875 16.597656 138.035156 17.042969 138.078125 17.425781 L 138.117188 17.425781 C 138.179688 16.945312 138.277344 16.511719 138.414062 16.125 L 140.957031 9.117188 Z M 142.574219 9.117188 "/>
<path style=" stroke:none;fill-rule:nonzero;fill:#03a9f4;fill-opacity:1;" d="M 151.179688 14.296875 L 144.425781 14.296875 C 144.449219 15.363281 144.734375 16.1875 145.285156 16.769531 C 145.832031 17.351562 146.585938 17.640625 147.546875 17.640625 C 148.625 17.640625 149.613281 17.285156 150.519531 16.574219 L 150.519531 18.015625 C 149.675781 18.628906 148.566406 18.933594 147.179688 18.933594 C 145.828125 18.933594 144.765625 18.5 143.996094 17.628906 C 143.222656 16.753906 142.835938 15.53125 142.835938 13.949219 C 142.835938 12.457031 143.257812 11.242188 144.101562 10.300781 C 144.945312 9.363281 145.996094 8.890625 147.246094 8.890625 C 148.5 8.890625 149.46875 9.296875 150.152344 10.109375 C 150.839844 10.921875 151.179688 12.050781 151.179688 13.492188 Z M 149.609375 12.996094 C 149.605469 12.109375 149.390625 11.417969 148.972656 10.925781 C 148.550781 10.429688 147.964844 10.183594 147.21875 10.183594 C 146.496094 10.183594 145.882812 10.441406 145.378906 10.960938 C 144.871094 11.480469 144.5625 12.15625 144.441406 12.996094 Z M 149.609375 12.996094 "/>
<path style=" stroke:none;fill-rule:nonzero;fill:#03a9f4;fill-opacity:1;" d="M 157.972656 10.671875 C 157.707031 10.464844 157.320312 10.363281 156.816406 10.363281 C 156.160156 10.363281 155.613281 10.671875 155.175781 11.289062 C 154.734375 11.90625 154.515625 12.75 154.515625 13.820312 L 154.515625 18.707031 L 152.984375 18.707031 L 152.984375 9.117188 L 154.515625 9.117188 L 154.515625 11.09375 L 154.554688 11.09375 C 154.769531 10.417969 155.105469 9.890625 155.554688 9.515625 C 156.003906 9.136719 156.503906 8.945312 157.058594 8.945312 C 157.457031 8.945312 157.761719 8.992188 157.972656 9.078125 Z M 157.972656 10.671875 "/>
<path style=" stroke:none;fill-rule:nonzero;fill:#03a9f4;fill-opacity:1;" d="M 168.515625 8.796875 C 168.515625 8.386719 168.449219 8.027344 168.320312 7.71875 C 168.195312 7.414062 168.019531 7.160156 167.800781 6.957031 C 167.578125 6.753906 167.316406 6.601562 167.019531 6.503906 C 166.71875 6.402344 166.394531 6.351562 166.046875 6.351562 C 165.746094 6.351562 165.453125 6.394531 165.167969 6.472656 C 164.882812 6.554688 164.605469 6.667969 164.332031 6.8125 C 164.0625 6.957031 163.800781 7.125 163.546875 7.328125 C 163.296875 7.527344 163.058594 7.75 162.84375 7.992188 L 162.84375 6.34375 C 163.269531 5.925781 163.753906 5.605469 164.285156 5.382812 C 164.820312 5.160156 165.46875 5.050781 166.234375 5.050781 C 166.78125 5.050781 167.289062 5.128906 167.757812 5.289062 C 168.222656 5.449219 168.628906 5.683594 168.972656 5.988281 C 169.316406 6.292969 169.585938 6.671875 169.78125 7.121094 C 169.976562 7.570312 170.074219 8.085938 170.074219 8.664062 C 170.074219 9.195312 170.015625 9.679688 169.894531 10.109375 C 169.773438 10.539062 169.585938 10.945312 169.339844 11.328125 C 169.09375 11.707031 168.785156 12.074219 168.410156 12.421875 C 168.039062 12.773438 167.597656 13.128906 167.09375 13.492188 C 166.464844 13.941406 165.945312 14.324219 165.539062 14.644531 C 165.128906 14.960938 164.804688 15.261719 164.566406 15.539062 C 164.328125 15.816406 164.15625 16.09375 164.0625 16.371094 C 163.964844 16.648438 163.917969 16.96875 163.917969 17.332031 L 170.589844 17.332031 L 170.589844 18.707031 L 162.320312 18.707031 L 162.320312 18.042969 C 162.320312 17.46875 162.378906 16.964844 162.503906 16.527344 C 162.628906 16.089844 162.835938 15.671875 163.121094 15.28125 C 163.410156 14.886719 163.785156 14.492188 164.25 14.101562 C 164.714844 13.707031 165.28125 13.261719 165.953125 12.769531 C 166.441406 12.417969 166.847656 12.085938 167.171875 11.765625 C 167.5 11.449219 167.765625 11.128906 167.964844 10.8125 C 168.160156 10.492188 168.304688 10.171875 168.386719 9.839844 C 168.472656 9.515625 168.515625 9.167969 168.515625 8.796875 Z M 168.515625 8.796875 "/>
<path style=" stroke:none;fill-rule:nonzero;fill:#03a9f4;fill-opacity:1;" d="M 180.847656 11.9375 C 180.847656 13.058594 180.746094 14.054688 180.546875 14.921875 C 180.34375 15.792969 180.050781 16.523438 179.667969 17.121094 C 179.285156 17.71875 178.8125 18.171875 178.257812 18.480469 C 177.699219 18.789062 177.066406 18.945312 176.355469 18.945312 C 175.679688 18.945312 175.082031 18.796875 174.554688 18.496094 C 174.027344 18.199219 173.585938 17.769531 173.222656 17.199219 C 172.863281 16.632812 172.589844 15.933594 172.402344 15.105469 C 172.214844 14.28125 172.121094 13.332031 172.121094 12.261719 C 172.121094 11.089844 172.21875 10.054688 172.414062 9.152344 C 172.609375 8.253906 172.898438 7.5 173.28125 6.890625 C 173.660156 6.28125 174.132812 5.824219 174.695312 5.511719 C 175.257812 5.203125 175.90625 5.050781 176.632812 5.050781 C 179.445312 5.050781 180.847656 7.34375 180.847656 11.9375 Z M 179.28125 12.085938 C 179.28125 8.261719 178.371094 6.351562 176.558594 6.351562 C 174.648438 6.351562 173.691406 8.296875 173.691406 12.1875 C 173.691406 15.816406 174.628906 17.632812 176.503906 17.632812 C 178.355469 17.632812 179.28125 15.78125 179.28125 12.085938 Z M 179.28125 12.085938 "/>
<path style=" stroke:none;fill-rule:nonzero;fill:#03a9f4;fill-opacity:1;" d="M 186.527344 18.707031 L 184.996094 18.707031 L 184.996094 7.101562 C 184.875 7.21875 184.703125 7.355469 184.476562 7.507812 C 184.25 7.664062 183.992188 7.8125 183.710938 7.964844 C 183.425781 8.113281 183.128906 8.253906 182.8125 8.386719 C 182.496094 8.515625 182.191406 8.621094 181.890625 8.695312 L 181.890625 7.140625 C 182.226562 7.046875 182.585938 6.917969 182.960938 6.761719 C 183.339844 6.601562 183.710938 6.421875 184.074219 6.226562 C 184.4375 6.027344 184.78125 5.824219 185.105469 5.605469 C 185.429688 5.390625 185.710938 5.179688 185.949219 4.976562 L 186.527344 4.976562 Z M 186.527344 18.707031 "/>
<path style=" stroke:none;fill-rule:nonzero;fill:#03a9f4;fill-opacity:1;" d="M 195.589844 8.796875 C 195.589844 8.386719 195.527344 8.027344 195.398438 7.71875 C 195.269531 7.414062 195.097656 7.160156 194.875 6.957031 C 194.652344 6.753906 194.394531 6.601562 194.09375 6.503906 C 193.796875 6.402344 193.472656 6.351562 193.121094 6.351562 C 192.824219 6.351562 192.53125 6.394531 192.246094 6.472656 C 191.957031 6.554688 191.679688 6.667969 191.410156 6.8125 C 191.136719 6.957031 190.875 7.125 190.625 7.328125 C 190.371094 7.527344 190.136719 7.75 189.917969 7.992188 L 189.917969 6.34375 C 190.347656 5.925781 190.828125 5.605469 191.363281 5.382812 C 191.894531 5.160156 192.542969 5.050781 193.308594 5.050781 C 193.859375 5.050781 194.367188 5.128906 194.832031 5.289062 C 195.300781 5.449219 195.707031 5.683594 196.050781 5.988281 C 196.390625 6.292969 196.660156 6.671875 196.859375 7.121094 C 197.054688 7.570312 197.152344 8.085938 197.152344 8.664062 C 197.152344 9.195312 197.089844 9.679688 196.96875 10.109375 C 196.847656 10.539062 196.664062 10.945312 196.417969 11.328125 C 196.171875 11.707031 195.863281 12.074219 195.488281 12.421875 C 195.113281 12.773438 194.675781 13.128906 194.171875 13.492188 C 193.542969 13.941406 193.023438 14.324219 192.613281 14.644531 C 192.207031 14.960938 191.882812 15.261719 191.644531 15.539062 C 191.402344 15.816406 191.234375 16.09375 191.136719 16.371094 C 191.042969 16.648438 190.992188 16.96875 190.992188 17.332031 L 197.664062 17.332031 L 197.664062 18.707031 L 189.394531 18.707031 L 189.394531 18.042969 C 189.394531 17.46875 189.457031 16.964844 189.582031 16.527344 C 189.707031 16.089844 189.914062 15.671875 190.199219 15.28125 C 190.484375 14.886719 190.859375 14.492188 191.324219 14.101562 C 191.789062 13.707031 192.359375 13.261719 193.03125 12.769531 C 193.515625 12.417969 193.921875 12.085938 194.25 11.765625 C 194.578125 11.449219 194.839844 11.128906 195.039062 10.8125 C 195.238281 10.492188 195.378906 10.171875 195.464844 9.839844 C 195.546875 9.515625 195.589844 9.167969 195.589844 8.796875 Z M 195.589844 8.796875 "/>
<path style=" stroke:none;fill-rule:nonzero;fill:#03a9f4;fill-opacity:1;" d="M 159.960938 11.160156 C 159.625 11.160156 159.335938 11.039062 159.09375 10.800781 C 158.855469 10.5625 158.738281 10.273438 158.738281 9.933594 C 158.738281 9.59375 158.855469 9.304688 159.09375 9.0625 C 159.335938 8.824219 159.625 8.703125 159.960938 8.703125 C 160.300781 8.703125 160.589844 8.824219 160.828125 9.0625 C 161.066406 9.304688 161.1875 9.59375 161.1875 9.933594 C 161.1875 10.273438 161.066406 10.5625 160.828125 10.800781 C 160.589844 11.039062 160.300781 11.160156 159.960938 11.160156 Z M 159.964844 8.898438 C 159.679688 8.898438 159.433594 8.996094 159.234375 9.199219 C 159.03125 9.402344 158.929688 9.644531 158.929688 9.933594 C 158.929688 10.21875 159.03125 10.460938 159.234375 10.664062 C 159.433594 10.867188 159.679688 10.96875 159.964844 10.96875 C 160.25 10.96875 160.492188 10.867188 160.691406 10.664062 C 160.894531 10.460938 160.996094 10.21875 160.996094 9.933594 C 160.996094 9.644531 160.894531 9.402344 160.691406 9.199219 C 160.492188 8.996094 160.25 8.898438 159.964844 8.898438 Z M 160.558594 10.699219 L 160.273438 10.699219 L 160.105469 10.324219 C 160.019531 10.136719 159.925781 10.042969 159.828125 10.042969 L 159.722656 10.042969 L 159.722656 10.699219 L 159.480469 10.699219 L 159.480469 9.136719 L 159.921875 9.136719 C 160.101562 9.136719 160.242188 9.175781 160.339844 9.25 C 160.441406 9.328125 160.488281 9.433594 160.488281 9.5625 C 160.488281 9.667969 160.453125 9.761719 160.386719 9.835938 C 160.316406 9.910156 160.21875 9.960938 160.097656 9.988281 L 160.097656 9.996094 C 160.183594 10.015625 160.269531 10.109375 160.351562 10.285156 Z M 159.722656 9.339844 L 159.722656 9.84375 L 159.914062 9.84375 C 160.128906 9.84375 160.238281 9.757812 160.238281 9.589844 C 160.238281 9.492188 160.207031 9.429688 160.148438 9.394531 C 160.09375 9.359375 160 9.339844 159.875 9.339844 Z M 159.722656 9.339844 "/>
<path style=" stroke:none;fill-rule:nonzero;fill:#03a9f4;fill-opacity:1;" d="M 25.023438 22.34375 L 24.632812 22.34375 L 24.632812 23.550781 L 24.476562 23.550781 L 24.476562 22.34375 L 24.089844 22.34375 L 24.089844 22.203125 L 25.023438 22.203125 Z M 25.023438 22.34375 "/>
<path style=" stroke:none;fill-rule:nonzero;fill:#03a9f4;fill-opacity:1;" d="M 26.507812 23.550781 L 26.351562 23.550781 L 26.351562 22.644531 C 26.351562 22.574219 26.355469 22.488281 26.363281 22.382812 C 26.347656 22.445312 26.332031 22.488281 26.320312 22.515625 L 25.863281 23.550781 L 25.785156 23.550781 L 25.324219 22.523438 C 25.3125 22.492188 25.296875 22.445312 25.285156 22.382812 L 25.28125 22.382812 C 25.285156 22.4375 25.289062 22.527344 25.289062 22.648438 L 25.289062 23.550781 L 25.136719 23.550781 L 25.136719 22.203125 L 25.34375 22.203125 L 25.757812 23.144531 C 25.789062 23.214844 25.8125 23.269531 25.820312 23.304688 L 25.824219 23.304688 C 25.851562 23.230469 25.875 23.175781 25.890625 23.140625 L 26.3125 22.203125 L 26.507812 22.203125 Z M 26.507812 23.550781 "/>
<path style=" stroke:none;fill-rule:nonzero;fill:#03a9f4;fill-opacity:1;" d="M 23.25 11.515625 L 23.25 0.433594 L 10.546875 2.289062 L 10.546875 11.515625 Z M 23.25 11.515625 "/>
<path style=" stroke:none;fill-rule:nonzero;fill:#03a9f4;fill-opacity:1;" d="M 9.652344 2.421875 L 0.429688 3.769531 L 0.429688 11.515625 L 9.652344 11.515625 Z M 9.652344 2.421875 "/>
<path style=" stroke:none;fill-rule:nonzero;fill:#03a9f4;fill-opacity:1;" d="M 0.429688 12.414062 L 0.429688 20.257812 L 9.652344 21.621094 L 9.652344 12.414062 Z M 0.429688 12.414062 "/>
<path style=" stroke:none;fill-rule:nonzero;fill:#03a9f4;fill-opacity:1;" d="M 10.546875 21.753906 L 23.25 23.632812 L 23.25 12.414062 L 10.546875 12.414062 Z M 10.546875 21.753906 "/>
</g>
</svg>