<?xml version="1.0" encoding="UTF-8"?>
<svg xmlns="http://www.w3.org/2000/svg" xmlns:xlink="http://www.w3.org/1999/xlink" width="200px" height="48px" viewBox="0 0 201 48" version="1.1">
<g id="surface1">
<path style=" stroke:none;fill-rule:nonzero;fill:rgb(0%,0%,0%);fill-opacity:1;" d="M 47.207031 44.761719 L 36.058594 44.761719 L 32.648438 36.535156 L 14.070312 36.535156 L 10.964844 44.761719 L 0 44.761719 L 16.75 3.210938 L 28.75 3.210938 Z M 22.902344 13.140625 L 16.8125 29.285156 L 29.605469 29.285156 Z M 87.699219 3.210938 L 96.714844 3.210938 L 96.714844 44.761719 L 86.359375 44.761719 L 86.359375 18.808594 L 75.152344 31.84375 L 73.566406 31.84375 L 62.359375 18.808594 L 62.359375 44.761719 L 52.003906 44.761719 L 52.003906 3.210938 L 61.019531 3.210938 L 74.359375 18.625 Z M 122.957031 3.210938 C 138.121094 3.210938 145.917969 12.652344 145.917969 24.046875 C 145.917969 35.988281 138.367188 44.761719 121.796875 44.761719 L 104.621094 44.761719 L 104.621094 3.210938 Z M 114.976562 37.148438 L 121.734375 37.148438 C 132.152344 37.148438 135.257812 30.078125 135.257812 23.984375 C 135.257812 16.855469 131.421875 10.824219 121.613281 10.824219 L 114.976562 10.824219 Z M 166.519531 13.0625 L 153.460938 0 L 201 0 L 201 47.550781 L 187.941406 34.488281 L 187.941406 13.0625 Z M 166.503906 15.679688 L 153.0625 29.128906 L 153.0625 47.949219 L 171.878906 47.949219 L 185.320312 34.503906 L 166.503906 34.503906 Z M 166.503906 15.679688 "/>
</g>
</svg>
