<?xml version="1.0" encoding="UTF-8"?>
<svg xmlns="http://www.w3.org/2000/svg" xmlns:xlink="http://www.w3.org/1999/xlink" width="200px" height="96px" viewBox="0 0 199 96" version="1.1">
<g id="surface1">
<path style=" stroke:none;fill-rule:nonzero;fill:rgb(0%,0%,0%);fill-opacity:1;" d="M 41.953125 24.695312 C 40.867188 25.191406 39.285156 26.378906 38.300781 27.371094 C 36.621094 29.355469 28.625 58.414062 28.625 62.578125 C 28.625 67.042969 30.007812 67.4375 46 67.4375 C 58.734375 67.4375 61.101562 67.238281 61.59375 65.851562 C 61.890625 64.957031 62.1875 64.164062 62.1875 64.066406 C 62.1875 63.96875 57.84375 64.066406 52.613281 64.265625 C 38.300781 64.761719 38.695312 65.453125 43.53125 46.117188 C 45.703125 37.386719 47.972656 29.753906 48.566406 29.058594 C 49.15625 28.265625 53.304688 27.769531 60.507812 27.570312 C 70.085938 27.273438 71.566406 27.074219 71.859375 25.488281 C 72.15625 23.902344 70.972656 23.800781 58.042969 23.902344 C 50.242188 23.902344 43.039062 24.296875 41.953125 24.695312 Z M 41.953125 24.695312 "/>
<path style=" stroke:none;fill-rule:nonzero;fill:rgb(0%,0%,0%);fill-opacity:1;" d="M 86.46875 33.324219 C 86.175781 34.214844 85.878906 35.007812 85.878906 35.207031 C 85.878906 35.40625 88.050781 35.304688 90.714844 35.007812 C 99.203125 34.015625 99.105469 33.324219 93.875 53.949219 L 89.234375 72.398438 L 94.464844 72.398438 C 99.300781 72.398438 99.699219 72.199219 100.386719 69.71875 C 100.683594 68.132812 102.855469 59.800781 105.027344 51.074219 L 109.074219 35.207031 L 115.492188 35.207031 C 120.820312 35.207031 121.90625 34.910156 122.203125 33.421875 C 122.5 31.835938 121.214844 31.734375 104.832031 31.734375 C 89.53125 31.734375 86.964844 31.933594 86.46875 33.324219 Z M 86.46875 33.324219 "/>
<path style=" stroke:none;fill-rule:nonzero;fill:rgb(0%,0%,0%);fill-opacity:1;" d="M 113.222656 42.347656 C 111.542969 44.03125 113.023438 44.628906 118.453125 44.628906 C 121.710938 44.628906 124.375 45.023438 124.375 45.621094 C 124.375 46.117188 122.007812 46.613281 119.144531 46.613281 C 112.53125 46.613281 110.554688 48.097656 109.863281 53.355469 L 109.273438 57.519531 L 118.355469 57.421875 L 127.335938 57.324219 L 128.324219 53.652344 C 130.394531 45.621094 130.59375 43.4375 129.210938 42.546875 C 127.632812 41.554688 114.207031 41.355469 113.222656 42.347656 Z M 123.386719 49.984375 C 123.386719 50.28125 122.992188 51.570312 122.402344 52.957031 C 121.710938 54.941406 120.820312 55.539062 118.453125 55.539062 C 115.492188 55.539062 114.800781 54.445312 116.082031 51.171875 C 116.476562 50.183594 117.859375 49.585938 120.03125 49.585938 C 121.90625 49.585938 123.386719 49.785156 123.386719 49.984375 Z M 123.386719 49.984375 "/>
<path style=" stroke:none;fill-rule:nonzero;fill:rgb(0%,0%,0%);fill-opacity:1;" d="M 133.753906 42.84375 C 132.371094 47.109375 130.691406 55.238281 130.988281 56.230469 C 131.285156 57.125 134.046875 57.519531 140.167969 57.519531 L 148.855469 57.519531 L 150.433594 50.480469 C 151.324219 46.613281 152.015625 43.042969 152.015625 42.546875 C 152.015625 41.15625 147.078125 41.453125 146.585938 42.84375 C 146.386719 43.539062 145.5 46.710938 144.609375 49.785156 C 143.128906 55.238281 142.933594 55.539062 139.972656 55.539062 C 137.011719 55.539062 137.011719 55.4375 137.601562 52.066406 C 137.898438 50.183594 138.492188 47.007812 138.785156 45.125 C 139.378906 41.851562 139.28125 41.652344 136.8125 41.652344 C 135.332031 41.652344 133.949219 42.246094 133.753906 42.84375 Z M 133.753906 42.84375 "/>
<path style=" stroke:none;fill-rule:nonzero;fill:rgb(0%,0%,0%);fill-opacity:1;" d="M 155.46875 42.941406 C 154.875 44.828125 152.015625 56.230469 152.015625 56.925781 C 152.015625 57.222656 153.296875 57.519531 154.875 57.519531 C 157.441406 57.519531 157.835938 57.023438 159.320312 51.667969 C 160.898438 45.917969 161.09375 45.71875 164.648438 45.421875 C 167.117188 45.222656 168.398438 44.628906 168.597656 43.4375 C 168.894531 41.949219 168.003906 41.753906 162.378906 41.753906 C 158.332031 41.851562 155.667969 42.246094 155.46875 42.941406 Z M 155.46875 42.941406 "/>
<path style=" stroke:none;fill-rule:nonzero;fill:rgb(0%,0%,0%);fill-opacity:1;" d="M 52.117188 44.332031 C 50.046875 46.710938 47.875 56.429688 49.058594 57.621094 C 50.539062 59.109375 66.332031 58.3125 66.925781 56.726562 C 67.222656 55.835938 65.542969 55.539062 60.804688 55.539062 C 57.253906 55.539062 54.289062 55.339844 54.289062 55.140625 C 54.289062 52.363281 55.871094 51.570312 61.792969 51.570312 C 68.011719 51.570312 68.011719 51.570312 68.898438 48.296875 C 70.183594 43.539062 68.898438 42.644531 60.707031 42.644531 C 55.179688 42.644531 53.304688 43.042969 52.117188 44.332031 Z M 63.472656 47.601562 C 63.074219 49.089844 62.089844 49.585938 59.621094 49.585938 C 56.957031 49.585938 56.265625 49.191406 56.265625 47.601562 C 56.265625 45.917969 56.957031 45.621094 60.113281 45.621094 C 63.472656 45.621094 63.867188 45.917969 63.472656 47.601562 Z M 63.472656 47.601562 "/>
<path style=" stroke:none;fill-rule:nonzero;fill:rgb(0%,0%,0%);fill-opacity:1;" d="M 72.652344 44.332031 C 72.453125 45.324219 71.664062 48.097656 71.070312 50.578125 C 70.480469 53.058594 69.789062 55.835938 69.492188 56.726562 C 69.097656 58.117188 69.589844 58.511719 71.960938 58.511719 C 75.117188 58.511719 75.117188 58.511719 77.585938 48.296875 C 78.078125 46.015625 78.671875 45.621094 81.535156 45.621094 C 85.382812 45.621094 85.285156 45.421875 83.410156 52.5625 C 82.621094 55.539062 81.929688 58.117188 81.929688 58.214844 C 81.929688 58.414062 83.210938 58.511719 84.890625 58.511719 C 87.457031 58.511719 87.949219 58.015625 88.9375 54.246094 C 89.53125 51.96875 90.121094 48.496094 90.222656 46.613281 L 90.320312 43.140625 L 81.730469 42.84375 C 74.230469 42.644531 73.144531 42.742188 72.652344 44.332031 Z M 72.652344 44.332031 "/>
<path style=" stroke:none;fill-rule:nonzero;fill:rgb(0%,0%,0%);fill-opacity:1;" d="M 122.007812 62.183594 C 121.808594 63.171875 121.316406 64.957031 120.921875 66.148438 C 120.523438 67.539062 120.722656 68.429688 121.316406 68.429688 C 121.90625 68.429688 122.597656 67.339844 122.992188 65.949219 C 123.289062 64.5625 123.980469 63.472656 124.472656 63.472656 C 124.96875 63.472656 125.363281 64.5625 125.363281 65.949219 C 125.363281 69.222656 126.941406 69.125 127.632812 65.851562 C 127.929688 63.867188 127.632812 63.074219 126.25 62.777344 C 125.164062 62.480469 124.375 61.882812 124.375 61.386719 C 124.375 59.800781 122.5 60.496094 122.007812 62.183594 Z M 122.007812 62.183594 "/>
<path style=" stroke:none;fill-rule:nonzero;fill:rgb(0%,0%,0%);fill-opacity:1;" d="M 144.808594 61.191406 C 144.511719 61.6875 144.019531 63.472656 143.625 65.15625 C 142.636719 69.917969 144.710938 69.222656 145.894531 64.460938 C 146.78125 60.992188 146.089844 59.007812 144.808594 61.191406 Z M 144.808594 61.191406 "/>
<path style=" stroke:none;fill-rule:nonzero;fill:rgb(0%,0%,0%);fill-opacity:1;" d="M 107.59375 64.460938 C 106.210938 67.140625 107.101562 68.429688 110.359375 68.332031 C 112.136719 68.332031 112.53125 68.03125 111.542969 67.636719 C 109.863281 66.84375 108.976562 63.472656 110.554688 63.472656 C 111.050781 63.472656 111.542969 63.867188 111.542969 64.460938 C 111.542969 64.957031 112.035156 65.453125 112.53125 65.453125 C 113.121094 65.453125 113.515625 64.761719 113.515625 63.96875 C 113.515625 61.6875 108.878906 62.082031 107.59375 64.460938 Z M 107.59375 64.460938 "/>
<path style=" stroke:none;fill-rule:nonzero;fill:rgb(0%,0%,0%);fill-opacity:1;" d="M 115.195312 63.171875 C 114.800781 63.472656 114.503906 64.859375 114.503906 66.148438 C 114.503906 68.03125 114.996094 68.429688 117.269531 68.332031 C 118.847656 68.230469 119.242188 68.03125 118.253906 67.734375 C 115.789062 67.140625 116.082031 64.5625 118.75 63.472656 C 120.921875 62.578125 120.921875 62.578125 118.355469 62.578125 C 116.972656 62.480469 115.492188 62.777344 115.195312 63.171875 Z M 115.195312 63.171875 "/>
<path style=" stroke:none;fill-rule:nonzero;fill:rgb(0%,0%,0%);fill-opacity:1;" d="M 128.914062 64.660156 C 128.125 67.734375 128.226562 68.429688 129.210938 68.429688 C 129.707031 68.429688 130.394531 67.339844 130.691406 65.949219 C 131.085938 64.5625 131.777344 63.472656 132.371094 63.472656 C 133.0625 63.472656 133.257812 64.460938 132.863281 65.949219 C 132.46875 67.339844 132.667969 68.429688 133.257812 68.429688 C 133.753906 68.429688 134.246094 67.933594 134.246094 67.238281 C 134.246094 66.347656 134.542969 66.347656 135.429688 67.238281 C 137.503906 69.324219 141.15625 68.628906 142.144531 65.851562 C 143.523438 62.378906 143.523438 62.480469 140.167969 62.480469 C 138.492188 62.480469 136.910156 63.171875 136.320312 64.164062 C 135.332031 65.851562 135.332031 65.851562 135.234375 64.164062 C 135.234375 61.386719 129.707031 61.882812 128.914062 64.660156 Z M 140.464844 65.949219 C 140.167969 66.742188 139.578125 67.4375 139.082031 67.4375 C 138.097656 67.4375 137.898438 65.058594 138.785156 64.164062 C 139.871094 63.074219 141.15625 64.460938 140.464844 65.949219 Z M 140.464844 65.949219 "/>
<path style=" stroke:none;fill-rule:nonzero;fill:rgb(0%,0%,0%);fill-opacity:1;" d="M 147.175781 64.660156 C 146.089844 67.636719 146.585938 68.429688 149.644531 68.429688 C 152.015625 68.429688 154.382812 65.058594 153.296875 63.171875 C 152.308594 61.488281 147.964844 62.578125 147.175781 64.660156 Z M 151.027344 65.453125 C 151.027344 66.546875 150.632812 67.4375 150.039062 67.4375 C 149.546875 67.4375 149.050781 66.546875 149.050781 65.453125 C 149.050781 64.363281 149.546875 63.472656 150.039062 63.472656 C 150.632812 63.472656 151.027344 64.363281 151.027344 65.453125 Z M 151.027344 65.453125 "/>
<path style=" stroke:none;fill-rule:nonzero;fill:rgb(0%,0%,0%);fill-opacity:1;" d="M 154.582031 64.066406 C 153.496094 66.941406 153.988281 68.429688 156.257812 68.527344 C 158.035156 68.628906 157.835938 68.828125 155.46875 69.421875 L 152.507812 70.214844 L 155.667969 70.3125 C 159.21875 70.414062 159.417969 70.214844 160.402344 65.652344 C 160.996094 62.675781 160.898438 62.480469 158.132812 62.480469 C 156.355469 62.480469 154.976562 63.074219 154.582031 64.066406 Z M 158.921875 64.859375 C 158.921875 66.445312 157.148438 67.933594 156.257812 67.042969 C 155.46875 66.246094 156.753906 63.472656 157.9375 63.472656 C 158.429688 63.472656 158.921875 64.066406 158.921875 64.859375 Z M 158.921875 64.859375 "/>
<path style=" stroke:none;fill-rule:nonzero;fill:rgb(0%,0%,0%);fill-opacity:1;" d="M 161.589844 65.058594 C 161.195312 67.140625 161.589844 67.835938 163.265625 68.230469 C 165.242188 68.828125 165.242188 68.828125 162.871094 69.519531 C 160.601562 70.214844 160.601562 70.214844 163.5625 70.3125 C 165.734375 70.414062 166.820312 69.917969 167.214844 68.628906 C 167.414062 67.734375 167.90625 65.949219 168.300781 64.660156 C 168.695312 63.371094 168.5 62.480469 167.90625 62.480469 C 167.3125 62.480469 166.621094 63.570312 166.226562 64.957031 C 165.933594 66.347656 165.242188 67.4375 164.746094 67.4375 C 164.253906 67.4375 163.859375 66.347656 163.859375 64.957031 C 163.859375 61.6875 162.28125 61.785156 161.589844 65.058594 Z M 161.589844 65.058594 "/>
</g>
</svg>
