<svg width="166" height="65" viewBox="0 0 166 65" fill="none" xmlns="http://www.w3.org/2000/svg">
<path d="M91.6231 49.4096C53.4296 57.9946 22.5994 56.9377 19.4783 46.013C15.9313 33.5974 49.5043 13.0978 94.6646 0.00866699C89.0742 1.26525 83.3261 2.7284 77.484 4.39741C31.7288 17.4691 -2.46267 38.2183 1.11521 50.742C4.69308 63.2658 44.6854 62.8216 90.4406 49.7499C90.8357 49.637 91.2298 49.5236 91.6231 49.4096Z" fill="#ADC2DF"/>
<path d="M74.5548 15.4732C112.835 7.28571 143.653 8.66295 146.66 19.6195C150.078 32.0713 116.294 52.2209 71 64.8399C76.6031 63.6415 82.3662 62.2381 88.2253 60.6299C134.114 48.0345 168.519 27.6418 165.072 15.0816C161.624 2.52133 121.629 2.54985 75.7407 15.1453C75.3445 15.254 74.9492 15.3633 74.5548 15.4732Z" fill="#ADC2DF"/>
<path d="M51.3691 25.5312C51.5449 25.5312 51.7109 25.541 51.8672 25.5605C52.043 25.5801 52.209 25.5996 52.3652 25.6191C52.502 25.6582 52.6484 25.707 52.8047 25.7656C52.9609 25.8047 53.1074 25.8633 53.2441 25.9414C53.3418 26 53.4297 26.0781 53.5078 26.1758C53.6055 26.2539 53.6836 26.332 53.7422 26.4102C53.8203 26.5078 53.8887 26.6152 53.9473 26.7324C54.0059 26.8496 54.0547 26.9668 54.0938 27.084C54.1133 27.1621 54.1328 27.2598 54.1523 27.377C54.1914 27.4941 54.2109 27.6016 54.2109 27.6992C54.2109 27.7969 54.2109 27.9141 54.2109 28.0508C54.2109 28.168 54.2012 28.2852 54.1816 28.4023C54.1621 28.5586 54.1328 28.7344 54.0938 28.9297C54.0547 29.1055 54.0156 29.2812 53.9766 29.457L52.4824 34.9355H40.5586L40.1191 36.6055C40.0996 36.6836 40.0898 36.7617 40.0898 36.8398C40.0898 36.918 40.0996 36.9961 40.1191 37.0742C40.1191 37.1523 40.1387 37.2305 40.1777 37.3086C40.2363 37.3867 40.2852 37.4551 40.3242 37.5137C40.3633 37.5723 40.4121 37.6406 40.4707 37.7188C40.5488 37.7773 40.6172 37.8164 40.6758 37.8359C40.7344 37.875 40.8027 37.9043 40.8809 37.9238C40.959 37.9434 41.0371 37.9531 41.1152 37.9531H50.9883L50.168 40.9707H35.4316C35.2949 40.9707 35.1484 40.9707 34.9922 40.9707C34.8359 40.9512 34.6895 40.9316 34.5527 40.9121C34.416 40.8926 34.2793 40.8535 34.1426 40.7949C34.0059 40.7363 33.8789 40.6777 33.7617 40.6191C33.6641 40.5801 33.5664 40.5215 33.4688 40.4434C33.3711 40.3652 33.293 40.2871 33.2344 40.209C33.1758 40.1309 33.1172 40.0332 33.0586 39.916C33 39.7988 32.9512 39.6816 32.9121 39.5645C32.873 39.4863 32.8438 39.3984 32.8242 39.3008C32.8047 39.1836 32.7949 39.0664 32.7949 38.9492C32.7949 38.832 32.7949 38.7051 32.7949 38.5684C32.7949 38.4121 32.7949 38.2656 32.7949 38.1289C32.8145 38.0312 32.834 37.9336 32.8535 37.8359C32.8535 37.7188 32.8633 37.6113 32.8828 37.5137C32.9219 37.3965 32.9512 37.2793 32.9707 37.1621C32.9902 37.0254 33.0098 36.8984 33.0293 36.7812L34.875 29.8379C34.9141 29.7207 34.9531 29.6035 34.9922 29.4863C35.0312 29.3691 35.0605 29.2617 35.0801 29.1641C35.1191 29.0664 35.1582 28.9688 35.1973 28.8711C35.2559 28.7539 35.2949 28.6465 35.3145 28.5488C35.3926 28.3926 35.4707 28.2363 35.5488 28.0801C35.627 27.9238 35.7051 27.7773 35.7832 27.6406C35.8613 27.5039 35.9492 27.3672 36.0469 27.2305C36.1641 27.0938 36.2617 26.9766 36.3398 26.8789C36.457 26.7617 36.5742 26.6445 36.6914 26.5273C36.8086 26.4102 36.9258 26.3125 37.043 26.2344C37.1602 26.1562 37.2871 26.0781 37.4238 26C37.5801 25.9219 37.7266 25.8633 37.8633 25.8242C37.9805 25.7852 38.1074 25.7461 38.2441 25.707C38.4004 25.668 38.5469 25.6387 38.6836 25.6191C38.8203 25.5996 38.957 25.5801 39.0938 25.5605C39.25 25.541 39.3867 25.5312 39.5039 25.5312H51.3691ZM46.418 31.9473L47.0625 29.5156C47.082 29.4766 47.0918 29.4277 47.0918 29.3691C47.0918 29.3105 47.0918 29.2617 47.0918 29.2227C47.0723 29.1641 47.0527 29.1055 47.0332 29.0469C47.0137 28.9883 46.9941 28.9395 46.9746 28.9004C46.9551 28.8613 46.9258 28.8223 46.8867 28.7832C46.8477 28.7441 46.8086 28.7051 46.7695 28.666C46.7305 28.6465 46.6816 28.627 46.623 28.6074C46.584 28.5879 46.5449 28.5781 46.5059 28.5781H43.1074C43.0488 28.5781 42.9902 28.5879 42.9316 28.6074C42.8926 28.627 42.8535 28.6465 42.8145 28.666C42.7559 28.7051 42.6973 28.7441 42.6387 28.7832C42.5801 28.8223 42.5312 28.8516 42.4922 28.8711C42.4531 28.9102 42.4043 28.959 42.3457 29.0176C42.3066 29.0762 42.2676 29.125 42.2285 29.1641C42.1309 29.2812 42.0723 29.3887 42.0527 29.4863L41.4082 31.9473H46.418Z" fill="black"/>
<path d="M63.3809 29.4863L60.2754 41H53.1562L57.2578 25.5898H72.2285C72.5996 25.5898 72.9414 25.6387 73.2539 25.7363C73.5664 25.8145 73.8496 25.9316 74.1035 26.0879C74.3379 26.2246 74.5332 26.4004 74.6895 26.6152C74.8457 26.8105 74.9824 27.0352 75.0996 27.2891C75.1387 27.3867 75.168 27.4941 75.1875 27.6113C75.2266 27.7285 75.2656 27.8457 75.3047 27.9629C75.3242 28.0996 75.334 28.2363 75.334 28.373C75.3535 28.5098 75.3633 28.6562 75.3633 28.8125C75.3438 28.9688 75.334 29.125 75.334 29.2812C75.334 29.4375 75.3145 29.5938 75.2754 29.75C75.2559 29.9062 75.2266 30.082 75.1875 30.2773C75.1484 30.4531 75.1094 30.6289 75.0703 30.8047L72.3457 41H65.2559L68.332 29.5156C68.3516 29.4375 68.3613 29.3691 68.3613 29.3105C68.3613 29.2324 68.3613 29.1738 68.3613 29.1348C68.3418 29.0762 68.3223 29.0273 68.3027 28.9883C68.2832 28.9297 68.2637 28.8809 68.2441 28.8418C68.2051 28.8027 68.1562 28.7637 68.0977 28.7246C68.0586 28.6855 68.0195 28.6562 67.9805 28.6367C67.9219 28.6172 67.8535 28.6074 67.7754 28.6074C67.7168 28.5879 67.6582 28.5781 67.5996 28.5781H64.5234C64.4844 28.5781 64.4355 28.5879 64.377 28.6074C64.3184 28.6074 64.2598 28.6172 64.2012 28.6367C64.123 28.6562 64.0547 28.6855 63.9961 28.7246C63.9375 28.7637 63.8887 28.793 63.8496 28.8125C63.8105 28.8516 63.7617 28.8906 63.7031 28.9297C63.6641 28.9688 63.6152 29.0176 63.5566 29.0762C63.5176 29.1348 63.4785 29.2031 63.4395 29.2812C63.4199 29.3398 63.4004 29.4082 63.3809 29.4863Z" fill="black"/>
<path d="M115.449 29.8633L112.754 39.9414H106.484V38.3008C106.484 38.3594 106.465 38.418 106.426 38.4766C106.387 38.5352 106.357 38.5742 106.338 38.5938C106.299 38.6328 106.25 38.6816 106.191 38.7402C106.152 38.7988 106.123 38.8379 106.104 38.8574C106.064 38.916 106.016 38.9746 105.957 39.0332C105.898 39.0918 105.85 39.1309 105.811 39.1504C105.771 39.1895 105.723 39.2383 105.664 39.2969C105.605 39.3555 105.557 39.3945 105.518 39.4141C105.4 39.5117 105.273 39.5996 105.137 39.6777C105 39.7363 104.863 39.7852 104.727 39.8242C104.609 39.8438 104.473 39.873 104.316 39.9121C104.18 39.9316 104.043 39.9414 103.906 39.9414H97.373C97.0215 39.9414 96.7188 39.9121 96.4648 39.8535C96.3281 39.834 96.2012 39.8047 96.084 39.7656C95.9668 39.707 95.8496 39.6484 95.7324 39.5898C95.6348 39.5312 95.5371 39.4727 95.4395 39.4141C95.3613 39.3359 95.2832 39.248 95.2051 39.1504C95.1465 39.0723 95.0879 38.9746 95.0293 38.8574C94.9902 38.7402 94.9512 38.623 94.9121 38.5059C94.873 38.3887 94.8438 38.2617 94.8242 38.125C94.8047 37.9688 94.7949 37.8125 94.7949 37.6562C94.7949 37.5 94.8047 37.3438 94.8242 37.1875C94.8242 37.0117 94.834 36.8457 94.8535 36.6895C94.873 36.5332 94.9023 36.3672 94.9414 36.1914C94.9805 36.0156 95.0098 35.8496 95.0293 35.6934C95.0684 35.5371 95.1074 35.3809 95.1465 35.2246C95.1855 35.0488 95.2246 34.8926 95.2637 34.7559C95.2832 34.6191 95.3125 34.4727 95.3516 34.3164C95.4102 34.1602 95.459 34.0137 95.498 33.877C95.5371 33.7402 95.5859 33.5938 95.6445 33.4375C95.7031 33.2617 95.752 33.0957 95.791 32.9395C95.8496 32.7832 95.9082 32.6367 95.9668 32.5C96.0449 32.3438 96.123 32.1875 96.2012 32.0312C96.2598 31.8945 96.3379 31.748 96.4355 31.5918C96.5332 31.4355 96.6211 31.2988 96.6992 31.1816C96.7969 31.0449 96.9043 30.918 97.0215 30.8008C97.1582 30.6641 97.2852 30.5469 97.4023 30.4492C97.5391 30.332 97.6855 30.2246 97.8418 30.127C97.998 30.0293 98.1543 29.9512 98.3105 29.8926C98.584 29.7754 98.877 29.6875 99.1895 29.6289C99.502 29.5703 99.8242 29.541 100.156 29.541H107.422C107.48 29.541 107.549 29.5312 107.627 29.5117C107.725 29.4922 107.803 29.4629 107.861 29.4238C107.939 29.4043 108.018 29.3652 108.096 29.3066C108.174 29.2285 108.252 29.1602 108.33 29.1016C108.369 29.082 108.408 29.043 108.447 28.9844C108.506 28.9258 108.555 28.8672 108.594 28.8086C108.633 28.75 108.662 28.6914 108.682 28.6328C108.721 28.5742 108.75 28.5254 108.77 28.4863C108.809 28.3691 108.809 28.252 108.77 28.1348C108.75 28.0762 108.73 28.0273 108.711 27.9883C108.691 27.9297 108.662 27.8809 108.623 27.8418C108.584 27.8027 108.545 27.7637 108.506 27.7246C108.467 27.6855 108.418 27.6465 108.359 27.6074C108.262 27.5488 108.154 27.5195 108.037 27.5195H98.3691L99.1602 24.502H112.637C112.832 24.502 113.018 24.5117 113.193 24.5312C113.389 24.5508 113.564 24.5703 113.721 24.5898C113.857 24.6289 113.994 24.6777 114.131 24.7363C114.287 24.7949 114.424 24.8535 114.541 24.9121C114.658 24.9707 114.775 25.0488 114.893 25.1465C115.01 25.2441 115.107 25.3418 115.186 25.4395C115.264 25.5371 115.332 25.6543 115.391 25.791C115.469 25.9082 115.527 26.0254 115.566 26.1426C115.625 26.2598 115.664 26.3867 115.684 26.5234C115.723 26.6406 115.752 26.7578 115.771 26.875C115.791 27.0117 115.801 27.1484 115.801 27.2852C115.801 27.4219 115.801 27.5586 115.801 27.6953C115.801 27.8711 115.791 28.0566 115.771 28.252C115.752 28.4473 115.723 28.6328 115.684 28.8086C115.645 28.9844 115.605 29.1699 115.566 29.3652C115.547 29.541 115.508 29.707 115.449 29.8633ZM107.656 32.5293H104.199C104.121 32.5293 104.033 32.5488 103.936 32.5879C103.857 32.6074 103.789 32.627 103.73 32.6465C103.652 32.6855 103.564 32.7344 103.467 32.793C103.389 32.832 103.311 32.8809 103.232 32.9395C103.174 32.998 103.105 33.0664 103.027 33.1445C102.969 33.2031 102.92 33.2617 102.881 33.3203C102.822 33.3984 102.773 33.4766 102.734 33.5547C102.695 33.6328 102.666 33.7012 102.646 33.7598L102.061 35.957C102.041 35.9961 102.031 36.0449 102.031 36.1035C102.031 36.1621 102.031 36.2109 102.031 36.25C102.051 36.3086 102.061 36.3672 102.061 36.4258C102.08 36.4844 102.1 36.5332 102.119 36.5723C102.158 36.6113 102.197 36.6602 102.236 36.7188C102.295 36.7773 102.354 36.8164 102.412 36.8359C102.451 36.875 102.5 36.9043 102.559 36.9238C102.637 36.9434 102.695 36.9531 102.734 36.9531H105.576C105.615 36.9531 105.664 36.9531 105.723 36.9531C105.781 36.9336 105.84 36.9043 105.898 36.8652C105.977 36.8457 106.045 36.8066 106.104 36.748C106.182 36.6895 106.25 36.6406 106.309 36.6016C106.348 36.582 106.387 36.543 106.426 36.4844C106.484 36.4258 106.523 36.377 106.543 36.3379C106.582 36.2793 106.621 36.2207 106.66 36.1621C106.699 36.1035 106.719 36.0547 106.719 36.0156L107.656 32.5293Z" fill="black"/>
<path d="M126.23 24.5312L123.125 36.1328C123.105 36.1719 123.096 36.2207 123.096 36.2793C123.096 36.3379 123.105 36.3867 123.125 36.4258C123.145 36.4844 123.164 36.543 123.184 36.6016C123.203 36.6602 123.223 36.6992 123.242 36.7188C123.281 36.7578 123.32 36.7969 123.359 36.8359C123.418 36.8555 123.467 36.875 123.506 36.8945C123.545 36.9336 123.584 36.9629 123.623 36.9824C123.682 36.9824 123.74 36.9824 123.799 36.9824H126.992C127.031 36.9824 127.08 36.9824 127.139 36.9824C127.197 36.9629 127.246 36.9434 127.285 36.9238C127.363 36.9043 127.432 36.8848 127.49 36.8652C127.549 36.8262 127.598 36.7871 127.637 36.748C127.676 36.7285 127.715 36.6992 127.754 36.6602C127.812 36.6016 127.861 36.5527 127.9 36.5137C127.939 36.4746 127.969 36.4258 127.988 36.3672C128.027 36.3086 128.057 36.2598 128.076 36.2207L131.182 24.5605H138.301L134.17 40H119.199C119.043 40 118.887 40 118.73 40C118.574 39.9805 118.428 39.9512 118.291 39.9121C118.154 39.8926 118.018 39.8535 117.881 39.7949C117.764 39.7363 117.656 39.6777 117.559 39.6191C117.441 39.5605 117.334 39.4922 117.236 39.4141C117.139 39.3359 117.051 39.248 116.973 39.1504C116.895 39.0723 116.816 38.9746 116.738 38.8574C116.68 38.7402 116.621 38.6328 116.562 38.5352C116.484 38.4375 116.416 38.3301 116.357 38.2129C116.318 38.0762 116.289 37.9492 116.27 37.832C116.23 37.6953 116.191 37.5586 116.152 37.4219C116.133 37.2852 116.123 37.1484 116.123 37.0117C116.123 36.875 116.123 36.7383 116.123 36.6016C116.123 36.4648 116.133 36.3281 116.152 36.1914C116.172 35.8984 116.221 35.6152 116.299 35.3418L119.199 24.5312H126.23Z" fill="black"/>
<path d="M143.926 40H136.807L140.938 24.5605H148.057L147.705 25.9375C147.764 25.8594 147.832 25.7812 147.91 25.7031C148.008 25.625 148.105 25.5566 148.203 25.498C148.242 25.4785 148.281 25.4492 148.32 25.4102C148.379 25.3711 148.428 25.332 148.467 25.293C148.525 25.2734 148.584 25.2441 148.643 25.2051C148.701 25.166 148.75 25.1367 148.789 25.1172C148.848 25.0977 148.906 25.0684 148.965 25.0293C149.043 24.9902 149.111 24.9512 149.17 24.9121C149.248 24.8926 149.316 24.8633 149.375 24.8242C149.453 24.7852 149.521 24.7559 149.58 24.7363C149.639 24.7168 149.707 24.6973 149.785 24.6777C149.863 24.6582 149.932 24.6484 149.99 24.6484C150.049 24.6289 150.107 24.6191 150.166 24.6191C150.244 24.5996 150.312 24.5898 150.371 24.5898H154.619L153.477 28.8672H149.727C149.551 28.8672 149.365 28.8867 149.17 28.9258C148.994 28.9453 148.828 28.9648 148.672 28.9844C148.496 29.0234 148.33 29.0723 148.174 29.1309C148.018 29.1895 147.871 29.248 147.734 29.3066C147.676 29.3457 147.607 29.3848 147.529 29.4238C147.451 29.4629 147.383 29.4922 147.324 29.5117C147.266 29.5508 147.207 29.5996 147.148 29.6582C147.09 29.7168 147.031 29.7754 146.973 29.834C146.895 29.8926 146.826 29.9609 146.768 30.0391C146.709 30.0977 146.67 30.1562 146.65 30.2148C146.592 30.293 146.543 30.3809 146.504 30.4785C146.465 30.5566 146.436 30.6348 146.416 30.7129L143.926 40Z" fill="black"/>
<path d="M29.8291 6C25.2305 6 21.2247 9.13615 20.1212 13.6003L12.5105 44.3893C11.7382 47.5137 14.0759 50.5433 17.294 50.5886L46.5 51L47.4778 47H26.8959C24.9276 47 23.4925 45.1364 23.9955 43.2334L31.5988 14.4668C32.2946 11.834 34.6764 10 37.3996 10H56.5222L57.5 6H29.8291Z" fill="black"/>
<path d="M97.7354 45.3281C97.7998 45.3281 97.8607 45.3317 97.918 45.3389C97.9824 45.346 98.0433 45.3532 98.1006 45.3604C98.1507 45.3747 98.2044 45.3926 98.2617 45.4141C98.319 45.4284 98.3727 45.4499 98.4229 45.4785C98.4587 45.5 98.4909 45.5286 98.5195 45.5645C98.5553 45.5931 98.584 45.6217 98.6055 45.6504C98.6341 45.6862 98.6592 45.7256 98.6807 45.7686C98.7021 45.8115 98.7201 45.8545 98.7344 45.8975C98.7415 45.9261 98.7487 45.9619 98.7559 46.0049C98.7702 46.0479 98.7773 46.0872 98.7773 46.123C98.7773 46.1589 98.7773 46.2018 98.7773 46.252C98.7773 46.2949 98.7738 46.3379 98.7666 46.3809C98.7594 46.4382 98.7487 46.5026 98.7344 46.5742C98.7201 46.6387 98.7057 46.7031 98.6914 46.7676L98.1436 48.7764H93.7715L93.6104 49.3887C93.6032 49.4173 93.5996 49.446 93.5996 49.4746C93.5996 49.5033 93.6032 49.5319 93.6104 49.5605C93.6104 49.5892 93.6175 49.6178 93.6318 49.6465C93.6533 49.6751 93.6712 49.7002 93.6855 49.7217C93.6999 49.7432 93.7178 49.7682 93.7393 49.7969C93.7679 49.8184 93.793 49.8327 93.8145 49.8398C93.8359 49.8542 93.861 49.8649 93.8896 49.8721C93.9183 49.8792 93.9469 49.8828 93.9756 49.8828H97.5957L97.2949 50.9893H91.8916C91.8415 50.9893 91.7878 50.9893 91.7305 50.9893C91.6732 50.9821 91.6195 50.9749 91.5693 50.9678C91.5192 50.9606 91.4691 50.9463 91.4189 50.9248C91.3688 50.9033 91.3223 50.8818 91.2793 50.8604C91.2435 50.846 91.2077 50.8245 91.1719 50.7959C91.1361 50.7673 91.1074 50.7386 91.0859 50.71C91.0645 50.6813 91.043 50.6455 91.0215 50.6025C91 50.5596 90.9821 50.5166 90.9678 50.4736C90.9535 50.445 90.9427 50.4128 90.9355 50.377C90.9284 50.334 90.9248 50.291 90.9248 50.248C90.9248 50.2051 90.9248 50.1585 90.9248 50.1084C90.9248 50.0511 90.9248 49.9974 90.9248 49.9473C90.932 49.9115 90.9391 49.8757 90.9463 49.8398C90.9463 49.7969 90.9499 49.7575 90.957 49.7217C90.9714 49.6787 90.9821 49.6357 90.9893 49.5928C90.9964 49.5426 91.0036 49.4961 91.0107 49.4531L91.6875 46.9072C91.7018 46.8643 91.7161 46.8213 91.7305 46.7783C91.7448 46.7354 91.7555 46.696 91.7627 46.6602C91.777 46.6243 91.7913 46.5885 91.8057 46.5527C91.8271 46.5098 91.8415 46.4704 91.8486 46.4346C91.8773 46.3773 91.9059 46.32 91.9346 46.2627C91.9632 46.2054 91.9919 46.1517 92.0205 46.1016C92.0492 46.0514 92.0814 46.0013 92.1172 45.9512C92.1602 45.901 92.196 45.8581 92.2246 45.8223C92.2676 45.7793 92.3105 45.7363 92.3535 45.6934C92.3965 45.6504 92.4395 45.6146 92.4824 45.5859C92.5254 45.5573 92.5719 45.5286 92.6221 45.5C92.6794 45.4714 92.7331 45.4499 92.7832 45.4355C92.8262 45.4212 92.8727 45.4069 92.9229 45.3926C92.9801 45.3783 93.0339 45.3675 93.084 45.3604C93.1341 45.3532 93.1842 45.346 93.2344 45.3389C93.2917 45.3317 93.3418 45.3281 93.3848 45.3281H97.7354ZM95.9199 47.6807L96.1562 46.7891C96.1634 46.7747 96.167 46.7568 96.167 46.7354C96.167 46.7139 96.167 46.696 96.167 46.6816C96.1598 46.6602 96.1527 46.6387 96.1455 46.6172C96.1383 46.5957 96.1312 46.5778 96.124 46.5635C96.1169 46.5492 96.1061 46.5348 96.0918 46.5205C96.0775 46.5062 96.0632 46.4919 96.0488 46.4775C96.0345 46.4704 96.0166 46.4632 95.9951 46.4561C95.9808 46.4489 95.9665 46.4453 95.9521 46.4453H94.7061C94.6846 46.4453 94.6631 46.4489 94.6416 46.4561C94.6273 46.4632 94.613 46.4704 94.5986 46.4775C94.5771 46.4919 94.5557 46.5062 94.5342 46.5205C94.5127 46.5348 94.4948 46.5456 94.4805 46.5527C94.4661 46.5671 94.4482 46.585 94.4268 46.6064C94.4124 46.6279 94.3981 46.6458 94.3838 46.6602C94.348 46.7031 94.3265 46.7425 94.3193 46.7783L94.083 47.6807H95.9199Z" fill="black"/>
<path d="M105.48 45.3496L105.19 46.4561H102.591C102.562 46.4561 102.53 46.4632 102.494 46.4775C102.465 46.4847 102.437 46.4919 102.408 46.499C102.38 46.5133 102.347 46.5312 102.312 46.5527C102.283 46.5671 102.254 46.585 102.226 46.6064C102.197 46.6279 102.168 46.653 102.14 46.6816C102.111 46.7031 102.086 46.7246 102.064 46.7461C102.05 46.7747 102.032 46.8034 102.011 46.832C101.996 46.8607 101.989 46.8857 101.989 46.9072L101.302 49.4639C101.295 49.4854 101.291 49.5104 101.291 49.5391C101.291 49.5677 101.295 49.5928 101.302 49.6143C101.309 49.6429 101.32 49.6715 101.334 49.7002C101.348 49.7217 101.363 49.7396 101.377 49.7539C101.398 49.7754 101.42 49.7969 101.441 49.8184C101.47 49.8327 101.495 49.8434 101.517 49.8506C101.538 49.8649 101.563 49.8757 101.592 49.8828C101.62 49.8828 101.649 49.8828 101.678 49.8828H104.267L103.966 51H99.7764C99.7048 51 99.6331 50.9964 99.5615 50.9893C99.4971 50.9821 99.4398 50.9714 99.3896 50.957C99.3324 50.9499 99.2751 50.9355 99.2178 50.9141C99.1676 50.8854 99.1211 50.8604 99.0781 50.8389C99.0423 50.8102 99.0065 50.7816 98.9707 50.7529C98.9349 50.7171 98.9027 50.6813 98.874 50.6455C98.8454 50.6169 98.8167 50.5811 98.7881 50.5381C98.7666 50.488 98.7451 50.4414 98.7236 50.3984C98.7165 50.3698 98.7057 50.334 98.6914 50.291C98.6842 50.248 98.6771 50.2051 98.6699 50.1621C98.6484 50.0762 98.6413 49.9902 98.6484 49.9043C98.6484 49.8613 98.652 49.8184 98.6592 49.7754C98.6592 49.7253 98.6628 49.6787 98.6699 49.6357C98.6699 49.5928 98.6735 49.5498 98.6807 49.5068C98.6878 49.4567 98.695 49.4102 98.7021 49.3672L99.3359 47.0146C99.3503 46.9645 99.3646 46.9144 99.3789 46.8643C99.4004 46.8141 99.4219 46.7604 99.4434 46.7031C99.4648 46.653 99.4899 46.5993 99.5186 46.542C99.5544 46.4847 99.5866 46.431 99.6152 46.3809C99.6439 46.3307 99.6761 46.2806 99.7119 46.2305C99.7549 46.1732 99.7907 46.1195 99.8193 46.0693C99.8623 46.0192 99.9053 45.9727 99.9482 45.9297C99.9984 45.8796 100.045 45.833 100.088 45.79C100.131 45.7614 100.174 45.7292 100.217 45.6934C100.267 45.6576 100.313 45.6253 100.356 45.5967C100.407 45.568 100.457 45.5394 100.507 45.5107C100.564 45.4821 100.618 45.457 100.668 45.4355C100.704 45.4284 100.743 45.4176 100.786 45.4033C100.836 45.389 100.883 45.3783 100.926 45.3711C100.969 45.3639 101.015 45.3604 101.065 45.3604C101.116 45.3532 101.162 45.3496 101.205 45.3496H105.48Z" fill="black"/>
<path d="M104.492 50.9893L106.544 43.2764H109.154L108.606 45.3389H111.475C111.596 45.3389 111.711 45.3496 111.818 45.3711C111.868 45.3854 111.915 45.4033 111.958 45.4248C112.008 45.4463 112.051 45.4678 112.087 45.4893C112.123 45.5107 112.159 45.5394 112.194 45.5752C112.237 45.6038 112.273 45.6325 112.302 45.6611C112.33 45.6969 112.355 45.7327 112.377 45.7686C112.406 45.8044 112.431 45.8402 112.452 45.876C112.474 45.9118 112.492 45.9512 112.506 45.9941C112.527 46.0371 112.542 46.0801 112.549 46.123C112.563 46.166 112.574 46.2126 112.581 46.2627C112.588 46.3128 112.592 46.3594 112.592 46.4023C112.599 46.4596 112.603 46.5205 112.603 46.585C112.603 46.6494 112.599 46.7103 112.592 46.7676C112.585 46.832 112.577 46.8965 112.57 46.9609C112.563 47.0254 112.552 47.0863 112.538 47.1436L111.507 51H108.907L110.046 46.7461C110.046 46.7318 110.046 46.7139 110.046 46.6924C110.046 46.6709 110.046 46.653 110.046 46.6387C110.039 46.6243 110.032 46.61 110.024 46.5957C110.017 46.5742 110.01 46.5563 110.003 46.542C109.989 46.5348 109.971 46.5241 109.949 46.5098C109.935 46.4954 109.921 46.4847 109.906 46.4775C109.899 46.4704 109.885 46.4632 109.863 46.4561C109.842 46.4489 109.824 46.4453 109.81 46.4453H108.563C108.549 46.4453 108.531 46.4489 108.51 46.4561C108.488 46.4632 108.47 46.4704 108.456 46.4775C108.442 46.4919 108.424 46.5098 108.402 46.5312C108.381 46.5456 108.363 46.5599 108.349 46.5742C108.334 46.5885 108.32 46.6064 108.306 46.6279C108.291 46.6494 108.277 46.6673 108.263 46.6816C108.256 46.7031 108.245 46.7246 108.23 46.7461C108.223 46.7676 108.216 46.7855 108.209 46.7998L107.092 50.9893H104.492Z" fill="black"/>
<path d="M116.362 46.7783L115.224 51H112.613L114.117 45.3496H119.606C119.743 45.3496 119.868 45.3675 119.982 45.4033C120.097 45.432 120.201 45.4749 120.294 45.5322C120.38 45.5824 120.451 45.6468 120.509 45.7256C120.566 45.7972 120.616 45.8796 120.659 45.9727C120.674 46.0085 120.684 46.0479 120.691 46.0908C120.706 46.1338 120.72 46.1768 120.734 46.2197C120.742 46.2699 120.745 46.32 120.745 46.3701C120.752 46.4202 120.756 46.474 120.756 46.5312C120.749 46.5885 120.745 46.6458 120.745 46.7031C120.745 46.7604 120.738 46.8177 120.724 46.875C120.716 46.9323 120.706 46.9967 120.691 47.0684C120.677 47.1328 120.663 47.1973 120.648 47.2617L119.649 51H117.05L118.178 46.7891C118.185 46.7604 118.188 46.7354 118.188 46.7139C118.188 46.6852 118.188 46.6637 118.188 46.6494C118.181 46.6279 118.174 46.61 118.167 46.5957C118.16 46.5742 118.153 46.5563 118.146 46.542C118.131 46.5277 118.113 46.5133 118.092 46.499C118.077 46.4847 118.063 46.474 118.049 46.4668C118.027 46.4596 118.002 46.4561 117.974 46.4561C117.952 46.4489 117.931 46.4453 117.909 46.4453H116.781C116.767 46.4453 116.749 46.4489 116.728 46.4561C116.706 46.4561 116.685 46.4596 116.663 46.4668C116.634 46.474 116.609 46.4847 116.588 46.499C116.566 46.5133 116.549 46.5241 116.534 46.5312C116.52 46.5456 116.502 46.5599 116.48 46.5742C116.466 46.5885 116.448 46.6064 116.427 46.6279C116.412 46.6494 116.398 46.6745 116.384 46.7031C116.377 46.7246 116.369 46.7497 116.362 46.7783Z" fill="black"/>
<path d="M127.609 45.3496C127.66 45.3496 127.71 45.3532 127.76 45.3604C127.81 45.3604 127.856 45.3639 127.899 45.3711C127.942 45.3783 127.985 45.389 128.028 45.4033C128.078 45.4176 128.121 45.4284 128.157 45.4355C128.2 45.4427 128.236 45.457 128.265 45.4785C128.3 45.5 128.329 45.5215 128.351 45.543C128.379 45.5645 128.408 45.5931 128.437 45.6289C128.465 45.6647 128.49 45.6969 128.512 45.7256C128.533 45.7542 128.548 45.7936 128.555 45.8438C128.569 45.8867 128.583 45.9297 128.598 45.9727C128.605 46.0228 128.612 46.0765 128.619 46.1338C128.626 46.1911 128.626 46.252 128.619 46.3164C128.619 46.3522 128.616 46.3916 128.608 46.4346C128.608 46.4775 128.601 46.5205 128.587 46.5635C128.573 46.6064 128.562 46.6566 128.555 46.7139C128.548 46.764 128.537 46.8141 128.522 46.8643L127.803 49.5391C127.788 49.5892 127.771 49.6429 127.749 49.7002C127.735 49.7575 127.72 49.8076 127.706 49.8506C127.685 49.9007 127.663 49.9508 127.642 50.001C127.62 50.0439 127.599 50.0869 127.577 50.1299C127.556 50.18 127.527 50.2301 127.491 50.2803C127.463 50.3232 127.43 50.3662 127.395 50.4092C127.366 50.4521 127.334 50.4915 127.298 50.5273C127.262 50.5632 127.226 50.5954 127.19 50.624C127.162 50.6527 127.126 50.6813 127.083 50.71C127.047 50.7386 127.011 50.7637 126.976 50.7852C126.94 50.8066 126.897 50.8317 126.847 50.8604C126.804 50.8818 126.764 50.8962 126.729 50.9033C126.678 50.9176 126.625 50.932 126.567 50.9463C126.517 50.9606 126.467 50.9714 126.417 50.9785C126.36 50.9857 126.302 50.9928 126.245 51C126.195 51 126.145 51 126.095 51H121.68C121.63 51 121.576 51 121.519 51C121.461 50.9928 121.408 50.9821 121.357 50.9678C121.307 50.9606 121.257 50.9463 121.207 50.9248C121.157 50.9033 121.11 50.8818 121.067 50.8604C121.032 50.8389 120.996 50.8174 120.96 50.7959C120.931 50.7673 120.906 50.7386 120.885 50.71C120.856 50.6813 120.827 50.6527 120.799 50.624C120.777 50.5882 120.759 50.5524 120.745 50.5166C120.738 50.488 120.727 50.4521 120.713 50.4092C120.699 50.3662 120.688 50.3232 120.681 50.2803C120.674 50.2373 120.67 50.1943 120.67 50.1514C120.663 50.1012 120.663 50.0475 120.67 49.9902C120.67 49.9616 120.67 49.9329 120.67 49.9043C120.67 49.8757 120.674 49.8434 120.681 49.8076C120.688 49.779 120.695 49.7432 120.702 49.7002C120.709 49.6572 120.72 49.6178 120.734 49.582L121.454 46.8535C121.468 46.8034 121.483 46.7568 121.497 46.7139C121.511 46.6637 121.526 46.6172 121.54 46.5742C121.547 46.5312 121.562 46.4883 121.583 46.4453C121.604 46.4023 121.622 46.363 121.637 46.3271C121.665 46.2699 121.698 46.2126 121.733 46.1553C121.769 46.098 121.801 46.0443 121.83 45.9941C121.866 45.944 121.902 45.901 121.938 45.8652C121.973 45.8223 122.013 45.7829 122.056 45.7471C122.091 45.7113 122.131 45.6755 122.174 45.6396C122.224 45.6038 122.267 45.5752 122.303 45.5537C122.346 45.5322 122.392 45.5107 122.442 45.4893C122.493 45.4606 122.535 45.4427 122.571 45.4355C122.621 45.4284 122.668 45.4176 122.711 45.4033C122.761 45.389 122.808 45.3783 122.851 45.3711C122.894 45.3639 122.937 45.3604 122.979 45.3604C123.03 45.3532 123.076 45.3496 123.119 45.3496H127.609ZM125.751 46.4668H124.333C124.312 46.4668 124.286 46.4775 124.258 46.499C124.243 46.5133 124.226 46.5277 124.204 46.542C124.19 46.5563 124.179 46.5671 124.172 46.5742C124.165 46.5885 124.154 46.6064 124.14 46.6279C124.125 46.6423 124.118 46.653 124.118 46.6602C124.111 46.6745 124.104 46.6924 124.097 46.7139C124.09 46.7354 124.082 46.7497 124.075 46.7568L123.334 49.5391C123.327 49.5605 123.323 49.582 123.323 49.6035C123.323 49.625 123.327 49.6429 123.334 49.6572C123.341 49.6787 123.348 49.7002 123.355 49.7217C123.363 49.7432 123.37 49.7575 123.377 49.7646C123.384 49.779 123.395 49.7969 123.409 49.8184C123.424 49.8327 123.438 49.8434 123.452 49.8506C123.488 49.8721 123.524 49.8828 123.56 49.8828H124.795C124.816 49.8828 124.834 49.8828 124.849 49.8828C124.87 49.8757 124.892 49.8649 124.913 49.8506C124.935 49.8434 124.956 49.8327 124.978 49.8184C125.006 49.804 125.028 49.7897 125.042 49.7754C125.063 49.7682 125.081 49.7539 125.096 49.7324C125.117 49.7109 125.132 49.693 125.139 49.6787C125.16 49.6572 125.174 49.6357 125.182 49.6143C125.196 49.5928 125.203 49.5749 125.203 49.5605L125.955 46.7676C125.962 46.7533 125.966 46.7354 125.966 46.7139C125.966 46.6924 125.966 46.6745 125.966 46.6602C125.959 46.6458 125.948 46.6315 125.934 46.6172C125.926 46.5957 125.919 46.5778 125.912 46.5635C125.905 46.5563 125.894 46.5456 125.88 46.5312C125.866 46.5169 125.851 46.5062 125.837 46.499C125.823 46.4919 125.805 46.4847 125.783 46.4775C125.769 46.4704 125.758 46.4668 125.751 46.4668Z" fill="black"/>
<path d="M132.787 43.2979L130.725 51H128.114L130.166 43.2979H132.787Z" fill="black"/>
<path d="M138.76 45.3496C138.81 45.3496 138.86 45.3532 138.91 45.3604C138.96 45.3604 139.007 45.3639 139.05 45.3711C139.093 45.3783 139.136 45.389 139.179 45.4033C139.229 45.4176 139.272 45.4284 139.308 45.4355C139.351 45.4427 139.386 45.457 139.415 45.4785C139.451 45.5 139.479 45.5215 139.501 45.543C139.53 45.5645 139.558 45.5931 139.587 45.6289C139.616 45.6647 139.641 45.6969 139.662 45.7256C139.684 45.7542 139.698 45.7936 139.705 45.8438C139.719 45.8867 139.734 45.9297 139.748 45.9727C139.755 46.0228 139.762 46.0765 139.77 46.1338C139.777 46.1911 139.777 46.252 139.77 46.3164C139.77 46.3522 139.766 46.3916 139.759 46.4346C139.759 46.4775 139.752 46.5205 139.737 46.5635C139.723 46.6064 139.712 46.6566 139.705 46.7139C139.698 46.764 139.687 46.8141 139.673 46.8643L138.953 49.5391C138.939 49.5892 138.921 49.6429 138.899 49.7002C138.885 49.7575 138.871 49.8076 138.856 49.8506C138.835 49.9007 138.813 49.9508 138.792 50.001C138.771 50.0439 138.749 50.0869 138.728 50.1299C138.706 50.18 138.677 50.2301 138.642 50.2803C138.613 50.3232 138.581 50.3662 138.545 50.4092C138.516 50.4521 138.484 50.4915 138.448 50.5273C138.412 50.5632 138.377 50.5954 138.341 50.624C138.312 50.6527 138.276 50.6813 138.233 50.71C138.198 50.7386 138.162 50.7637 138.126 50.7852C138.09 50.8066 138.047 50.8317 137.997 50.8604C137.954 50.8818 137.915 50.8962 137.879 50.9033C137.829 50.9176 137.775 50.932 137.718 50.9463C137.668 50.9606 137.618 50.9714 137.567 50.9785C137.51 50.9857 137.453 50.9928 137.396 51C137.345 51 137.295 51 137.245 51H132.83C132.78 51 132.726 51 132.669 51C132.612 50.9928 132.558 50.9821 132.508 50.9678C132.458 50.9606 132.408 50.9463 132.357 50.9248C132.307 50.9033 132.261 50.8818 132.218 50.8604C132.182 50.8389 132.146 50.8174 132.11 50.7959C132.082 50.7673 132.057 50.7386 132.035 50.71C132.007 50.6813 131.978 50.6527 131.949 50.624C131.928 50.5882 131.91 50.5524 131.896 50.5166C131.888 50.488 131.878 50.4521 131.863 50.4092C131.849 50.3662 131.838 50.3232 131.831 50.2803C131.824 50.2373 131.82 50.1943 131.82 50.1514C131.813 50.1012 131.813 50.0475 131.82 49.9902C131.82 49.9616 131.82 49.9329 131.82 49.9043C131.82 49.8757 131.824 49.8434 131.831 49.8076C131.838 49.779 131.845 49.7432 131.853 49.7002C131.86 49.6572 131.87 49.6178 131.885 49.582L132.604 46.8535C132.619 46.8034 132.633 46.7568 132.647 46.7139C132.662 46.6637 132.676 46.6172 132.69 46.5742C132.698 46.5312 132.712 46.4883 132.733 46.4453C132.755 46.4023 132.773 46.363 132.787 46.3271C132.816 46.2699 132.848 46.2126 132.884 46.1553C132.92 46.098 132.952 46.0443 132.98 45.9941C133.016 45.944 133.052 45.901 133.088 45.8652C133.124 45.8223 133.163 45.7829 133.206 45.7471C133.242 45.7113 133.281 45.6755 133.324 45.6396C133.374 45.6038 133.417 45.5752 133.453 45.5537C133.496 45.5322 133.543 45.5107 133.593 45.4893C133.643 45.4606 133.686 45.4427 133.722 45.4355C133.772 45.4284 133.818 45.4176 133.861 45.4033C133.911 45.389 133.958 45.3783 134.001 45.3711C134.044 45.3639 134.087 45.3604 134.13 45.3604C134.18 45.3532 134.227 45.3496 134.27 45.3496H138.76ZM136.901 46.4668H135.483C135.462 46.4668 135.437 46.4775 135.408 46.499C135.394 46.5133 135.376 46.5277 135.354 46.542C135.34 46.5563 135.329 46.5671 135.322 46.5742C135.315 46.5885 135.304 46.6064 135.29 46.6279C135.276 46.6423 135.269 46.653 135.269 46.6602C135.261 46.6745 135.254 46.6924 135.247 46.7139C135.24 46.7354 135.233 46.7497 135.226 46.7568L134.484 49.5391C134.477 49.5605 134.474 49.582 134.474 49.6035C134.474 49.625 134.477 49.6429 134.484 49.6572C134.492 49.6787 134.499 49.7002 134.506 49.7217C134.513 49.7432 134.52 49.7575 134.527 49.7646C134.535 49.779 134.545 49.7969 134.56 49.8184C134.574 49.8327 134.588 49.8434 134.603 49.8506C134.638 49.8721 134.674 49.8828 134.71 49.8828H135.945C135.967 49.8828 135.985 49.8828 135.999 49.8828C136.021 49.8757 136.042 49.8649 136.063 49.8506C136.085 49.8434 136.106 49.8327 136.128 49.8184C136.157 49.804 136.178 49.7897 136.192 49.7754C136.214 49.7682 136.232 49.7539 136.246 49.7324C136.268 49.7109 136.282 49.693 136.289 49.6787C136.311 49.6572 136.325 49.6357 136.332 49.6143C136.346 49.5928 136.354 49.5749 136.354 49.5605L137.105 46.7676C137.113 46.7533 137.116 46.7354 137.116 46.7139C137.116 46.6924 137.116 46.6745 137.116 46.6602C137.109 46.6458 137.098 46.6315 137.084 46.6172C137.077 46.5957 137.07 46.5778 137.062 46.5635C137.055 46.5563 137.045 46.5456 137.03 46.5312C137.016 46.5169 137.002 46.5062 136.987 46.499C136.973 46.4919 136.955 46.4847 136.934 46.4775C136.919 46.4704 136.909 46.4668 136.901 46.4668Z" fill="black"/>
<path d="M144.851 46.4453H143.572C143.558 46.4453 143.544 46.4489 143.529 46.4561C143.515 46.4632 143.501 46.4704 143.486 46.4775C143.472 46.4919 143.458 46.5062 143.443 46.5205C143.429 46.5348 143.415 46.5492 143.4 46.5635C143.393 46.5778 143.382 46.5957 143.368 46.6172C143.354 46.6315 143.347 46.6458 143.347 46.6602C143.34 46.6816 143.329 46.7031 143.314 46.7246C143.307 46.7461 143.304 46.7604 143.304 46.7676L142.552 49.5605C142.552 49.5749 142.548 49.5928 142.541 49.6143C142.541 49.6357 142.545 49.6536 142.552 49.668C142.552 49.6895 142.555 49.7109 142.562 49.7324C142.577 49.7539 142.588 49.7718 142.595 49.7861C142.602 49.8005 142.613 49.8148 142.627 49.8291C142.641 49.8434 142.656 49.8542 142.67 49.8613C142.684 49.8757 142.702 49.8864 142.724 49.8936C142.745 49.8936 142.763 49.8936 142.777 49.8936H143.959C143.973 49.8936 143.991 49.8936 144.013 49.8936C144.034 49.8864 144.052 49.8792 144.066 49.8721C144.081 49.8649 144.099 49.8542 144.12 49.8398C144.142 49.8255 144.156 49.8112 144.163 49.7969C144.177 49.7897 144.195 49.7754 144.217 49.7539C144.238 49.7324 144.253 49.7145 144.26 49.7002C144.267 49.6859 144.274 49.668 144.281 49.6465C144.296 49.625 144.303 49.6071 144.303 49.5928L145.055 46.7891C145.062 46.7676 145.065 46.7461 145.065 46.7246C145.073 46.7031 145.073 46.6852 145.065 46.6709C145.065 46.6494 145.058 46.6315 145.044 46.6172C145.037 46.5957 145.03 46.5778 145.022 46.5635C145.015 46.5492 145.005 46.5348 144.99 46.5205C144.976 46.5062 144.962 46.4919 144.947 46.4775C144.933 46.4704 144.915 46.4632 144.894 46.4561C144.879 46.4489 144.865 46.4453 144.851 46.4453ZM146.365 51.5479C146.358 51.598 146.344 51.6481 146.322 51.6982C146.308 51.7484 146.29 51.7949 146.269 51.8379C146.247 51.888 146.222 51.9346 146.193 51.9775C146.165 52.0277 146.136 52.0742 146.107 52.1172C146.086 52.1602 146.057 52.2031 146.021 52.2461C145.993 52.2962 145.964 52.3392 145.936 52.375C145.907 52.4108 145.871 52.4466 145.828 52.4824C145.785 52.5254 145.746 52.5648 145.71 52.6006C145.674 52.6292 145.635 52.6615 145.592 52.6973C145.556 52.7331 145.517 52.7653 145.474 52.7939C145.438 52.8226 145.398 52.8477 145.355 52.8691C145.32 52.8978 145.284 52.9229 145.248 52.9443C145.198 52.9658 145.144 52.9873 145.087 53.0088C145.037 53.0303 144.99 53.0482 144.947 53.0625C144.897 53.0768 144.847 53.0876 144.797 53.0947C144.747 53.109 144.7 53.1162 144.657 53.1162H139.426L139.716 52.0205H143.153C143.196 52.0205 143.239 52.0133 143.282 51.999C143.325 51.9919 143.365 51.9847 143.4 51.9775C143.436 51.9632 143.468 51.9417 143.497 51.9131C143.533 51.8916 143.565 51.8665 143.594 51.8379C143.622 51.8164 143.647 51.7878 143.669 51.752C143.698 51.7233 143.723 51.6947 143.744 51.666C143.78 51.6016 143.805 51.5371 143.819 51.4727L143.959 50.9893H141.005C140.94 50.9893 140.88 50.9893 140.822 50.9893C140.772 50.9821 140.726 50.9714 140.683 50.957C140.625 50.9499 140.575 50.9355 140.532 50.9141C140.489 50.8926 140.45 50.8711 140.414 50.8496C140.378 50.8281 140.342 50.8066 140.307 50.7852C140.271 50.7565 140.242 50.7279 140.221 50.6992C140.192 50.6706 140.163 50.6419 140.135 50.6133C140.106 50.5775 140.085 50.5417 140.07 50.5059C140.035 50.4414 140.002 50.3698 139.974 50.291C139.959 50.2552 139.949 50.2158 139.941 50.1729C139.934 50.1299 139.931 50.0869 139.931 50.0439C139.924 49.9938 139.92 49.9401 139.92 49.8828C139.92 49.8255 139.924 49.7718 139.931 49.7217C139.938 49.6715 139.945 49.6178 139.952 49.5605C139.966 49.5033 139.981 49.446 139.995 49.3887L140.661 46.8965C140.668 46.8535 140.679 46.8105 140.693 46.7676C140.715 46.7174 140.733 46.6709 140.747 46.6279C140.769 46.585 140.79 46.5384 140.812 46.4883C140.84 46.4382 140.865 46.3916 140.887 46.3486C140.908 46.3057 140.933 46.2627 140.962 46.2197C140.998 46.1696 141.034 46.123 141.069 46.0801C141.105 46.0371 141.141 45.9941 141.177 45.9512C141.22 45.9082 141.259 45.8688 141.295 45.833C141.338 45.79 141.381 45.7507 141.424 45.7148C141.474 45.679 141.524 45.6432 141.574 45.6074C141.617 45.5788 141.664 45.5501 141.714 45.5215C141.771 45.4857 141.825 45.457 141.875 45.4355C141.925 45.4141 141.975 45.3962 142.025 45.3818C142.076 45.3675 142.126 45.3532 142.176 45.3389C142.226 45.3317 142.276 45.3245 142.326 45.3174C142.383 45.3031 142.441 45.2959 142.498 45.2959H148.052L146.365 51.5479Z" fill="black"/>
<path d="M151.489 45.3281L150.361 49.5391C150.354 49.5534 150.351 49.5713 150.351 49.5928C150.351 49.6143 150.351 49.6322 150.351 49.6465C150.351 49.668 150.354 49.6895 150.361 49.7109C150.376 49.7324 150.386 49.7467 150.394 49.7539C150.394 49.7754 150.401 49.7969 150.415 49.8184C150.437 49.8327 150.454 49.8434 150.469 49.8506C150.512 49.8721 150.548 49.8828 150.576 49.8828H151.747C151.769 49.8828 151.786 49.8828 151.801 49.8828C151.822 49.8757 151.84 49.8685 151.854 49.8613C151.869 49.8542 151.883 49.8434 151.897 49.8291C151.919 49.8076 151.937 49.7897 151.951 49.7754C151.965 49.7682 151.98 49.7539 151.994 49.7324C152.008 49.7109 152.019 49.693 152.026 49.6787C152.034 49.6572 152.041 49.6393 152.048 49.625C152.062 49.6035 152.069 49.5856 152.069 49.5713L153.197 45.3604H155.775L154.057 51.7734C154.049 51.8021 154.039 51.8379 154.024 51.8809C154.01 51.9238 153.992 51.9632 153.971 51.999C153.956 52.0348 153.938 52.0742 153.917 52.1172C153.903 52.1602 153.885 52.1995 153.863 52.2354C153.842 52.2712 153.813 52.307 153.777 52.3428C153.749 52.3857 153.724 52.4251 153.702 52.4609C153.674 52.4896 153.641 52.5218 153.605 52.5576C153.57 52.5934 153.537 52.6292 153.509 52.665C153.48 52.6937 153.444 52.7223 153.401 52.751C153.366 52.7868 153.33 52.8154 153.294 52.8369C153.251 52.8656 153.208 52.8906 153.165 52.9121C153.122 52.9408 153.079 52.9658 153.036 52.9873C152.993 53.0016 152.947 53.016 152.896 53.0303C152.854 53.0518 152.811 53.0661 152.768 53.0732C152.717 53.0804 152.664 53.0876 152.606 53.0947C152.556 53.1019 152.506 53.1055 152.456 53.1055H147.139L147.418 52.0098H151.027C151.056 52.0098 151.085 52.0062 151.113 51.999C151.149 51.999 151.178 51.9954 151.199 51.9883C151.221 51.974 151.246 51.9596 151.274 51.9453C151.303 51.931 151.328 51.9202 151.35 51.9131C151.357 51.8988 151.371 51.8809 151.393 51.8594C151.414 51.8451 151.428 51.8307 151.436 51.8164C151.45 51.8021 151.461 51.7842 151.468 51.7627C151.482 51.7412 151.493 51.7197 151.5 51.6982L151.693 51H148.89C148.825 51 148.761 50.9964 148.696 50.9893C148.639 50.9821 148.585 50.9714 148.535 50.957C148.485 50.9499 148.435 50.9355 148.385 50.9141C148.335 50.8854 148.288 50.8568 148.245 50.8281C148.202 50.7995 148.163 50.7673 148.127 50.7314C148.091 50.6956 148.059 50.6598 148.03 50.624C147.994 50.5882 147.962 50.5488 147.934 50.5059C147.905 50.4557 147.883 50.4056 147.869 50.3555C147.855 50.3268 147.84 50.291 147.826 50.248C147.812 50.2051 147.805 50.1621 147.805 50.1191C147.79 50.0762 147.78 50.0332 147.772 49.9902C147.765 49.9401 147.762 49.8936 147.762 49.8506C147.762 49.8076 147.762 49.7611 147.762 49.7109C147.762 49.6608 147.765 49.6107 147.772 49.5605C147.787 49.5104 147.798 49.4603 147.805 49.4102C147.812 49.36 147.823 49.3063 147.837 49.249L148.89 45.3281H151.489Z" fill="black"/>
<path d="M72 14H108L107.305 17H95L85.7317 55H75.1951L84 17H71.2683L72 14Z" fill="black"/>
</svg>
