<?xml version="1.0" encoding="UTF-8"?>
<svg xmlns="http://www.w3.org/2000/svg" xmlns:xlink="http://www.w3.org/1999/xlink" width="200px" height="82px" viewBox="0 0 200 82" version="1.1">
<g id="surface1">
<path style=" stroke:none;fill-rule:evenodd;fill:rgb(0%,0%,0%);fill-opacity:1;" d="M 33.847656 67.84375 C 42.464844 67.84375 49.539062 65.066406 55.539062 59.519531 C 52.617188 54.429688 50.921875 48.726562 48.617188 44.40625 C 45.386719 49.1875 39.847656 52.117188 33.847656 52.117188 C 23.847656 52.117188 15.691406 43.945312 15.691406 33.921875 C 15.691406 23.746094 23.847656 15.574219 33.847656 15.574219 C 40 15.574219 45.386719 18.8125 48.617188 23.4375 C 51.078125 18.503906 54 12.644531 56.308594 8.632812 C 50.308594 3.238281 42.308594 0 33.847656 0 C 15.230469 0 0 15.265625 0 33.921875 C 0 52.578125 15.230469 67.84375 33.847656 67.84375 Z M 33.847656 67.84375 "/>
<path style=" stroke:none;fill-rule:evenodd;fill:rgb(0%,0%,0%);fill-opacity:1;" d="M 43.386719 24.671875 L 60 60.597656 L 48.15625 82.183594 L 68.308594 82.183594 L 94 28.0625 L 94 67.074219 L 110.464844 67.074219 C 110.464844 67.074219 110.308594 48.570312 110.464844 49.035156 C 110.464844 46.875 111.386719 43.171875 114.617188 42.867188 L 122.925781 42.867188 L 122.925781 25.132812 C 124.15625 23.589844 113.695312 26.214844 111.078125 30.222656 L 111.078125 24.671875 L 75.386719 24.671875 L 68.460938 42.710938 L 62.617188 24.671875 C 62.617188 24.671875 43.695312 24.671875 43.386719 24.671875 Z M 43.386719 24.671875 "/>
<path style=" stroke:none;fill-rule:evenodd;fill:rgb(0%,0%,0%);fill-opacity:1;" d="M 121.234375 16.652344 L 134.773438 3.703125 L 148.003906 16.652344 L 134.773438 29.296875 Z M 121.234375 16.652344 "/>
<path style=" stroke:none;fill-rule:evenodd;fill:rgb(0%,0%,0%);fill-opacity:1;" d="M 125.695312 67.226562 L 125.695312 25.441406 L 134.464844 33.765625 L 143.234375 25.59375 L 143.386719 25.441406 L 166.15625 25.441406 L 171.234375 31.761719 C 174.308594 27.90625 176.3125 25.441406 176.15625 25.441406 C 176.003906 25.441406 199.847656 25.441406 199.847656 25.441406 L 182.617188 46.101562 L 199.695312 67.226562 L 178.003906 67.226562 L 171.542969 59.671875 L 165.234375 67.226562 Z M 143.386719 25.75 L 143.386719 66.917969 C 144.769531 65.222656 152.464844 55.507812 160.15625 45.796875 Z M 143.386719 25.75 "/>
</g>
</svg>
