<?xml version="1.0" encoding="UTF-8"?>
<svg xmlns="http://www.w3.org/2000/svg" xmlns:xlink="http://www.w3.org/1999/xlink" width="200px" height="79px" viewBox="0 0 200 79" version="1.1">
<g id="surface1">
<path style=" stroke:none;fill-rule:nonzero;fill:rgb(0%,78.039216%,99.215686%);fill-opacity:1;" d="M 2.378906 2.632812 L 16.609375 2.632812 L 16.609375 16.863281 L 2.378906 16.863281 Z M 2.378906 2.632812 "/>
<path style=" stroke:none;fill-rule:nonzero;fill:rgb(0%,78.039216%,99.215686%);fill-opacity:1;" d="M 16.253906 76.773438 L 16.253906 25.472656 L 2.734375 25.472656 L 2.734375 76.722656 L 16.253906 76.722656 Z M 105.773438 77.277344 L 105.773438 64.71875 C 103.796875 64.71875 102.125 64.617188 100.910156 64.414062 C 99.492188 64.210938 98.429688 63.707031 97.722656 62.996094 C 97.011719 62.289062 96.558594 61.277344 96.304688 59.910156 C 96.101562 58.640625 96 56.972656 96 54.945312 L 96 37.070312 L 105.773438 37.070312 L 105.773438 25.472656 L 96 25.472656 L 96 5.519531 L 82.480469 5.519531 L 82.480469 55.097656 C 82.480469 59.300781 82.835938 62.84375 83.542969 65.679688 C 84.253906 68.464844 85.46875 70.746094 87.140625 72.46875 C 88.808594 74.1875 91.039062 75.40625 93.722656 76.164062 C 96.457031 76.921875 99.898438 77.277344 104 77.277344 Z M 183.140625 76.773438 L 183.140625 1.570312 L 169.621094 1.570312 L 169.621094 76.773438 Z M 69.46875 30.535156 C 65.722656 26.484375 60.457031 24.460938 53.773438 24.460938 C 50.53125 24.460938 47.542969 25.117188 44.910156 26.433594 C 42.226562 27.75 40 29.574219 38.175781 31.902344 L 37.46875 32.867188 L 37.46875 25.472656 L 24.152344 25.472656 L 24.152344 76.722656 L 37.570312 76.722656 L 37.570312 49.425781 L 37.570312 51.300781 C 37.570312 50.996094 37.570312 50.691406 37.570312 50.386719 C 37.722656 45.578125 38.886719 42.03125 41.113281 39.753906 C 43.492188 37.324219 46.378906 36.105469 49.671875 36.105469 C 53.570312 36.105469 56.558594 37.324219 58.53125 39.652344 C 60.457031 41.980469 61.46875 45.273438 61.46875 49.476562 L 61.46875 76.722656 L 75.089844 76.722656 L 75.089844 47.652344 C 75.140625 40.359375 73.214844 34.585938 69.46875 30.535156 Z M 162.632812 51.046875 C 162.632812 47.347656 161.976562 43.90625 160.707031 40.664062 C 159.390625 37.472656 157.570312 34.636719 155.292969 32.207031 C 152.960938 29.777344 150.175781 27.902344 146.9375 26.535156 C 143.695312 25.167969 140.101562 24.511719 136.203125 24.511719 C 132.507812 24.511719 129.011719 25.21875 125.773438 26.585938 C 122.53125 28.003906 119.695312 29.878906 117.316406 32.257812 C 114.9375 34.636719 113.011719 37.472656 111.644531 40.714844 C 110.226562 43.957031 109.570312 47.449219 109.570312 51.148438 C 109.570312 54.84375 110.226562 58.339844 111.542969 61.578125 C 112.859375 64.820312 114.734375 67.65625 117.0625 70.035156 C 119.390625 72.417969 122.277344 74.339844 125.621094 75.707031 C 128.960938 77.125 132.660156 77.835938 136.609375 77.835938 C 148.050781 77.835938 155.140625 72.621094 159.390625 67.757812 L 149.671875 60.363281 C 147.644531 62.792969 142.785156 66.085938 136.707031 66.085938 C 132.910156 66.085938 129.773438 65.226562 127.390625 63.453125 C 125.011719 61.730469 123.390625 59.300781 122.53125 56.3125 L 122.378906 55.855469 L 162.632812 55.855469 Z M 122.480469 46.335938 C 122.480469 42.589844 126.785156 36.054688 136.050781 36.003906 C 145.316406 36.003906 149.671875 42.539062 149.671875 46.285156 Z M 198.53125 70.289062 C 198.277344 69.683594 197.925781 69.175781 197.46875 68.71875 C 197.011719 68.265625 196.507812 67.910156 195.898438 67.65625 C 195.292969 67.402344 194.632812 67.25 193.976562 67.25 C 193.265625 67.25 192.660156 67.402344 192.050781 67.65625 C 191.441406 67.910156 190.9375 68.265625 190.480469 68.71875 C 190.023438 69.175781 189.671875 69.683594 189.417969 70.289062 C 189.164062 70.898438 189.011719 71.554688 189.011719 72.214844 C 189.011719 72.921875 189.164062 73.53125 189.417969 74.136719 C 189.671875 74.746094 190.023438 75.253906 190.480469 75.707031 C 190.9375 76.164062 191.441406 76.519531 192.050781 76.773438 C 192.660156 77.023438 193.316406 77.175781 193.976562 77.175781 C 194.683594 77.175781 195.292969 77.023438 195.898438 76.773438 C 196.507812 76.519531 197.011719 76.164062 197.46875 75.707031 C 197.925781 75.253906 198.277344 74.746094 198.53125 74.136719 C 198.785156 73.53125 198.9375 72.871094 198.9375 72.214844 C 198.9375 71.554688 198.785156 70.898438 198.53125 70.289062 Z M 197.722656 73.835938 C 197.519531 74.339844 197.214844 74.796875 196.859375 75.152344 C 196.507812 75.503906 196.050781 75.808594 195.542969 76.011719 C 195.039062 76.214844 194.53125 76.316406 193.925781 76.316406 C 193.367188 76.316406 192.808594 76.214844 192.304688 76.011719 C 191.796875 75.808594 191.339844 75.503906 190.988281 75.152344 C 190.632812 74.796875 190.328125 74.339844 190.125 73.835938 C 189.925781 73.328125 189.824219 72.820312 189.824219 72.214844 C 189.824219 71.65625 189.925781 71.101562 190.125 70.59375 C 190.328125 70.085938 190.632812 69.632812 190.988281 69.277344 C 191.339844 68.921875 191.796875 68.617188 192.304688 68.417969 C 192.808594 68.214844 193.316406 68.113281 193.925781 68.113281 C 194.480469 68.113281 195.039062 68.214844 195.542969 68.417969 C 196.050781 68.617188 196.507812 68.921875 196.859375 69.277344 C 197.214844 69.632812 197.519531 70.085938 197.722656 70.59375 C 197.925781 71.101562 198.023438 71.605469 198.023438 72.214844 C 198.023438 72.820312 197.925781 73.328125 197.722656 73.835938 Z M 194.886719 72.667969 C 195.292969 72.621094 195.59375 72.46875 195.847656 72.214844 C 196.101562 71.960938 196.253906 71.605469 196.253906 71.101562 C 196.253906 70.542969 196.101562 70.136719 195.746094 69.832031 C 195.441406 69.53125 194.886719 69.378906 194.226562 69.378906 L 192 69.378906 L 192 75.101562 L 193.0625 75.101562 L 193.0625 72.769531 L 193.824219 72.769531 L 195.242188 75.101562 L 196.355469 75.101562 Z M 194.328125 71.808594 C 194.175781 71.808594 194.023438 71.808594 193.824219 71.808594 L 193.0625 71.808594 L 193.0625 70.1875 L 193.824219 70.1875 C 193.976562 70.1875 194.125 70.1875 194.328125 70.1875 C 194.480469 70.1875 194.632812 70.238281 194.785156 70.289062 C 194.9375 70.339844 195.039062 70.441406 195.089844 70.542969 C 195.191406 70.644531 195.191406 70.796875 195.191406 71 C 195.191406 71.203125 195.140625 71.351562 195.089844 71.453125 C 194.988281 71.554688 194.886719 71.65625 194.785156 71.707031 C 194.632812 71.757812 194.480469 71.808594 194.328125 71.808594 Z M 194.328125 71.808594 "/>
</g>
</svg>
