<?xml version="1.0" encoding="UTF-8"?>
<svg xmlns="http://www.w3.org/2000/svg" xmlns:xlink="http://www.w3.org/1999/xlink" width="200px" height="62px" viewBox="0 0 201 62" version="1.1">
<g id="surface1">
<path style=" stroke:none;fill-rule:nonzero;fill:rgb(0%,45.882353%,74.509804%);fill-opacity:1;" d="M 43.789062 6.09375 C 51.183594 11.804688 46.242188 36.324219 34.503906 48.910156 L 18.144531 31.085938 C 12.800781 39.640625 11.316406 50.902344 15.046875 52.191406 C 18.03125 53.21875 22.667969 48.019531 25.039062 44.3125 L 26.042969 45.453125 C 21.941406 52.757812 13.945312 60.324219 8.277344 55.96875 C 0.882812 50.269531 5.824219 25.738281 17.53125 13.15625 L 33.96875 30.976562 C 39.316406 22.421875 40.769531 11.160156 37.039062 9.875 C 34.035156 8.84375 29.417969 14.042969 27.042969 17.75 L 26.074219 16.609375 C 30.160156 9.304688 38.167969 1.753906 43.789062 6.09375 "/>
<path style=" stroke:none;fill-rule:nonzero;fill:rgb(0%,45.882353%,74.509804%);fill-opacity:1;" d="M 65.667969 22.058594 L 65.714844 22.058594 C 67.363281 16.09375 67.800781 14.902344 67.800781 14.191406 C 67.800781 13.113281 66.28125 13.800781 66.28125 13.066406 C 66.28125 12.835938 66.445312 12.699219 66.976562 12.699219 C 67.605469 12.699219 67.929688 12.789062 68.605469 12.789062 C 69.171875 12.789062 69.398438 12.699219 70.011719 12.699219 C 70.449219 12.699219 70.546875 12.835938 70.546875 13.042969 C 70.546875 13.386719 70.238281 13.410156 69.65625 13.617188 C 69.300781 13.730469 68.914062 14.050781 68.671875 14.96875 L 65.410156 26.761719 C 65.230469 27.402344 65.28125 27.519531 64.683594 27.519531 C 64.3125 27.519531 64.117188 27.378906 63.535156 25.796875 L 59.984375 15.863281 L 59.953125 15.863281 C 57.449219 23.984375 57.402344 24.902344 57.402344 25.453125 C 57.402344 26.1875 57.933594 26.277344 58.304688 26.324219 C 58.726562 26.371094 58.984375 26.460938 58.984375 26.804688 C 58.984375 27.082031 58.726562 27.242188 58.386719 27.242188 C 57.867188 27.242188 57.707031 27.152344 56.625 27.152344 C 55.542969 27.152344 55.316406 27.242188 54.867188 27.242188 C 54.542969 27.242188 54.382812 27.128906 54.382812 26.898438 C 54.382812 26.644531 54.542969 26.4375 55.300781 26.324219 C 56.027344 26.210938 56.171875 25.867188 56.738281 23.847656 L 58.96875 15.933594 C 59.191406 15.085938 59.304688 14.464844 59.304688 14.191406 C 59.304688 13.84375 59.191406 13.730469 58.820312 13.617188 C 58.449219 13.503906 58.09375 13.433594 58.09375 13.15625 C 58.09375 12.8125 58.320312 12.699219 58.757812 12.699219 C 59.210938 12.699219 59.984375 12.789062 60.550781 12.789062 C 61.179688 12.789062 61.890625 12.699219 62.277344 12.699219 C 62.472656 12.699219 62.535156 13.203125 62.890625 14.234375 L 65.667969 22.058594 "/>
<path style=" stroke:none;fill-rule:nonzero;fill:rgb(0%,45.882353%,74.509804%);fill-opacity:1;" d="M 83.140625 16.550781 C 83.335938 16.550781 83.429688 16.667969 83.429688 16.804688 C 83.429688 16.988281 83.316406 17.332031 83.203125 17.722656 L 81.574219 23.320312 C 81.300781 24.261719 81.234375 24.535156 81.234375 24.855469 C 81.234375 25.109375 81.300781 25.222656 81.445312 25.222656 C 81.75 25.222656 82.21875 24.652344 82.65625 23.914062 C 83.058594 23.226562 83.109375 23.019531 83.285156 23.042969 C 83.429688 23.042969 83.496094 23.113281 83.496094 23.273438 C 83.496094 23.777344 81.574219 27.519531 79.214844 27.519531 C 78.394531 27.519531 78.214844 26.921875 78.214844 26.234375 C 78.214844 25.316406 78.457031 24.421875 78.699219 23.617188 L 78.652344 23.574219 C 77.746094 24.8125 76.148438 27.289062 74.339844 27.289062 C 73 27.289062 72.628906 26.371094 72.628906 24.949219 C 72.628906 21.140625 75.875 16.78125 79.539062 16.78125 C 79.992188 16.78125 80.3125 16.898438 80.589844 17.101562 C 80.816406 16.691406 80.734375 16.550781 81.332031 16.550781 Z M 75.648438 24.492188 C 75.648438 25.085938 75.875 25.222656 76.132812 25.222656 C 77.488281 25.222656 80.234375 19.625 80.234375 18.066406 C 80.234375 17.746094 80.152344 17.425781 79.71875 17.425781 C 78.503906 17.425781 75.648438 22.929688 75.648438 24.492188 "/>
<path style=" stroke:none;fill-rule:nonzero;fill:rgb(0%,45.882353%,74.509804%);fill-opacity:1;" d="M 89.421875 17.652344 L 89.679688 16.78125 L 91.328125 16.78125 L 92.375 13.9375 C 92.488281 13.640625 92.585938 13.59375 92.878906 13.59375 L 95.058594 13.59375 C 95.332031 13.59375 95.429688 13.683594 95.429688 13.824219 C 95.429688 13.984375 95.105469 14.785156 94.507812 16.78125 L 96.332031 16.78125 L 96.074219 17.699219 L 94.183594 17.699219 C 91.941406 24.351562 91.828125 24.8125 91.828125 25.246094 C 91.828125 25.382812 91.925781 25.589844 92.132812 25.589844 C 92.488281 25.589844 93.039062 24.855469 93.457031 24.238281 C 93.976562 23.457031 94.054688 23.136719 94.28125 23.136719 C 94.410156 23.136719 94.539062 23.226562 94.539062 23.410156 C 94.539062 23.59375 92.878906 27.519531 90.003906 27.519531 C 88.953125 27.519531 88.535156 26.851562 88.535156 25.867188 C 88.535156 25.179688 88.742188 24.101562 91.003906 17.652344 L 89.421875 17.652344 "/>
<path style=" stroke:none;fill-rule:nonzero;fill:rgb(0%,45.882353%,74.509804%);fill-opacity:1;" d="M 103.488281 18.363281 C 103.488281 18.203125 103.390625 18.113281 103.277344 18.113281 C 103.003906 18.113281 102.453125 18.640625 101.921875 19.375 C 101.417969 20.109375 101.304688 20.292969 101.097656 20.292969 C 100.96875 20.292969 100.855469 20.175781 100.855469 20.039062 C 100.855469 19.328125 102.90625 16.414062 105.3125 16.414062 C 106.246094 16.414062 106.78125 16.851562 106.78125 17.609375 C 106.78125 18.433594 106.070312 20.382812 105.34375 22.308594 C 104.648438 24.144531 104.4375 24.601562 104.4375 25.039062 C 104.4375 25.222656 104.535156 25.316406 104.714844 25.316406 C 105.019531 25.316406 105.539062 24.742188 105.925781 24.191406 C 106.585938 23.25 106.585938 22.90625 106.894531 22.90625 C 107.007812 22.90625 107.121094 22.953125 107.121094 23.113281 C 107.121094 24.074219 104.632812 27.519531 102.355469 27.519531 C 101.582031 27.519531 101.046875 27.035156 101.046875 26.117188 C 101.046875 24.214844 103.488281 18.960938 103.488281 18.363281 Z M 108.054688 13.707031 C 108.054688 14.695312 107.28125 15.773438 106.246094 15.773438 C 105.214844 15.773438 104.585938 15.289062 104.585938 14.210938 C 104.585938 13.136719 105.40625 12.195312 106.507812 12.195312 C 107.539062 12.195312 108.054688 12.652344 108.054688 13.707031 "/>
<path style=" stroke:none;fill-rule:nonzero;fill:rgb(0%,45.882353%,74.509804%);fill-opacity:1;" d="M 119.164062 16.414062 C 121.71875 16.414062 123.332031 18.113281 123.332031 20.566406 C 123.332031 24.007812 120.425781 27.519531 116.824219 27.519531 C 114.257812 27.519531 112.660156 25.820312 112.660156 23.367188 C 112.660156 19.925781 115.566406 16.414062 119.164062 16.414062 Z M 119.34375 17.058594 C 117.277344 17.058594 115.679688 23.914062 115.679688 25.5 C 115.679688 26.507812 116 26.875 116.648438 26.875 C 118.699219 26.875 120.3125 20.015625 120.3125 18.433594 C 120.3125 17.425781 119.988281 17.058594 119.34375 17.058594 "/>
<path style=" stroke:none;fill-rule:nonzero;fill:rgb(0%,45.882353%,74.509804%);fill-opacity:1;" d="M 128.824219 27.152344 C 128.660156 27.152344 128.597656 27.082031 128.597656 26.921875 C 128.597656 26.53125 131.226562 19.304688 131.226562 18.640625 C 131.226562 18.386719 131.132812 18.273438 130.96875 18.273438 C 130.679688 18.273438 130.097656 18.914062 129.613281 19.648438 C 129.257812 20.246094 129.195312 20.429688 128.953125 20.429688 C 128.871094 20.429688 128.710938 20.359375 128.710938 20.128906 C 128.710938 19.949219 129.195312 19.007812 129.824219 18.25 C 130.695312 17.21875 131.777344 16.414062 132.988281 16.414062 C 133.828125 16.414062 134.246094 16.828125 134.246094 17.675781 C 134.246094 18.753906 133.925781 19.648438 133.652344 20.519531 L 133.699219 20.566406 C 134.652344 18.824219 136.507812 16.414062 138.496094 16.414062 C 139.59375 16.414062 140.238281 17.082031 140.238281 17.929688 C 140.238281 19.761719 137.882812 24.351562 137.882812 25.199219 C 137.882812 25.476562 138.027344 25.589844 138.203125 25.589844 C 138.542969 25.589844 139.351562 24.511719 139.691406 23.871094 C 139.964844 23.34375 140.078125 23.207031 140.238281 23.207031 C 140.398438 23.207031 140.496094 23.296875 140.496094 23.457031 C 140.496094 24.007812 138.738281 27.519531 136.1875 27.519531 C 135.085938 27.519531 134.585938 26.828125 134.585938 25.910156 C 134.585938 23.800781 136.945312 19.558594 136.945312 18.664062 C 136.945312 18.480469 136.832031 18.34375 136.652344 18.34375 C 135.78125 18.34375 133.875 21.117188 133.101562 23.296875 L 131.9375 26.507812 C 131.777344 26.992188 131.664062 27.152344 131.195312 27.152344 L 128.824219 27.152344 "/>
<path style=" stroke:none;fill-rule:nonzero;fill:rgb(0%,45.882353%,74.509804%);fill-opacity:1;" d="M 156.304688 16.550781 C 156.515625 16.550781 156.613281 16.667969 156.613281 16.804688 C 156.613281 16.988281 156.5 17.332031 156.386719 17.722656 L 154.753906 23.320312 C 154.480469 24.261719 154.417969 24.535156 154.417969 24.855469 C 154.417969 25.109375 154.480469 25.222656 154.609375 25.222656 C 154.933594 25.222656 155.402344 24.652344 155.835938 23.914062 C 156.242188 23.226562 156.289062 23.019531 156.46875 23.042969 C 156.613281 23.042969 156.675781 23.113281 156.675781 23.273438 C 156.675781 23.777344 154.753906 27.519531 152.398438 27.519531 C 151.574219 27.519531 151.398438 26.921875 151.398438 26.234375 C 151.398438 25.316406 151.640625 24.421875 151.863281 23.617188 L 151.832031 23.574219 C 150.929688 24.8125 149.328125 27.289062 147.519531 27.289062 C 146.164062 27.289062 145.808594 26.371094 145.808594 24.949219 C 145.808594 21.140625 149.054688 16.78125 152.722656 16.78125 C 153.171875 16.78125 153.496094 16.898438 153.769531 17.101562 C 153.996094 16.691406 153.898438 16.550781 154.496094 16.550781 Z M 148.828125 24.492188 C 148.828125 25.085938 149.054688 25.222656 149.296875 25.222656 C 150.652344 25.222656 153.398438 19.625 153.398438 18.066406 C 153.398438 17.746094 153.335938 17.425781 152.898438 17.425781 C 151.6875 17.425781 148.828125 22.929688 148.828125 24.492188 "/>
<path style=" stroke:none;fill-rule:nonzero;fill:rgb(0%,45.882353%,74.509804%);fill-opacity:1;" d="M 165.898438 13.386719 C 165.898438 12.929688 165.734375 12.746094 165.171875 12.746094 C 164.847656 12.746094 164.636719 12.675781 164.636719 12.421875 C 164.636719 12.058594 164.832031 11.964844 166.125 11.964844 C 168.449219 11.964844 168.996094 11.140625 169.402344 11.140625 C 169.628906 11.140625 169.707031 11.277344 169.707031 11.507812 C 169.707031 11.757812 169.59375 12.148438 169.238281 13.296875 C 165.929688 24.398438 165.769531 24.855469 165.769531 25.359375 C 165.769531 25.5 165.882812 25.589844 165.996094 25.589844 C 166.332031 25.589844 166.867188 25.109375 167.464844 24.054688 C 167.867188 23.296875 167.933594 23.019531 168.207031 23.019531 C 168.402344 23.019531 168.449219 23.183594 168.449219 23.34375 C 168.449219 23.527344 166.980469 27.519531 163.863281 27.519531 C 162.8125 27.519531 162.472656 26.804688 162.472656 25.980469 C 162.472656 23.753906 165.898438 14.488281 165.898438 13.386719 "/>
<path style=" stroke:none;fill-rule:nonzero;fill:rgb(0%,45.882353%,74.509804%);fill-opacity:1;" d="M 57.59375 43.992188 C 57.59375 46.492188 55.785156 48.878906 52.621094 48.878906 C 51.085938 48.878906 49.359375 48.257812 49.359375 47.640625 C 49.359375 47.066406 49.601562 45.828125 49.8125 44.839844 C 49.925781 44.335938 49.988281 44.015625 50.3125 44.015625 C 50.585938 44.015625 50.683594 44.246094 50.683594 44.796875 L 50.683594 45.78125 C 50.683594 47.339844 51.28125 48.375 52.605469 48.375 C 54.363281 48.375 55.398438 47.042969 55.398438 45.367188 C 55.398438 42.546875 51.734375 40.875 51.734375 37.777344 C 51.734375 35.34375 53.863281 33.785156 56.078125 33.785156 C 57.609375 33.785156 59.371094 34.3125 59.371094 34.726562 C 59.371094 35.136719 59.242188 35.4375 58.707031 37.660156 C 58.628906 38.003906 58.53125 38.097656 58.320312 38.097656 C 58.09375 38.097656 57.964844 38.003906 57.964844 37.132812 C 57.964844 34.863281 57.335938 34.289062 56.109375 34.289062 C 55.011719 34.289062 53.703125 35.160156 53.703125 36.742188 C 53.703125 38.714844 57.59375 41.46875 57.59375 43.992188 "/>
<path style=" stroke:none;fill-rule:nonzero;fill:rgb(0%,45.882353%,74.509804%);fill-opacity:1;" d="M 65.925781 43.535156 C 64.765625 43.902344 63.132812 44.0625 62.648438 44.109375 C 62.519531 44.132812 62.488281 44.453125 62.4375 45.347656 C 62.4375 46.835938 62.988281 47.59375 63.890625 47.59375 C 64.894531 47.59375 65.8125 46.835938 66.492188 45.917969 C 67.347656 44.820312 67.265625 44.566406 67.507812 44.566406 C 67.636719 44.566406 67.75 44.636719 67.75 44.796875 C 67.75 45.230469 66.007812 48.878906 63.019531 48.878906 C 61.210938 48.902344 60.113281 47.296875 60.113281 45.367188 C 60.113281 41.582031 63.199219 37.777344 66.492188 37.777344 C 68.140625 37.777344 68.996094 38.785156 68.996094 40.070312 C 68.996094 41.929688 67.636719 43.007812 65.925781 43.535156 Z M 66.167969 38.375 C 65.585938 38.375 64.957031 38.648438 64.246094 39.769531 C 63.457031 41.054688 62.921875 42.410156 62.664062 43.511719 C 66.203125 43.167969 67.023438 41.101562 67.023438 39.382812 C 67.023438 38.714844 66.636719 38.375 66.167969 38.375 "/>
<path style=" stroke:none;fill-rule:nonzero;fill:rgb(0%,45.882353%,74.509804%);fill-opacity:1;" d="M 71.09375 48.511719 C 70.933594 48.511719 70.867188 48.464844 70.867188 48.328125 C 70.867188 47.984375 73.660156 40.527344 73.660156 39.289062 C 73.660156 39.175781 73.613281 39.0625 73.484375 39.0625 C 73.210938 39.0625 72.660156 39.65625 71.964844 40.621094 C 71.351562 41.46875 71.320312 41.628906 71.160156 41.628906 C 71.03125 41.628906 70.980469 41.539062 70.980469 41.402344 C 70.980469 41.054688 72.886719 37.777344 74.648438 37.777344 C 75.242188 37.777344 75.535156 38.074219 75.535156 38.671875 C 75.535156 39.382812 74.824219 41.769531 74.484375 42.6875 L 74.535156 42.730469 C 75.097656 41.722656 77.164062 37.777344 79.152344 37.777344 C 79.976562 37.777344 80.523438 38.234375 80.523438 39.199219 C 80.523438 39.542969 80.039062 41.652344 79.699219 42.730469 L 79.75 42.777344 C 80.425781 41.5625 82.398438 37.777344 84.464844 37.777344 C 85.578125 37.777344 86.015625 38.488281 86.015625 39.589844 C 86.015625 40.941406 83.496094 46.148438 83.496094 47.160156 C 83.496094 47.339844 83.625 47.410156 83.738281 47.410156 C 84.09375 47.410156 84.738281 46.609375 85.222656 45.964844 C 86.0625 44.820312 86.09375 44.429688 86.289062 44.429688 C 86.386719 44.429688 86.484375 44.496094 86.484375 44.589844 C 86.484375 44.886719 85.886719 45.964844 84.804688 47.320312 C 84.171875 48.097656 83.253906 48.878906 82.382812 48.878906 C 81.832031 48.878906 81.542969 48.511719 81.542969 47.890625 C 81.542969 47.410156 81.734375 46.5625 82.089844 45.554688 L 83.898438 40.4375 C 84.0625 39.980469 84.140625 39.589844 84.140625 39.3125 C 84.140625 39.0625 84.011719 38.878906 83.707031 38.878906 C 82.21875 38.878906 79.039062 44.726562 78.199219 47.984375 C 78.054688 48.445312 78.039062 48.511719 77.667969 48.511719 L 76.472656 48.511719 C 76.292969 48.511719 76.179688 48.464844 76.179688 48.257812 L 78.085938 41.746094 C 78.394531 40.621094 78.652344 39.726562 78.652344 39.3125 C 78.652344 39.015625 78.503906 38.96875 78.359375 38.96875 C 77.457031 38.96875 75.535156 41.539062 73.9375 45.164062 C 72.5625 48.304688 72.902344 48.511719 72.289062 48.511719 L 71.09375 48.511719 "/>
<path style=" stroke:none;fill-rule:nonzero;fill:rgb(0%,45.882353%,74.509804%);fill-opacity:1;" d="M 91.667969 40.667969 C 91.828125 40.164062 91.988281 39.75 91.988281 39.519531 C 91.988281 39.359375 91.910156 39.242188 91.761719 39.242188 C 91.535156 39.242188 91.246094 39.496094 90.679688 40.277344 C 89.9375 41.332031 89.9375 41.722656 89.679688 41.722656 C 89.550781 41.722656 89.46875 41.652344 89.46875 41.492188 C 89.46875 40.875 91.375 37.777344 93.121094 37.777344 C 93.605469 37.777344 93.960938 38.050781 93.960938 38.761719 C 93.960938 40 91.441406 46.21875 91.441406 47.136719 C 91.441406 47.320312 91.519531 47.410156 91.632812 47.410156 C 91.8125 47.410156 92.183594 47.25 92.972656 45.964844 C 93.75 44.703125 93.78125 44.429688 93.941406 44.429688 C 94.074219 44.429688 94.152344 44.496094 94.152344 44.613281 C 94.152344 45.09375 92.246094 48.878906 90.324219 48.878906 C 89.859375 48.878906 89.566406 48.558594 89.566406 47.847656 C 89.566406 47.320312 89.792969 46.332031 90.066406 45.484375 Z M 94.378906 33.554688 C 94.816406 33.554688 95.105469 33.945312 95.105469 34.726562 C 95.105469 35.757812 94.460938 36.539062 93.828125 36.539062 C 93.296875 36.539062 93.007812 36.078125 93.007812 35.550781 C 93.007812 34.496094 93.683594 33.554688 94.378906 33.554688 "/>
<path style=" stroke:none;fill-rule:nonzero;fill:rgb(0%,45.882353%,74.509804%);fill-opacity:1;" d="M 103.4375 37.777344 C 105.019531 37.777344 105.699219 38.554688 105.699219 39.519531 C 105.699219 40.390625 105.199219 40.941406 104.421875 40.941406 C 103.921875 40.941406 103.503906 40.574219 103.503906 39.796875 C 103.503906 38.832031 103.277344 38.375 102.726562 38.375 C 101.082031 38.375 99.253906 42.777344 99.253906 45.460938 C 99.253906 46.90625 99.917969 47.59375 100.871094 47.59375 C 101.5 47.59375 102.210938 47.226562 102.839844 46.5625 C 103.972656 45.390625 103.972656 44.472656 104.308594 44.472656 C 104.488281 44.472656 104.550781 44.589844 104.550781 44.703125 C 104.550781 45.4375 102.890625 48.878906 99.964844 48.878906 C 98.109375 48.878906 97.058594 47.457031 97.058594 45.117188 C 97.058594 41.8125 99.886719 37.777344 103.4375 37.777344 "/>
<path style=" stroke:none;fill-rule:nonzero;fill:rgb(0%,45.882353%,74.509804%);fill-opacity:1;" d="M 113.757812 37.777344 C 115.726562 37.777344 117.066406 39.429688 117.066406 42.136719 C 117.066406 44.75 114.773438 48.878906 110.960938 48.878906 C 108.992188 48.878906 107.667969 47.226562 107.667969 44.519531 C 107.667969 41.90625 109.960938 37.777344 113.757812 37.777344 Z M 111.238281 48.28125 C 113.433594 48.28125 115.097656 43.050781 115.097656 40.527344 C 115.097656 38.96875 114.5 38.375 113.480469 38.375 C 111.285156 38.375 109.640625 43.601562 109.640625 46.125 C 109.640625 47.6875 110.234375 48.28125 111.238281 48.28125 "/>
<path style=" stroke:none;fill-rule:nonzero;fill:rgb(0%,45.882353%,74.509804%);fill-opacity:1;" d="M 120.003906 48.511719 C 119.828125 48.511719 119.714844 48.417969 119.714844 48.238281 C 119.714844 47.6875 122.316406 40.507812 122.316406 39.542969 C 122.316406 39.3125 122.25 39.242188 122.121094 39.242188 C 121.75 39.242188 121.214844 39.796875 120.8125 40.347656 C 120.265625 41.101562 120.117188 41.539062 119.925781 41.539062 C 119.8125 41.539062 119.714844 41.46875 119.714844 41.308594 C 119.714844 40.964844 121.636719 37.777344 123.332031 37.777344 C 123.898438 37.777344 124.203125 38.144531 124.203125 38.761719 C 124.203125 39.839844 123.65625 41.46875 123.285156 42.523438 L 123.332031 42.570312 C 124.65625 40.574219 126.078125 37.777344 128.257812 37.777344 C 129.097656 37.777344 129.597656 38.28125 129.597656 39.242188 C 129.597656 40.527344 127.222656 45.804688 127.222656 46.859375 C 127.222656 47.066406 127.273438 47.226562 127.464844 47.226562 C 127.835938 47.226562 128.371094 46.5625 128.933594 45.644531 C 129.515625 44.75 129.484375 44.429688 129.679688 44.429688 C 129.824219 44.429688 129.921875 44.542969 129.921875 44.660156 C 129.921875 45.207031 127.871094 48.878906 126.078125 48.878906 C 125.542969 48.878906 125.125 48.488281 125.125 47.847656 C 125.125 47.433594 125.238281 46.792969 125.511719 46.054688 L 127.464844 40.550781 C 127.660156 40.046875 127.722656 39.65625 127.722656 39.382812 C 127.722656 39.039062 127.5625 38.921875 127.351562 38.921875 C 125.851562 38.921875 123.1875 43.121094 121.75 47.59375 C 121.507812 48.417969 121.410156 48.511719 121.085938 48.511719 L 120.003906 48.511719 "/>
<path style=" stroke:none;fill-rule:nonzero;fill:rgb(0%,45.882353%,74.509804%);fill-opacity:1;" d="M 138.558594 44.109375 C 137.734375 45.300781 135.71875 48.878906 133.925781 48.878906 C 133.035156 48.878906 132.375 48.167969 132.375 46.699219 C 132.375 42.363281 135.847656 37.777344 139.238281 37.777344 C 139.671875 37.777344 140.109375 37.914062 140.382812 38.050781 L 141.191406 35.503906 C 141.433594 34.679688 141.480469 34.335938 141.480469 34.0625 C 141.480469 33.738281 141.433594 33.554688 140.675781 33.554688 C 140.511719 33.554688 140.398438 33.488281 140.398438 33.304688 C 140.398438 33.121094 140.449219 32.957031 141.046875 32.957031 C 141.480469 32.957031 141.871094 32.9375 142.207031 32.867188 C 143.242188 32.683594 143.53125 32.269531 143.792969 32.269531 C 143.902344 32.269531 144 32.363281 144 32.476562 C 144 32.523438 143.886719 32.914062 143.566406 33.945312 C 141.851562 39.472656 139.65625 46.21875 139.65625 47.25 C 139.65625 47.296875 139.671875 47.410156 139.769531 47.410156 C 139.964844 47.410156 140.382812 46.882812 140.902344 45.988281 C 141.53125 44.957031 141.59375 44.566406 141.757812 44.566406 C 141.871094 44.566406 141.984375 44.636719 141.984375 44.796875 C 141.984375 45.027344 140.398438 48.878906 138.574219 48.878906 C 138.089844 48.878906 137.6875 48.695312 137.6875 47.867188 C 137.6875 47.066406 138.300781 45.164062 138.589844 44.109375 Z M 139.140625 38.375 C 137.089844 38.375 134.34375 43.878906 134.34375 46.378906 C 134.34375 46.90625 134.570312 47.226562 134.972656 47.226562 C 136.347656 47.226562 140.0625 41.214844 140.0625 39.199219 C 140.0625 38.671875 139.804688 38.375 139.140625 38.375 "/>
<path style=" stroke:none;fill-rule:nonzero;fill:rgb(0%,45.882353%,74.509804%);fill-opacity:1;" d="M 154.691406 37.914062 C 154.820312 37.914062 154.917969 37.984375 154.917969 38.074219 C 154.917969 38.511719 152.300781 45.527344 152.300781 47.136719 C 152.300781 47.296875 152.382812 47.410156 152.511719 47.410156 C 152.835938 47.410156 153.398438 46.632812 153.820312 46.011719 C 154.738281 44.589844 154.625 44.382812 154.867188 44.382812 C 155.03125 44.382812 155.09375 44.496094 155.09375 44.636719 C 155.09375 45.140625 153.058594 48.878906 151.285156 48.878906 C 150.605469 48.878906 150.332031 48.398438 150.332031 47.960938 C 150.332031 46.769531 150.878906 45.140625 151.15625 44.0625 L 151.121094 44.015625 C 150.21875 45.507812 147.84375 48.878906 145.859375 48.878906 C 145.210938 48.878906 144.792969 48.375 144.792969 47.730469 C 144.792969 46.082031 147.457031 39.910156 147.457031 39.496094 C 147.457031 39.40625 147.441406 39.242188 147.261719 39.242188 C 147.003906 39.242188 146.617188 39.589844 145.9375 40.4375 C 145.375 41.171875 145.148438 41.769531 144.953125 41.769531 C 144.824219 41.769531 144.710938 41.699219 144.710938 41.492188 C 144.710938 41.054688 146.617188 37.777344 148.734375 37.777344 C 149.28125 37.777344 149.554688 38.050781 149.554688 38.578125 C 149.554688 40 146.90625 46.171875 146.90625 46.953125 C 146.90625 47.273438 147.070312 47.410156 147.261719 47.410156 C 148.117188 47.410156 150.976562 44.246094 152.269531 40.460938 C 152.996094 38.304688 152.835938 37.914062 153.429688 37.914062 L 154.691406 37.914062 "/>
<path style=" stroke:none;fill-rule:nonzero;fill:rgb(0%,45.882353%,74.509804%);fill-opacity:1;" d="M 164.023438 37.777344 C 165.605469 37.777344 166.300781 38.554688 166.300781 39.519531 C 166.300781 40.390625 165.785156 40.941406 165.007812 40.941406 C 164.507812 40.941406 164.089844 40.574219 164.089844 39.796875 C 164.089844 38.832031 163.863281 38.375 163.3125 38.375 C 161.667969 38.375 159.84375 42.777344 159.84375 45.460938 C 159.84375 46.90625 160.503906 47.59375 161.457031 47.59375 C 162.085938 47.59375 162.796875 47.226562 163.425781 46.5625 C 164.558594 45.390625 164.558594 44.472656 164.894531 44.472656 C 165.074219 44.472656 165.15625 44.589844 165.15625 44.703125 C 165.15625 45.4375 163.476562 48.878906 160.550781 48.878906 C 158.695312 48.878906 157.644531 47.457031 157.644531 45.117188 C 157.644531 41.8125 160.472656 37.777344 164.023438 37.777344 "/>
<path style=" stroke:none;fill-rule:nonzero;fill:rgb(0%,45.882353%,74.509804%);fill-opacity:1;" d="M 169.320312 38.921875 L 169.5 38.144531 L 171.195312 38.144531 L 172.148438 35.09375 C 172.242188 34.863281 172.339844 34.792969 173.324219 34.792969 C 173.84375 34.792969 173.988281 34.863281 173.988281 34.976562 C 173.988281 35.136719 173.664062 35.988281 173.066406 38.144531 L 174.941406 38.144531 L 174.761719 38.921875 L 172.792969 38.921875 L 171.195312 44.269531 C 170.710938 45.851562 170.453125 46.769531 170.453125 46.953125 C 170.453125 47.25 170.546875 47.410156 170.804688 47.410156 C 171.144531 47.410156 171.695312 46.722656 172.128906 46.011719 C 172.90625 44.796875 172.824219 44.566406 173.082031 44.566406 C 173.179688 44.566406 173.246094 44.636719 173.246094 44.839844 C 173.246094 45.1875 171.4375 48.878906 169.433594 48.878906 C 168.773438 48.878906 168.496094 48.535156 168.496094 47.800781 C 168.496094 47.089844 168.675781 46.21875 169.449219 43.742188 L 170.984375 38.921875 L 169.320312 38.921875 "/>
<path style=" stroke:none;fill-rule:nonzero;fill:rgb(0%,45.882353%,74.509804%);fill-opacity:1;" d="M 182.433594 37.777344 C 184.402344 37.777344 185.726562 39.429688 185.726562 42.136719 C 185.726562 44.75 183.433594 48.878906 179.640625 48.878906 C 177.667969 48.878906 176.34375 47.226562 176.34375 44.519531 C 176.34375 41.90625 178.621094 37.777344 182.433594 37.777344 Z M 179.914062 48.28125 C 182.109375 48.28125 183.757812 43.050781 183.757812 40.527344 C 183.757812 38.96875 183.160156 38.375 182.160156 38.375 C 179.960938 38.375 178.316406 43.601562 178.316406 46.125 C 178.316406 47.6875 178.914062 48.28125 179.914062 48.28125 "/>
<path style=" stroke:none;fill-rule:nonzero;fill:rgb(0%,45.882353%,74.509804%);fill-opacity:1;" d="M 191.523438 43.375 C 192.6875 40.621094 193.996094 37.777344 195.433594 37.777344 C 195.917969 37.777344 196.238281 38.097656 196.238281 38.96875 C 196.238281 40.140625 195.65625 41.261719 194.898438 41.261719 C 194.464844 41.261719 194.269531 40.988281 194.269531 40.621094 C 194.269531 40.347656 194.351562 40.070312 194.351562 39.839844 C 194.351562 39.679688 194.316406 39.65625 194.1875 39.65625 C 193.527344 39.65625 191.21875 45.070312 190.214844 48.121094 C 190.121094 48.398438 190.121094 48.511719 189.730469 48.511719 L 188.617188 48.511719 C 188.421875 48.511719 188.359375 48.488281 188.359375 48.398438 C 188.359375 48.097656 190.828125 40.347656 190.828125 39.472656 C 190.828125 39.3125 190.78125 39.242188 190.652344 39.242188 C 190.425781 39.242188 190.023438 39.796875 189.667969 40.390625 C 189.019531 41.421875 188.890625 41.628906 188.796875 41.628906 C 188.683594 41.628906 188.585938 41.5625 188.585938 41.378906 C 188.585938 40.988281 190.214844 37.777344 191.796875 37.777344 C 192.347656 37.777344 192.574219 38.027344 192.574219 38.578125 C 192.574219 39.589844 191.976562 41.445312 191.476562 43.328125 L 191.523438 43.375 "/>
</g>
</svg>
