<?xml version="1.0" encoding="UTF-8"?>
<svg xmlns="http://www.w3.org/2000/svg" xmlns:xlink="http://www.w3.org/1999/xlink" width="200px" height="38px" viewBox="0 0 199 38" version="1.1">
<g id="surface1">
<path style=" stroke:none;fill-rule:nonzero;fill:rgb(0%,0%,0%);fill-opacity:1;" d="M 87.207031 37.621094 C 86.863281 37.800781 86.140625 37.980469 85.230469 37.980469 C 83.113281 37.980469 81.535156 36.640625 81.535156 34.160156 C 81.535156 31.792969 83.125 30.207031 85.449219 30.207031 C 86.371094 30.207031 86.972656 30.402344 87.230469 30.539062 L 86.984375 31.332031 C 86.628906 31.15625 86.105469 31.019531 85.484375 31.019531 C 83.726562 31.019531 82.558594 32.148438 82.558594 34.125 C 82.558594 35.980469 83.617188 37.15625 85.429688 37.15625 C 86.027344 37.15625 86.628906 37.03125 87.019531 36.839844 C 87.019531 36.839844 87.207031 37.621094 87.207031 37.621094 Z M 87.207031 37.621094 "/>
<path style=" stroke:none;fill-rule:nonzero;fill:rgb(0%,0%,0%);fill-opacity:1;" d="M 95.800781 37.191406 C 97.335938 37.191406 98.207031 35.769531 98.207031 34.058594 C 98.207031 32.566406 97.425781 31 95.8125 31 C 94.199219 31 93.398438 32.507812 93.398438 34.140625 C 93.398438 35.726562 94.265625 37.191406 95.792969 37.191406 Z M 95.757812 37.984375 C 93.769531 37.984375 92.390625 36.441406 92.390625 34.160156 C 92.390625 31.769531 93.855469 30.207031 95.859375 30.207031 C 97.914062 30.207031 99.238281 31.78125 99.238281 34.015625 C 99.238281 36.597656 97.671875 37.984375 95.769531 37.984375 L 95.757812 37.984375 "/>
<path style=" stroke:none;fill-rule:nonzero;fill:rgb(0%,0%,0%);fill-opacity:1;" d="M 106.128906 33.863281 L 107.121094 33.863281 C 108.152344 33.863281 108.808594 33.289062 108.808594 32.433594 C 108.808594 31.460938 108.109375 31.035156 107.085938 31.035156 C 106.617188 31.035156 106.296875 31.078125 106.128906 31.125 Z M 105.164062 30.441406 C 105.652344 30.339844 106.363281 30.277344 107.019531 30.277344 C 108.054688 30.277344 108.730469 30.476562 109.203125 30.898438 C 109.566406 31.222656 109.789062 31.738281 109.789062 32.328125 C 109.789062 33.3125 109.15625 33.972656 108.375 34.238281 L 108.375 34.273438 C 108.941406 34.476562 109.289062 35.011719 109.476562 35.792969 C 109.722656 36.84375 109.898438 37.570312 110.042969 37.859375 L 109.042969 37.859375 C 108.921875 37.648438 108.753906 37 108.554688 36.0625 C 108.328125 35.023438 107.921875 34.632812 107.042969 34.601562 L 106.128906 34.601562 L 106.128906 37.859375 L 105.164062 37.859375 L 105.164062 30.441406 "/>
<path style=" stroke:none;fill-rule:nonzero;fill:rgb(0%,0%,0%);fill-opacity:1;" d="M 116.78125 34.050781 C 116.992188 34.105469 117.269531 34.128906 117.582031 34.128906 C 118.757812 34.128906 119.460938 33.550781 119.460938 32.53125 C 119.460938 31.527344 118.757812 31.042969 117.691406 31.042969 C 117.269531 31.042969 116.949219 31.089844 116.78125 31.125 Z M 115.8125 30.429688 C 116.28125 30.339844 116.894531 30.277344 117.671875 30.277344 C 118.625 30.277344 119.328125 30.496094 119.769531 30.898438 C 120.183594 31.257812 120.4375 31.808594 120.4375 32.476562 C 120.4375 33.15625 120.238281 33.691406 119.847656 34.082031 C 119.339844 34.632812 118.503906 34.910156 117.558594 34.910156 C 117.269531 34.910156 117.003906 34.898438 116.78125 34.84375 L 116.78125 37.859375 L 115.8125 37.859375 L 115.8125 30.429688 "/>
<path style=" stroke:none;fill-rule:nonzero;fill:rgb(0%,0%,0%);fill-opacity:1;" d="M 129.367188 37.191406 C 130.902344 37.191406 131.769531 35.769531 131.769531 34.058594 C 131.769531 32.566406 130.992188 31 129.382812 31 C 127.765625 31 126.964844 32.507812 126.964844 34.140625 C 126.964844 35.726562 127.832031 37.191406 129.355469 37.191406 Z M 129.320312 37.984375 C 127.332031 37.984375 125.953125 36.441406 125.953125 34.160156 C 125.953125 31.769531 127.421875 30.207031 129.421875 30.207031 C 131.476562 30.207031 132.800781 31.78125 132.800781 34.015625 C 132.800781 36.597656 131.234375 37.984375 129.332031 37.984375 L 129.320312 37.984375 "/>
<path style=" stroke:none;fill-rule:nonzero;fill:rgb(0%,0%,0%);fill-opacity:1;" d="M 139.695312 33.863281 L 140.683594 33.863281 C 141.71875 33.863281 142.375 33.289062 142.375 32.433594 C 142.375 31.460938 141.675781 31.035156 140.65625 31.035156 C 140.183594 31.035156 139.863281 31.078125 139.695312 31.125 Z M 138.730469 30.441406 C 139.21875 30.339844 139.929688 30.277344 140.585938 30.277344 C 141.617188 30.277344 142.296875 30.476562 142.765625 30.898438 C 143.132812 31.222656 143.351562 31.738281 143.351562 32.328125 C 143.351562 33.3125 142.722656 33.972656 141.941406 34.238281 L 141.941406 34.273438 C 142.507812 34.476562 142.855469 35.011719 143.042969 35.792969 C 143.289062 36.84375 143.464844 37.570312 143.609375 37.859375 L 142.609375 37.859375 C 142.488281 37.648438 142.320312 37 142.121094 36.0625 C 141.894531 35.023438 141.488281 34.632812 140.609375 34.601562 L 139.695312 34.601562 L 139.695312 37.859375 L 138.730469 37.859375 L 138.730469 30.441406 "/>
<path style=" stroke:none;fill-rule:nonzero;fill:rgb(0%,0%,0%);fill-opacity:1;" d="M 153.105469 34.734375 L 152.359375 32.566406 C 152.203125 32.070312 152.09375 31.625 151.980469 31.1875 L 151.949219 31.1875 C 151.847656 31.625 151.726562 32.09375 151.582031 32.550781 L 150.847656 34.734375 Z M 150.648438 35.492188 L 149.867188 37.859375 L 148.867188 37.859375 C 148.867188 37.859375 151.414062 30.332031 151.414062 30.332031 L 152.582031 30.332031 C 152.582031 30.332031 155.140625 37.859375 155.140625 37.859375 L 154.105469 37.859375 L 153.304688 35.492188 L 150.648438 35.492188 "/>
<path style=" stroke:none;fill-rule:nonzero;fill:rgb(0%,0%,0%);fill-opacity:1;" d="M 161.453125 31.152344 L 159.175781 31.152344 L 159.175781 30.328125 L 164.726562 30.328125 L 164.726562 31.152344 L 162.433594 31.152344 L 162.433594 37.855469 L 161.453125 37.855469 Z M 161.453125 31.152344 "/>
<path style=" stroke:none;fill-rule:nonzero;fill:rgb(0%,0%,0%);fill-opacity:1;" d="M 171.195312 30.328125 L 171.195312 37.859375 L 170.214844 37.859375 L 170.214844 30.328125 Z M 171.195312 30.328125 "/>
<path style=" stroke:none;fill-rule:nonzero;fill:rgb(0%,0%,0%);fill-opacity:1;" d="M 180.523438 37.191406 C 182.054688 37.191406 182.925781 35.769531 182.925781 34.058594 C 182.925781 32.566406 182.144531 31 180.53125 31 C 178.921875 31 178.121094 32.507812 178.121094 34.140625 C 178.121094 35.726562 178.988281 37.191406 180.511719 37.191406 Z M 180.476562 37.984375 C 178.488281 37.984375 177.109375 36.441406 177.109375 34.160156 C 177.109375 31.769531 178.578125 30.207031 180.578125 30.207031 C 182.636719 30.207031 183.957031 31.78125 183.957031 34.015625 C 183.957031 36.597656 182.390625 37.984375 180.488281 37.984375 L 180.476562 37.984375 "/>
<path style=" stroke:none;fill-rule:nonzero;fill:rgb(0%,0%,0%);fill-opacity:1;" d="M 189.882812 37.859375 L 189.882812 30.328125 L 190.953125 30.328125 C 190.953125 30.328125 193.34375 34.140625 193.34375 34.140625 C 193.886719 35.019531 194.332031 35.800781 194.675781 36.585938 L 194.710938 36.574219 C 194.621094 35.566406 194.601562 34.652344 194.601562 33.492188 L 194.601562 30.328125 L 195.511719 30.328125 L 195.511719 37.859375 L 194.53125 37.859375 C 194.53125 37.859375 192.152344 34.039062 192.152344 34.039062 C 191.628906 33.199219 191.128906 32.339844 190.761719 31.523438 L 190.730469 31.535156 C 190.785156 32.484375 190.796875 33.390625 190.796875 34.640625 L 190.796875 37.859375 Z M 189.882812 37.859375 "/>
<path style=" stroke:none;fill-rule:nonzero;fill:rgb(0%,0%,0%);fill-opacity:1;" d="M 32.917969 6.019531 C 37.007812 6.019531 38.144531 7.328125 37.367188 10.988281 L 36.671875 14.273438 L 31.730469 14.273438 L 32.265625 11.734375 C 32.636719 9.980469 32.082031 9.792969 30.410156 9.792969 L 27.332031 9.792969 L 23.964844 25.703125 L 18.800781 25.703125 L 22.964844 6.023438 L 32.917969 6.023438 Z M 32.917969 6.019531 "/>
<path style=" stroke:none;fill-rule:nonzero;fill:rgb(0%,0%,0%);fill-opacity:1;" d="M 52.117188 21.746094 L 52.976562 17.675781 L 46.882812 17.675781 C 44.691406 17.675781 43.589844 18.125 43.21875 19.882812 C 42.871094 21.523438 43.753906 21.746094 45.648438 21.746094 Z M 52.695312 6.023438 C 58.046875 6.023438 60.230469 8.527344 59.203125 13.382812 L 56.59375 25.707031 L 42.691406 25.707031 C 38.789062 25.707031 37.070312 23.652344 37.835938 20.03125 C 38.800781 15.472656 41.507812 13.757812 46.96875 13.757812 L 53.769531 13.757812 C 53.808594 13.570312 53.84375 13.421875 53.871094 13.269531 C 54.402344 10.769531 53.132812 10.09375 49.863281 10.09375 L 41.238281 10.09375 L 42.101562 6.023438 Z M 52.695312 6.023438 "/>
<path style=" stroke:none;fill-rule:nonzero;fill:rgb(0%,0%,0%);fill-opacity:1;" d="M 75.03125 6.019531 C 80.828125 6.019531 82.785156 8 81.679688 13.230469 L 79.039062 25.703125 L 73.871094 25.703125 L 76.378906 13.863281 C 76.957031 11.140625 76.640625 10.355469 73.703125 10.355469 L 69.539062 10.355469 L 66.289062 25.703125 L 61.125 25.703125 L 65.292969 6.023438 L 75.03125 6.023438 Z M 75.03125 6.019531 "/>
<path style=" stroke:none;fill-rule:nonzero;fill:rgb(0%,0%,0%);fill-opacity:1;" d="M 94.886719 21.597656 C 96.742188 21.597656 97.785156 21.074219 98.078125 19.695312 C 98.371094 18.3125 97.558594 17.753906 95.699219 17.753906 L 91.242188 17.753906 C 86.484375 17.753906 84.679688 16.78125 85.65625 12.1875 C 86.546875 7.96875 89.152344 6.023438 93.875 6.023438 L 104.984375 6.023438 L 104.113281 10.136719 L 94.972656 10.136719 C 92.632812 10.136719 91.371094 10.285156 91.023438 11.925781 C 90.765625 13.15625 91.433594 13.679688 93.105469 13.679688 L 97.789062 13.679688 C 102.101562 13.679688 103.925781 15.773438 103.125 19.542969 C 102.34375 23.242188 99.554688 25.707031 96.472656 25.707031 L 83.128906 25.707031 L 83.996094 21.597656 Z M 94.886719 21.597656 "/>
<path style=" stroke:none;fill-rule:nonzero;fill:rgb(0%,0%,0%);fill-opacity:1;" d="M 129.515625 6.019531 C 135.164062 6.019531 137.226562 8.039062 136.128906 13.230469 L 133.484375 25.703125 L 128.285156 25.703125 L 130.78125 13.902344 C 131.382812 11.0625 130.9375 10.355469 128.1875 10.355469 L 125.289062 10.355469 L 122.039062 25.703125 L 116.761719 25.703125 L 120.011719 10.355469 L 113.957031 10.355469 L 110.703125 25.703125 L 105.5 25.703125 L 109.667969 6.023438 L 129.515625 6.023438 Z M 129.515625 6.019531 "/>
<path style=" stroke:none;fill-rule:nonzero;fill:rgb(0%,0%,0%);fill-opacity:1;" d="M 167.550781 6.019531 L 168.402344 2.019531 L 173.574219 2.019531 L 172.71875 6.019531 L 178.179688 6.019531 L 177.351562 9.941406 L 171.886719 9.941406 L 170.203125 17.898438 C 169.625 20.625 170.089844 21.78125 172.730469 21.78125 L 174.847656 21.78125 L 174.015625 25.703125 L 169.292969 25.703125 C 165.539062 25.703125 163.835938 23.574219 164.6875 19.539062 L 166.722656 9.941406 L 163.078125 9.941406 L 163.910156 6.019531 Z M 167.550781 6.019531 "/>
<path style=" stroke:none;fill-rule:nonzero;fill:rgb(0%,0%,0%);fill-opacity:1;" d="M 191.652344 21.746094 L 192.515625 17.675781 L 186.417969 17.675781 C 184.226562 17.675781 183.128906 18.125 182.757812 19.882812 C 182.40625 21.523438 183.289062 21.746094 185.183594 21.746094 Z M 192.230469 6.023438 C 197.582031 6.023438 199.765625 8.527344 198.738281 13.382812 L 196.128906 25.707031 L 182.230469 25.707031 C 178.328125 25.707031 176.605469 23.652344 177.371094 20.03125 C 178.339844 15.472656 181.042969 13.757812 186.503906 13.757812 L 193.304688 13.757812 C 193.347656 13.570312 193.375 13.421875 193.410156 13.269531 C 193.9375 10.769531 192.671875 10.09375 189.398438 10.09375 L 180.777344 10.09375 L 181.636719 6.023438 Z M 192.230469 6.023438 "/>
<path style=" stroke:none;fill-rule:nonzero;fill:rgb(0%,0%,0%);fill-opacity:1;" d="M 155.023438 11.871094 C 154.667969 13.546875 153.636719 14.027344 151.640625 14.066406 L 151.691406 14.039062 L 147.007812 14.039062 C 145.335938 14.039062 144.960938 13.21875 145.222656 11.988281 C 145.570312 10.34375 147.003906 9.960938 149.34375 9.960938 C 149.34375 9.960938 152.59375 10.003906 152.59375 10.003906 C 154.488281 10.003906 155.371094 10.226562 155.023438 11.871094 Z M 155.546875 6.066406 L 148.066406 6.066406 C 143.347656 6.066406 140.742188 8.03125 139.851562 12.25 C 139.355469 14.585938 138.699219 17.769531 138.804688 20.328125 C 138.722656 23.890625 140.972656 25.726562 145.546875 25.726562 L 156.140625 25.726562 L 157 21.65625 L 148.378906 21.65625 C 145.105469 21.65625 143.835938 20.984375 144.367188 18.480469 C 144.398438 18.332031 144.429688 18.179688 144.472656 17.996094 L 151.273438 17.996094 C 156.734375 17.996094 159.441406 16.277344 160.40625 11.722656 C 161.171875 8.097656 159.453125 6.066406 155.546875 6.066406 Z M 155.546875 6.066406 "/>
<path style=" stroke:none;fill-rule:nonzero;fill:rgb(0%,0%,0%);fill-opacity:1;" d="M 8.464844 25.703125 L 13.527344 4.070312 L 21.519531 4.070312 L 22.378906 0 L 0.859375 0 L -0.00390625 4.070312 L 8.363281 4.070312 L 3.296875 25.703125 Z M 8.464844 25.703125 "/>
</g>
</svg>
