<?xml version="1.0" encoding="UTF-8"?>
<svg xmlns="http://www.w3.org/2000/svg" xmlns:xlink="http://www.w3.org/1999/xlink" width="150px" height="68px" viewBox="0 0 149 68" version="1.1">
<g id="surface1">
<path style=" stroke:none;fill-rule:nonzero;fill:rgb(7.45098%,46.666667%,78.039216%);fill-opacity:1;" d="M 49.632812 58.347656 C 49.253906 58.449219 48.875 58.546875 48.5625 58.636719 L 46.546875 62.125 L 70.023438 62.125 L 77.449219 49.320312 C 68.324219 52.609375 58.945312 55.691406 49.632812 58.347656 Z M 49.632812 58.347656 "/>
<path style=" stroke:none;fill-rule:nonzero;fill:rgb(7.45098%,46.666667%,78.039216%);fill-opacity:1;" d="M 49.441406 5.992188 L 34.78125 31.507812 L 31.824219 26.394531 L 37.738281 16.1875 L 31.824219 5.992188 L 8.285156 5.992188 L 16.277344 19.863281 L 28.046875 40.203125 L 30.691406 44.835938 L 34.96875 52.238281 C 34.96875 52.238281 34.96875 52.238281 34.96875 52.242188 L 40.632812 62.109375 L 72.980469 5.992188 Z M 49.441406 5.992188 "/>
<path style=" stroke:none;fill-rule:nonzero;fill:rgb(7.45098%,46.666667%,78.039216%);fill-opacity:1;" d="M 84.9375 46.5 L 75.9375 62.109375 L 99.472656 62.109375 L 108.21875 46.773438 L 117.09375 62.105469 L 140.628906 62.109375 L 122.128906 30.019531 C 111.679688 35.421875 98.84375 41.171875 84.9375 46.5 Z M 84.9375 46.5 "/>
<path style=" stroke:none;fill-rule:nonzero;fill:rgb(7.45098%,46.666667%,78.039216%);fill-opacity:1;" d="M 4.636719 59.003906 C -6.691406 69.128906 3.441406 70.691406 27.355469 64.007812 C 27.355469 64.007812 37.488281 61.199219 27.355469 63.394531 C 17.222656 65.597656 14.078125 63.316406 20.621094 56.59375 C 22.761719 54.421875 25.78125 51.921875 29.429688 49.230469 L 27.859375 46.589844 L 26.535156 44.269531 C 16.972656 49.734375 9.292969 54.835938 4.636719 59.003906 Z M 4.636719 59.003906 "/>
<path style=" stroke:none;fill-rule:nonzero;fill:rgb(7.45098%,46.666667%,78.039216%);fill-opacity:1;" d="M 144.28125 9.050781 C 144.78125 8.589844 145.285156 8.15625 145.664062 7.738281 C 154.664062 -1.203125 144.40625 -2.34375 121.5625 4.042969 C 121.5625 4.042969 113.507812 6.382812 121.5625 4.648438 C 129.617188 2.914062 133.328125 4.070312 130.9375 8.128906 C 130.6875 8.589844 130.308594 9.085938 129.867188 9.625 C 129.429688 10.191406 128.863281 10.796875 128.230469 11.453125 C 126.03125 13.703125 122.945312 16.292969 119.105469 19.085938 C 118.351562 19.636719 117.597656 20.191406 116.777344 20.746094 L 108.285156 5.992188 L 90.535156 36.789062 C 87.769531 38.3125 84.9375 39.816406 82.042969 41.3125 L 102.367188 5.992188 L 78.894531 5.992188 L 50.074219 56.011719 L 49.632812 56.765625 L 49.570312 56.808594 C 51.582031 56.082031 53.660156 55.339844 55.671875 54.574219 C 55.734375 54.546875 55.800781 54.539062 55.863281 54.515625 C 58.882812 53.371094 61.964844 52.171875 65.050781 50.925781 C 66.371094 50.410156 67.628906 49.886719 68.890625 49.355469 C 72.664062 47.8125 76.441406 46.246094 80.089844 44.640625 C 95.382812 37.996094 109.917969 30.832031 121.6875 24.175781 C 131.566406 18.558594 139.558594 13.3125 144.28125 9.050781 Z M 144.28125 9.050781 "/>
</g>
</svg>
