<svg width="16" height="16" viewBox="0 0 16 16" fill="none" xmlns="http://www.w3.org/2000/svg">
<path fill-rule="evenodd" clip-rule="evenodd" d="M3.69231 2.46154V0H4.92308V2.46154H6.15385V0H7.38462V2.46154H8.61538V0H9.84615V2.46154H11.0769V0H12.3077V2.46154H13.5385V3.69231H16V4.92308H13.5385V6.15385H16V7.38462H13.5385V8.61538H16V9.84615H13.5385V11.0769H16V12.3077H13.5385V13.5385H12.3077V16H11.0769V13.5385H9.84615V16H8.61538V13.5385H7.38462V16H6.15385V13.5385H4.92308V16H3.69231V13.5385H2.46154V12.3077H0V11.0769H2.46154V9.84615H0V8.61538H2.46154V7.38462H0V6.15385H2.46154V4.92308H0V3.69231H2.46154V2.46154H3.69231ZM9.84615 6.15385H6.15385V9.84615H9.84615V6.15385Z" fill="#00D1FF"/>
</svg>
