<svg width="16" height="7" viewBox="0 0 16 7" fill="none" xmlns="http://www.w3.org/2000/svg">
<path fill-rule="evenodd" clip-rule="evenodd" d="M4.21176 1.45882C4.18785 1.45882 4.16429 1.46199 4.14119 1.46814V3.05882C4.14119 3.05882 4.14118 3.05882 4.14119 3.05882L4.14118 2.68639C3.96142 2.62454 3.74231 2.58823 3.50588 2.58823C2.89635 2.58823 2.402 2.82955 2.4 3.12759V3.13123C2.40016 3.15453 2.40332 3.17748 2.40932 3.2H3.62757C3.56572 3.37976 3.52941 3.59886 3.52941 3.83529C3.52941 4.44606 3.77171 4.94118 4.07059 4.94118C4.09451 4.94118 4.11807 4.938 4.14117 4.93186V3.34118L4.14117 3.71361C4.32093 3.77546 4.54004 3.81176 4.77647 3.81176C5.38723 3.81176 5.88235 3.56947 5.88235 3.27059C5.88235 3.24666 5.87918 3.2231 5.87303 3.2H4.28235L4.65479 3.2C4.71663 3.02024 4.75294 2.80114 4.75294 2.56471C4.75294 1.95394 4.51065 1.45882 4.21176 1.45882ZM4.28235 3.2L4.14119 3.2V3.05882C4.21915 3.05883 4.28235 3.12203 4.28235 3.2ZM4.28235 3.2C4.28235 3.27797 4.21914 3.34118 4.14117 3.34118L4.14119 3.2L4.28235 3.2ZM4.14117 3.34118L4.14119 3.2V3.05882C4.06322 3.05882 4 3.12203 4 3.2C4 3.27797 4.0632 3.34117 4.14117 3.34118Z" fill="#00D1FF"/>
<path fill-rule="evenodd" clip-rule="evenodd" d="M11.8824 1.45882C11.8584 1.45882 11.8349 1.46199 11.8118 1.46814V3.05882C11.8118 3.05882 11.8118 3.05882 11.8118 3.05882L11.8118 2.68639C11.632 2.62454 11.4129 2.58823 11.1765 2.58823C10.5657 2.58823 10.0706 2.83053 10.0706 3.12941C10.0706 3.15333 10.0738 3.1769 10.0799 3.2H11.2982C11.2363 3.37976 11.2 3.59886 11.2 3.83529C11.2 4.44606 11.4423 4.94118 11.7412 4.94118C11.7651 4.94118 11.7887 4.938 11.8118 4.93186V3.34118L11.8118 3.71361C11.9915 3.77545 12.2106 3.81176 12.4471 3.81176C13.0565 3.81176 13.5508 3.57051 13.5529 3.27251V3.26867C13.5528 3.2454 13.5496 3.22248 13.5436 3.2H11.9529L12.3254 3.2C12.3872 3.02024 12.4235 2.80114 12.4235 2.56471C12.4235 1.95394 12.1812 1.45882 11.8824 1.45882ZM11.9529 3.2L11.8118 3.2V3.05882C11.8897 3.05883 11.9529 3.12203 11.9529 3.2ZM11.9529 3.2C11.9529 3.27797 11.8897 3.34118 11.8118 3.34118L11.8118 3.2L11.9529 3.2ZM11.8118 3.34118L11.8118 3.2V3.05882C11.7338 3.05882 11.6706 3.12203 11.6706 3.2C11.6706 3.27796 11.7338 3.34117 11.8118 3.34118Z" fill="#00D1FF"/>
<path fill-rule="evenodd" clip-rule="evenodd" d="M9.75857 0.120407C9.61246 0.0413815 9.44896 0 9.28284 0H1C0.447715 0 0 0.447716 0 1V5.30588C0 5.85817 0.447715 6.30588 1 6.30588H15C15.5523 6.30588 16 5.85817 16 5.30588V1.42303C16 0.870744 15.5523 0.423029 15 0.423029H10.5712C10.4051 0.423029 10.2416 0.381647 10.0955 0.302622L9.75857 0.120407ZM4.14118 5.45882C5.38869 5.45882 6.4 4.44751 6.4 3.2C6.4 1.95249 5.38869 0.941176 4.14118 0.941176C2.89366 0.941176 1.88235 1.95249 1.88235 3.2C1.88235 4.44751 2.89366 5.45882 4.14118 5.45882ZM14.1176 3.2C14.1176 4.44751 13.1063 5.45882 11.8588 5.45882C10.6113 5.45882 9.6 4.44751 9.6 3.2C9.6 1.95249 10.6113 0.941176 11.8588 0.941176C13.1063 0.941176 14.1176 1.95249 14.1176 3.2Z" fill="#00D1FF"/>
</svg>
