<svg width="16" height="11" viewBox="0 0 16 11" fill="none" xmlns="http://www.w3.org/2000/svg">
<path d="M0 0H0.842105V10.5263H0V0Z" fill="#00D1FF"/>
<path d="M8.42105 0H9.26316V10.5263H8.42105V0Z" fill="#00D1FF"/>
<path d="M1.68421 0H2.52632V10.5263H1.68421V0Z" fill="#00D1FF"/>
<path d="M10.1053 0H10.9474V10.5263H10.1053V0Z" fill="#00D1FF"/>
<path d="M3.36842 0H4.21053V10.5263H3.36842V0Z" fill="#00D1FF"/>
<path d="M11.7895 0H12.6316V10.5263H11.7895V0Z" fill="#00D1FF"/>
<path d="M5.05263 0H5.89474V10.5263H5.05263V0Z" fill="#00D1FF"/>
<path d="M13.4737 0H14.3158V10.5263H13.4737V0Z" fill="#00D1FF"/>
<path d="M6.73684 0H7.57895V10.5263H6.73684V0Z" fill="#00D1FF"/>
<path d="M15.1579 0H16V10.5263H15.1579V0Z" fill="#00D1FF"/>
</svg>
