<svg width="16" height="16" viewBox="0 0 16 16" fill="none" xmlns="http://www.w3.org/2000/svg">
<path d="M10.7 5.5C10.5895 5.5 10.5 5.41046 10.5 5.3V2.7C10.5 2.58954 10.5895 2.5 10.7 2.5H13.3C13.4105 2.5 13.5 2.58954 13.5 2.7V5.3C13.5 5.41046 13.4105 5.5 13.3 5.5H10.7Z" fill="#00D1FF"/>
<path fill-rule="evenodd" clip-rule="evenodd" d="M0.0807542 8.63122C0.0299499 8.66895 0 8.7285 0 8.79178V15.8C0 15.9105 0.0895429 16 0.2 16H15.8C15.9105 16 16 15.9105 16 15.8V0.2C16 0.0895431 15.9105 0 15.8 0H1.53156C1.4211 0 1.33156 0.0895431 1.33156 0.2V7.60169C1.33156 7.66498 1.30161 7.72453 1.2508 7.76226L0.0807542 8.63122ZM9.7 1.5C9.58954 1.5 9.5 1.58954 9.5 1.7V6.3C9.5 6.41046 9.58954 6.5 9.7 6.5H14.3C14.4105 6.5 14.5 6.41046 14.5 6.3V1.7C14.5 1.58954 14.4105 1.5 14.3 1.5H9.7ZM3.5 2C3.77614 2 4 2.22386 4 2.5V13.5C4 13.7761 3.77614 14 3.5 14C3.22386 14 3 13.7761 3 13.5V2.5C3 2.22386 3.22386 2 3.5 2ZM6 2.5C6 2.22386 5.77614 2 5.5 2C5.22386 2 5 2.22386 5 2.5V13.5C5 13.7761 5.22386 14 5.5 14C5.77614 14 6 13.7761 6 13.5V2.5ZM7.5 2C7.77614 2 8 2.22386 8 2.5V13.5C8 13.7761 7.77614 14 7.5 14C7.22386 14 7 13.7761 7 13.5V2.5C7 2.22386 7.22386 2 7.5 2ZM9.5 11C9.77614 11 10 10.7761 10 10.5C10 10.2239 9.77614 10 9.5 10C9.22386 10 9 10.2239 9 10.5C9 10.7761 9.22386 11 9.5 11ZM12 10.5C12 10.7761 11.7761 11 11.5 11C11.2239 11 11 10.7761 11 10.5C11 10.2239 11.2239 10 11.5 10C11.7761 10 12 10.2239 12 10.5ZM13.5 11C13.7761 11 14 10.7761 14 10.5C14 10.2239 13.7761 10 13.5 10C13.2239 10 13 10.2239 13 10.5C13 10.7761 13.2239 11 13.5 11ZM10 12.5C10 12.7761 9.77614 13 9.5 13C9.22386 13 9 12.7761 9 12.5C9 12.2239 9.22386 12 9.5 12C9.77614 12 10 12.2239 10 12.5ZM11.5 13C11.7761 13 12 12.7761 12 12.5C12 12.2239 11.7761 12 11.5 12C11.2239 12 11 12.2239 11 12.5C11 12.7761 11.2239 13 11.5 13ZM14 12.5C14 12.7761 13.7761 13 13.5 13C13.2239 13 13 12.7761 13 12.5C13 12.2239 13.2239 12 13.5 12C13.7761 12 14 12.2239 14 12.5Z" fill="#00D1FF"/>
</svg>
