<svg width="16" height="16" viewBox="0 0 16 16" fill="none" xmlns="http://www.w3.org/2000/svg">
<mask id="path-1-inside-1_25_31" fill="white">
<path fill-rule="evenodd" clip-rule="evenodd" d="M0.5 4.5C0.5 3.11929 1.61929 2 3 2H13.0641C14.4448 2 15.5641 3.11929 15.5641 4.5V9.62221C15.5641 11.0029 14.4448 12.1222 13.0641 12.1222H10.2527V13.6101H15.0641C15.3402 13.6101 15.5641 13.8339 15.5641 14.1101C15.5641 14.3862 15.3402 14.6101 15.0641 14.6101H1C0.723858 14.6101 0.5 14.3862 0.5 14.1101C0.5 13.8339 0.723858 13.6101 1 13.6101H5.81139V12.1222H3C1.61929 12.1222 0.5 11.0029 0.5 9.62221V4.5ZM3 3C2.17157 3 1.5 3.67157 1.5 4.5V9.62221C1.5 10.4506 2.17157 11.1222 3 11.1222H13.0641C13.8925 11.1222 14.5641 10.4506 14.5641 9.62221V4.5C14.5641 3.67157 13.8925 3 13.0641 3H3ZM6.55434 8.95999C6.92289 8.5348 7.46694 8.26587 8.07379 8.26587C8.68065 8.26587 9.2247 8.53481 9.59325 8.96L10.3492 8.30534C9.79728 7.66861 8.98257 7.26587 8.07379 7.26587C7.16502 7.26587 6.35031 7.6686 5.7984 8.30533L6.55434 8.95999ZM5.03741 7.64629C5.7739 6.79662 6.86109 6.25919 8.0738 6.25919C9.28651 6.25919 10.3737 6.79662 11.1102 7.6463L11.8661 6.99163C10.9463 5.93042 9.58842 5.25919 8.0738 5.25919C6.55917 5.25919 5.20132 5.93041 4.28147 6.99163L5.03741 7.64629ZM3.52047 6.33258C4.6249 5.05842 6.25522 4.2525 8.07378 4.2525C9.89235 4.2525 11.5227 5.05843 12.6271 6.3326L13.383 5.67794C12.0953 4.19223 10.1943 3.2525 8.07378 3.2525C5.95331 3.2525 4.05231 4.19222 2.76453 5.67792L3.52047 6.33258ZM8.07377 10.6284C8.6279 10.6284 9.07711 10.1792 9.07711 9.62503C9.07711 9.07091 8.6279 8.6217 8.07377 8.6217C7.51965 8.6217 7.07044 9.07091 7.07044 9.62503C7.07044 10.1792 7.51965 10.6284 8.07377 10.6284Z"/>
</mask>
<path fill-rule="evenodd" clip-rule="evenodd" d="M0.5 4.5C0.5 3.11929 1.61929 2 3 2H13.0641C14.4448 2 15.5641 3.11929 15.5641 4.5V9.62221C15.5641 11.0029 14.4448 12.1222 13.0641 12.1222H10.2527V13.6101H15.0641C15.3402 13.6101 15.5641 13.8339 15.5641 14.1101C15.5641 14.3862 15.3402 14.6101 15.0641 14.6101H1C0.723858 14.6101 0.5 14.3862 0.5 14.1101C0.5 13.8339 0.723858 13.6101 1 13.6101H5.81139V12.1222H3C1.61929 12.1222 0.5 11.0029 0.5 9.62221V4.5ZM3 3C2.17157 3 1.5 3.67157 1.5 4.5V9.62221C1.5 10.4506 2.17157 11.1222 3 11.1222H13.0641C13.8925 11.1222 14.5641 10.4506 14.5641 9.62221V4.5C14.5641 3.67157 13.8925 3 13.0641 3H3ZM6.55434 8.95999C6.92289 8.5348 7.46694 8.26587 8.07379 8.26587C8.68065 8.26587 9.2247 8.53481 9.59325 8.96L10.3492 8.30534C9.79728 7.66861 8.98257 7.26587 8.07379 7.26587C7.16502 7.26587 6.35031 7.6686 5.7984 8.30533L6.55434 8.95999ZM5.03741 7.64629C5.7739 6.79662 6.86109 6.25919 8.0738 6.25919C9.28651 6.25919 10.3737 6.79662 11.1102 7.6463L11.8661 6.99163C10.9463 5.93042 9.58842 5.25919 8.0738 5.25919C6.55917 5.25919 5.20132 5.93041 4.28147 6.99163L5.03741 7.64629ZM3.52047 6.33258C4.6249 5.05842 6.25522 4.2525 8.07378 4.2525C9.89235 4.2525 11.5227 5.05843 12.6271 6.3326L13.383 5.67794C12.0953 4.19223 10.1943 3.2525 8.07378 3.2525C5.95331 3.2525 4.05231 4.19222 2.76453 5.67792L3.52047 6.33258ZM8.07377 10.6284C8.6279 10.6284 9.07711 10.1792 9.07711 9.62503C9.07711 9.07091 8.6279 8.6217 8.07377 8.6217C7.51965 8.6217 7.07044 9.07091 7.07044 9.62503C7.07044 10.1792 7.51965 10.6284 8.07377 10.6284Z" fill="#00D1FF"/>
<path d="M10.2527 12.1222V10.1222H8.25268V12.1222H10.2527ZM10.2527 13.6101H8.25268V15.6101H10.2527V13.6101ZM5.81139 13.6101V15.6101H7.81139V13.6101H5.81139ZM5.81139 12.1222H7.81139V10.1222H5.81139V12.1222ZM6.55434 8.95999L5.24504 10.4719L6.75623 11.7806L8.06563 10.27L6.55434 8.95999ZM9.59325 8.96L8.08196 10.27L9.39135 11.7806L10.9026 10.4719L9.59325 8.96ZM10.3492 8.30534L11.6585 9.81719L13.171 8.50732L11.8605 6.99538L10.3492 8.30534ZM5.7984 8.30533L4.28711 6.99537L2.97658 8.50731L4.48909 9.81719L5.7984 8.30533ZM5.03741 7.64629L3.72811 9.15815L5.23931 10.4669L6.54871 8.95626L5.03741 7.64629ZM11.1102 7.6463L9.59889 8.95626L10.9083 10.4669L12.4195 9.15816L11.1102 7.6463ZM11.8661 6.99163L13.1754 8.50349L14.6879 7.19362L13.3774 5.68167L11.8661 6.99163ZM4.28147 6.99163L2.77018 5.68167L1.45965 7.19361L2.97217 8.50349L4.28147 6.99163ZM3.52047 6.33258L2.21116 7.84444L3.72237 9.15318L5.03176 7.64255L3.52047 6.33258ZM12.6271 6.3326L11.1158 7.64256L12.4252 9.15321L13.9364 7.84446L12.6271 6.3326ZM13.383 5.67794L14.6924 7.1898L16.2049 5.87993L14.8943 4.36798L13.383 5.67794ZM2.76453 5.67792L1.25324 4.36796L-0.05729 5.8799L1.45522 7.18978L2.76453 5.67792ZM3 0C0.514719 0 -1.5 2.01472 -1.5 4.5H2.5C2.5 4.22386 2.72386 4 3 4V0ZM13.0641 0H3V4H13.0641V0ZM17.5641 4.5C17.5641 2.01472 15.5494 0 13.0641 0V4C13.3402 4 13.5641 4.22386 13.5641 4.5H17.5641ZM17.5641 9.62221V4.5H13.5641V9.62221H17.5641ZM13.0641 14.1222C15.5494 14.1222 17.5641 12.1075 17.5641 9.62221H13.5641C13.5641 9.89836 13.3402 10.1222 13.0641 10.1222V14.1222ZM10.2527 14.1222H13.0641V10.1222H10.2527V14.1222ZM12.2527 13.6101V12.1222H8.25268V13.6101H12.2527ZM15.0641 11.6101H10.2527V15.6101H15.0641V11.6101ZM17.5641 14.1101C17.5641 12.7294 16.4448 11.6101 15.0641 11.6101V15.6101C14.2357 15.6101 13.5641 14.9385 13.5641 14.1101H17.5641ZM15.0641 16.6101C16.4448 16.6101 17.5641 15.4908 17.5641 14.1101H13.5641C13.5641 13.2817 14.2357 12.6101 15.0641 12.6101V16.6101ZM1 16.6101H15.0641V12.6101H1V16.6101ZM-1.5 14.1101C-1.5 15.4908 -0.380713 16.6101 1 16.6101V12.6101C1.82843 12.6101 2.5 13.2817 2.5 14.1101H-1.5ZM1 11.6101C-0.380713 11.6101 -1.5 12.7294 -1.5 14.1101H2.5C2.5 14.9385 1.82843 15.6101 1 15.6101V11.6101ZM5.81139 11.6101H1V15.6101H5.81139V11.6101ZM3.81139 12.1222V13.6101H7.81139V12.1222H3.81139ZM3 14.1222H5.81139V10.1222H3V14.1222ZM-1.5 9.62221C-1.5 12.1075 0.514723 14.1222 3 14.1222V10.1222C2.72386 10.1222 2.5 9.89835 2.5 9.62221H-1.5ZM-1.5 4.5V9.62221H2.5V4.5H-1.5ZM3.5 4.5C3.5 4.77614 3.27614 5 3 5V1C1.067 1 -0.5 2.567 -0.5 4.5H3.5ZM3.5 9.62221V4.5H-0.5V9.62221H3.5ZM3 9.12221C3.27614 9.12221 3.5 9.34607 3.5 9.62221H-0.5C-0.5 11.5552 1.06701 13.1222 3 13.1222V9.12221ZM13.0641 9.12221H3V13.1222H13.0641V9.12221ZM12.5641 9.62221C12.5641 9.34607 12.788 9.12221 13.0641 9.12221V13.1222C14.9971 13.1222 16.5641 11.5552 16.5641 9.62221H12.5641ZM12.5641 4.5V9.62221H16.5641V4.5H12.5641ZM13.0641 5C12.788 5 12.5641 4.77614 12.5641 4.5H16.5641C16.5641 2.567 14.9971 1 13.0641 1V5ZM3 5H13.0641V1H3V5ZM8.07379 6.26587C6.8627 6.26587 5.77531 6.80524 5.04306 7.65003L8.06563 10.27C8.06804 10.2672 8.07027 10.2659 8.07054 10.2658C8.07055 10.2658 8.07052 10.2658 8.07046 10.2659C8.0704 10.2659 8.07032 10.2659 8.07022 10.2659C8.07001 10.266 8.06981 10.2661 8.06969 10.2661C8.06914 10.2662 8.07023 10.2659 8.07379 10.2659V6.26587ZM11.1045 7.65004C10.3723 6.80524 9.28489 6.26587 8.07379 6.26587V10.2659C8.07735 10.2659 8.07844 10.2662 8.0779 10.2661C8.07777 10.2661 8.07758 10.266 8.07736 10.2659C8.07726 10.2659 8.07718 10.2659 8.07712 10.2659C8.07707 10.2658 8.07704 10.2658 8.07704 10.2658C8.07732 10.266 8.07955 10.2672 8.08196 10.27L11.1045 7.65004ZM9.03988 6.79348L8.28394 7.44814L10.9026 10.4719L11.6585 9.81719L9.03988 6.79348ZM8.07379 9.26587C8.37833 9.26587 8.64969 9.39817 8.8379 9.6153L11.8605 6.99538C10.9449 5.93904 9.5868 5.26587 8.07379 5.26587V9.26587ZM7.30969 9.61529C7.49789 9.39817 7.76925 9.26587 8.07379 9.26587V5.26587C6.56078 5.26587 5.20272 5.93904 4.28711 6.99537L7.30969 9.61529ZM7.86365 7.44814L7.10771 6.79347L4.48909 9.81719L5.24504 10.4719L7.86365 7.44814ZM8.0738 4.25919C6.25685 4.25919 4.62632 5.06705 3.52612 6.33633L6.54871 8.95626C6.92149 8.52618 7.46532 8.25919 8.0738 8.25919V4.25919ZM12.6215 6.33634C11.5213 5.06705 9.89074 4.25919 8.0738 4.25919V8.25919C8.68227 8.25919 9.22611 8.52618 9.59889 8.95626L12.6215 6.33634ZM10.5568 5.47978L9.80087 6.13444L12.4195 9.15816L13.1754 8.50349L10.5568 5.47978ZM8.0738 7.25919C8.98419 7.25919 9.79869 7.65998 10.3548 8.30159L13.3774 5.68167C12.0939 4.20085 10.1927 3.25919 8.0738 3.25919V7.25919ZM5.79276 8.30159C6.3489 7.65998 7.1634 7.25919 8.0738 7.25919V3.25919C5.95494 3.25919 4.05373 4.20085 2.77018 5.68167L5.79276 8.30159ZM6.34672 6.13444L5.59078 5.47977L2.97217 8.50349L3.72811 9.15815L6.34672 6.13444ZM8.07378 2.2525C5.65099 2.2525 3.47731 3.32885 2.00918 5.02262L5.03176 7.64255C5.77248 6.78799 6.85946 6.2525 8.07378 6.2525V2.2525ZM14.1384 5.02265C12.6703 3.32886 10.4966 2.2525 8.07378 2.2525V6.2525C9.28811 6.2525 10.3751 6.78799 11.1158 7.64256L14.1384 5.02265ZM12.0737 4.16608L11.3178 4.82074L13.9364 7.84446L14.6924 7.1898L12.0737 4.16608ZM8.07378 5.2525C9.59003 5.2525 10.9477 5.92179 11.8718 6.9879L14.8943 4.36798C13.2429 2.46266 10.7985 1.2525 8.07378 1.2525V5.2525ZM4.27582 6.98788C5.1999 5.92178 6.55754 5.2525 8.07378 5.2525V1.2525C5.34907 1.2525 2.90473 2.46265 1.25324 4.36796L4.27582 6.98788ZM4.82978 4.82073L4.07384 4.16606L1.45522 7.18978L2.21116 7.84444L4.82978 4.82073ZM7.07711 9.62503C7.07711 9.07459 7.52333 8.62837 8.07377 8.62837V12.6284C9.73247 12.6284 11.0771 11.2837 11.0771 9.62503H7.07711ZM8.07377 10.6217C7.52333 10.6217 7.07711 10.1755 7.07711 9.62503H11.0771C11.0771 7.96634 9.73247 6.6217 8.07377 6.6217V10.6217ZM9.07043 9.62503C9.07043 10.1755 8.62422 10.6217 8.07377 10.6217V6.6217C6.41508 6.6217 5.07044 7.96634 5.07044 9.62503H9.07043ZM8.07377 8.62837C8.62422 8.62837 9.07043 9.07459 9.07043 9.62503H5.07044C5.07044 11.2837 6.41508 12.6284 8.07377 12.6284V8.62837Z" fill="#00D1FF" mask="url(#path-1-inside-1_25_31)"/>
</svg>
