<?xml version="1.0" encoding="UTF-8"?>
<svg xmlns="http://www.w3.org/2000/svg" xmlns:xlink="http://www.w3.org/1999/xlink" width="16px" height="14px" viewBox="0 0 16 14" version="1.1">
<g id="surface1">
<path style="fill-rule:nonzero;fill:rgb(0%,81.960784%,100%);fill-opacity:1;stroke-width:2;stroke-linecap:butt;stroke-linejoin:miter;stroke:rgb(0%,81.960784%,100%);stroke-opacity:1;stroke-miterlimit:4;" d="M 20.71875 20.498605 L 19.71875 20.498605 L 19.71875 25.65904 L 30.9375 25.65904 C 30.96875 25.65904 31 25.689174 31 25.726842 C 31 25.756975 30.96875 25.787109 30.9375 25.787109 L 1.0625 25.787109 C 1.03125 25.787109 1 25.756975 1 25.726842 C 1 25.689174 1.03125 25.65904 1.0625 25.65904 L 12.28125 25.65904 L 12.28125 20.498605 L 5.3125 20.498605 C 2.929688 20.498605 1 18.570033 1 16.189453 L 1 5.311105 C 1 2.930525 2.929688 1.001953 5.3125 1.001953 L 26.6875 1.001953 C 29.070312 1.001953 31 2.930525 31 5.311105 L 31 16.189453 C 31 18.570033 29.070312 20.498605 26.6875 20.498605 Z M 16.085938 12.30971 C 14.859375 12.30971 13.726562 12.731585 12.828125 13.439732 L 12.734375 13.356864 C 13.65625 12.618583 14.820312 12.189174 16.085938 12.189174 C 17.359375 12.189174 18.523438 12.618583 19.4375 13.356864 L 19.34375 13.439732 C 18.453125 12.731585 17.320312 12.30971 16.085938 12.30971 Z M 16.085938 3.661272 C 19.929688 3.661272 23.40625 5.21317 25.929688 7.736886 L 25.835938 7.819754 C 23.34375 5.326172 19.890625 3.781808 16.085938 3.781808 C 12.28125 3.781808 8.835938 5.326172 6.34375 7.819754 L 6.25 7.736886 C 8.765625 5.21317 12.25 3.661272 16.085938 3.661272 Z M 5.3125 1.122489 C 3 1.122489 1.125 2.998326 1.125 5.311105 L 1.125 16.189453 C 1.125 18.502232 3 20.378069 5.3125 20.378069 L 26.6875 20.378069 C 29 20.378069 30.875 18.502232 30.875 16.189453 L 30.875 5.311105 C 30.875 2.998326 29 1.122489 26.6875 1.122489 Z M 16.085938 8.045759 C 13.570312 8.045759 11.28125 9.025112 9.578125 10.614676 L 9.484375 10.539342 C 11.210938 8.912109 13.53125 7.925223 16.085938 7.925223 C 18.640625 7.925223 20.96875 8.912109 22.695312 10.539342 L 22.601562 10.614676 C 20.898438 9.025112 18.609375 8.045759 16.085938 8.045759 Z M 17.21875 16.196987 C 17.21875 16.822266 16.710938 17.327009 16.085938 17.327009 C 15.460938 17.327009 14.960938 16.822266 14.960938 16.196987 C 14.960938 15.571708 15.460938 15.066964 16.085938 15.066964 C 16.710938 15.066964 17.21875 15.571708 17.21875 16.196987 Z M 17.21875 16.196987 " transform="matrix(0.5,0,0,0.518519,0,0)"/>
</g>
</svg>
