<svg width="15" height="16" viewBox="0 0 15 16" fill="none" xmlns="http://www.w3.org/2000/svg">
<path d="M12.8 1.6C13.2243 1.6 13.6313 1.76857 13.9314 2.06863C14.2314 2.36869 14.4 2.77565 14.4 3.2V14.4C14.4 14.8243 14.2314 15.2313 13.9314 15.5314C13.6313 15.8314 13.2243 16 12.8 16H1.6C1.17565 16 0.768687 15.8314 0.468629 15.5314C0.168571 15.2313 0 14.8243 0 14.4V3.2C0 2.77565 0.168571 2.36869 0.468629 2.06863C0.768687 1.76857 1.17565 1.6 1.6 1.6H4.944C5.28 0.672 6.16 0 7.2 0C8.24 0 9.12 0.672 9.456 1.6H12.8ZM7.2 1.6C6.98783 1.6 6.78434 1.68429 6.63432 1.83431C6.48429 1.98434 6.4 2.18783 6.4 2.4C6.4 2.61217 6.48429 2.81566 6.63432 2.96569C6.78434 3.11571 6.98783 3.2 7.2 3.2C7.41217 3.2 7.61566 3.11571 7.76569 2.96569C7.91571 2.81566 8 2.61217 8 2.4C8 2.18783 7.91571 1.98434 7.76569 1.83431C7.61566 1.68429 7.41217 1.6 7.2 1.6ZM3.2 4.8V3.2H1.6V14.4H12.8V3.2H11.2V4.8H3.2ZM6.4 6.4H8V10H6.4V6.4ZM6.4 11.2H8V12.8H6.4V11.2Z" fill="#00D1FF"/>
</svg>
