<svg width="12" height="16" viewBox="0 0 12 16" fill="none" xmlns="http://www.w3.org/2000/svg">
<path d="M8.2029 6.02899C8.2029 7.35767 7.12579 8.43478 5.7971 8.43478C4.46842 8.43478 3.3913 7.35767 3.3913 6.02899C3.3913 4.7003 4.46842 3.62319 5.7971 3.62319C7.12579 3.62319 8.2029 4.7003 8.2029 6.02899Z" fill="#00D1FF"/>
<path fill-rule="evenodd" clip-rule="evenodd" d="M0.5 0C0.223857 0 0 0.223858 0 0.5V15.5C0 15.7761 0.223858 16 0.5 16H5.52765C5.70628 16 5.87135 15.9047 5.96066 15.75L6.34842 15.0784C6.43773 14.9237 6.6028 14.8284 6.78143 14.8284H11.0942C11.3703 14.8284 11.5942 14.6045 11.5942 14.3284V0.499999C11.5942 0.223857 11.3703 0 11.0942 0H0.5ZM10.2029 6.02899C10.2029 8.46224 8.23036 10.4348 5.7971 10.4348C3.36385 10.4348 1.3913 8.46224 1.3913 6.02899C1.3913 3.59573 3.36385 1.62319 5.7971 1.62319C8.23036 1.62319 10.2029 3.59573 10.2029 6.02899ZM1.85507 13.4493C2.23927 13.4493 2.55072 13.1378 2.55072 12.7536C2.55072 12.3694 2.23927 12.058 1.85507 12.058C1.47087 12.058 1.15942 12.3694 1.15942 12.7536C1.15942 13.1378 1.47087 13.4493 1.85507 13.4493ZM5.33333 12.7536C5.33333 13.1378 5.02188 13.4493 4.63768 13.4493C4.25348 13.4493 3.94203 13.1378 3.94203 12.7536C3.94203 12.3694 4.25348 12.058 4.63768 12.058C5.02188 12.058 5.33333 12.3694 5.33333 12.7536ZM7.42029 13.4493C7.80449 13.4493 8.11594 13.1378 8.11594 12.7536C8.11594 12.3694 7.80449 12.058 7.42029 12.058C7.03609 12.058 6.72464 12.3694 6.72464 12.7536C6.72464 13.1378 7.03609 13.4493 7.42029 13.4493Z" fill="#00D1FF"/>
</svg>
