<svg width="128" height="59" viewBox="0 0 128 59" fill="none" xmlns="http://www.w3.org/2000/svg">
<path d="M60.4196 4.36364H68.4755V53.8182H60.4196V4.36364Z" fill="#00D1FF"/>
<path d="M79.2168 4.36364H71.1608V53.8182H79.2168V4.36364Z" fill="#00D1FF"/>
<path d="M81.9021 4.36364H89.958V53.8182H81.9021V4.36364Z" fill="#00D1FF"/>
<path d="M100.699 4.36364H92.6434V53.8182H100.699V4.36364Z" fill="#00D1FF"/>
<path d="M103.385 4.36364H111.441V53.8182H103.385V4.36364Z" fill="#00D1FF"/>
<path d="M120.839 4.36364H114.126V53.8182C114.126 53.8182 120.098 53.8182 120.839 53.8182C121.581 53.8182 122.182 53.167 122.182 52.3636V5.81818C122.182 5.01486 121.581 4.36364 120.839 4.36364Z" fill="#00D1FF"/>
<path fill-rule="evenodd" clip-rule="evenodd" d="M11.6364 40.7273H0V17.4545H11.6364V5.81818C11.6364 2.60489 14.2413 0 17.4545 0H122.182C125.395 0 128 2.60489 128 5.81818V52.3636C128 55.5769 125.395 58.1818 122.182 58.1818H17.4545C14.2413 58.1818 11.6364 55.5769 11.6364 52.3636V40.7273ZM14.5455 20.3636V5.81818C14.5455 4.21154 15.8479 2.90909 17.4545 2.90909H122.182C123.788 2.90909 125.091 4.21154 125.091 5.81818V52.3636C125.091 53.9703 123.788 55.2727 122.182 55.2727H17.4545C15.8479 55.2727 14.5455 53.9703 14.5455 52.3636V37.8182H2.90909V20.3636H14.5455Z" fill="#00D1FF"/>
</svg>
