<svg width="32" height="32" viewBox="0 0 32 32" fill="none" xmlns="http://www.w3.org/2000/svg">
<path fill-rule="evenodd" clip-rule="evenodd" d="M7.38462 4.92308V0H9.84615V4.92308H12.3077V0H14.7692V4.92308H17.2308V0H19.6923V4.92308H22.1538V0H24.6154V4.92308H27.0769V7.38462H32V9.84615H27.0769V12.3077H32V14.7692H27.0769V17.2308H32V19.6923H27.0769V22.1538H32V24.6154H27.0769V27.0769H24.6154V32H22.1538V27.0769H19.6923V32H17.2308V27.0769H14.7692V32H12.3077V27.0769H9.84615V32H7.38462V27.0769H4.92308V24.6154H0V22.1538H4.92308V19.6923H0V17.2308H4.92308V14.7692H0V12.3077H4.92308V9.84615H0V7.38462H4.92308V4.92308H7.38462ZM19.6923 12.3077H12.3077V19.6923H19.6923V12.3077Z" fill="#00D1FF"/>
</svg>
