<svg width="32" height="13" viewBox="0 0 32 13" fill="none" xmlns="http://www.w3.org/2000/svg">
<path fill-rule="evenodd" clip-rule="evenodd" d="M8.42353 2.91765C8.37569 2.91765 8.32858 2.92399 8.28238 2.93628V6.11765C8.28238 6.11765 8.28237 6.11765 8.28238 6.11765L8.28235 5.37278C7.92283 5.24909 7.48462 5.17647 7.01175 5.17647C5.79271 5.17647 4.804 5.65909 4.8 6.25519V6.26246C4.80031 6.30906 4.80664 6.35496 4.81863 6.4H7.25513C7.13144 6.75952 7.05882 7.19772 7.05882 7.67059C7.05882 8.89211 7.54341 9.88235 8.14118 9.88235C8.18902 9.88235 8.23614 9.87601 8.28234 9.86371V6.68235L8.28235 7.42722C8.64187 7.55091 9.08008 7.62353 9.55294 7.62353C10.7745 7.62353 11.7647 7.13894 11.7647 6.54117C11.7647 6.49333 11.7584 6.44621 11.7461 6.4H8.56471L9.30958 6.4C9.43327 6.04048 9.50588 5.60227 9.50588 5.12941C9.50588 3.90789 9.0213 2.91765 8.42353 2.91765ZM8.56471 6.4L8.28238 6.4V6.11765C8.43831 6.11766 8.56471 6.24407 8.56471 6.4ZM8.56471 6.4C8.5647 6.55594 8.43828 6.68235 8.28234 6.68235L8.28238 6.4L8.56471 6.4ZM8.28234 6.68235L8.28238 6.4V6.11765C8.12644 6.11765 8 6.24406 8 6.4C8 6.55593 8.12641 6.68234 8.28234 6.68235Z" fill="#00D1FF"/>
<path fill-rule="evenodd" clip-rule="evenodd" d="M23.7647 2.91765C23.7169 2.91765 23.6697 2.92399 23.6235 2.93629V6.11765C23.6235 6.11765 23.6235 6.11765 23.6235 6.11765L23.6235 5.37278C23.264 5.24909 22.8258 5.17647 22.3529 5.17647C21.1314 5.17647 20.1412 5.66106 20.1412 6.25882C20.1412 6.30667 20.1475 6.35379 20.1598 6.4H22.5963C22.4726 6.75952 22.4 7.19772 22.4 7.67059C22.4 8.89211 22.8846 9.88235 23.4824 9.88235C23.5302 9.88235 23.5773 9.87601 23.6235 9.86371V6.68235L23.6235 7.42722C23.9831 7.55091 24.4213 7.62353 24.8941 7.62353C26.113 7.62353 27.1017 7.14102 27.1059 6.54502V6.53733C27.1056 6.4908 27.0992 6.44497 27.0873 6.4H23.9059L24.6508 6.4C24.7744 6.04048 24.8471 5.60227 24.8471 5.12941C24.8471 3.90789 24.3625 2.91765 23.7647 2.91765ZM23.9059 6.4L23.6235 6.4V6.11765C23.7795 6.11765 23.9059 6.24407 23.9059 6.4ZM23.9059 6.4C23.9059 6.55594 23.7794 6.68235 23.6235 6.68235L23.6235 6.4L23.9059 6.4ZM23.6235 6.68235L23.6235 6.4V6.11765C23.4676 6.11765 23.3412 6.24406 23.3412 6.4C23.3412 6.55593 23.4676 6.68234 23.6235 6.68235Z" fill="#00D1FF"/>
<path fill-rule="evenodd" clip-rule="evenodd" d="M19.5171 0.240813C19.2249 0.082763 18.8979 0 18.5657 0H2C0.895431 0 0 0.895432 0 2V10.6118C0 11.7163 0.895431 12.6118 2 12.6118H30C31.1046 12.6118 32 11.7163 32 10.6118V2.84606C32 1.74149 31.1046 0.846057 30 0.846057H21.1424C20.8102 0.846057 20.4832 0.763294 20.191 0.605244L19.5171 0.240813ZM8.28235 10.9176C10.7774 10.9176 12.8 8.89503 12.8 6.4C12.8 3.90497 10.7774 1.88235 8.28235 1.88235C5.78733 1.88235 3.76471 3.90497 3.76471 6.4C3.76471 8.89503 5.78733 10.9176 8.28235 10.9176ZM28.2353 6.4C28.2353 8.89503 26.2127 10.9176 23.7176 10.9176C21.2226 10.9176 19.2 8.89503 19.2 6.4C19.2 3.90497 21.2226 1.88235 23.7176 1.88235C26.2127 1.88235 28.2353 3.90497 28.2353 6.4Z" fill="#00D1FF"/>
</svg>
