<svg width="32" height="22" viewBox="0 0 32 22" fill="none" xmlns="http://www.w3.org/2000/svg">
<path d="M0 0H1.68421V21.0526H0V0Z" fill="#00D1FF"/>
<path d="M16.8421 0H18.5263V21.0526H16.8421V0Z" fill="#00D1FF"/>
<path d="M3.36842 0H5.05263V21.0526H3.36842V0Z" fill="#00D1FF"/>
<path d="M20.2105 0H21.8947V21.0526H20.2105V0Z" fill="#00D1FF"/>
<path d="M6.73684 0H8.42105V21.0526H6.73684V0Z" fill="#00D1FF"/>
<path d="M23.5789 0H25.2632V21.0526H23.5789V0Z" fill="#00D1FF"/>
<path d="M10.1053 0H11.7895V21.0526H10.1053V0Z" fill="#00D1FF"/>
<path d="M26.9474 0H28.6316V21.0526H26.9474V0Z" fill="#00D1FF"/>
<path d="M13.4737 0H15.1579V21.0526H13.4737V0Z" fill="#00D1FF"/>
<path d="M30.3158 0H32V21.0526H30.3158V0Z" fill="#00D1FF"/>
</svg>
