<svg width="32" height="32" viewBox="0 0 32 32" fill="none" xmlns="http://www.w3.org/2000/svg">
<path d="M21.4 11C21.1791 11 21 10.8209 21 10.6V5.4C21 5.17909 21.1791 5 21.4 5H26.6C26.8209 5 27 5.17909 27 5.4V10.6C27 10.8209 26.8209 11 26.6 11H21.4Z" fill="#00D1FF"/>
<path fill-rule="evenodd" clip-rule="evenodd" d="M0.161508 17.2624C0.0598998 17.3379 0 17.457 0 17.5836V31.6C0 31.8209 0.179086 32 0.4 32H31.6C31.8209 32 32 31.8209 32 31.6V0.4C32 0.179086 31.8209 0 31.6 0H3.06312C2.8422 0 2.66312 0.179086 2.66312 0.4V15.2034C2.66312 15.33 2.60322 15.4491 2.50161 15.5245L0.161508 17.2624ZM19.4 3C19.1791 3 19 3.17909 19 3.4V12.6C19 12.8209 19.1791 13 19.4 13H28.6C28.8209 13 29 12.8209 29 12.6V3.4C29 3.17909 28.8209 3 28.6 3H19.4ZM7 4C7.55228 4 8 4.44772 8 5V27C8 27.5523 7.55228 28 7 28C6.44772 28 6 27.5523 6 27V5C6 4.44772 6.44772 4 7 4ZM12 5C12 4.44772 11.5523 4 11 4C10.4477 4 10 4.44772 10 5V27C10 27.5523 10.4477 28 11 28C11.5523 28 12 27.5523 12 27V5ZM15 4C15.5523 4 16 4.44772 16 5V27C16 27.5523 15.5523 28 15 28C14.4477 28 14 27.5523 14 27V5C14 4.44772 14.4477 4 15 4ZM19 22C19.5523 22 20 21.5523 20 21C20 20.4477 19.5523 20 19 20C18.4477 20 18 20.4477 18 21C18 21.5523 18.4477 22 19 22ZM24 21C24 21.5523 23.5523 22 23 22C22.4477 22 22 21.5523 22 21C22 20.4477 22.4477 20 23 20C23.5523 20 24 20.4477 24 21ZM27 22C27.5523 22 28 21.5523 28 21C28 20.4477 27.5523 20 27 20C26.4477 20 26 20.4477 26 21C26 21.5523 26.4477 22 27 22ZM20 25C20 25.5523 19.5523 26 19 26C18.4477 26 18 25.5523 18 25C18 24.4477 18.4477 24 19 24C19.5523 24 20 24.4477 20 25ZM23 26C23.5523 26 24 25.5523 24 25C24 24.4477 23.5523 24 23 24C22.4477 24 22 24.4477 22 25C22 25.5523 22.4477 26 23 26ZM28 25C28 25.5523 27.5523 26 27 26C26.4477 26 26 25.5523 26 25C26 24.4477 26.4477 24 27 24C27.5523 24 28 24.4477 28 25Z" fill="#00D1FF"/>
</svg>
