<svg width="32" height="27" viewBox="0 0 32 27" fill="none" xmlns="http://www.w3.org/2000/svg">
<path d="M20.7172 20.5022H19.7172V21.5022V24.6628V25.6628H20.7172H30.9379C30.9722 25.6628 31 25.6906 31 25.7249C31 25.7592 30.9722 25.7871 30.9379 25.7871H1.06213C1.02782 25.7871 1 25.7592 1 25.7249C1 25.6906 1.02782 25.6628 1.06213 25.6628H11.2827H12.2827V24.6628V21.5022V20.5022H11.2827H5.31064C2.92994 20.5022 1 18.5722 1 16.1915V5.31064C1 2.92994 2.92994 1 5.31064 1H26.6894C29.0701 1 31 2.92994 31 5.31064V16.1915C31 18.5722 29.0701 20.5022 26.6894 20.5022H20.7172ZM16.0887 12.3103C14.8594 12.3103 13.728 12.7319 12.832 13.4369L12.7363 13.3539C13.6573 12.6221 14.8217 12.1861 16.0887 12.1861C17.3556 12.1861 18.5201 12.6221 19.4411 13.3539L19.3453 13.4369C18.4494 12.7319 17.3179 12.3103 16.0887 12.3103ZM16.0886 3.66064C19.9311 3.66064 23.4092 5.21653 25.929 7.73529L25.8348 7.81688C23.34 5.32661 19.8939 3.78489 16.0886 3.78489C12.2834 3.78489 8.83733 5.32659 6.34258 7.81684L6.24838 7.73526C8.76813 5.21652 12.2462 3.66064 16.0886 3.66064ZM5.31064 1.12426C2.99856 1.12426 1.12426 2.99856 1.12426 5.31064V16.1915C1.12426 18.5036 2.99857 20.3779 5.31064 20.3779H26.6894C29.0014 20.3779 30.8757 18.5036 30.8757 16.1915V5.31064C30.8757 2.99856 29.0014 1.12426 26.6894 1.12426H5.31064ZM16.0887 8.04761C13.5709 8.04761 11.2804 9.02471 9.57722 10.6181L9.48272 10.5363C11.2108 8.9148 13.5335 7.92335 16.0887 7.92335C18.6439 7.92335 20.9666 8.9148 22.6946 10.5363L22.6002 10.6181C20.897 9.02471 18.6065 8.04761 16.0887 8.04761ZM17.22 16.1975C17.22 16.8224 16.7135 17.3289 16.0886 17.3289C15.4638 17.3289 14.9573 16.8224 14.9573 16.1975C14.9573 15.5727 15.4638 15.0662 16.0886 15.0662C16.7135 15.0662 17.22 15.5727 17.22 16.1975Z" fill="#00D1FF" stroke="#00D1FF" stroke-width="2"/>
</svg>
