<svg width="29" height="32" viewBox="0 0 29 32" fill="none" xmlns="http://www.w3.org/2000/svg">
<path d="M25.6 3.2C26.4487 3.2 27.2626 3.53714 27.8627 4.13726C28.4629 4.73737 28.8 5.55131 28.8 6.4V28.8C28.8 29.6487 28.4629 30.4626 27.8627 31.0627C27.2626 31.6629 26.4487 32 25.6 32H3.2C2.35131 32 1.53737 31.6629 0.937258 31.0627C0.337142 30.4626 0 29.6487 0 28.8V6.4C0 5.55131 0.337142 4.73737 0.937258 4.13726C1.53737 3.53714 2.35131 3.2 3.2 3.2H9.888C10.56 1.344 12.32 0 14.4 0C16.48 0 18.24 1.344 18.912 3.2H25.6ZM14.4 3.2C13.9757 3.2 13.5687 3.36857 13.2686 3.66863C12.9686 3.96869 12.8 4.37565 12.8 4.8C12.8 5.22435 12.9686 5.63131 13.2686 5.93137C13.5687 6.23143 13.9757 6.4 14.4 6.4C14.8243 6.4 15.2313 6.23143 15.5314 5.93137C15.8314 5.63131 16 5.22435 16 4.8C16 4.37565 15.8314 3.96869 15.5314 3.66863C15.2313 3.36857 14.8243 3.2 14.4 3.2ZM6.4 9.6V6.4H3.2V28.8H25.6V6.4H22.4V9.6H6.4ZM12.8 12.8H16V20H12.8V12.8ZM12.8 22.4H16V25.6H12.8V22.4Z" fill="#00D1FF"/>
</svg>
