<svg width="24" height="32" viewBox="0 0 24 32" fill="none" xmlns="http://www.w3.org/2000/svg">
<path d="M16.4058 12.058C16.4058 14.7153 14.2516 16.8696 11.5942 16.8696C8.93683 16.8696 6.78261 14.7153 6.78261 12.058C6.78261 9.4006 8.93683 7.24638 11.5942 7.24638C14.2516 7.24638 16.4058 9.4006 16.4058 12.058Z" fill="#00D1FF"/>
<path fill-rule="evenodd" clip-rule="evenodd" d="M0.999999 0C0.447715 0 0 0.447715 0 1V31C0 31.5523 0.447715 32 1 32H11.0553C11.4126 32 11.7427 31.8094 11.9213 31.5L12.6968 30.1568C12.8755 29.8474 13.2056 29.6568 13.5629 29.6568H22.1884C22.7407 29.6568 23.1884 29.2091 23.1884 28.6568V0.999999C23.1884 0.447714 22.7407 0 22.1884 0H0.999999ZM20.4058 12.058C20.4058 16.9245 16.4607 20.8696 11.5942 20.8696C6.72769 20.8696 2.78261 16.9245 2.78261 12.058C2.78261 7.19146 6.72769 3.24638 11.5942 3.24638C16.4607 3.24638 20.4058 7.19146 20.4058 12.058ZM3.71014 26.8986C4.47854 26.8986 5.10145 26.2756 5.10145 25.5072C5.10145 24.7388 4.47854 24.1159 3.71014 24.1159C2.94175 24.1159 2.31884 24.7388 2.31884 25.5072C2.31884 26.2756 2.94175 26.8986 3.71014 26.8986ZM10.6667 25.5072C10.6667 26.2756 10.0438 26.8986 9.27536 26.8986C8.50697 26.8986 7.88406 26.2756 7.88406 25.5072C7.88406 24.7388 8.50697 24.1159 9.27536 24.1159C10.0438 24.1159 10.6667 24.7388 10.6667 25.5072ZM14.8406 26.8986C15.609 26.8986 16.2319 26.2756 16.2319 25.5072C16.2319 24.7388 15.609 24.1159 14.8406 24.1159C14.0722 24.1159 13.4493 24.7388 13.4493 25.5072C13.4493 26.2756 14.0722 26.8986 14.8406 26.8986Z" fill="#00D1FF"/>
</svg>
