<?xml version="1.0" encoding="UTF-8"?>
<svg xmlns="http://www.w3.org/2000/svg" xmlns:xlink="http://www.w3.org/1999/xlink" width="73px" height="60px" viewBox="0 0 73 60" version="1.1">
<g id="surface1">
<path style=" stroke:none;fill-rule:evenodd;fill:rgb(0%,0%,0%);fill-opacity:1;" d="M 51.867188 17.09375 L 48.515625 17.121094 C 43.867188 17.164062 41.65625 19.089844 41.65625 26.304688 L 41.65625 29.460938 L 38.632812 29.460938 L 38.632812 34.742188 L 41.65625 34.742188 L 41.65625 57.734375 L 48.277344 57.734375 L 48.277344 34.742188 L 51.867188 34.742188 L 51.867188 29.460938 L 48.277344 29.460938 L 48.277344 25.535156 C 48.277344 23.339844 50.019531 22.589844 51.867188 22.785156 Z M 30.496094 17.636719 L 30.496094 31.476562 C 29.3125 29.84375 28.046875 29.003906 26.167969 29.003906 C 20.976562 29.003906 19.199219 36.613281 19.199219 44.667969 C 19.199219 51.816406 21.054688 58.261719 25.753906 58.171875 C 27.714844 58.132812 28.824219 57.5625 30.785156 54.96875 L 30.867188 54.96875 L 30.867188 57.726562 L 37.117188 57.726562 L 37.117188 17.636719 Z M 9.765625 28.980469 C 6.28125 28.980469 2.84375 31.019531 1.773438 36.332031 L 6.828125 36.828125 C 7.0625 35.089844 7.734375 34.027344 9.175781 34.027344 C 10.59375 34.027344 11.324219 35.511719 11.324219 37.394531 C 11.324219 40.238281 9.800781 41.074219 7.660156 41.074219 L 6.339844 41.074219 L 6.339844 45.882812 L 7.828125 45.882812 C 9.867188 45.882812 11.597656 46.285156 11.597656 49.808594 C 11.597656 52.011719 10.785156 53.523438 8.972656 53.523438 C 7.078125 53.523438 6.605469 51.914062 6.488281 50.332031 L 1.691406 50.453125 C 2.371094 56.09375 5.765625 58.300781 9.207031 58.300781 C 13.320312 58.300781 17.71875 55.613281 17.71875 49.808594 C 17.71875 45.5625 15.457031 43.757812 12.265625 43.277344 L 12.265625 43.199219 C 14.898438 42.558594 17.246094 40.519531 17.246094 37.074219 C 17.246094 31.992188 13.746094 28.980469 9.765625 28.980469 Z M 52.707031 29.460938 L 63.800781 57.734375 L 70.84375 57.734375 L 59.785156 29.460938 Z M 28.414062 33.578125 C 29.394531 33.578125 30.128906 34.203125 30.496094 35.011719 L 30.496094 51.246094 C 30.003906 52.679688 29.070312 53.609375 28.089844 53.609375 C 26.332031 53.609375 26.246094 49.566406 26.246094 43.097656 C 26.246094 37.746094 26.453125 33.578125 28.414062 33.578125 Z M 28.414062 33.578125 "/>
<path style=" stroke:none;fill-rule:evenodd;fill:rgb(86.27451%,47.45098%,0%);fill-opacity:1;" d="M 58.386719 57.738281 L 66.664062 40.421875 C 71.148438 31.050781 73.363281 19.050781 68.773438 10.269531 C 65.4375 3.882812 57.679688 1.515625 50.859375 1.710938 C 32.773438 2.230469 16.449219 15.050781 3.789062 25.71875 C 3.402344 26.046875 3.613281 26.484375 3.945312 26.195312 C 15.558594 16.121094 30.796875 4.980469 46.769531 4.265625 C 52.910156 3.988281 59.511719 6.195312 62.808594 12.257812 C 66.339844 18.753906 65.402344 28.632812 62.351562 35.324219 C 61.109375 38.046875 53.648438 52.945312 51.230469 57.738281 Z M 58.386719 57.738281 "/>
</g>
</svg>
