<?xml version="1.0" encoding="UTF-8"?>
<svg xmlns="http://www.w3.org/2000/svg" xmlns:xlink="http://www.w3.org/1999/xlink" width="84px" height="60px" viewBox="0 0 84 60" version="1.1">
<g id="surface1">
<path style=" stroke:none;fill-rule:nonzero;fill:rgb(99.607843%,0%,0%);fill-opacity:1;" d="M 0 0 L 84 0 L 84 59.996094 L 0 59.996094 Z M 0 0 "/>
<path style=" stroke:none;fill-rule:nonzero;fill:rgb(100%,100%,100%);fill-opacity:1;" d="M 31.960938 13.703125 L 5.855469 40.011719 C 5.855469 40.011719 2.507812 43.199219 5.542969 46.382812 C 8.578125 49.570312 11.433594 47.058594 11.925781 46.609375 C 12.414062 46.160156 29.414062 29.414062 29.414062 29.414062 C 29.414062 29.414062 30.933594 27.84375 30.933594 29.324219 L 30.933594 42.75 C 30.933594 42.75 30.355469 47.910156 35.351562 47.910156 C 40.347656 47.910156 39.8125 43.824219 39.859375 42.882812 C 39.902344 41.941406 39.8125 16.890625 39.8125 16.890625 C 39.8125 16.890625 39.992188 13.433594 37.3125 12.488281 C 34.636719 11.546875 32.71875 12.9375 31.960938 13.703125 Z M 31.960938 13.703125 "/>
<path style=" stroke:none;fill-rule:nonzero;fill:rgb(100%,100%,100%);fill-opacity:1;" d="M 29.414062 38.910156 C 29.414062 40.632812 28.027344 42.03125 26.316406 42.03125 C 24.601562 42.03125 23.214844 40.632812 23.214844 38.910156 C 23.214844 37.1875 24.601562 35.789062 26.316406 35.789062 C 28.027344 35.789062 29.414062 37.1875 29.414062 38.910156 Z M 29.414062 38.910156 "/>
<path style=" stroke:none;fill-rule:nonzero;fill:rgb(100%,100%,100%);fill-opacity:1;" d="M 55.519531 12.175781 L 46.640625 12.175781 C 46.640625 12.175781 42 11.636719 42 16.53125 C 42 21.425781 45.390625 21.109375 46.195312 21.109375 L 49.808594 21.109375 C 49.808594 21.109375 50.882812 21.066406 50.882812 22.324219 L 50.882812 43.960938 C 50.882812 43.960938 50.65625 47.910156 55.296875 47.867188 C 59.941406 47.820312 59.761719 44.09375 59.761719 44.09375 L 59.804688 22.414062 C 59.804688 22.414062 59.582031 21.066406 61.144531 21.066406 L 64.355469 21.066406 C 64.355469 21.066406 68.640625 21.019531 68.640625 16.621094 C 68.640625 12.21875 64.179688 12.175781 64.179688 12.175781 Z M 70.78125 16.621094 L 70.78125 43.511719 C 70.78125 43.511719 70.425781 47.910156 75.511719 47.910156 C 80.15625 47.910156 79.75 43.691406 79.75 43.691406 L 79.796875 16.304688 C 79.796875 16.304688 79.839844 12.175781 75.289062 12.175781 C 70.695312 12.175781 70.78125 16.621094 70.78125 16.621094 Z M 70.78125 16.621094 "/>
<path style=" stroke:none;fill-rule:nonzero;fill:rgb(99.607843%,0%,0%);fill-opacity:1;" d="M 78.28125 16.644531 C 78.28125 18.292969 76.953125 19.628906 75.3125 19.628906 C 73.671875 19.628906 72.34375 18.292969 72.34375 16.644531 C 72.34375 14.992188 73.671875 13.65625 75.3125 13.65625 C 76.953125 13.65625 78.28125 14.992188 78.28125 16.644531 Z M 78.28125 16.644531 "/>
</g>
</svg>
