<?xml version="1.0" encoding="UTF-8"?>
<svg xmlns="http://www.w3.org/2000/svg" xmlns:xlink="http://www.w3.org/1999/xlink" width="200px" height="68px" viewBox="0 0 199 68" version="1.1">
<g id="surface1">
<path style=" stroke:none;fill-rule:nonzero;fill:rgb(0%,32.54902%,60.784314%);fill-opacity:1;" d="M 25.25 11.851562 C 24.9375 12.0625 24.328125 12.488281 24.226562 12.464844 C 24.121094 12.460938 23.792969 12.234375 23.21875 11.859375 C 13.25 5.199219 -0.0976562 13.472656 0.0625 22.304688 L 0.0625 43.003906 L 13.039062 43.003906 L 13.039062 23.578125 C 13.207031 21.894531 16.910156 21.378906 17.328125 23.578125 L 17.328125 43.003906 L 30.898438 43.003906 L 30.898438 23.488281 C 31.0625 21.628906 35.1875 21.628906 35.1875 23.578125 L 35.1875 43.003906 L 48.164062 43.003906 L 48.164062 21.894531 C 48.324219 13.515625 35.550781 4.914062 25.25 11.851562 Z M 25.25 11.851562 "/>
<path style=" stroke:none;fill-rule:nonzero;fill:rgb(0%,32.54902%,60.784314%);fill-opacity:1;" d="M 69.898438 9.726562 C 43.785156 9.800781 46.648438 46.144531 71.078125 43.003906 L 71.078125 30.339844 C 64.746094 32.617188 63.917969 27.382812 64.503906 25.4375 C 65.683594 22.304688 70.738281 20.113281 72.839844 25.949219 L 72.839844 43.003906 L 85.648438 43.003906 L 85.648438 24.589844 C 85.726562 22.304688 82.1875 10.398438 69.898438 9.726562 Z M 69.898438 9.726562 "/>
<path style=" stroke:none;fill-rule:nonzero;fill:rgb(0%,32.54902%,60.784314%);fill-opacity:1;" d="M 101.730469 29.148438 L 101.730469 22.394531 L 106.195312 22.394531 L 106.195312 9.886719 L 101.898438 9.886719 L 101.898438 0 L 88.5 0 L 88.5 28.226562 C 88.5 36.585938 95.414062 44.699219 106.28125 43.265625 L 106.28125 31.347656 C 105.097656 31.347656 102.316406 31.863281 101.730469 29.148438 Z M 101.730469 29.148438 "/>
<path style=" stroke:none;fill-rule:nonzero;fill:rgb(0%,32.54902%,60.784314%);fill-opacity:1;" d="M 110.742188 24.417969 L 110.742188 43.097656 L 123.710938 43.097656 L 123.628906 25.6875 C 123.878906 24 124.636719 23.074219 127.671875 23.488281 L 127.671875 10.730469 C 119.507812 9.886719 111.5 15.296875 110.742188 24.417969 Z M 110.742188 24.417969 "/>
<path style=" stroke:none;fill-rule:nonzero;fill:rgb(0%,32.54902%,60.784314%);fill-opacity:1;" d="M 198.515625 10.90625 L 185.199219 10.90625 L 185.199219 17.078125 C 184.949219 20.953125 180.570312 19.859375 180.648438 17.15625 L 180.648438 10.816406 L 167.507812 10.816406 C 167.347656 17.078125 167.847656 21.128906 171.96875 25.6875 C 172.058594 26.195312 166.496094 28.644531 167.507812 43.175781 L 180.648438 43.175781 L 180.648438 34.140625 C 181.738281 31.347656 184.859375 31.78125 185.199219 34.398438 L 185.199219 43.175781 L 198.257812 43.175781 C 198.761719 31.011719 196.910156 29.832031 193.792969 25.6875 C 199.261719 21.464844 198.515625 13.015625 198.515625 10.90625 Z M 198.515625 10.90625 "/>
<path style=" stroke:none;fill-rule:nonzero;fill:rgb(0%,32.54902%,60.784314%);fill-opacity:1;" d="M 147.804688 9.636719 C 138.449219 9.636719 130.871094 17.234375 130.871094 26.699219 C 130.871094 35.996094 138.449219 43.6875 147.804688 43.6875 C 157.070312 43.6875 164.738281 35.996094 164.738281 26.699219 C 164.738281 17.234375 157.070312 9.636719 147.804688 9.636719 Z M 147.804688 31.105469 C 145.363281 31.105469 143.421875 29.148438 143.421875 26.699219 C 143.421875 24.25 145.363281 22.222656 147.804688 22.222656 C 150.164062 22.222656 152.175781 24.25 152.175781 26.699219 C 152.175781 29.148438 150.164062 31.105469 147.804688 31.105469 Z M 147.804688 31.105469 "/>
<path style=" stroke:none;fill-rule:nonzero;fill:rgb(0%,32.54902%,60.784314%);fill-opacity:1;" d="M 9.6875 55.296875 C 8.785156 54.882812 7.613281 54.683594 6.675781 54.683594 C 3.949219 54.683594 2.441406 56.503906 2.441406 58.871094 C 2.441406 61.222656 3.914062 62.992188 6.40625 62.992188 C 7.042969 62.992188 7.546875 62.925781 7.945312 62.828125 L 7.945312 59.8125 L 5.46875 59.8125 L 5.46875 57.996094 L 10.1875 57.996094 L 10.1875 64.214844 C 8.949219 64.546875 7.660156 64.8125 6.40625 64.8125 C 2.625 64.8125 0 62.941406 0 59.039062 C 0 55.082031 2.441406 52.863281 6.40625 52.863281 C 7.761719 52.863281 8.832031 53.046875 9.835938 53.34375 Z M 9.6875 55.296875 "/>
<path style=" stroke:none;fill-rule:nonzero;fill:rgb(0%,32.54902%,60.784314%);fill-opacity:1;" d="M 12.378906 56.089844 L 14.371094 56.089844 L 14.371094 58.027344 L 14.402344 58.027344 C 14.503906 57.234375 15.425781 55.894531 16.761719 55.894531 C 16.980469 55.894531 17.214844 55.894531 17.449219 55.957031 L 17.449219 58.191406 C 17.25 58.078125 16.847656 58.011719 16.445312 58.011719 C 14.621094 58.011719 14.621094 60.261719 14.621094 61.484375 L 14.621094 64.613281 L 12.378906 64.613281 Z M 12.378906 56.089844 "/>
<path style=" stroke:none;fill-rule:nonzero;fill:rgb(0%,32.54902%,60.784314%);fill-opacity:1;" d="M 19.105469 56.539062 C 19.976562 56.140625 21.144531 55.894531 22.101562 55.894531 C 24.726562 55.894531 25.8125 56.96875 25.8125 59.484375 L 25.8125 60.574219 C 25.8125 61.433594 25.832031 62.082031 25.847656 62.710938 C 25.863281 63.355469 25.898438 63.953125 25.949219 64.613281 L 23.972656 64.613281 C 23.890625 64.167969 23.890625 63.605469 23.875 63.339844 L 23.839844 63.339844 C 23.320312 64.28125 22.199219 64.8125 21.179688 64.8125 C 19.65625 64.8125 18.167969 63.902344 18.167969 62.28125 C 18.167969 61.007812 18.789062 60.261719 19.640625 59.847656 C 20.492188 59.433594 21.597656 59.351562 22.535156 59.351562 L 23.773438 59.351562 C 23.773438 57.976562 23.152344 57.515625 21.832031 57.515625 C 20.878906 57.515625 19.925781 57.878906 19.171875 58.441406 Z M 21.730469 63.191406 C 22.417969 63.191406 22.953125 62.894531 23.304688 62.429688 C 23.671875 61.949219 23.773438 61.335938 23.773438 60.675781 L 22.804688 60.675781 C 21.796875 60.675781 20.308594 60.839844 20.308594 62.148438 C 20.308594 62.875 20.929688 63.191406 21.730469 63.191406 Z M 21.730469 63.191406 "/>
<path style=" stroke:none;fill-rule:nonzero;fill:rgb(0%,32.54902%,60.784314%);fill-opacity:1;" d="M 27.90625 56.089844 L 30.046875 56.089844 L 30.046875 57.300781 L 30.078125 57.300781 C 30.582031 56.472656 31.433594 55.894531 32.757812 55.894531 C 35.398438 55.894531 36.371094 57.976562 36.371094 60.328125 C 36.371094 62.664062 35.398438 64.8125 32.707031 64.8125 C 31.753906 64.8125 30.96875 64.582031 30.179688 63.636719 L 30.148438 63.636719 L 30.148438 68.089844 L 27.90625 68.089844 Z M 30.164062 60.328125 C 30.164062 61.535156 30.648438 63.089844 32.136719 63.089844 C 33.609375 63.089844 34.027344 61.503906 34.027344 60.328125 C 34.027344 59.1875 33.625 57.613281 32.171875 57.613281 C 30.734375 57.613281 30.164062 59.136719 30.164062 60.328125 Z M 30.164062 60.328125 "/>
<path style=" stroke:none;fill-rule:nonzero;fill:rgb(0%,32.54902%,60.784314%);fill-opacity:1;" d="M 38.011719 52.203125 L 40.25 52.203125 L 40.25 57.25 L 40.285156 57.25 C 40.855469 56.421875 41.824219 55.894531 42.996094 55.894531 C 45.035156 55.894531 45.921875 57.316406 45.921875 59.234375 L 45.921875 64.613281 L 43.679688 64.613281 L 43.679688 60.0625 C 43.679688 59.019531 43.664062 57.613281 42.226562 57.613281 C 40.601562 57.613281 40.25 59.351562 40.25 60.445312 L 40.25 64.613281 L 38.011719 64.613281 Z M 38.011719 52.203125 "/>
<path style=" stroke:none;fill-rule:nonzero;fill:rgb(0%,32.54902%,60.784314%);fill-opacity:1;" d="M 48.164062 52.417969 L 50.40625 52.417969 L 50.40625 54.535156 L 48.164062 54.535156 Z M 48.164062 56.089844 L 50.40625 56.089844 L 50.40625 64.613281 L 48.164062 64.613281 Z M 48.164062 56.089844 "/>
<path style=" stroke:none;fill-rule:nonzero;fill:rgb(0%,32.54902%,60.784314%);fill-opacity:1;" d="M 58.238281 57.929688 C 57.835938 57.746094 57.398438 57.613281 56.714844 57.613281 C 55.324219 57.613281 54.4375 58.703125 54.4375 60.3125 C 54.4375 61.882812 55.191406 63.089844 56.765625 63.089844 C 57.398438 63.089844 58.101562 62.859375 58.488281 62.695312 L 58.585938 64.53125 C 57.933594 64.730469 57.265625 64.8125 56.347656 64.8125 C 53.519531 64.8125 52.097656 62.910156 52.097656 60.3125 C 52.097656 57.847656 53.566406 55.894531 56.261719 55.894531 C 57.164062 55.894531 57.816406 55.992188 58.4375 56.171875 Z M 58.238281 57.929688 "/>
<path style=" stroke:none;fill-rule:nonzero;fill:rgb(0%,32.54902%,60.784314%);fill-opacity:1;" d="M 65.078125 57.878906 C 64.390625 57.648438 63.890625 57.515625 63.070312 57.515625 C 62.46875 57.515625 61.75 57.730469 61.75 58.457031 C 61.75 59.8125 65.648438 58.953125 65.648438 62.03125 C 65.648438 64.015625 63.859375 64.8125 62.035156 64.8125 C 61.179688 64.8125 60.308594 64.664062 59.492188 64.449219 L 59.625 62.628906 C 60.328125 62.976562 61.0625 63.191406 61.832031 63.191406 C 62.402344 63.191406 63.304688 62.976562 63.304688 62.148438 C 63.304688 60.476562 59.40625 61.617188 59.40625 58.539062 C 59.40625 56.703125 61.03125 55.894531 62.785156 55.894531 C 63.839844 55.894531 64.527344 56.058594 65.230469 56.207031 Z M 65.078125 57.878906 "/>
<path style=" stroke:none;fill-rule:nonzero;fill:rgb(0%,32.54902%,60.784314%);fill-opacity:1;" d="M 72.625 57.710938 L 70.96875 57.710938 L 70.96875 56.089844 L 72.625 56.089844 L 72.625 54.898438 C 72.625 53.195312 73.59375 52.003906 75.367188 52.003906 C 75.9375 52.003906 76.570312 52.085938 77.007812 52.1875 L 76.820312 54.023438 C 76.621094 53.90625 76.335938 53.722656 75.851562 53.722656 C 75.097656 53.722656 74.867188 54.371094 74.867188 55.03125 L 74.867188 56.089844 L 76.820312 56.089844 L 76.820312 57.710938 L 74.867188 57.710938 L 74.867188 64.613281 L 72.625 64.613281 Z M 72.625 57.710938 "/>
<path style=" stroke:none;fill-rule:nonzero;fill:rgb(0%,32.54902%,60.784314%);fill-opacity:1;" d="M 82.144531 55.894531 C 84.703125 55.894531 86.660156 57.597656 86.660156 60.410156 C 86.660156 62.859375 85.003906 64.8125 82.144531 64.8125 C 79.296875 64.8125 77.640625 62.859375 77.640625 60.410156 C 77.640625 57.597656 79.597656 55.894531 82.144531 55.894531 Z M 82.144531 63.089844 C 83.867188 63.089844 84.316406 61.570312 84.316406 60.144531 C 84.316406 58.839844 83.613281 57.613281 82.144531 57.613281 C 80.6875 57.613281 79.984375 58.871094 79.984375 60.144531 C 79.984375 61.554688 80.4375 63.089844 82.144531 63.089844 Z M 82.144531 63.089844 "/>
<path style=" stroke:none;fill-rule:nonzero;fill:rgb(0%,32.54902%,60.784314%);fill-opacity:1;" d="M 88.347656 56.089844 L 90.339844 56.089844 L 90.339844 58.027344 L 90.375 58.027344 C 90.472656 57.234375 91.394531 55.894531 92.734375 55.894531 C 92.949219 55.894531 93.183594 55.894531 93.417969 55.957031 L 93.417969 58.191406 C 93.21875 58.078125 92.816406 58.011719 92.414062 58.011719 C 90.589844 58.011719 90.589844 60.261719 90.589844 61.484375 L 90.589844 64.613281 L 88.347656 64.613281 Z M 88.347656 56.089844 "/>
<path style=" stroke:none;fill-rule:nonzero;fill:rgb(0%,32.54902%,60.784314%);fill-opacity:1;" d="M 99.222656 53.0625 L 102.183594 53.0625 C 104.726562 53.0625 107.054688 53.789062 107.054688 56.554688 C 107.054688 59.25 105.0625 60.226562 102.554688 60.226562 L 101.566406 60.226562 L 101.566406 64.613281 L 99.222656 64.613281 Z M 101.566406 58.410156 L 102.386719 58.410156 C 103.554688 58.410156 104.613281 58.027344 104.613281 56.6875 C 104.613281 55.347656 103.589844 54.882812 102.386719 54.882812 L 101.566406 54.882812 Z M 101.566406 58.410156 "/>
<path style=" stroke:none;fill-rule:nonzero;fill:rgb(0%,32.54902%,60.784314%);fill-opacity:1;" d="M 108.457031 56.089844 L 110.449219 56.089844 L 110.449219 58.027344 L 110.484375 58.027344 C 110.582031 57.234375 111.503906 55.894531 112.839844 55.894531 C 113.058594 55.894531 113.292969 55.894531 113.527344 55.957031 L 113.527344 58.191406 C 113.328125 58.078125 112.925781 58.011719 112.523438 58.011719 C 110.699219 58.011719 110.699219 60.261719 110.699219 61.484375 L 110.699219 64.613281 L 108.457031 64.613281 Z M 108.457031 56.089844 "/>
<path style=" stroke:none;fill-rule:nonzero;fill:rgb(0%,32.54902%,60.784314%);fill-opacity:1;" d="M 118.445312 55.894531 C 121.007812 55.894531 122.964844 57.597656 122.964844 60.410156 C 122.964844 62.859375 121.304688 64.8125 118.445312 64.8125 C 115.601562 64.8125 113.945312 62.859375 113.945312 60.410156 C 113.945312 57.597656 115.902344 55.894531 118.445312 55.894531 Z M 118.445312 63.089844 C 120.171875 63.089844 120.621094 61.570312 120.621094 60.144531 C 120.621094 58.839844 119.917969 57.613281 118.445312 57.613281 C 116.988281 57.613281 116.285156 58.871094 116.285156 60.144531 C 116.285156 61.554688 116.738281 63.089844 118.445312 63.089844 Z M 118.445312 63.089844 "/>
<path style=" stroke:none;fill-rule:nonzero;fill:rgb(0%,32.54902%,60.784314%);fill-opacity:1;" d="M 125.421875 57.710938 L 123.765625 57.710938 L 123.765625 56.089844 L 125.421875 56.089844 L 125.421875 54.898438 C 125.421875 53.195312 126.390625 52.003906 128.167969 52.003906 C 128.734375 52.003906 129.371094 52.085938 129.804688 52.1875 L 129.621094 54.023438 C 129.421875 53.90625 129.136719 53.722656 128.652344 53.722656 C 127.898438 53.722656 127.664062 54.371094 127.664062 55.03125 L 127.664062 56.089844 L 129.621094 56.089844 L 129.621094 57.710938 L 127.664062 57.710938 L 127.664062 64.613281 L 125.421875 64.613281 Z M 125.421875 57.710938 "/>
<path style=" stroke:none;fill-rule:nonzero;fill:rgb(0%,32.54902%,60.784314%);fill-opacity:1;" d="M 137.902344 64.132812 C 137.082031 64.582031 136.144531 64.8125 134.941406 64.8125 C 132.097656 64.8125 130.441406 63.191406 130.441406 60.394531 C 130.441406 57.929688 131.761719 55.894531 134.441406 55.894531 C 137.636719 55.894531 138.539062 58.0625 138.539062 61.039062 L 132.582031 61.039062 C 132.683594 62.414062 133.652344 63.191406 135.042969 63.191406 C 136.128906 63.191406 137.066406 62.792969 137.902344 62.332031 Z M 136.394531 59.515625 C 136.328125 58.441406 135.828125 57.515625 134.574219 57.515625 C 133.320312 57.515625 132.683594 58.375 132.582031 59.515625 Z M 136.394531 59.515625 "/>
<path style=" stroke:none;fill-rule:nonzero;fill:rgb(0%,32.54902%,60.784314%);fill-opacity:1;" d="M 145.296875 57.878906 C 144.613281 57.648438 144.109375 57.515625 143.289062 57.515625 C 142.6875 57.515625 141.96875 57.730469 141.96875 58.457031 C 141.96875 59.8125 145.867188 58.953125 145.867188 62.03125 C 145.867188 64.015625 144.078125 64.8125 142.253906 64.8125 C 141.398438 64.8125 140.53125 64.664062 139.710938 64.449219 L 139.84375 62.628906 C 140.546875 62.976562 141.28125 63.191406 142.050781 63.191406 C 142.621094 63.191406 143.523438 62.976562 143.523438 62.148438 C 143.523438 60.476562 139.625 61.617188 139.625 58.539062 C 139.625 56.703125 141.246094 55.894531 143.003906 55.894531 C 144.058594 55.894531 144.746094 56.058594 145.449219 56.207031 Z M 145.296875 57.878906 "/>
<path style=" stroke:none;fill-rule:nonzero;fill:rgb(0%,32.54902%,60.784314%);fill-opacity:1;" d="M 152.609375 57.878906 C 151.921875 57.648438 151.417969 57.515625 150.601562 57.515625 C 149.996094 57.515625 149.28125 57.730469 149.28125 58.457031 C 149.28125 59.8125 153.175781 58.953125 153.175781 62.03125 C 153.175781 64.015625 151.386719 64.8125 149.5625 64.8125 C 148.710938 64.8125 147.839844 64.664062 147.019531 64.449219 L 147.152344 62.628906 C 147.855469 62.976562 148.59375 63.191406 149.363281 63.191406 C 149.929688 63.191406 150.835938 62.976562 150.835938 62.148438 C 150.835938 60.476562 146.9375 61.617188 146.9375 58.539062 C 146.9375 56.703125 148.558594 55.894531 150.316406 55.894531 C 151.367188 55.894531 152.054688 56.058594 152.757812 56.207031 Z M 152.609375 57.878906 "/>
<path style=" stroke:none;fill-rule:nonzero;fill:rgb(0%,32.54902%,60.784314%);fill-opacity:1;" d="M 154.847656 52.417969 L 157.089844 52.417969 L 157.089844 54.535156 L 154.847656 54.535156 Z M 154.847656 56.089844 L 157.089844 56.089844 L 157.089844 64.613281 L 154.847656 64.613281 Z M 154.847656 56.089844 "/>
<path style=" stroke:none;fill-rule:nonzero;fill:rgb(0%,32.54902%,60.784314%);fill-opacity:1;" d="M 163.28125 55.894531 C 165.839844 55.894531 167.800781 57.597656 167.800781 60.410156 C 167.800781 62.859375 166.140625 64.8125 163.28125 64.8125 C 160.4375 64.8125 158.78125 62.859375 158.78125 60.410156 C 158.78125 57.597656 160.738281 55.894531 163.28125 55.894531 Z M 163.28125 63.089844 C 165.003906 63.089844 165.457031 61.570312 165.457031 60.144531 C 165.457031 58.839844 164.753906 57.613281 163.28125 57.613281 C 161.824219 57.613281 161.121094 58.871094 161.121094 60.144531 C 161.121094 61.554688 161.574219 63.089844 163.28125 63.089844 Z M 163.28125 63.089844 "/>
<path style=" stroke:none;fill-rule:nonzero;fill:rgb(0%,32.54902%,60.784314%);fill-opacity:1;" d="M 169.4375 56.089844 L 171.5625 56.089844 L 171.5625 57.25 L 171.597656 57.25 C 172.296875 56.273438 173.253906 55.894531 174.425781 55.894531 C 176.464844 55.894531 177.351562 57.316406 177.351562 59.234375 L 177.351562 64.613281 L 175.109375 64.613281 L 175.109375 60.0625 C 175.109375 59.019531 175.09375 57.613281 173.65625 57.613281 C 172.03125 57.613281 171.679688 59.351562 171.679688 60.445312 L 171.679688 64.613281 L 169.4375 64.613281 Z M 169.4375 56.089844 "/>
<path style=" stroke:none;fill-rule:nonzero;fill:rgb(0%,32.54902%,60.784314%);fill-opacity:1;" d="M 179.925781 56.539062 C 180.796875 56.140625 181.96875 55.894531 182.921875 55.894531 C 185.550781 55.894531 186.636719 56.96875 186.636719 59.484375 L 186.636719 60.574219 C 186.636719 61.433594 186.652344 62.082031 186.667969 62.710938 C 186.6875 63.355469 186.71875 63.953125 186.769531 64.613281 L 184.796875 64.613281 C 184.710938 64.167969 184.710938 63.605469 184.695312 63.339844 L 184.660156 63.339844 C 184.144531 64.28125 183.023438 64.8125 182 64.8125 C 180.480469 64.8125 178.992188 63.902344 178.992188 62.28125 C 178.992188 61.007812 179.609375 60.261719 180.464844 59.847656 C 181.316406 59.433594 182.421875 59.351562 183.355469 59.351562 L 184.59375 59.351562 C 184.59375 57.976562 183.976562 57.515625 182.65625 57.515625 C 181.699219 57.515625 180.746094 57.878906 179.996094 58.441406 Z M 182.554688 63.191406 C 183.238281 63.191406 183.777344 62.894531 184.128906 62.429688 C 184.496094 61.949219 184.59375 61.335938 184.59375 60.675781 L 183.625 60.675781 C 182.621094 60.675781 181.132812 60.839844 181.132812 62.148438 C 181.132812 62.875 181.75 63.191406 182.554688 63.191406 Z M 182.554688 63.191406 "/>
<path style=" stroke:none;fill-rule:nonzero;fill:rgb(0%,32.54902%,60.784314%);fill-opacity:1;" d="M 188.777344 52.203125 L 191.019531 52.203125 L 191.019531 64.613281 L 188.777344 64.613281 Z M 188.777344 52.203125 "/>
<path style=" stroke:none;fill-rule:nonzero;fill:rgb(0%,32.54902%,60.784314%);fill-opacity:1;" d="M 198.378906 57.878906 C 197.695312 57.648438 197.191406 57.515625 196.371094 57.515625 C 195.769531 57.515625 195.050781 57.730469 195.050781 58.457031 C 195.050781 59.8125 198.949219 58.953125 198.949219 62.03125 C 198.949219 64.015625 197.160156 64.8125 195.335938 64.8125 C 194.480469 64.8125 193.613281 64.664062 192.792969 64.449219 L 192.925781 62.628906 C 193.628906 62.976562 194.367188 63.191406 195.136719 63.191406 C 195.703125 63.191406 196.605469 62.976562 196.605469 62.148438 C 196.605469 60.476562 192.710938 61.617188 192.710938 58.539062 C 192.710938 56.703125 194.332031 55.894531 196.085938 55.894531 C 197.140625 55.894531 197.828125 56.058594 198.53125 56.207031 Z M 198.378906 57.878906 "/>
</g>
</svg>
