<?xml version="1.0" encoding="UTF-8"?>
<svg xmlns="http://www.w3.org/2000/svg" xmlns:xlink="http://www.w3.org/1999/xlink" width="200px" height="37px" viewBox="0 0 197 37" version="1.1">
<g id="surface1">
<path style=" stroke:none;fill-rule:nonzero;fill:rgb(0%,0%,0%);fill-opacity:1;" d="M 120.429688 6.878906 L 120.429688 31.507812 L 127.363281 31.507812 L 127.363281 6.878906 Z M 65.859375 6.835938 L 65.859375 31.488281 L 72.855469 31.488281 L 72.855469 12.347656 L 78.3125 12.367188 C 80.105469 12.367188 81.355469 12.804688 82.207031 13.722656 C 83.3125 14.890625 83.75 16.792969 83.75 20.234375 L 83.75 31.488281 L 90.539062 31.488281 L 90.539062 17.878906 C 90.539062 8.152344 84.355469 6.835938 78.3125 6.835938 Z M 131.613281 6.878906 L 131.613281 31.507812 L 142.859375 31.507812 C 148.859375 31.507812 150.816406 30.503906 152.921875 28.273438 C 154.421875 26.707031 155.378906 23.242188 155.378906 19.464844 C 155.378906 16 154.566406 12.910156 153.128906 10.988281 C 150.585938 7.546875 146.878906 6.878906 141.339844 6.878906 Z M 138.488281 12.222656 L 141.464844 12.222656 C 145.796875 12.222656 148.589844 14.160156 148.589844 19.214844 C 148.589844 24.265625 145.796875 26.226562 141.464844 26.226562 L 138.488281 26.226562 Z M 110.429688 6.878906 L 104.640625 26.394531 L 99.101562 6.878906 L 91.601562 6.878906 L 99.515625 31.507812 L 109.515625 31.507812 L 117.511719 6.878906 Z M 158.628906 31.507812 L 165.5625 31.507812 L 165.5625 6.878906 L 158.628906 6.878906 Z M 178.082031 6.878906 L 168.394531 31.488281 L 175.226562 31.488281 L 176.769531 27.125 L 188.222656 27.125 L 189.683594 31.464844 L 197.117188 31.464844 L 187.347656 6.878906 Z M 182.578125 11.363281 L 186.785156 22.886719 L 178.246094 22.886719 Z M 182.578125 11.363281 "/>
<path style=" stroke:none;fill-rule:nonzero;fill:rgb(46.27451%,72.54902%,0%);fill-opacity:1;" d="M 21.097656 10.96875 L 21.097656 7.585938 C 21.433594 7.566406 21.765625 7.546875 22.097656 7.546875 C 31.347656 7.253906 37.40625 15.519531 37.40625 15.519531 C 37.40625 15.519531 30.867188 24.621094 23.847656 24.621094 C 22.910156 24.621094 21.996094 24.472656 21.121094 24.179688 L 21.121094 13.910156 C 24.722656 14.351562 25.453125 15.9375 27.597656 19.546875 L 32.410156 15.496094 C 32.410156 15.496094 28.886719 10.886719 22.972656 10.886719 C 22.347656 10.863281 21.722656 10.90625 21.097656 10.96875 M 21.097656 -0.21875 L 21.097656 4.832031 L 22.097656 4.769531 C 34.949219 4.332031 43.34375 15.332031 43.34375 15.332031 C 43.34375 15.332031 33.722656 27.0625 23.703125 27.0625 C 22.828125 27.0625 21.972656 26.976562 21.121094 26.832031 L 21.121094 29.960938 C 21.828125 30.046875 22.558594 30.109375 23.265625 30.109375 C 32.597656 30.109375 39.34375 25.328125 45.882812 19.691406 C 46.96875 20.570312 51.402344 22.679688 52.320312 23.597656 C 46.113281 28.816406 31.636719 33.011719 23.433594 33.011719 C 22.640625 33.011719 21.890625 32.96875 21.140625 32.886719 L 21.140625 37.289062 L 56.589844 37.289062 L 56.589844 -0.21875 Z M 21.097656 24.179688 L 21.097656 26.851562 C 12.476562 25.308594 10.082031 16.3125 10.082031 16.3125 C 10.082031 16.3125 14.226562 11.71875 21.097656 10.96875 L 21.097656 13.890625 L 21.078125 13.890625 C 17.476562 13.453125 14.640625 16.832031 14.640625 16.832031 C 14.640625 16.832031 16.246094 22.53125 21.097656 24.179688 M 5.789062 15.9375 C 5.789062 15.9375 10.894531 8.378906 21.121094 7.585938 L 21.121094 4.832031 C 9.789062 5.75 0 15.351562 0 15.351562 C 0 15.351562 5.539062 31.425781 21.097656 32.886719 L 21.097656 29.960938 C 9.683594 28.542969 5.789062 15.9375 5.789062 15.9375 Z M 5.789062 15.9375 "/>
</g>
</svg>
