<?xml version="1.0" encoding="UTF-8"?>
<svg version="1.1" xmlns="http://www.w3.org/2000/svg" width="64" height="64">
<path d="M0 0 C1.98 0 3.96 0 6 0 C6 2.97 6 5.94 6 9 C7.32 9 8.64 9 10 9 C10 6.03 10 3.06 10 0 C11.98 0 13.96 0 16 0 C16 2.97 16 5.94 16 9 C17.32 9 18.64 9 20 9 C20 6.03 20 3.06 20 0 C21.98 0 23.96 0 26 0 C26 2.97 26 5.94 26 9 C27.32 9 28.64 9 30 9 C30 6.03 30 3.06 30 0 C31.98 0 33.96 0 36 0 C36 2.97 36 5.94 36 9 C38.475 9.495 38.475 9.495 41 10 C41 11.32 41 12.64 41 14 C43.97 14 46.94 14 50 14 C50 15.98 50 17.96 50 20 C47.03 20 44.06 20 41 20 C41 21.32 41 22.64 41 24 C43.97 24 46.94 24 50 24 C50 25.98 50 27.96 50 30 C47.03 30 44.06 30 41 30 C41 31.32 41 32.64 41 34 C43.97 34 46.94 34 50 34 C50 35.98 50 37.96 50 40 C47.03 40 44.06 40 41 40 C41 41.32 41 42.64 41 44 C43.97 44 46.94 44 50 44 C50 45.98 50 47.96 50 50 C47.03 50 44.06 50 41 50 C40.67 51.65 40.34 53.3 40 55 C38.68 55 37.36 55 36 55 C36 57.97 36 60.94 36 64 C34.02 64 32.04 64 30 64 C30 61.03 30 58.06 30 55 C28.68 55 27.36 55 26 55 C26 57.97 26 60.94 26 64 C24.02 64 22.04 64 20 64 C20 61.03 20 58.06 20 55 C18.68 55 17.36 55 16 55 C16 57.97 16 60.94 16 64 C14.02 64 12.04 64 10 64 C10 61.03 10 58.06 10 55 C8.68 55 7.36 55 6 55 C6 57.97 6 60.94 6 64 C4.02 64 2.04 64 0 64 C0 61.03 0 58.06 0 55 C-1.65 54.67 -3.3 54.34 -5 54 C-5 52.68 -5 51.36 -5 50 C-7.97 50 -10.94 50 -14 50 C-14 48.02 -14 46.04 -14 44 C-11.03 44 -8.06 44 -5 44 C-5 42.68 -5 41.36 -5 40 C-7.97 40 -10.94 40 -14 40 C-14 38.02 -14 36.04 -14 34 C-11.03 34 -8.06 34 -5 34 C-5 32.68 -5 31.36 -5 30 C-7.97 30 -10.94 30 -14 30 C-14 28.02 -14 26.04 -14 24 C-11.03 24 -8.06 24 -5 24 C-5 22.68 -5 21.36 -5 20 C-7.97 20 -10.94 20 -14 20 C-14 18.02 -14 16.04 -14 14 C-11.03 14 -8.06 14 -5 14 C-4.67 12.35 -4.34 10.7 -4 9 C-2.68 9 -1.36 9 0 9 C0 6.03 0 3.06 0 0 Z M11 25 C11 29.62 11 34.24 11 39 C15.62 39 20.24 39 25 39 C25 34.38 25 29.76 25 25 C20.38 25 15.76 25 11 25 Z " fill="#00D0FF" transform="translate(14,0)"/>
</svg>
