<?xml version="1.0" encoding="UTF-8"?>
<svg version="1.1" xmlns="http://www.w3.org/2000/svg" width="64" height="26">
<path d="M0 0 C1.16730148 0.00296082 1.16730148 0.00296082 2.35818481 0.00598145 C3.16393951 0.00457153 3.96969421 0.00316162 4.79986572 0.00170898 C7.43002649 -0.00043492 10.06006744 0.00587495 12.69021606 0.01379395 C13.57631561 0.01534485 14.46241516 0.01689575 15.37536621 0.01849365 C25.85834048 0.040181 36.33937924 0.09202169 46.81521606 0.51379395 C48.13525635 0.5599585 48.13525635 0.5599585 49.48196411 0.60705566 C55.25598313 0.89206101 55.25598313 0.89206101 57.50271606 3.13879395 C57.95299285 6.61933344 57.82679578 10.13245586 57.81521606 13.63879395 C57.83132935 14.61461426 57.84744263 15.59043457 57.86404419 16.5958252 C57.86468872 17.52781738 57.86533325 18.45980957 57.86599731 19.42004395 C57.86897827 20.27662598 57.87195923 21.13320801 57.87503052 22.01574707 C57.69073486 23.06665527 57.69073486 23.06665527 57.50271606 24.13879395 C54.09470449 26.41080166 52.88648176 26.39130868 48.88552856 26.39758301 C47.73423462 26.40388733 46.58294067 26.41019165 45.39675903 26.41668701 C44.15297485 26.41263855 42.90919067 26.40859009 41.62771606 26.40441895 C39.71369995 26.40728912 39.71369995 26.40728912 37.76101685 26.41021729 C35.06084678 26.41157942 32.36103776 26.40888285 29.66091919 26.39953613 C26.20065776 26.38814165 22.74070659 26.39470308 19.28045654 26.40668106 C15.97953192 26.41564735 12.67864473 26.40936888 9.37771606 26.40441895 C7.51203979 26.41049164 7.51203979 26.41049164 5.6086731 26.41668701 C4.45737915 26.41038269 3.30608521 26.40407837 2.11990356 26.39758301 C1.10525024 26.39599182 0.09059692 26.39440063 -0.95480347 26.39276123 C-3.49728394 26.13879395 -3.49728394 26.13879395 -6.49728394 24.13879395 C-6.85372925 21.81628418 -6.85372925 21.81628418 -6.82540894 18.9473877 C-6.82025269 17.92064941 -6.81509644 16.89391113 -6.80978394 15.83605957 C-6.78915894 14.76033691 -6.76853394 13.68461426 -6.74728394 12.57629395 C-6.74212769 11.4967041 -6.73697144 10.41711426 -6.73165894 9.30480957 C-6.63837596 0.02898402 -6.63837596 0.02898402 0 0 Z M3.50271606 7.13879395 C1.15721932 10.65703906 0.92280204 11.99655089 1.50271606 16.13879395 C4.11061434 19.77404609 5.57295187 20.97276462 10.00271606 21.76379395 C14.43248026 20.97276462 15.89481779 19.77404609 18.50271606 16.13879395 C19.22141379 12.30573941 18.82803031 10.70183783 16.87771606 7.32629395 C12.2614987 3.07451479 8.32521022 3.38796516 3.50271606 7.13879395 Z M33.50271606 8.13879395 C32.05840752 11.02741104 32.12583101 12.93527096 32.50271606 16.13879395 C35.11061434 19.77404609 36.57295187 20.97276462 41.00271606 21.76379395 C45.43248026 20.97276462 46.89481779 19.77404609 49.50271606 16.13879395 C50.21507293 12.33955734 49.81535595 10.70154573 47.94021606 7.32629395 C42.74354355 2.66261348 38.19587288 3.3076031 33.50271606 8.13879395 Z " fill="#00D0FF" transform="translate(6.497283935546875,-0.1387939453125)"/>
<path d="M0 0 C0.99 0.66 1.98 1.32 3 2 C3.1875 4.625 3.1875 4.625 3 7 C4.65 7 6.3 7 8 7 C7.67 7.99 7.34 8.98 7 10 C5.02 10.33 3.04 10.66 1 11 C1 12.32 1 13.64 1 15 C0.01 15 -0.98 15 -2 15 C-2.33 13.02 -2.66 11.04 -3 9 C-4.32 8.67 -5.64 8.34 -7 8 C-6.67 7.01 -6.34 6.02 -6 5 C-4.02 5 -2.04 5 0 5 C0 3.35 0 1.7 0 0 Z " fill="#00D0FF" transform="translate(47,5)"/>
<path d="M0 0 C0.99 0.33 1.98 0.66 3 1 C3 2.98 3 4.96 3 7 C4.65 7 6.3 7 8 7 C7.67 7.99 7.34 8.98 7 10 C5.02 10.33 3.04 10.66 1 11 C1 12.32 1 13.64 1 15 C0.01 14.67 -0.98 14.34 -2 14 C-2 12.02 -2 10.04 -2 8 C-3.65 8 -5.3 8 -7 8 C-7 7.34 -7 6.68 -7 6 C-3.535 5.505 -3.535 5.505 0 5 C0 3.35 0 1.7 0 0 Z " fill="#00D0FF" transform="translate(16,5)"/>
</svg>
