<?xml version="1.0" encoding="UTF-8"?>
<svg version="1.1" xmlns="http://www.w3.org/2000/svg" width="64" height="64">
<path d="M0 0 C19.47 0 38.94 0 59 0 C59 21.12 59 42.24 59 64 C37.88 64 16.76 64 -5 64 C-5 54.1 -5 44.2 -5 34 C-4.01 33.01 -3.02 32.02 -2 31 C-1.34 31 -0.68 31 0 31 C0 20.77 0 10.54 0 0 Z M33 7 C32.9016279 8.33043625 32.86921408 9.66593344 32.8671875 11 C32.86589844 11.804375 32.86460938 12.60875 32.86328125 13.4375 C32.86714844 14.283125 32.87101562 15.12875 32.875 16 C32.87113281 16.845625 32.86726563 17.69125 32.86328125 18.5625 C32.86457031 19.366875 32.86585937 20.17125 32.8671875 21 C32.86831543 21.7425 32.86944336 22.485 32.87060547 23.25 C32.81057784 25.02825811 32.81057784 25.02825811 34 26 C35.33043625 26.0983721 36.66593344 26.13078592 38 26.1328125 C38.804375 26.13410156 39.60875 26.13539062 40.4375 26.13671875 C41.7059375 26.13091797 41.7059375 26.13091797 43 26.125 C43.845625 26.12886719 44.69125 26.13273437 45.5625 26.13671875 C46.366875 26.13542969 47.17125 26.13414063 48 26.1328125 C49.11375 26.13112061 49.11375 26.13112061 50.25 26.12939453 C52.02825811 26.18942216 52.02825811 26.18942216 53 25 C53.0983721 23.66956375 53.13078592 22.33406656 53.1328125 21 C53.13410156 20.195625 53.13539062 19.39125 53.13671875 18.5625 C53.13091797 17.2940625 53.13091797 17.2940625 53.125 16 C53.12886719 15.154375 53.13273437 14.30875 53.13671875 13.4375 C53.13478516 12.2309375 53.13478516 12.2309375 53.1328125 11 C53.13168457 10.2575 53.13055664 9.515 53.12939453 8.75 C53.18942216 6.97174189 53.18942216 6.97174189 52 6 C50.66956375 5.9016279 49.33406656 5.86921408 48 5.8671875 C47.195625 5.86589844 46.39125 5.86460937 45.5625 5.86328125 C44.716875 5.86714844 43.87125 5.87101563 43 5.875 C42.154375 5.87113281 41.30875 5.86726562 40.4375 5.86328125 C39.633125 5.86457031 38.82875 5.86585938 38 5.8671875 C36.88625 5.86887939 36.88625 5.86887939 35.75 5.87060547 C33.97174189 5.81057784 33.97174189 5.81057784 33 7 Z M8 9 C6.80428614 9.97633465 6.80428614 9.97633465 6.87974548 11.79066467 C6.88196609 12.57009933 6.88418671 13.349534 6.88647461 14.15258789 C6.88655014 15.03342545 6.88662567 15.914263 6.88670349 16.8217926 C6.89186478 17.77907761 6.89702606 18.73636261 6.90234375 19.72265625 C6.9037587 20.69786728 6.90517365 21.67307831 6.90663147 22.67784119 C6.91224867 25.80609143 6.92480407 28.93427123 6.9375 32.0625 C6.94251278 34.17773334 6.94707607 36.29296781 6.95117188 38.40820312 C6.96222369 43.60549296 6.97897854 48.80274145 7 54 C8.32 54 9.64 54 11 54 C11 39.48 11 24.96 11 10 C10.01 9.67 9.02 9.34 8 9 Z M16 9 C14.80428614 9.97633465 14.80428614 9.97633465 14.87974548 11.79066467 C14.88196609 12.57009933 14.88418671 13.349534 14.88647461 14.15258789 C14.88655014 15.03342545 14.88662567 15.914263 14.88670349 16.8217926 C14.89186478 17.77907761 14.89702606 18.73636261 14.90234375 19.72265625 C14.9037587 20.69786728 14.90517365 21.67307831 14.90663147 22.67784119 C14.91224867 25.80609143 14.92480407 28.93427123 14.9375 32.0625 C14.94251278 34.17773334 14.94707607 36.29296781 14.95117188 38.40820312 C14.96222369 43.60549296 14.97897854 48.80274145 15 54 C16.32 54 17.64 54 19 54 C19 39.48 19 24.96 19 10 C18.01 9.67 17.02 9.34 16 9 Z M24 9 C22.80428614 9.97633465 22.80428614 9.97633465 22.87974548 11.79066467 C22.88196609 12.57009933 22.88418671 13.349534 22.88647461 14.15258789 C22.88655014 15.03342545 22.88662567 15.914263 22.88670349 16.8217926 C22.89186478 17.77907761 22.89702606 18.73636261 22.90234375 19.72265625 C22.9037587 20.69786728 22.90517365 21.67307831 22.90663147 22.67784119 C22.91224867 25.80609143 22.92480407 28.93427123 22.9375 32.0625 C22.94251278 34.17773334 22.94707607 36.29296781 22.95117188 38.40820312 C22.96222369 43.60549296 22.97897854 48.80274145 23 54 C24.32 54 25.64 54 27 54 C27 39.48 27 24.96 27 10 C26.01 9.67 25.02 9.34 24 9 Z M32 41 C32 41.66 32 42.32 32 43 C32.66 43 33.32 43 34 43 C34 42.34 34 41.68 34 41 C33.34 41 32.68 41 32 41 Z M40 41 C40 41.66 40 42.32 40 43 C40.66 43 41.32 43 42 43 C42 42.34 42 41.68 42 41 C41.34 41 40.68 41 40 41 Z M48 41 C48 41.66 48 42.32 48 43 C48.66 43 49.32 43 50 43 C50 42.34 50 41.68 50 41 C49.34 41 48.68 41 48 41 Z M32 49 C32 49.66 32 50.32 32 51 C32.66 51 33.32 51 34 51 C34 50.34 34 49.68 34 49 C33.34 49 32.68 49 32 49 Z M40 49 C40 49.66 40 50.32 40 51 C40.66 51 41.32 51 42 51 C42 50.34 42 49.68 42 49 C41.34 49 40.68 49 40 49 Z M48 49 C48 49.66 48 50.32 48 51 C48.66 51 49.32 51 50 51 C50 50.34 50 49.68 50 49 C49.34 49 48.68 49 48 49 Z " fill="#00D0FF" transform="translate(5,0)"/>
<path d="M0 0 C3.96 0 7.92 0 12 0 C12 3.96 12 7.92 12 12 C8.04 12 4.08 12 0 12 C0 8.04 0 4.08 0 0 Z " fill="#00D1FF" transform="translate(42,10)"/>
</svg>
