<?xml version="1.0" encoding="UTF-8"?>
<svg version="1.1" xmlns="http://www.w3.org/2000/svg" width="64" height="54">
<path d="M0 0 C1.53718437 -0.01925285 1.53718437 -0.01925285 3.10542297 -0.03889465 C4.21685165 -0.04628159 5.32828033 -0.05366852 6.47338867 -0.0612793 C7.61289474 -0.06935104 8.75240082 -0.07742279 9.92643738 -0.08573914 C12.34156773 -0.09958792 14.75671772 -0.1103065 17.171875 -0.11816406 C20.86585567 -0.1353792 24.55894214 -0.17925999 28.25268555 -0.22338867 C30.59708 -0.2335151 32.94148206 -0.24203136 35.28588867 -0.2487793 C36.39124466 -0.26628738 37.49660065 -0.28379547 38.63545227 -0.30183411 C46.31575407 -0.28010887 46.31575407 -0.28010887 50.25341797 2.07861328 C54.49186047 6.95080979 53.34018127 13.15998653 53.37402344 19.29785156 C53.39121191 21.47110434 53.43509549 23.64282541 53.47924805 25.81567383 C53.48937768 27.20303246 53.49789294 28.590404 53.50463867 29.9777832 C53.51922119 31.2376001 53.53380371 32.49741699 53.54882812 33.79541016 C52.99840315 37.75589656 51.86684565 39.37020008 49.07885742 42.17700195 C45.89061175 43.77112479 42.4498908 43.27874931 38.95385742 43.23950195 C37.82270508 43.23273437 37.82270508 43.23273437 36.66870117 43.22583008 C34.80538616 43.21403695 32.94211187 43.19610137 31.07885742 43.17700195 C31.07885742 45.15700195 31.07885742 47.13700195 31.07885742 49.17700195 C38.33885742 49.17700195 45.59885742 49.17700195 53.07885742 49.17700195 C53.07885742 50.82700195 53.07885742 52.47700195 53.07885742 54.17700195 C31.95885742 54.17700195 10.83885742 54.17700195 -10.92114258 54.17700195 C-10.92114258 52.52700195 -10.92114258 50.87700195 -10.92114258 49.17700195 C-3.66114258 49.17700195 3.59885742 49.17700195 11.07885742 49.17700195 C11.07885742 47.19700195 11.07885742 45.21700195 11.07885742 43.17700195 C9.98186523 43.2234082 8.88487305 43.26981445 7.75463867 43.31762695 C6.30023892 43.35515985 4.84580959 43.39155838 3.39135742 43.42700195 C2.67012695 43.46051758 1.94889648 43.4940332 1.20581055 43.52856445 C-2.700686 43.59991599 -4.49048592 43.45234914 -7.87817383 41.28637695 C-12.44445809 36.57166662 -11.18218896 30.24433957 -11.21630859 24.05615234 C-11.23349707 21.88289957 -11.27738065 19.7111785 -11.3215332 17.53833008 C-11.33166283 16.15097145 -11.3401781 14.76359991 -11.34692383 13.3762207 C-11.36150635 12.11640381 -11.37608887 10.85658691 -11.39111328 9.55859375 C-10.84068831 5.59810735 -9.7091308 3.98380383 -6.92114258 1.17700195 C-4.44752866 -0.05980501 -2.76710482 0.03012429 0 0 Z M-4.66064453 6.31445312 C-6.47294529 8.99236181 -6.30966051 11.05681212 -6.31958008 14.27075195 C-6.32344727 15.46571289 -6.32731445 16.66067383 -6.33129883 17.8918457 C-6.31969727 19.14094727 -6.3080957 20.39004883 -6.29614258 21.67700195 C-6.30774414 22.92610352 -6.3193457 24.17520508 -6.33129883 25.4621582 C-6.32743164 26.65711914 -6.32356445 27.85208008 -6.31958008 29.08325195 C-6.31619629 30.17959961 -6.3128125 31.27594727 -6.30932617 32.40551758 C-5.86280798 35.59348899 -5.426899 36.2637486 -2.92114258 38.17700195 C-0.70799909 38.63023791 -0.70799909 38.63023791 1.77807617 38.56518555 C2.7291626 38.57464203 3.68024902 38.58409851 4.66015625 38.59384155 C5.68520264 38.58776886 6.71024902 38.58169617 7.76635742 38.57543945 C8.82040771 38.57830963 9.87445801 38.58117981 10.96044922 38.58413696 C13.18970273 38.58617908 15.41897409 38.58063894 17.64819336 38.56811523 C21.06559211 38.55206426 24.48180808 38.56795954 27.89916992 38.5871582 C30.06323504 38.5851758 32.22729942 38.58133218 34.39135742 38.57543945 C35.41640381 38.58151215 36.4414502 38.58758484 37.49755859 38.59384155 C38.92418823 38.57965683 38.92418823 38.57965683 40.37963867 38.56518555 C41.21664307 38.56279877 42.05364746 38.56041199 42.91601562 38.55795288 C45.58516577 38.08782362 46.47259878 37.32939571 48.07885742 35.17700195 C48.54240675 32.32357738 48.54240675 32.32357738 48.47729492 29.08325195 C48.48116211 27.88829102 48.4850293 26.69333008 48.48901367 25.4621582 C48.47741211 24.21305664 48.46581055 22.96395508 48.45385742 21.67700195 C48.46545898 20.42790039 48.47706055 19.17879883 48.48901367 17.8918457 C48.48321289 16.0994043 48.48321289 16.0994043 48.47729492 14.27075195 C48.47391113 13.1744043 48.47052734 12.07805664 48.46704102 10.94848633 C48.28828254 8.19207272 48.28828254 8.19207272 46.81835938 6.31445312 C44.65718775 4.90127437 43.41759951 4.82936914 40.84838867 4.8840332 C40.04594727 4.89370117 39.24350586 4.90336914 38.41674805 4.91333008 C37.58336914 4.9384668 36.74999023 4.96360352 35.89135742 4.98950195 C34.62388672 5.00980469 34.62388672 5.00980469 33.33081055 5.03051758 C31.24655358 5.06584397 29.16262465 5.11965056 27.07885742 5.17700195 C29.05009932 6.17798893 31.01779319 7.15029394 33.04370117 8.03637695 C38.07707749 10.30887161 40.83110085 12.71133667 44.07885742 17.17700195 C42.32104492 17.8527832 42.32104492 17.8527832 40.07885742 18.17700195 C38.14916992 17.0324707 38.14916992 17.0324707 36.20385742 15.36450195 C30.60646354 10.92980202 25.7585398 9.70742969 18.66870117 9.85668945 C12.02693023 10.67814529 6.41666711 14.34472833 1.07885742 18.17700195 C0.41885742 17.18700195 -0.24114258 16.19700195 -0.92114258 15.17700195 C3.92148688 10.58924773 8.81917793 8.3913945 15.07885742 6.17700195 C15.07885742 5.84700195 15.07885742 5.51700195 15.07885742 5.17700195 C12.14080747 5.09613819 9.20497668 5.03657366 6.26635742 4.98950195 C5.43297852 4.96436523 4.59959961 4.93922852 3.7409668 4.91333008 C2.93852539 4.90366211 2.13608398 4.89399414 1.30932617 4.8840332 C0.57093506 4.86832275 -0.16745605 4.8526123 -0.92822266 4.83642578 C-2.980563 5.05093736 -2.980563 5.05093736 -4.66064453 6.31445312 Z " fill="#00D0FF" transform="translate(10.921142578125,-0.177001953125)"/>
<path d="M0 0 C1.9375 2.25 1.9375 2.25 3 4 C0.875 5.25 0.875 5.25 -2 6 C-2.86625 5.38125 -3.7325 4.7625 -4.625 4.125 C-9.37386015 1.13497694 -13.5170638 1.1552453 -19 2 C-21.12069997 2.91727703 -21.12069997 2.91727703 -22.9375 4.125 C-23.948125 4.74375 -24.95875 5.3625 -26 6 C-28.4375 5.25 -28.4375 5.25 -30 4 C-28.74666294 0.10072914 -26.33020312 -1.33073082 -22.78515625 -3.1796875 C-14.91376739 -6.79673709 -6.82220752 -4.77554527 0 0 Z " fill="#00D0FF" transform="translate(46,18)"/>
<path d="M0 0 C3 1.25 3 1.25 5 3 C5 4.32 5 5.64 5 7 C3.68 7 2.36 7 1 7 C1 7.33 1 7.66 1 8 C0.14634146 13.85365854 0.14634146 13.85365854 -1 15 C-3.375 15.375 -3.375 15.375 -6 15 C-7.81883009 12.6167054 -9 11.04181663 -9 8 C-10.32 7.34 -11.64 6.68 -13 6 C-13 5.01 -13 4.02 -13 3 C-8.98751872 -0.38553108 -5.02381591 -0.74952092 0 0 Z M-6 5 C-6 5.33 -6 5.66 -6 6 C-4.35 6 -2.7 6 -1 6 C-1 5.67 -1 5.34 -1 5 C-2.65 5 -4.3 5 -6 5 Z " fill="#00D0FF" transform="translate(36,22)"/>
</svg>
