<?xml version="1.0" encoding="UTF-8"?>
<svg version="1.1" xmlns="http://www.w3.org/2000/svg" width="64" height="24">
<path d="M0 0 C21.12 0 42.24 0 64 0 C64 7.92 64 15.84 64 24 C62.68 24 61.36 24 60 24 C60 22.68 60 21.36 60 20 C58.68 20 57.36 20 56 20 C56 21.32 56 22.64 56 24 C54.68 24 53.36 24 52 24 C52 22.68 52 21.36 52 20 C50.68 20 49.36 20 48 20 C48 21.32 48 22.64 48 24 C46.68 24 45.36 24 44 24 C44 22.68 44 21.36 44 20 C42.68 20 41.36 20 40 20 C40 21.32 40 22.64 40 24 C38.68 24 37.36 24 36 24 C36 22.68 36 21.36 36 20 C34.68 20 33.36 20 32 20 C32 21.32 32 22.64 32 24 C30.68 24 29.36 24 28 24 C28 22.68 28 21.36 28 20 C26.68 20 25.36 20 24 20 C24 21.32 24 22.64 24 24 C19.44615385 24.36923077 19.44615385 24.36923077 17.1875 22.5 C16.795625 22.005 16.40375 21.51 16 21 C15.4225 21.495 14.845 21.99 14.25 22.5 C12 24 12 24 8 24 C8 22.68 8 21.36 8 20 C6.68 20 5.36 20 4 20 C4 21.32 4 22.64 4 24 C2.68 24 1.36 24 0 24 C0 16.08 0 8.16 0 0 Z M4 4 C4 7.96 4 11.92 4 16 C6.64 16 9.28 16 12 16 C12 12.04 12 8.08 12 4 C9.36 4 6.72 4 4 4 Z M20 4 C20 7.96 20 11.92 20 16 C22.64 16 25.28 16 28 16 C28 12.04 28 8.08 28 4 C25.36 4 22.72 4 20 4 Z M36 4 C36 7.96 36 11.92 36 16 C38.64 16 41.28 16 44 16 C44 12.04 44 8.08 44 4 C41.36 4 38.72 4 36 4 Z M52 4 C52 7.96 52 11.92 52 16 C54.64 16 57.28 16 60 16 C60 12.04 60 8.08 60 4 C57.36 4 54.72 4 52 4 Z " fill="#00D0FF" transform="translate(0,0)"/>
</svg>
