<?xml version="1.0" encoding="UTF-8"?>
<svg version="1.1" xmlns="http://www.w3.org/2000/svg" width="58" height="64">
<path d="M0 0 C3.51354325 0.06800406 4.63487005 0.34277758 7.75 2.25 C9.6875 4.375 9.6875 4.375 9.6875 6.375 C10.79609375 6.32859375 11.9046875 6.2821875 13.046875 6.234375 C14.51038968 6.19684898 15.97393356 6.16044971 17.4375 6.125 C18.53191406 6.07472656 18.53191406 6.07472656 19.6484375 6.0234375 C22.81259952 5.96590728 25.15373802 6.05524942 27.8996582 7.70019531 C30.79030869 12.02492107 30.23744505 16.47889908 30.18359375 21.5625 C30.18504898 22.65715576 30.18650421 23.75181152 30.18800354 24.87963867 C30.18634432 27.19289818 30.17478062 29.5061687 30.15405273 31.81933594 C30.12510782 35.36180473 30.13344225 38.90277643 30.14648438 42.4453125 C30.14024671 44.69271561 30.13185555 46.940114 30.12109375 49.1875 C30.12402939 50.24799561 30.12696503 51.30849121 30.12998962 52.40112305 C30.11096336 53.88286011 30.11096336 53.88286011 30.09155273 55.39453125 C30.08614975 56.26182861 30.08074677 57.12912598 30.07518005 58.02270508 C29.59036198 60.96439648 28.83766155 62.31044126 26.6875 64.375 C24.37280273 64.87620544 24.37280273 64.87620544 21.62109375 64.87670898 C20.58992432 64.88608994 19.55875488 64.89547089 18.49633789 64.90513611 C17.38379639 64.89390213 16.27125488 64.88266815 15.125 64.87109375 C13.98216553 64.87254898 12.83933105 64.87400421 11.66186523 64.87550354 C9.24427747 64.87384266 6.82667934 64.8622604 4.40917969 64.84155273 C0.70201855 64.81261334 -3.0037122 64.8209377 -6.7109375 64.83398438 C-9.05729864 64.82774682 -11.40365525 64.81935576 -13.75 64.80859375 C-15.41881226 64.81299721 -15.41881226 64.81299721 -17.12133789 64.81748962 C-18.15250732 64.80480545 -19.18367676 64.79212128 -20.24609375 64.77905273 C-21.15415771 64.77364975 -22.06222168 64.76824677 -22.99780273 64.76268005 C-25.3125 64.375 -25.3125 64.375 -27.10389709 63.16639709 C-28.71732002 60.77497379 -28.69943784 59.18504392 -28.71655273 56.30859375 C-28.73557899 54.7618396 -28.73557899 54.7618396 -28.75498962 53.18383789 C-28.75205399 52.07129639 -28.74911835 50.95875488 -28.74609375 49.8125 C-28.7513356 48.66966553 -28.75657745 47.52683105 -28.76197815 46.34936523 C-28.76840496 43.93181166 -28.76705289 41.51422684 -28.75854492 39.09667969 C-28.75003309 35.38941022 -28.77879268 31.68367971 -28.81054688 27.9765625 C-28.81215882 25.6302088 -28.81158148 23.28385235 -28.80859375 20.9375 C-28.81982773 19.8249585 -28.83106171 18.71241699 -28.84263611 17.56616211 C-28.83325516 16.53499268 -28.82387421 15.50382324 -28.81420898 14.44140625 C-28.81404282 13.53334229 -28.81387665 12.62527832 -28.81370544 11.68969727 C-28.3125 9.375 -28.3125 9.375 -26.52430725 7.57666016 C-23.15603527 5.74670041 -19.78809623 6.05914465 -16.0625 6.1875 C-15.31742188 6.20103516 -14.57234375 6.21457031 -13.8046875 6.22851562 C-11.97364584 6.26372796 -10.14297831 6.31753149 -8.3125 6.375 C-7.879375 5.446875 -7.879375 5.446875 -7.4375 4.5 C-5.47065707 0.78485224 -4.06753752 0.06836198 0 0 Z M-1.3125 7.375 C-1.6425 8.695 -1.9725 10.015 -2.3125 11.375 C0.1625 11.87 0.1625 11.87 2.6875 12.375 C3.0175 11.385 3.3475 10.395 3.6875 9.375 C3.0275 8.715 2.3675 8.055 1.6875 7.375 C0.6975 7.375 -0.2925 7.375 -1.3125 7.375 Z M-21.3125 13.375 C-21.3125 27.895 -21.3125 42.415 -21.3125 57.375 C-6.7925 57.375 7.7275 57.375 22.6875 57.375 C22.6875 42.855 22.6875 28.335 22.6875 13.375 C20.7075 13.375 18.7275 13.375 16.6875 13.375 C16.6875 15.685 16.6875 17.995 16.6875 20.375 C5.7975 20.375 -5.0925 20.375 -16.3125 20.375 C-16.3125 18.065 -16.3125 15.755 -16.3125 13.375 C-17.9625 13.375 -19.6125 13.375 -21.3125 13.375 Z " fill="#00D0FF" transform="translate(28.3125,-0.375)"/>
<path d="M0 0 C2.31 0 4.62 0 7 0 C7 4.95 7 9.9 7 15 C4.69 15 2.38 15 0 15 C0 10.05 0 5.1 0 0 Z " fill="#00D0FF" transform="translate(25,25)"/>
<path d="M0 0 C2.31 0 4.62 0 7 0 C7 2.64 7 5.28 7 8 C4.69 8 2.38 8 0 8 C0 5.36 0 2.72 0 0 Z " fill="#00D0FF" transform="translate(25,44)"/>
</svg>
