<?xml version="1.0" encoding="UTF-8"?>
<svg version="1.1" xmlns="http://www.w3.org/2000/svg" width="47" height="64">
<path d="M0 0 C11.3540625 -0.0309375 11.3540625 -0.0309375 22.9375 -0.0625 C25.32991943 -0.071604 27.72233887 -0.08070801 30.18725586 -0.09008789 C32.07145125 -0.09300692 33.95564727 -0.09555551 35.83984375 -0.09765625 C37.32200378 -0.1053302 37.32200378 -0.1053302 38.83410645 -0.11315918 C39.76791138 -0.11328003 40.70171631 -0.11340088 41.66381836 -0.11352539 C42.47878281 -0.115746 43.29374725 -0.11796661 44.13340759 -0.12025452 C46 -0 46 -0 47 1 C47.09899561 2.80509373 47.12799151 4.61406928 47.12939453 6.421875 C47.13254669 7.57977539 47.13569885 8.73767578 47.13894653 9.93066406 C47.1369223 11.19104492 47.13489807 12.45142578 47.1328125 13.75 C47.13376923 15.03358398 47.13472595 16.31716797 47.13571167 17.63964844 C47.13718831 20.36003824 47.13503519 23.08039525 47.13037109 25.80078125 C47.12467381 29.29484669 47.12795299 32.78883533 47.13394356 36.28289795 C47.13841754 39.60527153 47.13528885 42.92762423 47.1328125 46.25 C47.13483673 47.51038086 47.13686096 48.77076172 47.13894653 50.06933594 C47.13421829 51.80618652 47.13421829 51.80618652 47.12939453 53.578125 C47.12859894 54.60325195 47.12780334 55.62837891 47.12698364 56.68457031 C47 59 47 59 46 60 C44.53581173 60.12041574 43.06645076 60.17947467 41.59765625 60.2109375 C40.70755859 60.23929688 39.81746094 60.26765625 38.90039062 60.296875 C37.01256604 60.34884539 35.12451445 60.39315038 33.23632812 60.4296875 C32.34494141 60.460625 31.45355469 60.4915625 30.53515625 60.5234375 C29.30357788 60.5531665 29.30357788 60.5531665 28.04711914 60.58349609 C25.60427294 60.83010824 25.60427294 60.83010824 24 64 C16.08 64 8.16 64 0 64 C0 42.88 0 21.76 0 0 Z M8.19921875 15.28125 C5.49697112 19.1541782 5.44049928 23.45912461 6 28 C7.3750042 32.76434575 9.58821148 36.09906898 13.625 39 C18.33123208 41.58536027 22.75176924 41.92464751 28 41 C32.8551852 39.2613813 36.15201892 36.27197162 39 32 C40.67517931 26.97446208 41.00081137 21.74521623 39.1640625 16.70703125 C36.27768206 11.54447831 32.67661853 8.66835924 27 7 C18.53258207 5.61788863 13.40528338 9.0503695 8.19921875 15.28125 Z M6 49 C6 50.32 6 51.64 6 53 C7.32 52.67 8.64 52.34 10 52 C9.67 51.01 9.34 50.02 9 49 C8.01 49 7.02 49 6 49 Z M17 49 C17 50.32 17 51.64 17 53 C18.32 52.67 19.64 52.34 21 52 C20.67 51.01 20.34 50.02 20 49 C19.01 49 18.02 49 17 49 Z M28 49 C28 50.32 28 51.64 28 53 C29.32 52.67 30.64 52.34 32 52 C31.67 51.01 31.34 50.02 31 49 C30.01 49 29.02 49 28 49 Z " fill="#00D0FF" transform="translate(0,0)"/>
<path d="M0 0 C5.57894737 3.15789474 5.57894737 3.15789474 7 6 C7.5811138 13.08958838 7.5811138 13.08958838 5.125 16.9375 C1.89661432 20.07093316 -0.44929709 20.39218693 -4.9609375 20.359375 C-8.38006698 19.7567698 -9.93189052 17.63213933 -12 15 C-13.41000664 12.17998673 -13.24548451 10.12992745 -13 7 C-11.72311154 4.19084539 -10.68900183 2.49893236 -8.1875 0.6875 C-5.22019177 -0.24508259 -3.10315844 -0.37237901 0 0 Z " fill="#00D0FF" transform="translate(26,14)"/>
</svg>
